  0
SECTION
  2
HEADER
  9
$ACADVER
  1
AC1009
  9
$DWGCODEPAGE
  3
ansi_1252
  9
$INSBASE
 10
0.0
 20
0.0
 30
0.0
  9
$EXTMIN
 10
-1.294665354330709
 20
-0.9223228346456693
 30
0.0
  9
$EXTMAX
 10
1.294661417322835
 20
0.9223228346456693
 30
0.0
  9
$LIMMIN
 10
0.0
 20
0.0
  9
$LIMMAX
 10
12.0
 20
9.0
  9
$ORTHOMODE
 70
     0
  9
$REGENMODE
 70
     1
  9
$FILLMODE
 70
     1
  9
$QTEXTMODE
 70
     0
  9
$MIRRTEXT
 70
     1
  9
$DRAGMODE
 70
     2
  9
$LTSCALE
 40
1.0
  9
$OSMODE
 70
    37
  9
$ATTMODE
 70
     1
  9
$TEXTSIZE
 40
0.2
  9
$TRACEWID
 40
0.05
  9
$TEXTSTYLE
  7
STANDARD
  9
$CLAYER
  8
0
  9
$CELTYPE
  6
BYLAYER
  9
$CECOLOR
 62
   256
  9
$DIMSCALE
 40
1.0
  9
$DIMASZ
 40
0.18
  9
$DIMEXO
 40
0.0625
  9
$DIMDLI
 40
0.38
  9
$DIMRND
 40
0.0
  9
$DIMDLE
 40
0.0
  9
$DIMEXE
 40
0.18
  9
$DIMTP
 40
0.0
  9
$DIMTM
 40
0.0
  9
$DIMTXT
 40
0.18
  9
$DIMCEN
 40
0.09
  9
$DIMTSZ
 40
0.0
  9
$DIMTOL
 70
     0
  9
$DIMLIM
 70
     0
  9
$DIMTIH
 70
     1
  9
$DIMTOH
 70
     1
  9
$DIMSE1
 70
     0
  9
$DIMSE2
 70
     0
  9
$DIMTAD
 70
     0
  9
$DIMZIN
 70
     0
  9
$DIMBLK
  1

  9
$DIMASO
 70
     1
  9
$DIMSHO
 70
     1
  9
$DIMPOST
  1

  9
$DIMAPOST
  1

  9
$DIMALT
 70
     0
  9
$DIMALTD
 70
     2
  9
$DIMALTF
 40
25.4
  9
$DIMLFAC
 40
1.0
  9
$DIMTOFL
 70
     0
  9
$DIMTVP
 40
0.0
  9
$DIMTIX
 70
     0
  9
$DIMSOXD
 70
     0
  9
$DIMSAH
 70
     0
  9
$DIMBLK1
  1

  9
$DIMBLK2
  1

  9
$DIMSTYLE
  2
STANDARD
  9
$DIMCLRD
 70
     0
  9
$DIMCLRE
 70
     0
  9
$DIMCLRT
 70
     0
  9
$DIMTFAC
 40
1.0
  9
$DIMGAP
 40
0.09
  9
$LUNITS
 70
     2
  9
$LUPREC
 70
     4
  9
$SKETCHINC
 40
0.1
  9
$FILLETRAD
 40
0.0
  9
$AUNITS
 70
     0
  9
$AUPREC
 70
     0
  9
$MENU
  1
.
  9
$ELEVATION
 40
0.0
  9
$PELEVATION
 40
0.0
  9
$THICKNESS
 40
0.0
  9
$LIMCHECK
 70
     0
  9
$CHAMFERA
 40
0.0
  9
$CHAMFERB
 40
0.0
  9
$SKPOLY
 70
     0
  9
$TDCREATE
 40
2460788.929829688
  9
$TDUPDATE
 40
2460859.518182859
  9
$TDINDWG
 40
0.0000000116
  9
$TDUSRTIMER
 40
0.0000000116
  9
$USRTIMER
 70
     1
  9
$ANGBASE
 50
0.0
  9
$ANGDIR
 70
     0
  9
$PDMODE
 70
     0
  9
$PDSIZE
 40
0.0
  9
$PLINEWID
 40
0.0
  9
$COORDS
 70
     1
  9
$SPLFRAME
 70
     0
  9
$SPLINETYPE
 70
     6
  9
$SPLINESEGS
 70
     8
  9
$ATTDIA
 70
     1
  9
$ATTREQ
 70
     1
  9
$HANDLING
 70
     1
  9
$HANDSEED
  5
94D
  9
$SURFTAB1
 70
     6
  9
$SURFTAB2
 70
     6
  9
$SURFTYPE
 70
     6
  9
$SURFU
 70
     6
  9
$SURFV
 70
     6
  9
$UCSNAME
  2

  9
$UCSORG
 10
0.0
 20
0.0
 30
0.0
  9
$UCSXDIR
 10
1.0
 20
0.0
 30
0.0
  9
$UCSYDIR
 10
0.0
 20
1.0
 30
0.0
  9
$PUCSNAME
  2

  9
$PUCSORG
 10
0.0
 20
0.0
 30
0.0
  9
$PUCSXDIR
 10
1.0
 20
0.0
 30
0.0
  9
$PUCSYDIR
 10
0.0
 20
1.0
 30
0.0
  9
$USERI1
 70
     0
  9
$USERI2
 70
     0
  9
$USERI3
 70
     0
  9
$USERI4
 70
     0
  9
$USERI5
 70
     0
  9
$USERR1
 40
0.0
  9
$USERR2
 40
0.0
  9
$USERR3
 40
0.0
  9
$USERR4
 40
0.0
  9
$USERR5
 40
0.0
  9
$WORLDVIEW
 70
     1
  9
$SHADEDGE
 70
     3
  9
$SHADEDIF
 70
    70
  9
$TILEMODE
 70
     1
  9
$MAXACTVP
 70
    64
  9
$PLIMCHECK
 70
     0
  9
$PEXTMIN
 10
1.000000000000000E+20
 20
1.000000000000000E+20
 30
1.000000000000000E+20
  9
$PEXTMAX
 10
-1.000000000000000E+20
 20
-1.000000000000000E+20
 30
-1.000000000000000E+20
  9
$PLIMMIN
 10
0.0
 20
0.0
  9
$PLIMMAX
 10
12.0
 20
9.0
  9
$UNITMODE
 70
     0
  9
$VISRETAIN
 70
     1
  9
$PLINEGEN
 70
     0
  9
$PSLTSCALE
 70
     1
  0
ENDSEC
  0
SECTION
  2
TABLES
  0
TABLE
  2
VPORT
 70
     1
  0
VPORT
  2
*ACTIVE
 70
     0
 10
0.0
 20
0.0
 11
1.0
 21
1.0
 12
10.42990654205607
 22
4.5
 13
0.0
 23
0.0
 14
0.5
 24
0.5
 15
0.5
 25
0.5
 16
0.0
 26
0.0
 36
1.0
 17
0.0
 27
0.0
 37
0.0
 40
9.0
 41
1.972972972850329
 42
50.0
 43
0.0
 44
0.0
 50
0.0
 51
0.0
 71
     0
 72
   100
 73
     1
 74
     3
 75
     0
 76
     0
 77
     0
 78
     0
  0
ENDTAB
  0
TABLE
  2
LTYPE
 70
     1
  0
LTYPE
  2
CONTINUOUS
 70
     0
  3
Solid line
 72
    65
 73
     0
 40
0.0
  0
ENDTAB
  0
TABLE
  2
LAYER
 70
     2
  0
LAYER
  2
0
 70
     0
 62
     7
  6
CONTINUOUS
  0
LAYER
  2
LAYER_1
 70
     0
 62
     7
  6
CONTINUOUS
  0
ENDTAB
  0
TABLE
  2
STYLE
 70
     1
  0
STYLE
  2
STANDARD
 70
     0
 40
0.0
 41
1.0
 50
0.0
 71
     0
 42
0.2
  3
txt
  4

  0
ENDTAB
  0
TABLE
  2
VIEW
 70
     0
  0
ENDTAB
  0
TABLE
  2
UCS
 70
     0
  0
ENDTAB
  0
TABLE
  2
APPID
 70
     3
  0
APPID
  2
ACAD
 70
     0
  0
APPID
  2
ODA
 70
     0
  0
APPID
  2
ACAD_MLEADERVER
 70
     0
  0
ENDTAB
  0
TABLE
  2
DIMSTYLE
 70
     1
  0
DIMSTYLE
  2
STANDARD
 70
     0
  3

  4

  5

  6

  7

 40
1.0
 41
0.18
 42
0.0625
 43
0.38
 44
0.18
 45
0.0
 46
0.0
 47
0.0
 48
0.0
140
0.18
141
0.09
142
0.0
143
25.4
144
1.0
145
0.0
146
1.0
147
0.09
 71
     0
 72
     0
 73
     1
 74
     1
 75
     0
 76
     0
 77
     0
 78
     0
170
     0
171
     2
172
     0
173
     0
174
     0
175
     0
176
     0
177
     0
178
     0
  0
ENDTAB
  0
ENDSEC
  0
SECTION
  2
BLOCKS
  0
BLOCK
  8
0
  2
$MODEL_SPACE
 70
     0
 10
0.0
 20
0.0
 30
0.0
  3
$MODEL_SPACE
  1

  0
ENDBLK
  5
21
  8
0
  0
BLOCK
 67
     1
  8
0
  2
$PAPER_SPACE
 70
     0
 10
0.0
 20
0.0
 30
0.0
  3
$PAPER_SPACE
  1

  0
ENDBLK
  5
1D
 67
     1
  8
0
  0
ENDSEC
  0
SECTION
  2
ENTITIES
  0
POLYLINE
  5
60
  8
LAYER_1
 66
     1
 10
0.0
 20
0.0
 30
0.0
 70
     1
  0
VERTEX
  5
C2
  8
LAYER_1
 10
0.0
 20
-0.9188543307086614
 30
0.0
  0
VERTEX
  5
C3
  8
LAYER_1
 10
0.0065381585602581
 20
-0.9121782771945175
 30
0.0
  0
VERTEX
  5
C4
  8
LAYER_1
 10
0.02540541611986
 20
-0.8929130941965588
 30
0.0
  0
VERTEX
  5
C5
  8
LAYER_1
 10
0.0554809454970472
 20
-0.8622032480314958
 30
0.0
  0
VERTEX
  5
C6
  8
LAYER_1
 10
0.0956439195100612
 20
-0.8211932050160395
 30
0.0
  0
VERTEX
  5
C7
  8
LAYER_1
 10
0.1447735109771434
 20
-0.7710274314669001
 30
0.0
  0
VERTEX
  5
C8
  8
LAYER_1
 10
0.2017488927165354
 20
-0.7128503937007874
 30
0.0
  0
VERTEX
  5
C9
  8
LAYER_1
 10
0.2654492375464786
 20
-0.6478065580344124
 30
0.0
  0
VERTEX
  5
CA
  8
LAYER_1
 10
0.3347537182852144
 20
-0.5770403907844854
 30
0.0
  0
VERTEX
  5
CB
  8
LAYER_1
 10
0.4085415077509842
 20
-0.5016963582677165
 30
0.0
  0
VERTEX
  5
CC
  8
LAYER_1
 10
0.4856917787620298
 20
-0.4229189268008166
 30
0.0
  0
VERTEX
  5
CD
  8
LAYER_1
 10
0.5650837041365925
 20
-0.3418525627004959
 30
0.0
  0
VERTEX
  5
CE
  8
LAYER_1
 10
0.6455964566929135
 20
-0.2596417322834645
 30
0.0
  0
VERTEX
  5
CF
  8
LAYER_1
 10
0.7261092092492346
 20
-0.1774309018664334
 30
0.0
  0
VERTEX
  5
D0
  8
LAYER_1
 10
0.8055011346237972
 20
-0.0963645377661125
 30
0.0
  0
VERTEX
  5
D1
  8
LAYER_1
 10
0.8826514056348427
 20
-0.0175871062992126
 30
0.0
  0
VERTEX
  5
D2
  8
LAYER_1
 10
0.9564391951006126
 20
0.0577569262175561
 30
0.0
  0
VERTEX
  5
D3
  8
LAYER_1
 10
1.025743675839349
 20
0.1285230934674833
 30
0.0
  0
VERTEX
  5
D4
  8
LAYER_1
 10
1.089444020669291
 20
0.1935669291338582
 30
0.0
  0
VERTEX
  5
D5
  8
LAYER_1
 10
1.146419402408684
 20
0.2517439668999709
 30
0.0
  0
VERTEX
  5
D6
  8
LAYER_1
 10
1.195548993875766
 20
0.3019097404491105
 30
0.0
  0
VERTEX
  5
D7
  8
LAYER_1
 10
1.23571196788878
 20
0.342919783464567
 30
0.0
  0
VERTEX
  5
D8
  8
LAYER_1
 10
1.265787497265967
 20
0.3736296296296296
 30
0.0
  0
VERTEX
  5
D9
  8
LAYER_1
 10
1.284654754825569
 20
0.3928948126275882
 30
0.0
  0
VERTEX
  5
DA
  8
LAYER_1
 10
1.291192913385827
 20
0.3995708661417323
 30
0.0
  0
VERTEX
  5
DB
  8
LAYER_1
 10
1.288273216498979
 20
0.4022003197679718
 30
0.0
  0
VERTEX
  5
DC
  8
LAYER_1
 10
1.279847805482649
 20
0.4097881716608342
 30
0.0
  0
VERTEX
  5
DD
  8
LAYER_1
 10
1.26641719980315
 20
0.4218836583415355
 30
0.0
  0
VERTEX
  5
DE
  8
LAYER_1
 10
1.248481918926801
 20
0.438036016331292
 30
0.0
  0
VERTEX
  5
DF
  8
LAYER_1
 10
1.226542482319918
 20
0.4577944821513197
 30
0.0
  0
VERTEX
  5
E0
  8
LAYER_1
 10
1.201099409448819
 20
0.4807082923228348
 30
0.0
  0
VERTEX
  5
E1
  8
LAYER_1
 10
1.172653219779819
 20
0.5063266833670532
 30
0.0
  0
VERTEX
  5
E2
  8
LAYER_1
 10
1.141704432779236
 20
0.5341988918051913
 30
0.0
  0
VERTEX
  5
E3
  8
LAYER_1
 10
1.108753567913386
 20
0.5638741541584649
 30
0.0
  0
VERTEX
  5
E4
  8
LAYER_1
 10
1.074301144648586
 20
0.5949017069480902
 30
0.0
  0
VERTEX
  5
E5
  8
LAYER_1
 10
1.038847682451152
 20
0.6268307866952834
 30
0.0
  0
VERTEX
  5
E6
  8
LAYER_1
 10
1.002893700787401
 20
0.6592106299212601
 30
0.0
  0
VERTEX
  5
E7
  8
LAYER_1
 10
0.9669397191236512
 20
0.691590473147237
 30
0.0
  0
VERTEX
  5
E8
  8
LAYER_1
 10
0.9314862569262177
 20
0.7235195528944299
 30
0.0
  0
VERTEX
  5
E9
  8
LAYER_1
 10
0.8970338336614176
 20
0.7545471056840551
 30
0.0
  0
VERTEX
  5
EA
  8
LAYER_1
 10
0.8640829687955676
 20
0.7842223680373286
 30
0.0
  0
VERTEX
  5
EB
  8
LAYER_1
 10
0.8331341817949844
 20
0.8120945764754662
 30
0.0
  0
VERTEX
  5
EC
  8
LAYER_1
 10
0.8046879921259846
 20
0.8377129675196847
 30
0.0
  0
VERTEX
  5
ED
  8
LAYER_1
 10
0.7792449192548851
 20
0.8606267776911998
 30
0.0
  0
VERTEX
  5
EE
  8
LAYER_1
 10
0.7573054826480028
 20
0.8803852435112274
 30
0.0
  0
VERTEX
  5
EF
  8
LAYER_1
 10
0.7393702017716539
 20
0.8965376015009839
 30
0.0
  0
VERTEX
  5
F0
  8
LAYER_1
 10
0.7259395960921554
 20
0.9086330881816853
 30
0.0
  0
VERTEX
  5
F1
  8
LAYER_1
 10
0.717514185075824
 20
0.9162209400745477
 30
0.0
  0
VERTEX
  5
F2
  8
LAYER_1
 10
0.7145944881889764
 20
0.9188503937007874
 30
0.0
  0
VERTEX
  5
F3
  8
LAYER_1
 10
0.710976026515566
 20
0.9188503937007874
 30
0.0
  0
VERTEX
  5
F4
  8
LAYER_1
 10
0.7005341799722957
 20
0.9188503937007872
 30
0.0
  0
VERTEX
  5
F5
  8
LAYER_1
 10
0.6838892562746072
 20
0.9188503937007874
 30
0.0
  0
VERTEX
  5
F6
  8
LAYER_1
 10
0.6616615631379423
 20
0.9188503937007872
 30
0.0
  0
VERTEX
  5
F7
  8
LAYER_1
 10
0.6344714082777427
 20
0.9188503937007874
 30
0.0
  0
VERTEX
  5
F8
  8
LAYER_1
 10
0.6029390994094506
 20
0.9188503937007872
 30
0.0
  0
VERTEX
  5
F9
  8
LAYER_1
 10
0.5676849442485075
 20
0.9188503937007872
 30
0.0
  0
VERTEX
  5
FA
  8
LAYER_1
 10
0.5293292505103552
 20
0.9188503937007871
 30
0.0
  0
VERTEX
  5
FB
  8
LAYER_1
 10
0.4884923259104357
 20
0.9188503937007872
 30
0.0
  0
VERTEX
  5
FC
  8
LAYER_1
 10
0.4457944781641907
 20
0.9188503937007872
 30
0.0
  0
VERTEX
  5
FD
  8
LAYER_1
 10
0.401856014987062
 20
0.9188503937007872
 30
0.0
  0
VERTEX
  5
FE
  8
LAYER_1
 10
0.3572972440944914
 20
0.9188503937007871
 30
0.0
  0
VERTEX
  5
FF
  8
LAYER_1
 10
0.3127384732019211
 20
0.9188503937007874
 30
0.0
  0
VERTEX
  5
100
  8
LAYER_1
 10
0.2688000100247923
 20
0.9188503937007874
 30
0.0
  0
VERTEX
  5
101
  8
LAYER_1
 10
0.226102162278547
 20
0.9188503937007874
 30
0.0
  0
VERTEX
  5
102
  8
LAYER_1
 10
0.1852652376786272
 20
0.9188503937007875
 30
0.0
  0
VERTEX
  5
103
  8
LAYER_1
 10
0.1469095439404745
 20
0.9188503937007875
 30
0.0
  0
VERTEX
  5
104
  8
LAYER_1
 10
0.1116553887795309
 20
0.9188503937007874
 30
0.0
  0
VERTEX
  5
105
  8
LAYER_1
 10
0.0801230799112381
 20
0.9188503937007875
 30
0.0
  0
VERTEX
  5
106
  8
LAYER_1
 10
0.0529329250510379
 20
0.9188503937007874
 30
0.0
  0
VERTEX
  5
107
  8
LAYER_1
 10
0.0307052319143722
 20
0.9188503937007874
 30
0.0
  0
VERTEX
  5
108
  8
LAYER_1
 10
0.0140603082166828
 20
0.9188503937007874
 30
0.0
  0
VERTEX
  5
109
  8
LAYER_1
 10
0.0036184616734114
 20
0.9188503937007874
 30
0.0
  0
VERTEX
  5
10A
  8
LAYER_1
 10
0.0
 20
0.9188503937007877
 30
0.0
  0
VERTEX
  5
10B
  8
LAYER_1
 10
-0.0036184616734098
 20
0.9188503937007875
 30
0.0
  0
VERTEX
  5
10C
  8
LAYER_1
 10
-0.0140603082166796
 20
0.9188503937007876
 30
0.0
  0
VERTEX
  5
10D
  8
LAYER_1
 10
-0.0307052319143677
 20
0.9188503937007875
 30
0.0
  0
VERTEX
  5
10E
  8
LAYER_1
 10
-0.0529329250510322
 20
0.9188503937007874
 30
0.0
  0
VERTEX
  5
10F
  8
LAYER_1
 10
-0.0801230799112313
 20
0.9188503937007875
 30
0.0
  0
VERTEX
  5
110
  8
LAYER_1
 10
-0.1116553887795232
 20
0.9188503937007874
 30
0.0
  0
VERTEX
  5
111
  8
LAYER_1
 10
-0.146909543940466
 20
0.9188503937007875
 30
0.0
  0
VERTEX
  5
112
  8
LAYER_1
 10
-0.1852652376786181
 20
0.9188503937007875
 30
0.0
  0
VERTEX
  5
113
  8
LAYER_1
 10
-0.2261021622785374
 20
0.9188503937007875
 30
0.0
  0
VERTEX
  5
114
  8
LAYER_1
 10
-0.2688000100247823
 20
0.9188503937007875
 30
0.0
  0
VERTEX
  5
115
  8
LAYER_1
 10
-0.3127384732019109
 20
0.9188503937007874
 30
0.0
  0
VERTEX
  5
116
  8
LAYER_1
 10
-0.3572972440944814
 20
0.9188503937007871
 30
0.0
  0
VERTEX
  5
117
  8
LAYER_1
 10
-0.401856014987052
 20
0.9188503937007872
 30
0.0
  0
VERTEX
  5
118
  8
LAYER_1
 10
-0.445794478164181
 20
0.9188503937007872
 30
0.0
  0
VERTEX
  5
119
  8
LAYER_1
 10
-0.4884923259104264
 20
0.9188503937007875
 30
0.0
  0
VERTEX
  5
11A
  8
LAYER_1
 10
-0.5293292505103464
 20
0.9188503937007875
 30
0.0
  0
VERTEX
  5
11B
  8
LAYER_1
 10
-0.5676849442484992
 20
0.9188503937007875
 30
0.0
  0
VERTEX
  5
11C
  8
LAYER_1
 10
-0.6029390994094431
 20
0.9188503937007872
 30
0.0
  0
VERTEX
  5
11D
  8
LAYER_1
 10
-0.6344714082777362
 20
0.9188503937007874
 30
0.0
  0
VERTEX
  5
11E
  8
LAYER_1
 10
-0.6616615631379367
 20
0.9188503937007874
 30
0.0
  0
VERTEX
  5
11F
  8
LAYER_1
 10
-0.6838892562746028
 20
0.9188503937007874
 30
0.0
  0
VERTEX
  5
120
  8
LAYER_1
 10
-0.7005341799722927
 20
0.9188503937007874
 30
0.0
  0
VERTEX
  5
121
  8
LAYER_1
 10
-0.7109760265155645
 20
0.9188503937007872
 30
0.0
  0
VERTEX
  5
122
  8
LAYER_1
 10
-0.7145944881889764
 20
0.9188503937007874
 30
0.0
  0
VERTEX
  5
123
  8
LAYER_1
 10
-0.7175142050114819
 20
0.9162209400745489
 30
0.0
  0
VERTEX
  5
124
  8
LAYER_1
 10
-0.7259396735564283
 20
0.9086330881816878
 30
0.0
  0
VERTEX
  5
125
  8
LAYER_1
 10
-0.7393703709399576
 20
0.896537601500987
 30
0.0
  0
VERTEX
  5
126
  8
LAYER_1
 10
-0.7573057742782113
 20
0.8803852435112316
 30
0.0
  0
VERTEX
  5
127
  8
LAYER_1
 10
-0.7792453606873312
 20
0.8606267776912045
 30
0.0
  0
VERTEX
  5
128
  8
LAYER_1
 10
-0.8046886072834589
 20
0.83771296751969
 30
0.0
  0
VERTEX
  5
129
  8
LAYER_1
 10
-0.8331349911827365
 20
0.8120945764754723
 30
0.0
  0
VERTEX
  5
12A
  8
LAYER_1
 10
-0.8640839895013056
 20
0.784222368037335
 30
0.0
  0
VERTEX
  5
12B
  8
LAYER_1
 10
-0.8970350793553076
 20
0.7545471056840619
 30
0.0
  0
VERTEX
  5
12C
  8
LAYER_1
 10
-0.9314877378608846
 20
0.7235195528944369
 30
0.0
  0
VERTEX
  5
12D
  8
LAYER_1
 10
-0.9669414421341783
 20
0.6915904731472442
 30
0.0
  0
VERTEX
  5
12E
  8
LAYER_1
 10
-1.00289566929133
 20
0.6592106299212671
 30
0.0
  0
VERTEX
  5
12F
  8
LAYER_1
 10
-1.038849896448482
 20
0.6268307866952905
 30
0.0
  0
VERTEX
  5
130
  8
LAYER_1
 10
-1.074303600721777
 20
0.5949017069480973
 30
0.0
  0
VERTEX
  5
131
  8
LAYER_1
 10
-1.108756259227354
 20
0.5638741541584719
 30
0.0
  0
VERTEX
  5
132
  8
LAYER_1
 10
-1.141707349081357
 20
0.5341988918051981
 30
0.0
  0
VERTEX
  5
133
  8
LAYER_1
 10
-1.172656347399927
 20
0.5063266833670598
 30
0.0
  0
VERTEX
  5
134
  8
LAYER_1
 10
-1.201102731299206
 20
0.4807082923228407
 30
0.0
  0
VERTEX
  5
135
  8
LAYER_1
 10
-1.226545977895336
 20
0.4577944821513251
 30
0.0
  0
VERTEX
  5
136
  8
LAYER_1
 10
-1.248485564304457
 20
0.4380360163312966
 30
0.0
  0
VERTEX
  5
137
  8
LAYER_1
 10
-1.266420967642713
 20
0.4218836583415392
 30
0.0
  0
VERTEX
  5
138
  8
LAYER_1
 10
-1.279851665026244
 20
0.4097881716608367
 30
0.0
  0
VERTEX
  5
139
  8
LAYER_1
 10
-1.288277133571193
 20
0.4022003197679732
 30
0.0
  0
VERTEX
  5
13A
  8
LAYER_1
 10
-1.291196850393701
 20
0.3995708661417323
 30
0.0
  0
VERTEX
  5
13B
  8
LAYER_1
 10
-1.284658671897787
 20
0.3928948126275918
 30
0.0
  0
VERTEX
  5
13C
  8
LAYER_1
 10
-1.265791356809572
 20
0.3736296296296367
 30
0.0
  0
VERTEX
  5
13D
  8
LAYER_1
 10
-1.235715735728357
 20
0.3429197834645771
 30
0.0
  0
VERTEX
  5
13E
  8
LAYER_1
 10
-1.19555263925344
 20
0.3019097404491238
 30
0.0
  0
VERTEX
  5
13F
  8
LAYER_1
 10
-1.146422897984122
 20
0.2517439668999868
 30
0.0
  0
VERTEX
  5
140
  8
LAYER_1
 10
-1.089447342519703
 20
0.1935669291338765
 30
0.0
  0
VERTEX
  5
141
  8
LAYER_1
 10
-1.025746803459484
 20
0.1285230934675036
 30
0.0
  0
VERTEX
  5
142
  8
LAYER_1
 10
-0.9564421114027635
 20
0.0577569262175785
 30
0.0
  0
VERTEX
  5
143
  8
LAYER_1
 10
-0.8826540969488426
 20
-0.0175871062991887
 30
0.0
  0
VERTEX
  5
144
  8
LAYER_1
 10
-0.8055035906970209
 20
-0.0963645377660876
 30
0.0
  0
VERTEX
  5
145
  8
LAYER_1
 10
-0.7261114232465988
 20
-0.1774309018664074
 30
0.0
  0
VERTEX
  5
146
  8
LAYER_1
 10
-0.6455984251968763
 20
-0.2596417322834382
 30
0.0
  0
VERTEX
  5
147
  8
LAYER_1
 10
-0.5650854271471535
 20
-0.3418525627004693
 30
0.0
  0
VERTEX
  5
148
  8
LAYER_1
 10
-0.4856932596967303
 20
-0.4229189268007904
 30
0.0
  0
VERTEX
  5
149
  8
LAYER_1
 10
-0.408542753444907
 20
-0.501696358267691
 30
0.0
  0
VERTEX
  5
14A
  8
LAYER_1
 10
-0.3347547389909837
 20
-0.5770403907844606
 30
0.0
  0
VERTEX
  5
14B
  8
LAYER_1
 10
-0.2654500469342601
 20
-0.6478065580343892
 30
0.0
  0
VERTEX
  5
14C
  8
LAYER_1
 10
-0.2017495078740366
 20
-0.7128503937007662
 30
0.0
  0
VERTEX
  5
14D
  8
LAYER_1
 10
-0.1447739524096131
 20
-0.771027431466881
 30
0.0
  0
VERTEX
  5
14E
  8
LAYER_1
 10
-0.0956442111402899
 20
-0.8211932050160237
 30
0.0
  0
VERTEX
  5
14F
  8
LAYER_1
 10
-0.0554811146653669
 20
-0.8622032480314832
 30
0.0
  0
VERTEX
  5
150
  8
LAYER_1
 10
-0.0254054935841442
 20
-0.8929130941965497
 30
0.0
  0
VERTEX
  5
151
  8
LAYER_1
 10
-0.0065381784959219
 20
-0.9121782771945126
 30
0.0
  0
SEQEND
  5
932
  8
LAYER_1
  0
POLYLINE
  5
61
  8
LAYER_1
 66
     1
 10
0.0
 20
0.0
 30
0.0
 70
     1
  0
VERTEX
  5
152
  8
LAYER_1
 10
0.0821929133858268
 20
0.8599055118110236
 30
0.0
  0
VERTEX
  5
153
  8
LAYER_1
 10
0.0842923376439925
 20
0.8599055118110238
 30
0.0
  0
VERTEX
  5
154
  8
LAYER_1
 10
0.0903506762175561
 20
0.8599055118110235
 30
0.0
  0
VERTEX
  5
155
  8
LAYER_1
 10
0.1000080278051181
 20
0.8599055118110235
 30
0.0
  0
VERTEX
  5
156
  8
LAYER_1
 10
0.1129044911052785
 20
0.8599055118110237
 30
0.0
  0
VERTEX
  5
157
  8
LAYER_1
 10
0.1286801648166375
 20
0.8599055118110235
 30
0.0
  0
VERTEX
  5
158
  8
LAYER_1
 10
0.1469751476377953
 20
0.8599055118110236
 30
0.0
  0
VERTEX
  5
159
  8
LAYER_1
 10
0.1674295382673521
 20
0.8599055118110238
 30
0.0
  0
VERTEX
  5
15A
  8
LAYER_1
 10
0.1896834354039079
 20
0.8599055118110235
 30
0.0
  0
VERTEX
  5
15B
  8
LAYER_1
 10
0.2133769377460631
 20
0.8599055118110237
 30
0.0
  0
VERTEX
  5
15C
  8
LAYER_1
 10
0.2381501439924177
 20
0.8599055118110235
 30
0.0
  0
VERTEX
  5
15D
  8
LAYER_1
 10
0.263643152841572
 20
0.8599055118110235
 30
0.0
  0
VERTEX
  5
15E
  8
LAYER_1
 10
0.289496062992126
 20
0.8599055118110236
 30
0.0
  0
VERTEX
  5
15F
  8
LAYER_1
 10
0.3153489731426802
 20
0.8599055118110236
 30
0.0
  0
VERTEX
  5
160
  8
LAYER_1
 10
0.3408419819918344
 20
0.8599055118110235
 30
0.0
  0
VERTEX
  5
161
  8
LAYER_1
 10
0.3656151882381892
 20
0.8599055118110237
 30
0.0
  0
VERTEX
  5
162
  8
LAYER_1
 10
0.3893086905803442
 20
0.8599055118110237
 30
0.0
  0
VERTEX
  5
163
  8
LAYER_1
 10
0.4115625877169001
 20
0.8599055118110237
 30
0.0
  0
VERTEX
  5
164
  8
LAYER_1
 10
0.4320169783464567
 20
0.8599055118110235
 30
0.0
  0
VERTEX
  5
165
  8
LAYER_1
 10
0.4503119611676145
 20
0.8599055118110235
 30
0.0
  0
VERTEX
  5
166
  8
LAYER_1
 10
0.4660876348789734
 20
0.8599055118110235
 30
0.0
  0
VERTEX
  5
167
  8
LAYER_1
 10
0.478984098179134
 20
0.8599055118110237
 30
0.0
  0
VERTEX
  5
168
  8
LAYER_1
 10
0.4886414497666959
 20
0.8599055118110236
 30
0.0
  0
VERTEX
  5
169
  8
LAYER_1
 10
0.4946997883402595
 20
0.8599055118110235
 30
0.0
  0
VERTEX
  5
16A
  8
LAYER_1
 10
0.4967992125984252
 20
0.8599055118110236
 30
0.0
  0
VERTEX
  5
16B
  8
LAYER_1
 10
0.4960919153497741
 20
0.8591333040563941
 30
0.0
  0
VERTEX
  5
16C
  8
LAYER_1
 10
0.4940508575750948
 20
0.85690493310732
 30
0.0
  0
VERTEX
  5
16D
  8
LAYER_1
 10
0.4907972902312991
 20
0.8533527774360234
 30
0.0
  0
VERTEX
  5
16E
  8
LAYER_1
 10
0.4864524642752989
 20
0.8486092155147272
 30
0.0
  0
VERTEX
  5
16F
  8
LAYER_1
 10
0.4811376306640055
 20
0.8428066258156534
 30
0.0
  0
VERTEX
  5
170
  8
LAYER_1
 10
0.4749740403543307
 20
0.8360773868110235
 30
0.0
  0
VERTEX
  5
171
  8
LAYER_1
 10
0.468082944303186
 20
0.8285538769730605
 30
0.0
  0
VERTEX
  5
172
  8
LAYER_1
 10
0.4605855934674832
 20
0.8203684747739864
 30
0.0
  0
VERTEX
  5
173
  8
LAYER_1
 10
0.4526032388041338
 20
0.8116535586860236
 30
0.0
  0
VERTEX
  5
174
  8
LAYER_1
 10
0.4442571312700494
 20
0.8025415071813939
 30
0.0
  0
VERTEX
  5
175
  8
LAYER_1
 10
0.4356685218221418
 20
0.7931646987323195
 30
0.0
  0
VERTEX
  5
176
  8
LAYER_1
 10
0.4269586614173227
 20
0.7836555118110234
 30
0.0
  0
VERTEX
  5
177
  8
LAYER_1
 10
0.4182488010125036
 20
0.7741463248897273
 30
0.0
  0
VERTEX
  5
178
  8
LAYER_1
 10
0.4096601915645961
 20
0.7647695164406532
 30
0.0
  0
VERTEX
  5
179
  8
LAYER_1
 10
0.4013140840305118
 20
0.7556574649360236
 30
0.0
  0
VERTEX
  5
17A
  8
LAYER_1
 10
0.3933317293671625
 20
0.7469425488480608
 30
0.0
  0
VERTEX
  5
17B
  8
LAYER_1
 10
0.3858343785314596
 20
0.7387571466489866
 30
0.0
  0
VERTEX
  5
17C
  8
LAYER_1
 10
0.3789432824803151
 20
0.7312336368110237
 30
0.0
  0
VERTEX
  5
17D
  8
LAYER_1
 10
0.3727796921706402
 20
0.7245043978063941
 30
0.0
  0
VERTEX
  5
17E
  8
LAYER_1
 10
0.3674648585593469
 20
0.71870180810732
 30
0.0
  0
VERTEX
  5
17F
  8
LAYER_1
 10
0.3631200326033466
 20
0.7139582461860237
 30
0.0
  0
VERTEX
  5
180
  8
LAYER_1
 10
0.359866465259551
 20
0.7104060905147274
 30
0.0
  0
VERTEX
  5
181
  8
LAYER_1
 10
0.3578254074848717
 20
0.7081777195656532
 30
0.0
  0
VERTEX
  5
182
  8
LAYER_1
 10
0.3571181102362205
 20
0.7074055118110236
 30
0.0
  0
VERTEX
  5
183
  8
LAYER_1
 10
0.3557259832267061
 20
0.7081777195656531
 30
0.0
  0
VERTEX
  5
184
  8
LAYER_1
 10
0.3517087024278218
 20
0.7104060905147271
 30
0.0
  0
VERTEX
  5
185
  8
LAYER_1
 10
0.3453049181840555
 20
0.7139582461860235
 30
0.0
  0
VERTEX
  5
186
  8
LAYER_1
 10
0.3367532808398955
 20
0.7187018081073195
 30
0.0
  0
VERTEX
  5
187
  8
LAYER_1
 10
0.3262924407398299
 20
0.7245043978063936
 30
0.0
  0
VERTEX
  5
188
  8
LAYER_1
 10
0.3141610482283471
 20
0.7312336368110232
 30
0.0
  0
VERTEX
  5
189
  8
LAYER_1
 10
0.3005977536499352
 20
0.7387571466489861
 30
0.0
  0
VERTEX
  5
18A
  8
LAYER_1
 10
0.2858412073490822
 20
0.7469425488480599
 30
0.0
  0
VERTEX
  5
18B
  8
LAYER_1
 10
0.2701300596702766
 20
0.7556574649360229
 30
0.0
  0
VERTEX
  5
18C
  8
LAYER_1
 10
0.2537029609580064
 20
0.7647695164406525
 30
0.0
  0
VERTEX
  5
18D
  8
LAYER_1
 10
0.2367985615567598
 20
0.7741463248897266
 30
0.0
  0
VERTEX
  5
18E
  8
LAYER_1
 10
0.2196555118110249
 20
0.7836555118110227
 30
0.0
  0
VERTEX
  5
18F
  8
LAYER_1
 10
0.2025124620652901
 20
0.7931646987323191
 30
0.0
  0
VERTEX
  5
190
  8
LAYER_1
 10
0.1856080626640434
 20
0.8025415071813933
 30
0.0
  0
VERTEX
  5
191
  8
LAYER_1
 10
0.1691809639517731
 20
0.8116535586860228
 30
0.0
  0
VERTEX
  5
192
  8
LAYER_1
 10
0.1534698162729673
 20
0.8203684747739858
 30
0.0
  0
VERTEX
  5
193
  8
LAYER_1
 10
0.1387132699721143
 20
0.8285538769730599
 30
0.0
  0
VERTEX
  5
194
  8
LAYER_1
 10
0.1251499753937021
 20
0.836077386811023
 30
0.0
  0
VERTEX
  5
195
  8
LAYER_1
 10
0.113018582882219
 20
0.8428066258156526
 30
0.0
  0
VERTEX
  5
196
  8
LAYER_1
 10
0.1025577427821533
 20
0.8486092155147267
 30
0.0
  0
VERTEX
  5
197
  8
LAYER_1
 10
0.094006105437993
 20
0.8533527774360232
 30
0.0
  0
VERTEX
  5
198
  8
LAYER_1
 10
0.0876023211942263
 20
0.8569049331073195
 30
0.0
  0
VERTEX
  5
199
  8
LAYER_1
 10
0.0835850403953416
 20
0.8591333040563938
 30
0.0
  0
SEQEND
  5
933
  8
LAYER_1
  0
POLYLINE
  5
62
  8
LAYER_1
 66
     1
 10
0.0
 20
0.0
 30
0.0
 70
     1
  0
VERTEX
  5
19A
  8
LAYER_1
 10
0.6504015748031496
 20
0.8599055118110236
 30
0.0
  0
VERTEX
  5
19B
  8
LAYER_1
 10
0.6506968617855062
 20
0.8599055118110238
 30
0.0
  0
VERTEX
  5
19C
  8
LAYER_1
 10
0.6515489756488773
 20
0.8599055118110235
 30
0.0
  0
VERTEX
  5
19D
  8
LAYER_1
 10
0.6529072957677167
 20
0.8599055118110235
 30
0.0
  0
VERTEX
  5
19E
  8
LAYER_1
 10
0.6547212015164772
 20
0.8599055118110237
 30
0.0
  0
VERTEX
  5
19F
  8
LAYER_1
 10
0.656940072269612
 20
0.8599055118110235
 30
0.0
  0
VERTEX
  5
1A0
  8
LAYER_1
 10
0.6595132874015748
 20
0.8599055118110236
 30
0.0
  0
VERTEX
  5
1A1
  8
LAYER_1
 10
0.6623902262868184
 20
0.8599055118110238
 30
0.0
  0
VERTEX
  5
1A2
  8
LAYER_1
 10
0.6655202682997959
 20
0.8599055118110235
 30
0.0
  0
VERTEX
  5
1A3
  8
LAYER_1
 10
0.6688527928149607
 20
0.8599055118110237
 30
0.0
  0
VERTEX
  5
1A4
  8
LAYER_1
 10
0.672337179206766
 20
0.8599055118110235
 30
0.0
  0
VERTEX
  5
1A5
  8
LAYER_1
 10
0.6759228068496647
 20
0.8599055118110235
 30
0.0
  0
VERTEX
  5
1A6
  8
LAYER_1
 10
0.6795590551181103
 20
0.8599055118110236
 30
0.0
  0
VERTEX
  5
1A7
  8
LAYER_1
 10
0.6831953033865559
 20
0.8599055118110236
 30
0.0
  0
VERTEX
  5
1A8
  8
LAYER_1
 10
0.6867809310294546
 20
0.8599055118110235
 30
0.0
  0
VERTEX
  5
1A9
  8
LAYER_1
 10
0.6902653174212598
 20
0.8599055118110237
 30
0.0
  0
VERTEX
  5
1AA
  8
LAYER_1
 10
0.6935978419364246
 20
0.8599055118110237
 30
0.0
  0
VERTEX
  5
1AB
  8
LAYER_1
 10
0.6967278839494022
 20
0.8599055118110237
 30
0.0
  0
VERTEX
  5
1AC
  8
LAYER_1
 10
0.6996048228346456
 20
0.8599055118110235
 30
0.0
  0
VERTEX
  5
1AD
  8
LAYER_1
 10
0.7021780379666084
 20
0.8599055118110235
 30
0.0
  0
VERTEX
  5
1AE
  8
LAYER_1
 10
0.7043969087197433
 20
0.8599055118110235
 30
0.0
  0
VERTEX
  5
1AF
  8
LAYER_1
 10
0.706210814468504
 20
0.8599055118110237
 30
0.0
  0
VERTEX
  5
1B0
  8
LAYER_1
 10
0.7075691345873433
 20
0.8599055118110236
 30
0.0
  0
VERTEX
  5
1B1
  8
LAYER_1
 10
0.7084212484507145
 20
0.8599055118110235
 30
0.0
  0
VERTEX
  5
1B2
  8
LAYER_1
 10
0.7087165354330709
 20
0.8599055118110236
 30
0.0
  0
VERTEX
  5
1B3
  8
LAYER_1
 10
0.7090952730843543
 20
0.8595757361384515
 30
0.0
  0
VERTEX
  5
1B4
  8
LAYER_1
 10
0.7101882017351999
 20
0.8586240977690289
 30
0.0
  0
VERTEX
  5
1B5
  8
LAYER_1
 10
0.7119303949311023
 20
0.8571071296751968
 30
0.0
  0
VERTEX
  5
1B6
  8
LAYER_1
 10
0.7142569262175561
 20
0.8550813648293962
 30
0.0
  0
VERTEX
  5
1B7
  8
LAYER_1
 10
0.7171028691400554
 20
0.8526033362040684
 30
0.0
  0
VERTEX
  5
1B8
  8
LAYER_1
 10
0.7204032972440946
 20
0.8497295767716535
 30
0.0
  0
VERTEX
  5
1B9
  8
LAYER_1
 10
0.7240932840751677
 20
0.846516619504593
 30
0.0
  0
VERTEX
  5
1BA
  8
LAYER_1
 10
0.7281079031787694
 20
0.843020997375328
 30
0.0
  0
VERTEX
  5
1BB
  8
LAYER_1
 10
0.7323822281003939
 20
0.8392992433562992
 30
0.0
  0
VERTEX
  5
1BC
  8
LAYER_1
 10
0.7368513323855352
 20
0.8354078904199475
 30
0.0
  0
VERTEX
  5
1BD
  8
LAYER_1
 10
0.741450289579688
 20
0.8314034715387136
 30
0.0
  0
VERTEX
  5
1BE
  8
LAYER_1
 10
0.7461141732283465
 20
0.8273425196850392
 30
0.0
  0
VERTEX
  5
1BF
  8
LAYER_1
 10
0.750778056877005
 20
0.8232815678313647
 30
0.0
  0
VERTEX
  5
1C0
  8
LAYER_1
 10
0.7553770140711578
 20
0.8192771489501312
 30
0.0
  0
VERTEX
  5
1C1
  8
LAYER_1
 10
0.7598461183562992
 20
0.8153857960137796
 30
0.0
  0
VERTEX
  5
1C2
  8
LAYER_1
 10
0.7641204432779236
 20
0.8116640419947507
 30
0.0
  0
VERTEX
  5
1C3
  8
LAYER_1
 10
0.7681350623815252
 20
0.8081684198654855
 30
0.0
  0
VERTEX
  5
1C4
  8
LAYER_1
 10
0.7718250492125984
 20
0.8049554625984252
 30
0.0
  0
VERTEX
  5
1C5
  8
LAYER_1
 10
0.7751254773166374
 20
0.8020817031660106
 30
0.0
  0
VERTEX
  5
1C6
  8
LAYER_1
 10
0.7779714202391368
 20
0.7996036745406825
 30
0.0
  0
VERTEX
  5
1C7
  8
LAYER_1
 10
0.7802979515255906
 20
0.797577909694882
 30
0.0
  0
VERTEX
  5
1C8
  8
LAYER_1
 10
0.782040144721493
 20
0.7960609416010499
 30
0.0
  0
VERTEX
  5
1C9
  8
LAYER_1
 10
0.7831330733723387
 20
0.7951093032316273
 30
0.0
  0
VERTEX
  5
1CA
  8
LAYER_1
 10
0.783511811023622
 20
0.7947795275590551
 30
0.0
  0
VERTEX
  5
1CB
  8
LAYER_1
 10
0.7828377863899825
 20
0.7951093032316271
 30
0.0
  0
VERTEX
  5
1CC
  8
LAYER_1
 10
0.7808927438757655
 20
0.7960609416010499
 30
0.0
  0
VERTEX
  5
1CD
  8
LAYER_1
 10
0.7777922305610238
 20
0.797577909694882
 30
0.0
  0
VERTEX
  5
1CE
  8
LAYER_1
 10
0.7736517935258094
 20
0.7996036745406823
 30
0.0
  0
VERTEX
  5
1CF
  8
LAYER_1
 10
0.7685869798501751
 20
0.8020817031660104
 30
0.0
  0
VERTEX
  5
1D0
  8
LAYER_1
 10
0.7627133366141735
 20
0.8049554625984249
 30
0.0
  0
VERTEX
  5
1D1
  8
LAYER_1
 10
0.7561464108978567
 20
0.8081684198654853
 30
0.0
  0
VERTEX
  5
1D2
  8
LAYER_1
 10
0.7490017497812776
 20
0.8116640419947502
 30
0.0
  0
VERTEX
  5
1D3
  8
LAYER_1
 10
0.7413949003444886
 20
0.8153857960137791
 30
0.0
  0
VERTEX
  5
1D4
  8
LAYER_1
 10
0.7334414096675419
 20
0.8192771489501307
 30
0.0
  0
VERTEX
  5
1D5
  8
LAYER_1
 10
0.7252568248304904
 20
0.8232815678313644
 30
0.0
  0
VERTEX
  5
1D6
  8
LAYER_1
 10
0.7169566929133862
 20
0.8273425196850388
 30
0.0
  0
VERTEX
  5
1D7
  8
LAYER_1
 10
0.7086565609962824
 20
0.8314034715387135
 30
0.0
  0
VERTEX
  5
1D8
  8
LAYER_1
 10
0.7004719761592307
 20
0.8354078904199471
 30
0.0
  0
VERTEX
  5
1D9
  8
LAYER_1
 10
0.6925184854822842
 20
0.8392992433562989
 30
0.0
  0
VERTEX
  5
1DA
  8
LAYER_1
 10
0.684911636045495
 20
0.8430209973753278
 30
0.0
  0
VERTEX
  5
1DB
  8
LAYER_1
 10
0.6777669749289159
 20
0.8465166195045929
 30
0.0
  0
VERTEX
  5
1DC
  8
LAYER_1
 10
0.6712000492125991
 20
0.8497295767716533
 30
0.0
  0
VERTEX
  5
1DD
  8
LAYER_1
 10
0.6653264059765973
 20
0.8526033362040679
 30
0.0
  0
VERTEX
  5
1DE
  8
LAYER_1
 10
0.6602615923009629
 20
0.855081364829396
 30
0.0
  0
VERTEX
  5
1DF
  8
LAYER_1
 10
0.6561211552657484
 20
0.8571071296751966
 30
0.0
  0
VERTEX
  5
1E0
  8
LAYER_1
 10
0.6530206419510065
 20
0.8586240977690287
 30
0.0
  0
VERTEX
  5
1E1
  8
LAYER_1
 10
0.6510755994367893
 20
0.8595757361384514
 30
0.0
  0
SEQEND
  5
934
  8
LAYER_1
  0
POLYLINE
  5
63
  8
LAYER_1
 66
     1
 10
0.0
 20
0.0
 30
0.0
 70
     1
  0
VERTEX
  5
1E2
  8
LAYER_1
 10
0.5624330708661417
 20
0.8527047244094488
 30
0.0
  0
VERTEX
  5
1E3
  8
LAYER_1
 10
0.5641341407844853
 20
0.8518509798091647
 30
0.0
  0
VERTEX
  5
1E4
  8
LAYER_1
 10
0.5690429425488479
 20
0.8493873168197725
 30
0.0
  0
VERTEX
  5
1E5
  8
LAYER_1
 10
0.5768678641732284
 20
0.8454600916584645
 30
0.0
  0
VERTEX
  5
1E6
  8
LAYER_1
 10
0.5873172936716244
 20
0.8402156605424324
 30
0.0
  0
VERTEX
  5
1E7
  8
LAYER_1
 10
0.6000996190580346
 20
0.8338003796888672
 30
0.0
  0
VERTEX
  5
1E8
  8
LAYER_1
 10
0.6149232283464565
 20
0.8263606053149606
 30
0.0
  0
VERTEX
  5
1E9
  8
LAYER_1
 10
0.6314965095508894
 20
0.8180426936379047
 30
0.0
  0
VERTEX
  5
1EA
  8
LAYER_1
 10
0.6495278506853311
 20
0.8089930008748907
 30
0.0
  0
VERTEX
  5
1EB
  8
LAYER_1
 10
0.6687256397637796
 20
0.7993578832431102
 30
0.0
  0
VERTEX
  5
1EC
  8
LAYER_1
 10
0.6887982648002332
 20
0.7892836969597549
 30
0.0
  0
VERTEX
  5
1ED
  8
LAYER_1
 10
0.7094541138086906
 20
0.7789167982420165
 30
0.0
  0
VERTEX
  5
1EE
  8
LAYER_1
 10
0.7304015748031496
 20
0.7684035433070866
 30
0.0
  0
VERTEX
  5
1EF
  8
LAYER_1
 10
0.7513490357976087
 20
0.7578902883721567
 30
0.0
  0
VERTEX
  5
1F0
  8
LAYER_1
 10
0.7720048848060659
 20
0.7475233896544182
 30
0.0
  0
VERTEX
  5
1F1
  8
LAYER_1
 10
0.7920775098425197
 20
0.7374492033710631
 30
0.0
  0
VERTEX
  5
1F2
  8
LAYER_1
 10
0.8112752989209682
 20
0.7278140857392826
 30
0.0
  0
VERTEX
  5
1F3
  8
LAYER_1
 10
0.8293066400554097
 20
0.7187643929762686
 30
0.0
  0
VERTEX
  5
1F4
  8
LAYER_1
 10
0.8458799212598425
 20
0.7104464812992126
 30
0.0
  0
VERTEX
  5
1F5
  8
LAYER_1
 10
0.8607035305482647
 20
0.7030067069253063
 30
0.0
  0
VERTEX
  5
1F6
  8
LAYER_1
 10
0.8734858559346748
 20
0.6965914260717411
 30
0.0
  0
VERTEX
  5
1F7
  8
LAYER_1
 10
0.8839352854330709
 20
0.6913469949557087
 30
0.0
  0
VERTEX
  5
1F8
  8
LAYER_1
 10
0.8917602070574512
 20
0.6874197697944008
 30
0.0
  0
VERTEX
  5
1F9
  8
LAYER_1
 10
0.8966690088218139
 20
0.6849561068050087
 30
0.0
  0
VERTEX
  5
1FA
  8
LAYER_1
 10
0.8983700787401575
 20
0.6841023622047244
 30
0.0
  0
VERTEX
  5
1FB
  8
LAYER_1
 10
0.8978308590332458
 20
0.6828570214530476
 30
0.0
  0
VERTEX
  5
1FC
  8
LAYER_1
 10
0.8962748250218725
 20
0.6792633238553515
 30
0.0
  0
VERTEX
  5
1FD
  8
LAYER_1
 10
0.8937944143700789
 20
0.6735347563976378
 30
0.0
  0
VERTEX
  5
1FE
  8
LAYER_1
 10
0.8904820647419073
 20
0.6658848060659083
 30
0.0
  0
VERTEX
  5
1FF
  8
LAYER_1
 10
0.8864302138014
 20
0.6565269598461653
 30
0.0
  0
VERTEX
  5
200
  8
LAYER_1
 10
0.8817312992125984
 20
0.6456747047244094
 30
0.0
  0
VERTEX
  5
201
  8
LAYER_1
 10
0.8764777586395451
 20
0.6335415276866434
 30
0.0
  0
VERTEX
  5
202
  8
LAYER_1
 10
0.8707620297462816
 20
0.6203409157188684
 30
0.0
  0
VERTEX
  5
203
  8
LAYER_1
 10
0.8646765501968503
 20
0.6062863558070865
 30
0.0
  0
VERTEX
  5
204
  8
LAYER_1
 10
0.8583137576552929
 20
0.5915913349372994
 30
0.0
  0
VERTEX
  5
205
  8
LAYER_1
 10
0.8517660897856518
 20
0.5764693400955088
 30
0.0
  0
VERTEX
  5
206
  8
LAYER_1
 10
0.8451259842519684
 20
0.5611338582677163
 30
0.0
  0
VERTEX
  5
207
  8
LAYER_1
 10
0.8384858787182852
 20
0.545798376439924
 30
0.0
  0
VERTEX
  5
208
  8
LAYER_1
 10
0.8319382108486438
 20
0.5306763815981334
 30
0.0
  0
VERTEX
  5
209
  8
LAYER_1
 10
0.8255754183070865
 20
0.5159813607283461
 30
0.0
  0
VERTEX
  5
20A
  8
LAYER_1
 10
0.8194899387576552
 20
0.5019268008165643
 30
0.0
  0
VERTEX
  5
20B
  8
LAYER_1
 10
0.8137742098643918
 20
0.4887261888487894
 30
0.0
  0
VERTEX
  5
20C
  8
LAYER_1
 10
0.8085206692913385
 20
0.4765930118110233
 30
0.0
  0
VERTEX
  5
20D
  8
LAYER_1
 10
0.803821754702537
 20
0.4657407566892677
 30
0.0
  0
VERTEX
  5
20E
  8
LAYER_1
 10
0.7997699037620296
 20
0.4563829104695244
 30
0.0
  0
VERTEX
  5
20F
  8
LAYER_1
 10
0.7964575541338581
 20
0.448732960137795
 30
0.0
  0
VERTEX
  5
210
  8
LAYER_1
 10
0.7939771434820646
 20
0.4430043926800814
 30
0.0
  0
VERTEX
  5
211
  8
LAYER_1
 10
0.7924211094706912
 20
0.4394106950823854
 30
0.0
  0
VERTEX
  5
212
  8
LAYER_1
 10
0.7918818897637795
 20
0.4381653543307086
 30
0.0
  0
VERTEX
  5
213
  8
LAYER_1
 10
0.7898919521453045
 20
0.4393850179534849
 30
0.0
  0
VERTEX
  5
214
  8
LAYER_1
 10
0.7841495607319916
 20
0.4429046186934967
 30
0.0
  0
VERTEX
  5
215
  8
LAYER_1
 10
0.7749958476870077
 20
0.4485150713582678
 30
0.0
  0
VERTEX
  5
216
  8
LAYER_1
 10
0.7627719451735196
 20
0.4560072907553224
 30
0.0
  0
VERTEX
  5
217
  8
LAYER_1
 10
0.7478189853546949
 20
0.4651721916921844
 30
0.0
  0
VERTEX
  5
218
  8
LAYER_1
 10
0.7304781003937005
 20
0.475800688976378
 30
0.0
  0
VERTEX
  5
219
  8
LAYER_1
 10
0.7110904224537036
 20
0.4876836974154273
 30
0.0
  0
VERTEX
  5
21A
  8
LAYER_1
 10
0.6899970836978712
 20
0.5006121318168562
 30
0.0
  0
VERTEX
  5
21B
  8
LAYER_1
 10
0.6675392162893701
 20
0.5143769069881889
 30
0.0
  0
VERTEX
  5
21C
  8
LAYER_1
 10
0.6440579523913678
 20
0.5287689377369494
 30
0.0
  0
VERTEX
  5
21D
  8
LAYER_1
 10
0.6198944241670313
 20
0.5435791388706619
 30
0.0
  0
VERTEX
  5
21E
  8
LAYER_1
 10
0.5953897637795278
 20
0.5585984251968503
 30
0.0
  0
VERTEX
  5
21F
  8
LAYER_1
 10
0.5708851033920243
 20
0.5736177115230386
 30
0.0
  0
VERTEX
  5
220
  8
LAYER_1
 10
0.5467215751676878
 20
0.588427912656751
 30
0.0
  0
VERTEX
  5
221
  8
LAYER_1
 10
0.5232403112696855
 20
0.6028199434055115
 30
0.0
  0
VERTEX
  5
222
  8
LAYER_1
 10
0.5007824438611845
 20
0.6165847185768443
 30
0.0
  0
VERTEX
  5
223
  8
LAYER_1
 10
0.4796891051053519
 20
0.6295131529782733
 30
0.0
  0
VERTEX
  5
224
  8
LAYER_1
 10
0.4603014271653549
 20
0.6413961614173225
 30
0.0
  0
VERTEX
  5
225
  8
LAYER_1
 10
0.4429605422043604
 20
0.6520246587015162
 30
0.0
  0
VERTEX
  5
226
  8
LAYER_1
 10
0.4280075823855357
 20
0.6611895596383782
 30
0.0
  0
VERTEX
  5
227
  8
LAYER_1
 10
0.4157836798720477
 20
0.6686817790354328
 30
0.0
  0
VERTEX
  5
228
  8
LAYER_1
 10
0.4066299668270636
 20
0.6742922317002039
 30
0.0
  0
VERTEX
  5
229
  8
LAYER_1
 10
0.4008875754137505
 20
0.6778118324402158
 30
0.0
  0
VERTEX
  5
22A
  8
LAYER_1
 10
0.3988976377952756
 20
0.6790314960629922
 30
0.0
  0
VERTEX
  5
22B
  8
LAYER_1
 10
0.3997257252023184
 20
0.6799109177921769
 30
0.0
  0
VERTEX
  5
22C
  8
LAYER_1
 10
0.402115348862642
 20
0.6824486776392533
 30
0.0
  0
VERTEX
  5
22D
  8
LAYER_1
 10
0.405924550935039
 20
0.6864940175935037
 30
0.0
  0
VERTEX
  5
22E
  8
LAYER_1
 10
0.4110113735783023
 20
0.6918961796442107
 30
0.0
  0
VERTEX
  5
22F
  8
LAYER_1
 10
0.4172338589512244
 20
0.6985044057806573
 30
0.0
  0
VERTEX
  5
230
  8
LAYER_1
 10
0.4244500492125979
 20
0.7061679379921253
 30
0.0
  0
VERTEX
  5
231
  8
LAYER_1
 10
0.4325179865212154
 20
0.7147360182678981
 30
0.0
  0
VERTEX
  5
232
  8
LAYER_1
 10
0.4412957130358698
 20
0.724057888597258
 30
0.0
  0
VERTEX
  5
233
  8
LAYER_1
 10
0.4506412709153535
 20
0.7339827909694873
 30
0.0
  0
VERTEX
  5
234
  8
LAYER_1
 10
0.4604127023184593
 20
0.7443599673738691
 30
0.0
  0
VERTEX
  5
235
  8
LAYER_1
 10
0.4704680494039798
 20
0.7550386597996854
 30
0.0
  0
VERTEX
  5
236
  8
LAYER_1
 10
0.4806653543307077
 20
0.7658681102362195
 30
0.0
  0
VERTEX
  5
237
  8
LAYER_1
 10
0.4908626592574356
 20
0.7766975606727533
 30
0.0
  0
VERTEX
  5
238
  8
LAYER_1
 10
0.500918006342956
 20
0.78737625309857
 30
0.0
  0
VERTEX
  5
239
  8
LAYER_1
 10
0.5106894377460619
 20
0.7977534295029516
 30
0.0
  0
VERTEX
  5
23A
  8
LAYER_1
 10
0.5200349956255459
 20
0.8076783318751812
 30
0.0
  0
VERTEX
  5
23B
  8
LAYER_1
 10
0.5288127221402003
 20
0.8170002022045412
 30
0.0
  0
VERTEX
  5
23C
  8
LAYER_1
 10
0.536880659448818
 20
0.825568282480314
 30
0.0
  0
VERTEX
  5
23D
  8
LAYER_1
 10
0.5440968497101917
 20
0.8332318146917824
 30
0.0
  0
VERTEX
  5
23E
  8
LAYER_1
 10
0.5503193350831138
 20
0.8398400408282289
 30
0.0
  0
VERTEX
  5
23F
  8
LAYER_1
 10
0.5554061577263774
 20
0.8452422028789364
 30
0.0
  0
VERTEX
  5
240
  8
LAYER_1
 10
0.5592153597987747
 20
0.849287542833187
 30
0.0
  0
VERTEX
  5
241
  8
LAYER_1
 10
0.5616049834590986
 20
0.8518253026802637
 30
0.0
  0
SEQEND
  5
935
  8
LAYER_1
  0
POLYLINE
  5
64
  8
LAYER_1
 66
     1
 10
0.0
 20
0.0
 30
0.0
 70
     1
  0
VERTEX
  5
242
  8
LAYER_1
 10
0.9281889763779527
 20
0.6312834645669292
 30
0.0
  0
VERTEX
  5
243
  8
LAYER_1
 10
0.9286393029810077
 20
0.6302133383229441
 30
0.0
  0
VERTEX
  5
244
  8
LAYER_1
 10
0.9299388168926798
 20
0.6271252597331584
 30
0.0
  0
VERTEX
  5
245
  8
LAYER_1
 10
0.9320103192667322
 20
0.6222026790108268
 30
0.0
  0
VERTEX
  5
246
  8
LAYER_1
 10
0.9347766112569263
 20
0.6156290463692039
 30
0.0
  0
VERTEX
  5
247
  8
LAYER_1
 10
0.9381604940170238
 20
0.6075878120215442
 30
0.0
  0
VERTEX
  5
248
  8
LAYER_1
 10
0.9420847687007873
 20
0.5982624261811024
 30
0.0
  0
VERTEX
  5
249
  8
LAYER_1
 10
0.9464722364619788
 20
0.5878363390611331
 30
0.0
  0
VERTEX
  5
24A
  8
LAYER_1
 10
0.9512456984543596
 20
0.5764930008748907
 30
0.0
  0
VERTEX
  5
24B
  8
LAYER_1
 10
0.9563279558316928
 20
0.5644158618356299
 30
0.0
  0
VERTEX
  5
24C
  8
LAYER_1
 10
0.9616418097477396
 20
0.5517883721566055
 30
0.0
  0
VERTEX
  5
24D
  8
LAYER_1
 10
0.9671100613562627
 20
0.5387939820510717
 30
0.0
  0
VERTEX
  5
24E
  8
LAYER_1
 10
0.9726555118110233
 20
0.5256161417322834
 30
0.0
  0
VERTEX
  5
24F
  8
LAYER_1
 10
0.9782009622657841
 20
0.5124383014134951
 30
0.0
  0
VERTEX
  5
250
  8
LAYER_1
 10
0.9836692138743071
 20
0.4994439113079615
 30
0.0
  0
VERTEX
  5
251
  8
LAYER_1
 10
0.988983067790354
 20
0.486816421628937
 30
0.0
  0
VERTEX
  5
252
  8
LAYER_1
 10
0.994065325167687
 20
0.4747392825896762
 30
0.0
  0
VERTEX
  5
253
  8
LAYER_1
 10
0.9988387871600684
 20
0.4633959444034339
 30
0.0
  0
VERTEX
  5
254
  8
LAYER_1
 10
1.003226254921259
 20
0.4529698572834645
 30
0.0
  0
VERTEX
  5
255
  8
LAYER_1
 10
1.007150529605023
 20
0.4436444714430227
 30
0.0
  0
VERTEX
  5
256
  8
LAYER_1
 10
1.010534412365121
 20
0.435603237095363
 30
0.0
  0
VERTEX
  5
257
  8
LAYER_1
 10
1.013300704355315
 20
0.4290296044537402
 30
0.0
  0
VERTEX
  5
258
  8
LAYER_1
 10
1.015372206729367
 20
0.4241070237314086
 30
0.0
  0
VERTEX
  5
259
  8
LAYER_1
 10
1.016671720641039
 20
0.4210189451416229
 30
0.0
  0
VERTEX
  5
25A
  8
LAYER_1
 10
1.017122047244094
 20
0.4199488188976378
 30
0.0
  0
VERTEX
  5
25B
  8
LAYER_1
 10
1.016214017844123
 20
0.4199488188976379
 30
0.0
  0
VERTEX
  5
25C
  8
LAYER_1
 10
1.013593704432779
 20
0.4199488188976378
 30
0.0
  0
VERTEX
  5
25D
  8
LAYER_1
 10
1.009416769192913
 20
0.4199488188976377
 30
0.0
  0
VERTEX
  5
25E
  8
LAYER_1
 10
1.003838874307378
 20
0.4199488188976378
 30
0.0
  0
VERTEX
  5
25F
  8
LAYER_1
 10
0.9970156819590257
 20
0.4199488188976379
 30
0.0
  0
VERTEX
  5
260
  8
LAYER_1
 10
0.9891028543307081
 20
0.4199488188976378
 30
0.0
  0
VERTEX
  5
261
  8
LAYER_1
 10
0.9802560536052779
 20
0.4199488188976378
 30
0.0
  0
VERTEX
  5
262
  8
LAYER_1
 10
0.9706309419655872
 20
0.4199488188976378
 30
0.0
  0
VERTEX
  5
263
  8
LAYER_1
 10
0.9603831815944878
 20
0.4199488188976379
 30
0.0
  0
VERTEX
  5
264
  8
LAYER_1
 10
0.9496684346748318
 20
0.4199488188976379
 30
0.0
  0
VERTEX
  5
265
  8
LAYER_1
 10
0.9386423633894715
 20
0.4199488188976377
 30
0.0
  0
VERTEX
  5
266
  8
LAYER_1
 10
0.9274606299212594
 20
0.4199488188976378
 30
0.0
  0
VERTEX
  5
267
  8
LAYER_1
 10
0.9162788964530473
 20
0.4199488188976379
 30
0.0
  0
VERTEX
  5
268
  8
LAYER_1
 10
0.9052528251676871
 20
0.4199488188976378
 30
0.0
  0
VERTEX
  5
269
  8
LAYER_1
 10
0.8945380782480313
 20
0.4199488188976378
 30
0.0
  0
VERTEX
  5
26A
  8
LAYER_1
 10
0.8842903178769319
 20
0.4199488188976378
 30
0.0
  0
VERTEX
  5
26B
  8
LAYER_1
 10
0.8746652062372412
 20
0.4199488188976378
 30
0.0
  0
VERTEX
  5
26C
  8
LAYER_1
 10
0.865818405511811
 20
0.4199488188976378
 30
0.0
  0
VERTEX
  5
26D
  8
LAYER_1
 10
0.8579055778834938
 20
0.4199488188976378
 30
0.0
  0
VERTEX
  5
26E
  8
LAYER_1
 10
0.8510823855351415
 20
0.4199488188976378
 30
0.0
  0
VERTEX
  5
26F
  8
LAYER_1
 10
0.8455044906496064
 20
0.4199488188976378
 30
0.0
  0
VERTEX
  5
270
  8
LAYER_1
 10
0.8413275554097405
 20
0.4199488188976378
 30
0.0
  0
VERTEX
  5
271
  8
LAYER_1
 10
0.8387072419983961
 20
0.4199488188976377
 30
0.0
  0
VERTEX
  5
272
  8
LAYER_1
 10
0.8377992125984252
 20
0.4199488188976378
 30
0.0
  0
VERTEX
  5
273
  8
LAYER_1
 10
0.8382569153953411
 20
0.4210189451416229
 30
0.0
  0
VERTEX
  5
274
  8
LAYER_1
 10
0.839577714895013
 20
0.4241070237314084
 30
0.0
  0
VERTEX
  5
275
  8
LAYER_1
 10
0.8416831477608266
 20
0.4290296044537399
 30
0.0
  0
VERTEX
  5
276
  8
LAYER_1
 10
0.8444947506561677
 20
0.4356032370953626
 30
0.0
  0
VERTEX
  5
277
  8
LAYER_1
 10
0.8479340602444224
 20
0.4436444714430223
 30
0.0
  0
VERTEX
  5
278
  8
LAYER_1
 10
0.8519226131889761
 20
0.4529698572834641
 30
0.0
  0
VERTEX
  5
279
  8
LAYER_1
 10
0.8563819461532148
 20
0.4633959444034333
 30
0.0
  0
VERTEX
  5
27A
  8
LAYER_1
 10
0.8612335958005245
 20
0.4747392825896755
 30
0.0
  0
VERTEX
  5
27B
  8
LAYER_1
 10
0.8663990987942909
 20
0.4868164216289361
 30
0.0
  0
VERTEX
  5
27C
  8
LAYER_1
 10
0.8717999917978996
 20
0.4994439113079606
 30
0.0
  0
VERTEX
  5
27D
  8
LAYER_1
 10
0.877357811474737
 20
0.5124383014134942
 30
0.0
  0
VERTEX
  5
27E
  8
LAYER_1
 10
0.8829940944881883
 20
0.5256161417322823
 30
0.0
  0
VERTEX
  5
27F
  8
LAYER_1
 10
0.88863037750164
 20
0.5387939820510708
 30
0.0
  0
VERTEX
  5
280
  8
LAYER_1
 10
0.8941881971784771
 20
0.5517883721566044
 30
0.0
  0
VERTEX
  5
281
  8
LAYER_1
 10
0.8995890901820862
 20
0.564415861835629
 30
0.0
  0
VERTEX
  5
282
  8
LAYER_1
 10
0.9047545931758525
 20
0.5764930008748896
 30
0.0
  0
VERTEX
  5
283
  8
LAYER_1
 10
0.9096062428231624
 20
0.5878363390611321
 30
0.0
  0
VERTEX
  5
284
  8
LAYER_1
 10
0.9140655757874012
 20
0.5982624261811015
 30
0.0
  0
VERTEX
  5
285
  8
LAYER_1
 10
0.918054128731955
 20
0.6075878120215434
 30
0.0
  0
VERTEX
  5
286
  8
LAYER_1
 10
0.9214934383202097
 20
0.6156290463692031
 30
0.0
  0
VERTEX
  5
287
  8
LAYER_1
 10
0.9243050412155509
 20
0.6222026790108262
 30
0.0
  0
VERTEX
  5
288
  8
LAYER_1
 10
0.9264104740813646
 20
0.627125259733158
 30
0.0
  0
VERTEX
  5
289
  8
LAYER_1
 10
0.9277312735810367
 20
0.6302133383229439
 30
0.0
  0
SEQEND
  5
936
  8
LAYER_1
  0
POLYLINE
  5
65
  8
LAYER_1
 66
     1
 10
0.0
 20
0.0
 30
0.0
 70
     1
  0
VERTEX
  5
28A
  8
LAYER_1
 10
0.990976377952756
 20
0.6053937007874016
 30
0.0
  0
VERTEX
  5
28B
  8
LAYER_1
 10
0.992036974951699
 20
0.6044546714375548
 30
0.0
  0
VERTEX
  5
28C
  8
LAYER_1
 10
0.9950975548629336
 20
0.6017449010279965
 30
0.0
  0
VERTEX
  5
28D
  8
LAYER_1
 10
0.9999763010580709
 20
0.5974253660187008
 30
0.0
  0
VERTEX
  5
28E
  8
LAYER_1
 10
1.00649139690872
 20
0.5916570428696414
 30
0.0
  0
VERTEX
  5
28F
  8
LAYER_1
 10
1.01446102578649
 20
0.5846009080407918
 30
0.0
  0
VERTEX
  5
290
  8
LAYER_1
 10
1.023703371062992
 20
0.5764179379921259
 30
0.0
  0
VERTEX
  5
291
  8
LAYER_1
 10
1.034036616109836
 20
0.5672691091836177
 30
0.0
  0
VERTEX
  5
292
  8
LAYER_1
 10
1.045278944298629
 20
0.5573153980752407
 30
0.0
  0
VERTEX
  5
293
  8
LAYER_1
 10
1.057248539000984
 20
0.5467177811269684
 30
0.0
  0
VERTEX
  5
294
  8
LAYER_1
 10
1.06976358358851
 20
0.5356372347987752
 30
0.0
  0
VERTEX
  5
295
  8
LAYER_1
 10
1.082642261432816
 20
0.5242347355506343
 30
0.0
  0
VERTEX
  5
296
  8
LAYER_1
 10
1.095702755905512
 20
0.5126712598425197
 30
0.0
  0
VERTEX
  5
297
  8
LAYER_1
 10
1.108763250378208
 20
0.501107784134405
 30
0.0
  0
VERTEX
  5
298
  8
LAYER_1
 10
1.121641928222514
 20
0.4897052848862642
 30
0.0
  0
VERTEX
  5
299
  8
LAYER_1
 10
1.13415697281004
 20
0.4786247385580708
 30
0.0
  0
VERTEX
  5
29A
  8
LAYER_1
 10
1.146126567512395
 20
0.4680271216097988
 30
0.0
  0
VERTEX
  5
29B
  8
LAYER_1
 10
1.157368895701189
 20
0.4580734105014217
 30
0.0
  0
VERTEX
  5
29C
  8
LAYER_1
 10
1.167702140748032
 20
0.4489245816929134
 30
0.0
  0
VERTEX
  5
29D
  8
LAYER_1
 10
1.176944486024534
 20
0.4407416116442475
 30
0.0
  0
VERTEX
  5
29E
  8
LAYER_1
 10
1.184914114902304
 20
0.433685476815398
 30
0.0
  0
VERTEX
  5
29F
  8
LAYER_1
 10
1.191429210752953
 20
0.4279171536663386
 30
0.0
  0
VERTEX
  5
2A0
  8
LAYER_1
 10
1.19630795694809
 20
0.4235976186570429
 30
0.0
  0
VERTEX
  5
2A1
  8
LAYER_1
 10
1.199368536859325
 20
0.4208878482474846
 30
0.0
  0
VERTEX
  5
2A2
  8
LAYER_1
 10
1.200429133858268
 20
0.4199488188976378
 30
0.0
  0
VERTEX
  5
2A3
  8
LAYER_1
 10
1.199759295713037
 20
0.4199488188976379
 30
0.0
  0
VERTEX
  5
2A4
  8
LAYER_1
 10
1.197826334208224
 20
0.4199488188976378
 30
0.0
  0
VERTEX
  5
2A5
  8
LAYER_1
 10
1.194745078740157
 20
0.4199488188976377
 30
0.0
  0
VERTEX
  5
2A6
  8
LAYER_1
 10
1.190630358705162
 20
0.4199488188976378
 30
0.0
  0
VERTEX
  5
2A7
  8
LAYER_1
 10
1.185597003499563
 20
0.4199488188976379
 30
0.0
  0
VERTEX
  5
2A8
  8
LAYER_1
 10
1.179759842519685
 20
0.4199488188976378
 30
0.0
  0
VERTEX
  5
2A9
  8
LAYER_1
 10
1.173233705161855
 20
0.4199488188976378
 30
0.0
  0
VERTEX
  5
2AA
  8
LAYER_1
 10
1.166133420822397
 20
0.4199488188976378
 30
0.0
  0
VERTEX
  5
2AB
  8
LAYER_1
 10
1.158573818897638
 20
0.4199488188976379
 30
0.0
  0
VERTEX
  5
2AC
  8
LAYER_1
 10
1.150669728783902
 20
0.4199488188976379
 30
0.0
  0
VERTEX
  5
2AD
  8
LAYER_1
 10
1.142535979877515
 20
0.4199488188976377
 30
0.0
  0
VERTEX
  5
2AE
  8
LAYER_1
 10
1.134287401574803
 20
0.4199488188976378
 30
0.0
  0
VERTEX
  5
2AF
  8
LAYER_1
 10
1.126038823272091
 20
0.4199488188976379
 30
0.0
  0
VERTEX
  5
2B0
  8
LAYER_1
 10
1.117905074365704
 20
0.4199488188976378
 30
0.0
  0
VERTEX
  5
2B1
  8
LAYER_1
 10
1.110000984251968
 20
0.4199488188976378
 30
0.0
  0
VERTEX
  5
2B2
  8
LAYER_1
 10
1.102441382327209
 20
0.4199488188976378
 30
0.0
  0
VERTEX
  5
2B3
  8
LAYER_1
 10
1.095341097987751
 20
0.4199488188976378
 30
0.0
  0
VERTEX
  5
2B4
  8
LAYER_1
 10
1.088814960629921
 20
0.4199488188976378
 30
0.0
  0
VERTEX
  5
2B5
  8
LAYER_1
 10
1.082977799650044
 20
0.4199488188976378
 30
0.0
  0
VERTEX
  5
2B6
  8
LAYER_1
 10
1.077944444444444
 20
0.4199488188976378
 30
0.0
  0
VERTEX
  5
2B7
  8
LAYER_1
 10
1.073829724409448
 20
0.4199488188976378
 30
0.0
  0
VERTEX
  5
2B8
  8
LAYER_1
 10
1.070748468941382
 20
0.4199488188976378
 30
0.0
  0
VERTEX
  5
2B9
  8
LAYER_1
 10
1.06881550743657
 20
0.4199488188976377
 30
0.0
  0
VERTEX
  5
2BA
  8
LAYER_1
 10
1.068145669291338
 20
0.4199488188976378
 30
0.0
  0
VERTEX
  5
2BB
  8
LAYER_1
 10
1.067754910437627
 20
0.4208878482474846
 30
0.0
  0
VERTEX
  5
2BC
  8
LAYER_1
 10
1.066627292031204
 20
0.4235976186570427
 30
0.0
  0
VERTEX
  5
2BD
  8
LAYER_1
 10
1.064829801304134
 20
0.4279171536663383
 30
0.0
  0
VERTEX
  5
2BE
  8
LAYER_1
 10
1.06242942548848
 20
0.4336854768153977
 30
0.0
  0
VERTEX
  5
2BF
  8
LAYER_1
 10
1.059493151816309
 20
0.4407416116442472
 30
0.0
  0
VERTEX
  5
2C0
  8
LAYER_1
 10
1.056087967519685
 20
0.4489245816929129
 30
0.0
  0
VERTEX
  5
2C1
  8
LAYER_1
 10
1.052280859830672
 20
0.4580734105014211
 30
0.0
  0
VERTEX
  5
2C2
  8
LAYER_1
 10
1.048138815981335
 20
0.4680271216097981
 30
0.0
  0
VERTEX
  5
2C3
  8
LAYER_1
 10
1.04372882320374
 20
0.4786247385580701
 30
0.0
  0
VERTEX
  5
2C4
  8
LAYER_1
 10
1.03911786872995
 20
0.4897052848862634
 30
0.0
  0
VERTEX
  5
2C5
  8
LAYER_1
 10
1.034372939792031
 20
0.5011077841344042
 30
0.0
  0
VERTEX
  5
2C6
  8
LAYER_1
 10
1.029561023622047
 20
0.5126712598425187
 30
0.0
  0
VERTEX
  5
2C7
  8
LAYER_1
 10
1.024749107452063
 20
0.5242347355506334
 30
0.0
  0
VERTEX
  5
2C8
  8
LAYER_1
 10
1.020004178514144
 20
0.5356372347987742
 30
0.0
  0
VERTEX
  5
2C9
  8
LAYER_1
 10
1.015393224040355
 20
0.5467177811269677
 30
0.0
  0
VERTEX
  5
2CA
  8
LAYER_1
 10
1.010983231262759
 20
0.5573153980752397
 30
0.0
  0
VERTEX
  5
2CB
  8
LAYER_1
 10
1.006841187413423
 20
0.5672691091836168
 30
0.0
  0
VERTEX
  5
2CC
  8
LAYER_1
 10
1.00303407972441
 20
0.5764179379921253
 30
0.0
  0
VERTEX
  5
2CD
  8
LAYER_1
 10
0.9996288954277853
 20
0.584600908040791
 30
0.0
  0
VERTEX
  5
2CE
  8
LAYER_1
 10
0.9966926217556142
 20
0.5916570428696407
 30
0.0
  0
VERTEX
  5
2CF
  8
LAYER_1
 10
0.9942922459399608
 20
0.5974253660187003
 30
0.0
  0
VERTEX
  5
2D0
  8
LAYER_1
 10
0.9924947552128902
 20
0.6017449010279962
 30
0.0
  0
VERTEX
  5
2D1
  8
LAYER_1
 10
0.991367136806467
 20
0.6044546714375545
 30
0.0
  0
SEQEND
  5
937
  8
LAYER_1
  0
POLYLINE
  5
66
  8
LAYER_1
 66
     1
 10
0.0
 20
0.0
 30
0.0
 70
     1
  0
VERTEX
  5
2D2
  8
LAYER_1
 10
1.06459842519685
 20
0.3725275590551181
 30
0.0
  0
VERTEX
  5
2D3
  8
LAYER_1
 10
1.065274941787875
 20
0.3725275590551181
 30
0.0
  0
VERTEX
  5
2D4
  8
LAYER_1
 10
1.067227175379119
 20
0.372527559055118
 30
0.0
  0
VERTEX
  5
2D5
  8
LAYER_1
 10
1.070339151697834
 20
0.3725275590551181
 30
0.0
  0
VERTEX
  5
2D6
  8
LAYER_1
 10
1.074494896471274
 20
0.3725275590551181
 30
0.0
  0
VERTEX
  5
2D7
  8
LAYER_1
 10
1.079578435426691
 20
0.3725275590551181
 30
0.0
  0
VERTEX
  5
2D8
  8
LAYER_1
 10
1.085473794291338
 20
0.3725275590551181
 30
0.0
  0
VERTEX
  5
2D9
  8
LAYER_1
 10
1.092064998792469
 20
0.3725275590551181
 30
0.0
  0
VERTEX
  5
2DA
  8
LAYER_1
 10
1.099236074657334
 20
0.3725275590551181
 30
0.0
  0
VERTEX
  5
2DB
  8
LAYER_1
 10
1.106871047613189
 20
0.3725275590551181
 30
0.0
  0
VERTEX
  5
2DC
  8
LAYER_1
 10
1.114853943387285
 20
0.3725275590551181
 30
0.0
  0
VERTEX
  5
2DD
  8
LAYER_1
 10
1.123068787706875
 20
0.3725275590551181
 30
0.0
  0
VERTEX
  5
2DE
  8
LAYER_1
 10
1.131399606299213
 20
0.3725275590551181
 30
0.0
  0
VERTEX
  5
2DF
  8
LAYER_1
 10
1.13973042489155
 20
0.3725275590551181
 30
0.0
  0
VERTEX
  5
2E0
  8
LAYER_1
 10
1.14794526921114
 20
0.372527559055118
 30
0.0
  0
VERTEX
  5
2E1
  8
LAYER_1
 10
1.155928164985236
 20
0.3725275590551181
 30
0.0
  0
VERTEX
  5
2E2
  8
LAYER_1
 10
1.163563137941091
 20
0.3725275590551181
 30
0.0
  0
VERTEX
  5
2E3
  8
LAYER_1
 10
1.170734213805957
 20
0.3725275590551181
 30
0.0
  0
VERTEX
  5
2E4
  8
LAYER_1
 10
1.177325418307087
 20
0.372527559055118
 30
0.0
  0
VERTEX
  5
2E5
  8
LAYER_1
 10
1.183220777171734
 20
0.3725275590551181
 30
0.0
  0
VERTEX
  5
2E6
  8
LAYER_1
 10
1.188304316127151
 20
0.372527559055118
 30
0.0
  0
VERTEX
  5
2E7
  8
LAYER_1
 10
1.192460060900591
 20
0.3725275590551181
 30
0.0
  0
VERTEX
  5
2E8
  8
LAYER_1
 10
1.195572037219306
 20
0.3725275590551181
 30
0.0
  0
VERTEX
  5
2E9
  8
LAYER_1
 10
1.19752427081055
 20
0.372527559055118
 30
0.0
  0
VERTEX
  5
2EA
  8
LAYER_1
 10
1.198200787401575
 20
0.3725275590551181
 30
0.0
  0
VERTEX
  5
2EB
  8
LAYER_1
 10
1.195987371044766
 20
0.3702957022136556
 30
0.0
  0
VERTEX
  5
2EC
  8
LAYER_1
 10
1.189600083843686
 20
0.3638552010425779
 30
0.0
  0
VERTEX
  5
2ED
  8
LAYER_1
 10
1.179418368602362
 20
0.3535886595718502
 30
0.0
  0
VERTEX
  5
2EE
  8
LAYER_1
 10
1.165821668124818
 20
0.3398786818314375
 30
0.0
  0
VERTEX
  5
2EF
  8
LAYER_1
 10
1.149189425215077
 20
0.3231078718513049
 30
0.0
  0
VERTEX
  5
2F0
  8
LAYER_1
 10
1.129901082677165
 20
0.303658833661417
 30
0.0
  0
VERTEX
  5
2F1
  8
LAYER_1
 10
1.108336083315106
 20
0.2819141712917393
 30
0.0
  0
VERTEX
  5
2F2
  8
LAYER_1
 10
1.084873869932925
 20
0.2582564887722365
 30
0.0
  0
VERTEX
  5
2F3
  8
LAYER_1
 10
1.059893885334646
 20
0.2330683901328737
 30
0.0
  0
VERTEX
  5
2F4
  8
LAYER_1
 10
1.033775572324293
 20
0.2067324794036159
 30
0.0
  0
VERTEX
  5
2F5
  8
LAYER_1
 10
1.006898373705891
 20
0.179631360614428
 30
0.0
  0
VERTEX
  5
2F6
  8
LAYER_1
 10
0.9796417322834645
 20
0.1521476377952753
 30
0.0
  0
VERTEX
  5
2F7
  8
LAYER_1
 10
0.9523850908610382
 20
0.1246639149761226
 30
0.0
  0
VERTEX
  5
2F8
  8
LAYER_1
 10
0.9255078922426364
 20
0.0975627961869349
 30
0.0
  0
VERTEX
  5
2F9
  8
LAYER_1
 10
0.8993895792322837
 20
0.0712268854576772
 30
0.0
  0
VERTEX
  5
2FA
  8
LAYER_1
 10
0.8744095946340044
 20
0.0460387868183145
 30
0.0
  0
VERTEX
  5
2FB
  8
LAYER_1
 10
0.8509473812518229
 20
0.0223811042988118
 30
0.0
  0
VERTEX
  5
2FC
  8
LAYER_1
 10
0.8293823818897641
 20
0.0006364419291341
 30
0.0
  0
VERTEX
  5
2FD
  8
LAYER_1
 10
0.8100940393518522
 20
-0.0188125962607536
 30
0.0
  0
VERTEX
  5
2FE
  8
LAYER_1
 10
0.7934617964421118
 20
-0.0355834062408863
 30
0.0
  0
VERTEX
  5
2FF
  8
LAYER_1
 10
0.7798650959645672
 20
-0.0492933839812989
 30
0.0
  0
VERTEX
  5
300
  8
LAYER_1
 10
0.7696833807232432
 20
-0.0595599254520266
 30
0.0
  0
VERTEX
  5
301
  8
LAYER_1
 10
0.763296093522164
 20
-0.0660004266231042
 30
0.0
  0
VERTEX
  5
302
  8
LAYER_1
 10
0.7610826771653544
 20
-0.0682322834645669
 30
0.0
  0
VERTEX
  5
303
  8
LAYER_1
 10
0.7626195769311386
 20
-0.0660004266231045
 30
0.0
  0
VERTEX
  5
304
  8
LAYER_1
 10
0.7670546305409739
 20
-0.0595599254520271
 30
0.0
  0
VERTEX
  5
305
  8
LAYER_1
 10
0.7741243694635823
 20
-0.0492933839812997
 30
0.0
  0
VERTEX
  5
306
  8
LAYER_1
 10
0.783565325167687
 20
-0.0355834062408872
 30
0.0
  0
VERTEX
  5
307
  8
LAYER_1
 10
0.7951140291220101
 20
-0.0188125962607547
 30
0.0
  0
VERTEX
  5
308
  8
LAYER_1
 10
0.8085070127952748
 20
0.0006364419291328
 30
0.0
  0
VERTEX
  5
309
  8
LAYER_1
 10
0.8234808076562034
 20
0.0223811042988103
 30
0.0
  0
VERTEX
  5
30A
  8
LAYER_1
 10
0.8397719451735187
 20
0.0460387868183129
 30
0.0
  0
VERTEX
  5
30B
  8
LAYER_1
 10
0.8571169568159436
 20
0.0712268854576755
 30
0.0
  0
VERTEX
  5
30C
  8
LAYER_1
 10
0.8752523740522004
 20
0.0975627961869331
 30
0.0
  0
VERTEX
  5
30D
  8
LAYER_1
 10
0.8939147283510118
 20
0.1246639149761208
 30
0.0
  0
VERTEX
  5
30E
  8
LAYER_1
 10
0.9128405511811006
 20
0.1521476377952735
 30
0.0
  0
VERTEX
  5
30F
  8
LAYER_1
 10
0.9317663740111897
 20
0.1796313606144262
 30
0.0
  0
VERTEX
  5
310
  8
LAYER_1
 10
0.9504287283100011
 20
0.2067324794036139
 30
0.0
  0
VERTEX
  5
311
  8
LAYER_1
 10
0.9685641455462581
 20
0.2330683901328718
 30
0.0
  0
VERTEX
  5
312
  8
LAYER_1
 10
0.9859091571886831
 20
0.2582564887722346
 30
0.0
  0
VERTEX
  5
313
  8
LAYER_1
 10
1.002200294705999
 20
0.2819141712917374
 30
0.0
  0
VERTEX
  5
314
  8
LAYER_1
 10
1.017174089566928
 20
0.3036588336614153
 30
0.0
  0
VERTEX
  5
315
  8
LAYER_1
 10
1.030567073240192
 20
0.3231078718513032
 30
0.0
  0
VERTEX
  5
316
  8
LAYER_1
 10
1.042115777194516
 20
0.3398786818314361
 30
0.0
  0
VERTEX
  5
317
  8
LAYER_1
 10
1.051556732898621
 20
0.353588659571849
 30
0.0
  0
VERTEX
  5
318
  8
LAYER_1
 10
1.05862647182123
 20
0.363855201042577
 30
0.0
  0
VERTEX
  5
319
  8
LAYER_1
 10
1.063061525431065
 20
0.370295702213655
 30
0.0
  0
SEQEND
  5
938
  8
LAYER_1
  0
POLYLINE
  5
67
  8
LAYER_1
 66
     1
 10
0.0
 20
0.0
 30
0.0
 70
     1
  0
VERTEX
  5
31A
  8
LAYER_1
 10
0.8156929133858267
 20
0.3725275590551181
 30
0.0
  0
VERTEX
  5
31B
  8
LAYER_1
 10
0.8166810841353165
 20
0.3725275590551181
 30
0.0
  0
VERTEX
  5
31C
  8
LAYER_1
 10
0.8195326625838436
 20
0.372527559055118
 30
0.0
  0
VERTEX
  5
31D
  8
LAYER_1
 10
0.8240782480314959
 20
0.3725275590551181
 30
0.0
  0
VERTEX
  5
31E
  8
LAYER_1
 10
0.8301484397783611
 20
0.3725275590551181
 30
0.0
  0
VERTEX
  5
31F
  8
LAYER_1
 10
0.8375738371245259
 20
0.3725275590551181
 30
0.0
  0
VERTEX
  5
320
  8
LAYER_1
 10
0.8461850393700786
 20
0.3725275590551181
 30
0.0
  0
VERTEX
  5
321
  8
LAYER_1
 10
0.8558126458151065
 20
0.3725275590551181
 30
0.0
  0
VERTEX
  5
322
  8
LAYER_1
 10
0.8662872557596966
 20
0.3725275590551181
 30
0.0
  0
VERTEX
  5
323
  8
LAYER_1
 10
0.8774394685039368
 20
0.3725275590551181
 30
0.0
  0
VERTEX
  5
324
  8
LAYER_1
 10
0.8890998833479148
 20
0.3725275590551181
 30
0.0
  0
VERTEX
  5
325
  8
LAYER_1
 10
0.9010990995917175
 20
0.3725275590551181
 30
0.0
  0
VERTEX
  5
326
  8
LAYER_1
 10
0.913267716535433
 20
0.3725275590551181
 30
0.0
  0
VERTEX
  5
327
  8
LAYER_1
 10
0.9254363334791482
 20
0.3725275590551181
 30
0.0
  0
VERTEX
  5
328
  8
LAYER_1
 10
0.9374355497229511
 20
0.372527559055118
 30
0.0
  0
VERTEX
  5
329
  8
LAYER_1
 10
0.949095964566929
 20
0.3725275590551181
 30
0.0
  0
VERTEX
  5
32A
  8
LAYER_1
 10
0.9602481773111693
 20
0.3725275590551181
 30
0.0
  0
VERTEX
  5
32B
  8
LAYER_1
 10
0.9707227872557596
 20
0.3725275590551181
 30
0.0
  0
VERTEX
  5
32C
  8
LAYER_1
 10
0.9803503937007871
 20
0.372527559055118
 30
0.0
  0
VERTEX
  5
32D
  8
LAYER_1
 10
0.9889615959463396
 20
0.3725275590551181
 30
0.0
  0
VERTEX
  5
32E
  8
LAYER_1
 10
0.9963869932925047
 20
0.372527559055118
 30
0.0
  0
VERTEX
  5
32F
  8
LAYER_1
 10
1.00245718503937
 20
0.3725275590551181
 30
0.0
  0
VERTEX
  5
330
  8
LAYER_1
 10
1.007002770487022
 20
0.3725275590551181
 30
0.0
  0
VERTEX
  5
331
  8
LAYER_1
 10
1.009854348935549
 20
0.372527559055118
 30
0.0
  0
VERTEX
  5
332
  8
LAYER_1
 10
1.010842519685039
 20
0.3725275590551181
 30
0.0
  0
VERTEX
  5
333
  8
LAYER_1
 10
1.008415652226414
 20
0.3690870032033756
 30
0.0
  0
VERTEX
  5
334
  8
LAYER_1
 10
1.001412406131525
 20
0.3591585420312043
 30
0.0
  0
VERTEX
  5
335
  8
LAYER_1
 10
0.9902488158218498
 20
0.3433319851131887
 30
0.0
  0
VERTEX
  5
336
  8
LAYER_1
 10
0.9753409157188679
 20
0.3221971420239134
 30
0.0
  0
VERTEX
  5
337
  8
LAYER_1
 10
0.9571047402440577
 20
0.2963438223379627
 30
0.0
  0
VERTEX
  5
338
  8
LAYER_1
 10
0.9359563238188972
 20
0.2663618356299209
 30
0.0
  0
VERTEX
  5
339
  8
LAYER_1
 10
0.9123117008648651
 20
0.2328409914743726
 30
0.0
  0
VERTEX
  5
33A
  8
LAYER_1
 10
0.8865869058034407
 20
0.1963710994459021
 30
0.0
  0
VERTEX
  5
33B
  8
LAYER_1
 10
0.8591979730561019
 20
0.157541969119094
 30
0.0
  0
VERTEX
  5
33C
  8
LAYER_1
 10
0.8305609370443272
 20
0.1169434100685326
 30
0.0
  0
VERTEX
  5
33D
  8
LAYER_1
 10
0.8010918321895953
 20
0.0751652318688023
 30
0.0
  0
VERTEX
  5
33E
  8
LAYER_1
 10
0.7712066929133854
 20
0.0327972440944877
 30
0.0
  0
VERTEX
  5
33F
  8
LAYER_1
 10
0.7413215536371752
 20
-0.0095707436798268
 30
0.0
  0
VERTEX
  5
340
  8
LAYER_1
 10
0.7118524487824437
 20
-0.0513489218795568
 30
0.0
  0
VERTEX
  5
341
  8
LAYER_1
 10
0.6832154127706691
 20
-0.0919474809301181
 30
0.0
  0
VERTEX
  5
342
  8
LAYER_1
 10
0.6558264800233304
 20
-0.1307766112569261
 30
0.0
  0
VERTEX
  5
343
  8
LAYER_1
 10
0.630101684961906
 20
-0.1672465032853963
 30
0.0
  0
VERTEX
  5
344
  8
LAYER_1
 10
0.6064570620078743
 20
-0.2007673474409445
 30
0.0
  0
VERTEX
  5
345
  8
LAYER_1
 10
0.5853086455827139
 20
-0.2307493341489862
 30
0.0
  0
VERTEX
  5
346
  8
LAYER_1
 10
0.5670724701079035
 20
-0.2566026538349369
 30
0.0
  0
VERTEX
  5
347
  8
LAYER_1
 10
0.5521645700049216
 20
-0.2777374969242121
 30
0.0
  0
VERTEX
  5
348
  8
LAYER_1
 10
0.5410009796952466
 20
-0.2935640538422277
 30
0.0
  0
VERTEX
  5
349
  8
LAYER_1
 10
0.5339977336003574
 20
-0.303492515014399
 30
0.0
  0
VERTEX
  5
34A
  8
LAYER_1
 10
0.5315708661417323
 20
-0.3069330708661417
 30
0.0
  0
VERTEX
  5
34B
  8
LAYER_1
 10
0.5330095628508674
 20
-0.3034925150143994
 30
0.0
  0
VERTEX
  5
34C
  8
LAYER_1
 10
0.5371612304972293
 20
-0.2935640538422285
 30
0.0
  0
VERTEX
  5
34D
  8
LAYER_1
 10
0.5437792353592518
 20
-0.2777374969242134
 30
0.0
  0
VERTEX
  5
34E
  8
LAYER_1
 10
0.5526169437153684
 20
-0.2566026538349384
 30
0.0
  0
VERTEX
  5
34F
  8
LAYER_1
 10
0.5634277218440138
 20
-0.2307493341489879
 30
0.0
  0
VERTEX
  5
350
  8
LAYER_1
 10
0.5759649360236213
 20
-0.2007673474409465
 30
0.0
  0
VERTEX
  5
351
  8
LAYER_1
 10
0.5899819525326252
 20
-0.1672465032853986
 30
0.0
  0
VERTEX
  5
352
  8
LAYER_1
 10
0.6052321376494594
 20
-0.1307766112569285
 30
0.0
  0
VERTEX
  5
353
  8
LAYER_1
 10
0.6214688576525579
 20
-0.0919474809301206
 30
0.0
  0
VERTEX
  5
354
  8
LAYER_1
 10
0.6384454788203545
 20
-0.0513489218795595
 30
0.0
  0
VERTEX
  5
355
  8
LAYER_1
 10
0.6559153674312833
 20
-0.0095707436798295
 30
0.0
  0
VERTEX
  5
356
  8
LAYER_1
 10
0.6736318897637781
 20
0.032797244094485
 30
0.0
  0
VERTEX
  5
357
  8
LAYER_1
 10
0.691348412096273
 20
0.0751652318687995
 30
0.0
  0
VERTEX
  5
358
  8
LAYER_1
 10
0.7088183007072019
 20
0.1169434100685296
 30
0.0
  0
VERTEX
  5
359
  8
LAYER_1
 10
0.7257949218749985
 20
0.157541969119091
 30
0.0
  0
VERTEX
  5
35A
  8
LAYER_1
 10
0.7420316418780972
 20
0.1963710994458991
 30
0.0
  0
VERTEX
  5
35B
  8
LAYER_1
 10
0.7572818269949315
 20
0.2328409914743697
 30
0.0
  0
VERTEX
  5
35C
  8
LAYER_1
 10
0.7712988435039357
 20
0.2663618356299181
 30
0.0
  0
VERTEX
  5
35D
  8
LAYER_1
 10
0.7838360576835436
 20
0.2963438223379601
 30
0.0
  0
VERTEX
  5
35E
  8
LAYER_1
 10
0.7946468358121891
 20
0.3221971420239111
 30
0.0
  0
VERTEX
  5
35F
  8
LAYER_1
 10
0.8034845441683063
 20
0.3433319851131869
 30
0.0
  0
VERTEX
  5
360
  8
LAYER_1
 10
0.8101025490303289
 20
0.3591585420312029
 30
0.0
  0
VERTEX
  5
361
  8
LAYER_1
 10
0.8142542166766911
 20
0.3690870032033748
 30
0.0
  0
SEQEND
  5
939
  8
LAYER_1
  0
POLYLINE
  5
68
  8
LAYER_1
 66
     1
 10
0.0
 20
0.0
 30
0.0
 70
     1
  0
VERTEX
  5
362
  8
LAYER_1
 10
0.4582952755905512
 20
0.3725275590551181
 30
0.0
  0
VERTEX
  5
363
  8
LAYER_1
 10
0.4597306629802786
 20
0.3725275590551181
 30
0.0
  0
VERTEX
  5
364
  8
LAYER_1
 10
0.4638727808763488
 20
0.372527559055118
 30
0.0
  0
VERTEX
  5
365
  8
LAYER_1
 10
0.4704755628690945
 20
0.3725275590551181
 30
0.0
  0
VERTEX
  5
366
  8
LAYER_1
 10
0.4792929425488481
 20
0.3725275590551181
 30
0.0
  0
VERTEX
  5
367
  8
LAYER_1
 10
0.4900788535059419
 20
0.3725275590551181
 30
0.0
  0
VERTEX
  5
368
  8
LAYER_1
 10
0.5025872293307087
 20
0.3725275590551181
 30
0.0
  0
VERTEX
  5
369
  8
LAYER_1
 10
0.5165720036134808
 20
0.3725275590551181
 30
0.0
  0
VERTEX
  5
36A
  8
LAYER_1
 10
0.5317871099445902
 20
0.3725275590551181
 30
0.0
  0
VERTEX
  5
36B
  8
LAYER_1
 10
0.5479864819143702
 20
0.3725275590551181
 30
0.0
  0
VERTEX
  5
36C
  8
LAYER_1
 10
0.5649240531131525
 20
0.3725275590551181
 30
0.0
  0
VERTEX
  5
36D
  8
LAYER_1
 10
0.5823537571312701
 20
0.3725275590551181
 30
0.0
  0
VERTEX
  5
36E
  8
LAYER_1
 10
0.6000295275590553
 20
0.3725275590551181
 30
0.0
  0
VERTEX
  5
36F
  8
LAYER_1
 10
0.6177052979868403
 20
0.3725275590551181
 30
0.0
  0
VERTEX
  5
370
  8
LAYER_1
 10
0.6351350020049578
 20
0.372527559055118
 30
0.0
  0
VERTEX
  5
371
  8
LAYER_1
 10
0.6520725732037402
 20
0.3725275590551181
 30
0.0
  0
VERTEX
  5
372
  8
LAYER_1
 10
0.6682719451735201
 20
0.3725275590551181
 30
0.0
  0
VERTEX
  5
373
  8
LAYER_1
 10
0.6834870515046297
 20
0.3725275590551181
 30
0.0
  0
VERTEX
  5
374
  8
LAYER_1
 10
0.6974718257874015
 20
0.372527559055118
 30
0.0
  0
VERTEX
  5
375
  8
LAYER_1
 10
0.7099802016121683
 20
0.3725275590551181
 30
0.0
  0
VERTEX
  5
376
  8
LAYER_1
 10
0.7207661125692622
 20
0.372527559055118
 30
0.0
  0
VERTEX
  5
377
  8
LAYER_1
 10
0.7295834922490159
 20
0.3725275590551181
 30
0.0
  0
VERTEX
  5
378
  8
LAYER_1
 10
0.7361862742417615
 20
0.3725275590551181
 30
0.0
  0
VERTEX
  5
379
  8
LAYER_1
 10
0.7403283921378316
 20
0.372527559055118
 30
0.0
  0
VERTEX
  5
37A
  8
LAYER_1
 10
0.741763779527559
 20
0.3725275590551181
 30
0.0
  0
VERTEX
  5
37B
  8
LAYER_1
 10
0.7390198952181759
 20
0.3687257092537912
 30
0.0
  0
VERTEX
  5
37C
  8
LAYER_1
 10
0.7311018290682414
 20
0.3577546569699619
 30
0.0
  0
VERTEX
  5
37D
  8
LAYER_1
 10
0.7184799612450784
 20
0.340266147883858
 30
0.0
  0
VERTEX
  5
37E
  8
LAYER_1
 10
0.7016246719160102
 20
0.3169119276757069
 30
0.0
  0
VERTEX
  5
37F
  8
LAYER_1
 10
0.6810063412483593
 20
0.2883437420257361
 30
0.0
  0
VERTEX
  5
380
  8
LAYER_1
 10
0.6570953494094485
 20
0.2552133366141728
 30
0.0
  0
VERTEX
  5
381
  8
LAYER_1
 10
0.6303620765666005
 20
0.2181724571212448
 30
0.0
  0
VERTEX
  5
382
  8
LAYER_1
 10
0.6012769028871388
 20
0.1778728492271794
 30
0.0
  0
VERTEX
  5
383
  8
LAYER_1
 10
0.5703102085383855
 20
0.1349662586122042
 30
0.0
  0
VERTEX
  5
384
  8
LAYER_1
 10
0.5379323736876636
 20
0.0901044309565466
 30
0.0
  0
VERTEX
  5
385
  8
LAYER_1
 10
0.5046137785022959
 20
0.0439391119404339
 30
0.0
  0
VERTEX
  5
386
  8
LAYER_1
 10
0.4708248031496058
 20
-0.002877952755906
 30
0.0
  0
VERTEX
  5
387
  8
LAYER_1
 10
0.4370358277969157
 20
-0.0496950174522459
 30
0.0
  0
VERTEX
  5
388
  8
LAYER_1
 10
0.4037172326115483
 20
-0.0958603364683582
 30
0.0
  0
VERTEX
  5
389
  8
LAYER_1
 10
0.3713393977608268
 20
-0.1407221641240157
 30
0.0
  0
VERTEX
  5
38A
  8
LAYER_1
 10
0.3403727034120735
 20
-0.1836287547389908
 30
0.0
  0
VERTEX
  5
38B
  8
LAYER_1
 10
0.3112875297326117
 20
-0.223928362633056
 30
0.0
  0
VERTEX
  5
38C
  8
LAYER_1
 10
0.284554256889764
 20
-0.2609692421259838
 30
0.0
  0
VERTEX
  5
38D
  8
LAYER_1
 10
0.2606432650508533
 20
-0.2940996475375469
 30
0.0
  0
VERTEX
  5
38E
  8
LAYER_1
 10
0.2400249343832024
 20
-0.3226678331875177
 30
0.0
  0
VERTEX
  5
38F
  8
LAYER_1
 10
0.2231696450541341
 20
-0.3460220533956688
 30
0.0
  0
VERTEX
  5
390
  8
LAYER_1
 10
0.2105477772309713
 20
-0.3635105624817727
 30
0.0
  0
VERTEX
  5
391
  8
LAYER_1
 10
0.2026297110810368
 20
-0.3744816147656019
 30
0.0
  0
VERTEX
  5
392
  8
LAYER_1
 10
0.1998858267716535
 20
-0.3782834645669291
 30
0.0
  0
VERTEX
  5
393
  8
LAYER_1
 10
0.2011943236913093
 20
-0.3744816147656024
 30
0.0
  0
VERTEX
  5
394
  8
LAYER_1
 10
0.2049702719451733
 20
-0.3635105624817736
 30
0.0
  0
VERTEX
  5
395
  8
LAYER_1
 10
0.2109893577755902
 20
-0.3460220533956702
 30
0.0
  0
VERTEX
  5
396
  8
LAYER_1
 10
0.2190272674249048
 20
-0.3226678331875194
 30
0.0
  0
VERTEX
  5
397
  8
LAYER_1
 10
0.2288596871354616
 20
-0.2940996475375489
 30
0.0
  0
VERTEX
  5
398
  8
LAYER_1
 10
0.2402623031496056
 20
-0.260969242125986
 30
0.0
  0
VERTEX
  5
399
  8
LAYER_1
 10
0.2530108017096813
 20
-0.2239283626330585
 30
0.0
  0
VERTEX
  5
39A
  8
LAYER_1
 10
0.2668808690580334
 20
-0.1836287547389935
 30
0.0
  0
VERTEX
  5
39B
  8
LAYER_1
 10
0.2816481914370068
 20
-0.1407221641240185
 30
0.0
  0
VERTEX
  5
39C
  8
LAYER_1
 10
0.297088455088946
 20
-0.0958603364683612
 30
0.0
  0
VERTEX
  5
39D
  8
LAYER_1
 10
0.3129773462561959
 20
-0.0496950174522489
 30
0.0
  0
VERTEX
  5
39E
  8
LAYER_1
 10
0.329090551181101
 20
-0.002877952755909
 30
0.0
  0
VERTEX
  5
39F
  8
LAYER_1
 10
0.3452037561060063
 20
0.0439391119404308
 30
0.0
  0
VERTEX
  5
3A0
  8
LAYER_1
 10
0.3610926472732562
 20
0.0901044309565432
 30
0.0
  0
VERTEX
  5
3A1
  8
LAYER_1
 10
0.3765329109251956
 20
0.1349662586122009
 30
0.0
  0
VERTEX
  5
3A2
  8
LAYER_1
 10
0.391300233304169
 20
0.1778728492271761
 30
0.0
  0
VERTEX
  5
3A3
  8
LAYER_1
 10
0.4051703006525214
 20
0.2181724571212416
 30
0.0
  0
VERTEX
  5
3A4
  8
LAYER_1
 10
0.4179187992125973
 20
0.2552133366141698
 30
0.0
  0
VERTEX
  5
3A5
  8
LAYER_1
 10
0.4293214152267414
 20
0.2883437420257332
 30
0.0
  0
VERTEX
  5
3A6
  8
LAYER_1
 10
0.4391538349372985
 20
0.3169119276757044
 30
0.0
  0
VERTEX
  5
3A7
  8
LAYER_1
 10
0.4471917445866134
 20
0.340266147883856
 30
0.0
  0
VERTEX
  5
3A8
  8
LAYER_1
 10
0.4532108304170307
 20
0.3577546569699604
 30
0.0
  0
VERTEX
  5
3A9
  8
LAYER_1
 10
0.456986778670895
 20
0.3687257092537903
 30
0.0
  0
SEQEND
  5
93A
  8
LAYER_1
  0
POLYLINE
  5
69
  8
LAYER_1
 66
     1
 10
0.0
 20
0.0
 30
0.0
 70
     1
  0
VERTEX
  5
3AA
  8
LAYER_1
 10
0.038755905511811
 20
0.3725275590551181
 30
0.0
  0
VERTEX
  5
3AB
  8
LAYER_1
 10
0.0406111976888305
 20
0.3725275590551181
 30
0.0
  0
VERTEX
  5
3AC
  8
LAYER_1
 10
0.0459650408282298
 20
0.372527559055118
 30
0.0
  0
VERTEX
  5
3AD
  8
LAYER_1
 10
0.0544993848425196
 20
0.3725275590551181
 30
0.0
  0
VERTEX
  5
3AE
  8
LAYER_1
 10
0.0658961796442111
 20
0.3725275590551181
 30
0.0
  0
VERTEX
  5
3AF
  8
LAYER_1
 10
0.0798373751458151
 20
0.3725275590551181
 30
0.0
  0
VERTEX
  5
3B0
  8
LAYER_1
 10
0.0960049212598425
 20
0.3725275590551181
 30
0.0
  0
VERTEX
  5
3B1
  8
LAYER_1
 10
0.1140807678988043
 20
0.3725275590551181
 30
0.0
  0
VERTEX
  5
3B2
  8
LAYER_1
 10
0.1337468649752114
 20
0.3725275590551181
 30
0.0
  0
VERTEX
  5
3B3
  8
LAYER_1
 10
0.1546851624015748
 20
0.3725275590551181
 30
0.0
  0
VERTEX
  5
3B4
  8
LAYER_1
 10
0.1765776100904054
 20
0.3725275590551181
 30
0.0
  0
VERTEX
  5
3B5
  8
LAYER_1
 10
0.1991061579542141
 20
0.3725275590551181
 30
0.0
  0
VERTEX
  5
3B6
  8
LAYER_1
 10
0.2219527559055119
 20
0.3725275590551181
 30
0.0
  0
VERTEX
  5
3B7
  8
LAYER_1
 10
0.2447993538568097
 20
0.3725275590551181
 30
0.0
  0
VERTEX
  5
3B8
  8
LAYER_1
 10
0.2673279017206183
 20
0.372527559055118
 30
0.0
  0
VERTEX
  5
3B9
  8
LAYER_1
 10
0.289220349409449
 20
0.3725275590551181
 30
0.0
  0
VERTEX
  5
3BA
  8
LAYER_1
 10
0.3101586468358122
 20
0.3725275590551181
 30
0.0
  0
VERTEX
  5
3BB
  8
LAYER_1
 10
0.3298247439122194
 20
0.3725275590551181
 30
0.0
  0
VERTEX
  5
3BC
  8
LAYER_1
 10
0.3479005905511812
 20
0.372527559055118
 30
0.0
  0
VERTEX
  5
3BD
  8
LAYER_1
 10
0.3640681366652085
 20
0.3725275590551181
 30
0.0
  0
VERTEX
  5
3BE
  8
LAYER_1
 10
0.3780093321668124
 20
0.372527559055118
 30
0.0
  0
VERTEX
  5
3BF
  8
LAYER_1
 10
0.389406126968504
 20
0.3725275590551181
 30
0.0
  0
VERTEX
  5
3C0
  8
LAYER_1
 10
0.3979404709827939
 20
0.3725275590551181
 30
0.0
  0
VERTEX
  5
3C1
  8
LAYER_1
 10
0.4032943141221931
 20
0.372527559055118
 30
0.0
  0
VERTEX
  5
3C2
  8
LAYER_1
 10
0.4051496062992126
 20
0.3725275590551181
 30
0.0
  0
VERTEX
  5
3C3
  8
LAYER_1
 10
0.4037591538850613
 20
0.368535263902559
 30
0.0
  0
VERTEX
  5
3C4
  8
LAYER_1
 10
0.3997467054899387
 20
0.3570146407480314
 30
0.0
  0
VERTEX
  5
3C5
  8
LAYER_1
 10
0.3933506243848424
 20
0.3386500830462595
 30
0.0
  0
VERTEX
  5
3C6
  8
LAYER_1
 10
0.3848092738407698
 20
0.3141259842519682
 30
0.0
  0
VERTEX
  5
3C7
  8
LAYER_1
 10
0.3743610171287182
 20
0.2841267378198816
 30
0.0
  0
VERTEX
  5
3C8
  8
LAYER_1
 10
0.3622442175196849
 20
0.2493367372047239
 30
0.0
  0
VERTEX
  5
3C9
  8
LAYER_1
 10
0.3486972382846673
 20
0.21044037586122
 30
0.0
  0
VERTEX
  5
3CA
  8
LAYER_1
 10
0.333958442694663
 20
0.1681220472440939
 30
0.0
  0
VERTEX
  5
3CB
  8
LAYER_1
 10
0.3182661940206691
 20
0.1230661448080703
 30
0.0
  0
VERTEX
  5
3CC
  8
LAYER_1
 10
0.301858855533683
 20
0.0759570620078734
 30
0.0
  0
VERTEX
  5
3CD
  8
LAYER_1
 10
0.2849747905047022
 20
0.0274791922982276
 30
0.0
  0
VERTEX
  5
3CE
  8
LAYER_1
 10
0.2678523622047242
 20
-0.0216830708661423
 30
0.0
  0
VERTEX
  5
3CF
  8
LAYER_1
 10
0.2507299339047462
 20
-0.0708453340305122
 30
0.0
  0
VERTEX
  5
3D0
  8
LAYER_1
 10
0.2338458688757654
 20
-0.1193232037401577
 30
0.0
  0
VERTEX
  5
3D1
  8
LAYER_1
 10
0.2174385303887795
 20
-0.1664322865403544
 30
0.0
  0
VERTEX
  5
3D2
  8
LAYER_1
 10
0.2017462817147857
 20
-0.2114881889763778
 30
0.0
  0
VERTEX
  5
3D3
  8
LAYER_1
 10
0.1870074861247814
 20
-0.2538065175935037
 30
0.0
  0
VERTEX
  5
3D4
  8
LAYER_1
 10
0.1734605068897639
 20
-0.2927028789370075
 30
0.0
  0
VERTEX
  5
3D5
  8
LAYER_1
 10
0.1613437072807307
 20
-0.3274928795521649
 30
0.0
  0
VERTEX
  5
3D6
  8
LAYER_1
 10
0.1508954505686791
 20
-0.3574921259842515
 30
0.0
  0
VERTEX
  5
3D7
  8
LAYER_1
 10
0.1423541000246064
 20
-0.3820162247785429
 30
0.0
  0
VERTEX
  5
3D8
  8
LAYER_1
 10
0.1359580189195102
 20
-0.4003807824803146
 30
0.0
  0
VERTEX
  5
3D9
  8
LAYER_1
 10
0.1319455705243876
 20
-0.4119014056348423
 30
0.0
  0
VERTEX
  5
3DA
  8
LAYER_1
 10
0.1305551181102362
 20
-0.4158937007874016
 30
0.0
  0
VERTEX
  5
3DB
  8
LAYER_1
 10
0.1300902783473681
 20
-0.4119014056348428
 30
0.0
  0
VERTEX
  5
3DC
  8
LAYER_1
 10
0.1287488836030913
 20
-0.4003807824803156
 30
0.0
  0
VERTEX
  5
3DD
  8
LAYER_1
 10
0.1266106206938977
 20
-0.3820162247785443
 30
0.0
  0
VERTEX
  5
3DE
  8
LAYER_1
 10
0.1237551764362789
 20
-0.3574921259842533
 30
0.0
  0
VERTEX
  5
3DF
  8
LAYER_1
 10
0.1202622376467266
 20
-0.327492879552167
 30
0.0
  0
VERTEX
  5
3E0
  8
LAYER_1
 10
0.1162114911417325
 20
-0.2927028789370099
 30
0.0
  0
VERTEX
  5
3E1
  8
LAYER_1
 10
0.1116826237377882
 20
-0.2538065175935063
 30
0.0
  0
VERTEX
  5
3E2
  8
LAYER_1
 10
0.1067553222513855
 20
-0.2114881889763806
 30
0.0
  0
VERTEX
  5
3E3
  8
LAYER_1
 10
0.1015092734990161
 20
-0.1664322865403573
 30
0.0
  0
VERTEX
  5
3E4
  8
LAYER_1
 10
0.0960241642971715
 20
-0.1193232037401608
 30
0.0
  0
VERTEX
  5
3E5
  8
LAYER_1
 10
0.0903796814623436
 20
-0.0708453340305154
 30
0.0
  0
VERTEX
  5
3E6
  8
LAYER_1
 10
0.084655511811024
 20
-0.0216830708661454
 30
0.0
  0
VERTEX
  5
3E7
  8
LAYER_1
 10
0.0789313421597044
 20
0.0274791922982244
 30
0.0
  0
VERTEX
  5
3E8
  8
LAYER_1
 10
0.0732868593248765
 20
0.0759570620078699
 30
0.0
  0
VERTEX
  5
3E9
  8
LAYER_1
 10
0.067801750123032
 20
0.1230661448080668
 30
0.0
  0
VERTEX
  5
3EA
  8
LAYER_1
 10
0.0625557013706625
 20
0.1681220472440904
 30
0.0
  0
VERTEX
  5
3EB
  8
LAYER_1
 10
0.0576283998842597
 20
0.2104403758612166
 30
0.0
  0
VERTEX
  5
3EC
  8
LAYER_1
 10
0.0530995324803154
 20
0.2493367372047208
 30
0.0
  0
VERTEX
  5
3ED
  8
LAYER_1
 10
0.0490487859753212
 20
0.2841267378198785
 30
0.0
  0
VERTEX
  5
3EE
  8
LAYER_1
 10
0.0455558471857688
 20
0.3141259842519656
 30
0.0
  0
VERTEX
  5
3EF
  8
LAYER_1
 10
0.0427004029281498
 20
0.3386500830462574
 30
0.0
  0
VERTEX
  5
3F0
  8
LAYER_1
 10
0.0405621400189561
 20
0.3570146407480297
 30
0.0
  0
VERTEX
  5
3F1
  8
LAYER_1
 10
0.0392207452746793
 20
0.3685352639025581
 30
0.0
  0
SEQEND
  5
93B
  8
LAYER_1
  0
POLYLINE
  5
6A
  8
LAYER_1
 66
     1
 10
0.0
 20
0.0
 30
0.0
 70
     1
  0
VERTEX
  5
3F2
  8
LAYER_1
 10
0.1382362204724409
 20
-0.5324370078740157
 30
0.0
  0
VERTEX
  5
3F3
  8
LAYER_1
 10
0.1377967986749052
 20
-0.5336967222358925
 30
0.0
  0
VERTEX
  5
3F4
  8
LAYER_1
 10
0.1365287529163021
 20
-0.5373318979658792
 30
0.0
  0
VERTEX
  5
3F5
  8
LAYER_1
 10
0.1345074126476378
 20
-0.5431265840305118
 30
0.0
  0
VERTEX
  5
3F6
  8
LAYER_1
 10
0.1318081073199183
 20
-0.5508648293963255
 30
0.0
  0
VERTEX
  5
3F7
  8
LAYER_1
 10
0.1285061663841499
 20
-0.5603306830298558
 30
0.0
  0
VERTEX
  5
3F8
  8
LAYER_1
 10
0.1246769192913385
 20
-0.5713081938976378
 30
0.0
  0
VERTEX
  5
3F9
  8
LAYER_1
 10
0.1203956954924905
 20
-0.5835814109662073
 30
0.0
  0
VERTEX
  5
3FA
  8
LAYER_1
 10
0.1157378244386118
 20
-0.5969343832020999
 30
0.0
  0
VERTEX
  5
3FB
  8
LAYER_1
 10
0.1107786355807086
 20
-0.6111511595718504
 30
0.0
  0
VERTEX
  5
3FC
  8
LAYER_1
 10
0.1055934583697871
 20
-0.6260157890419946
 30
0.0
  0
VERTEX
  5
3FD
  8
LAYER_1
 10
0.1002576222568533
 20
-0.6413123205790684
 30
0.0
  0
VERTEX
  5
3FE
  8
LAYER_1
 10
0.0948464566929134
 20
-0.6568248031496062
 30
0.0
  0
VERTEX
  5
3FF
  8
LAYER_1
 10
0.0894352911289734
 20
-0.6723372857201444
 30
0.0
  0
VERTEX
  5
400
  8
LAYER_1
 10
0.0840994550160396
 20
-0.6876338172572177
 30
0.0
  0
VERTEX
  5
401
  8
LAYER_1
 10
0.0789142778051181
 20
-0.7024984467273622
 30
0.0
  0
VERTEX
  5
402
  8
LAYER_1
 10
0.0739550889472149
 20
-0.7167152230971128
 30
0.0
  0
VERTEX
  5
403
  8
LAYER_1
 10
0.0692972178933362
 20
-0.7300681953330053
 30
0.0
  0
VERTEX
  5
404
  8
LAYER_1
 10
0.0650159940944882
 20
-0.7423414124015748
 30
0.0
  0
VERTEX
  5
405
  8
LAYER_1
 10
0.0611867470016769
 20
-0.7533189232693569
 30
0.0
  0
VERTEX
  5
406
  8
LAYER_1
 10
0.0578848060659084
 20
-0.762784776902887
 30
0.0
  0
VERTEX
  5
407
  8
LAYER_1
 10
0.055185500738189
 20
-0.7705230222687007
 30
0.0
  0
VERTEX
  5
408
  8
LAYER_1
 10
0.0531641604695246
 20
-0.7763177083333334
 30
0.0
  0
VERTEX
  5
409
  8
LAYER_1
 10
0.0518961147109215
 20
-0.7799528840633201
 30
0.0
  0
VERTEX
  5
40A
  8
LAYER_1
 10
0.0514566929133858
 20
-0.7812125984251969
 30
0.0
  0
VERTEX
  5
40B
  8
LAYER_1
 10
0.0534194781641877
 20
-0.7792400447014436
 30
0.0
  0
VERTEX
  5
40C
  8
LAYER_1
 10
0.0590835156022163
 20
-0.7735478182414699
 30
0.0
  0
VERTEX
  5
40D
  8
LAYER_1
 10
0.0681123277559054
 20
-0.7644740711122049
 30
0.0
  0
VERTEX
  5
40E
  8
LAYER_1
 10
0.080169437153689
 20
-0.7523569553805773
 30
0.0
  0
VERTEX
  5
40F
  8
LAYER_1
 10
0.0949183663240011
 20
-0.737534623113517
 30
0.0
  0
VERTEX
  5
410
  8
LAYER_1
 10
0.1120226377952756
 20
-0.7203452263779527
 30
0.0
  0
VERTEX
  5
411
  8
LAYER_1
 10
0.1311457740959464
 20
-0.7011269172408138
 30
0.0
  0
VERTEX
  5
412
  8
LAYER_1
 10
0.1519512977544474
 20
-0.6802178477690288
 30
0.0
  0
VERTEX
  5
413
  8
LAYER_1
 10
0.1741027312992127
 20
-0.6579561700295273
 30
0.0
  0
VERTEX
  5
414
  8
LAYER_1
 10
0.1972635972586761
 20
-0.6346800360892386
 30
0.0
  0
VERTEX
  5
415
  8
LAYER_1
 10
0.2210974181612717
 20
-0.6107275980150917
 30
0.0
  0
VERTEX
  5
416
  8
LAYER_1
 10
0.2452677165354333
 20
-0.5864370078740155
 30
0.0
  0
VERTEX
  5
417
  8
LAYER_1
 10
0.2694380149095949
 20
-0.5621464177329394
 30
0.0
  0
VERTEX
  5
418
  8
LAYER_1
 10
0.2932718358121905
 20
-0.5381939796587923
 30
0.0
  0
VERTEX
  5
419
  8
LAYER_1
 10
0.3164327017716538
 20
-0.5149178457185036
 30
0.0
  0
VERTEX
  5
41A
  8
LAYER_1
 10
0.3385841353164192
 20
-0.4926561679790023
 30
0.0
  0
VERTEX
  5
41B
  8
LAYER_1
 10
0.3593896589749201
 20
-0.4717470985072175
 30
0.0
  0
VERTEX
  5
41C
  8
LAYER_1
 10
0.3785127952755909
 20
-0.4525287893700784
 30
0.0
  0
VERTEX
  5
41D
  8
LAYER_1
 10
0.3956170667468653
 20
-0.4353393926345141
 30
0.0
  0
VERTEX
  5
41E
  8
LAYER_1
 10
0.4103659959171773
 20
-0.4205170603674538
 30
0.0
  0
VERTEX
  5
41F
  8
LAYER_1
 10
0.4224231053149609
 20
-0.4083999446358265
 30
0.0
  0
VERTEX
  5
420
  8
LAYER_1
 10
0.4314519174686499
 20
-0.3993261975065615
 30
0.0
  0
VERTEX
  5
421
  8
LAYER_1
 10
0.4371159549066784
 20
-0.3936339710465879
 30
0.0
  0
VERTEX
  5
422
  8
LAYER_1
 10
0.4390787401574803
 20
-0.3916614173228347
 30
0.0
  0
VERTEX
  5
423
  8
LAYER_1
 10
0.4404360794418926
 20
-0.388507297020815
 30
0.0
  0
VERTEX
  5
424
  8
LAYER_1
 10
0.4443529728054827
 20
-0.3794054070064156
 30
0.0
  0
VERTEX
  5
425
  8
LAYER_1
 10
0.4505967335137797
 20
-0.3648964536171256
 30
0.0
  0
VERTEX
  5
426
  8
LAYER_1
 10
0.4589346748323128
 20
-0.3455211431904342
 30
0.0
  0
VERTEX
  5
427
  8
LAYER_1
 10
0.4691341100266114
 20
-0.3218201820638303
 30
0.0
  0
VERTEX
  5
428
  8
LAYER_1
 10
0.4809623523622048
 20
-0.2943342765748029
 30
0.0
  0
VERTEX
  5
429
  8
LAYER_1
 10
0.4941867151046224
 20
-0.2636041330608412
 30
0.0
  0
VERTEX
  5
42A
  8
LAYER_1
 10
0.5085745115193935
 20
-0.2301704578594342
 30
0.0
  0
VERTEX
  5
42B
  8
LAYER_1
 10
0.5238930548720472
 20
-0.1945739573080709
 30
0.0
  0
VERTEX
  5
42C
  8
LAYER_1
 10
0.5399096584281131
 20
-0.1573553377442404
 30
0.0
  0
VERTEX
  5
42D
  8
LAYER_1
 10
0.5563916354531204
 20
-0.1190553055054319
 30
0.0
  0
VERTEX
  5
42E
  8
LAYER_1
 10
0.5731062992125983
 20
-0.0802145669291343
 30
0.0
  0
VERTEX
  5
42F
  8
LAYER_1
 10
0.5898209629720762
 20
-0.0413738283528367
 30
0.0
  0
VERTEX
  5
430
  8
LAYER_1
 10
0.6063029399970834
 20
-0.0030737961140281
 30
0.0
  0
VERTEX
  5
431
  8
LAYER_1
 10
0.6223195435531493
 20
0.0341448234498023
 30
0.0
  0
VERTEX
  5
432
  8
LAYER_1
 10
0.6376380869058031
 20
0.0697413240011656
 30
0.0
  0
VERTEX
  5
433
  8
LAYER_1
 10
0.6520258833205741
 20
0.1031749992025727
 30
0.0
  0
VERTEX
  5
434
  8
LAYER_1
 10
0.6652502460629918
 20
0.1339051427165345
 30
0.0
  0
VERTEX
  5
435
  8
LAYER_1
 10
0.6770784883985852
 20
0.1613910482055619
 30
0.0
  0
VERTEX
  5
436
  8
LAYER_1
 10
0.6872779235928839
 20
0.1850920093321659
 30
0.0
  0
VERTEX
  5
437
  8
LAYER_1
 10
0.695615864911417
 20
0.2044673197588575
 30
0.0
  0
VERTEX
  5
438
  8
LAYER_1
 10
0.701859625619714
 20
0.2189762731481475
 30
0.0
  0
VERTEX
  5
439
  8
LAYER_1
 10
0.7057765189833041
 20
0.2280781631625471
 30
0.0
  0
VERTEX
  5
43A
  8
LAYER_1
 10
0.7071338582677166
 20
0.2312322834645669
 30
0.0
  0
VERTEX
  5
43B
  8
LAYER_1
 10
0.7042531555300382
 20
0.2273653238006711
 30
0.0
  0
VERTEX
  5
43C
  8
LAYER_1
 10
0.695940270487023
 20
0.2162063830562855
 30
0.0
  0
VERTEX
  5
43D
  8
LAYER_1
 10
0.6826890378937018
 20
0.1984183686023635
 30
0.0
  0
VERTEX
  5
43E
  8
LAYER_1
 10
0.6649932925051049
 20
0.1746641878098588
 30
0.0
  0
VERTEX
  5
43F
  8
LAYER_1
 10
0.6433468690762629
 20
0.1456067480497252
 30
0.0
  0
VERTEX
  5
440
  8
LAYER_1
 10
0.6182436023622068
 20
0.111908956692916
 30
0.0
  0
VERTEX
  5
441
  8
LAYER_1
 10
0.5901773271179668
 20
0.0742337211103851
 30
0.0
  0
VERTEX
  5
442
  8
LAYER_1
 10
0.5596418780985737
 20
0.033243948673086
 30
0.0
  0
VERTEX
  5
443
  8
LAYER_1
 10
0.5271310900590581
 20
-0.0103974532480277
 30
0.0
  0
VERTEX
  5
444
  8
LAYER_1
 10
0.4931387977544505
 20
-0.0560275772820023
 30
0.0
  0
VERTEX
  5
445
  8
LAYER_1
 10
0.4581588359397816
 20
-0.1029835160578842
 30
0.0
  0
VERTEX
  5
446
  8
LAYER_1
 10
0.4226850393700822
 20
-0.1506023622047198
 30
0.0
  0
VERTEX
  5
447
  8
LAYER_1
 10
0.3872112428003826
 20
-0.1982212083515555
 30
0.0
  0
VERTEX
  5
448
  8
LAYER_1
 10
0.3522312809857136
 20
-0.2451771471274376
 30
0.0
  0
VERTEX
  5
449
  8
LAYER_1
 10
0.3182389886811059
 20
-0.2908072711614125
 30
0.0
  0
VERTEX
  5
44A
  8
LAYER_1
 10
0.2857282006415899
 20
-0.3344486730825267
 30
0.0
  0
VERTEX
  5
44B
  8
LAYER_1
 10
0.2551927516221964
 20
-0.3754384455198264
 30
0.0
  0
VERTEX
  5
44C
  8
LAYER_1
 10
0.2271264763779559
 20
-0.413113681102358
 30
0.0
  0
VERTEX
  5
44D
  8
LAYER_1
 10
0.202023209663899
 20
-0.446811472459168
 30
0.0
  0
VERTEX
  5
44E
  8
LAYER_1
 10
0.1803767862350564
 20
-0.4758689122193026
 30
0.0
  0
VERTEX
  5
44F
  8
LAYER_1
 10
0.1626810408464587
 20
-0.4996230930118083
 30
0.0
  0
VERTEX
  5
450
  8
LAYER_1
 10
0.1494298082531364
 20
-0.5174111074657315
 30
0.0
  0
VERTEX
  5
451
  8
LAYER_1
 10
0.1411169232101203
 20
-0.5285700482101185
 30
0.0
  0
SEQEND
  5
93C
  8
LAYER_1
  0
POLYLINE
  5
6B
  8
LAYER_1
 66
     1
 10
0.0
 20
0.0
 30
0.0
 70
     1
  0
VERTEX
  5
452
  8
LAYER_1
 10
0.0
 20
-0.8068110236220473
 30
0.0
  0
VERTEX
  5
453
  8
LAYER_1
 10
0.0004812667459536
 20
-0.8051708970135244
 30
0.0
  0
VERTEX
  5
454
  8
LAYER_1
 10
0.0018700650699913
 20
-0.8004379602289295
 30
0.0
  0
VERTEX
  5
455
  8
LAYER_1
 10
0.004083892101378
 20
-0.7928933778297244
 30
0.0
  0
VERTEX
  5
456
  8
LAYER_1
 10
0.0070402449693788
 20
-0.7828183143773697
 30
0.0
  0
VERTEX
  5
457
  8
LAYER_1
 10
0.010656620803259
 20
-0.7704939344333263
 30
0.0
  0
VERTEX
  5
458
  8
LAYER_1
 10
0.0148505167322835
 20
-0.756201402559055
 30
0.0
  0
VERTEX
  5
459
  8
LAYER_1
 10
0.0195394298857174
 20
-0.7402218833160178
 30
0.0
  0
VERTEX
  5
45A
  8
LAYER_1
 10
0.0246408573928259
 20
-0.7228365412656752
 30
0.0
  0
VERTEX
  5
45B
  8
LAYER_1
 10
0.030072296382874
 20
-0.7043265409694881
 30
0.0
  0
VERTEX
  5
45C
  8
LAYER_1
 10
0.0357512439851269
 20
-0.6849730469889179
 30
0.0
  0
VERTEX
  5
45D
  8
LAYER_1
 10
0.0415951973288495
 20
-0.6650572238854258
 30
0.0
  0
VERTEX
  5
45E
  8
LAYER_1
 10
0.0475216535433071
 20
-0.6448602362204725
 30
0.0
  0
VERTEX
  5
45F
  8
LAYER_1
 10
0.0534481097577647
 20
-0.624663248555519
 30
0.0
  0
VERTEX
  5
460
  8
LAYER_1
 10
0.0592920631014873
 20
-0.6047474254520269
 30
0.0
  0
VERTEX
  5
461
  8
LAYER_1
 10
0.0649710107037402
 20
-0.5853939314714568
 30
0.0
  0
VERTEX
  5
462
  8
LAYER_1
 10
0.0704024496937883
 20
-0.5668839311752698
 30
0.0
  0
VERTEX
  5
463
  8
LAYER_1
 10
0.0755038772008968
 20
-0.5494985891249271
 30
0.0
  0
VERTEX
  5
464
  8
LAYER_1
 10
0.0801927903543307
 20
-0.5335190698818898
 30
0.0
  0
VERTEX
  5
465
  8
LAYER_1
 10
0.0843866862833552
 20
-0.5192265380076189
 30
0.0
  0
VERTEX
  5
466
  8
LAYER_1
 10
0.0880030621172353
 20
-0.5069021580635754
 30
0.0
  0
VERTEX
  5
467
  8
LAYER_1
 10
0.0909594149852362
 20
-0.4968270946112205
 30
0.0
  0
VERTEX
  5
468
  8
LAYER_1
 10
0.0931732420166229
 20
-0.4892825122120152
 30
0.0
  0
VERTEX
  5
469
  8
LAYER_1
 10
0.0945620403406606
 20
-0.4845495754274205
 30
0.0
  0
VERTEX
  5
46A
  8
LAYER_1
 10
0.0950433070866142
 20
-0.4829094488188976
 30
0.0
  0
VERTEX
  5
46B
  8
LAYER_1
 10
0.0945620403406606
 20
-0.4793450526529236
 30
0.0
  0
VERTEX
  5
46C
  8
LAYER_1
 10
0.093173242016623
 20
-0.4690592237168271
 30
0.0
  0
VERTEX
  5
46D
  8
LAYER_1
 10
0.0909594149852363
 20
-0.4526630013533465
 30
0.0
  0
VERTEX
  5
46E
  8
LAYER_1
 10
0.0880030621172354
 20
-0.4307674249052202
 30
0.0
  0
VERTEX
  5
46F
  8
LAYER_1
 10
0.0843866862833552
 20
-0.4039835337151867
 30
0.0
  0
VERTEX
  5
470
  8
LAYER_1
 10
0.0801927903543307
 20
-0.3729223671259843
 30
0.0
  0
VERTEX
  5
471
  8
LAYER_1
 10
0.0755038772008968
 20
-0.3381949644803514
 30
0.0
  0
VERTEX
  5
472
  8
LAYER_1
 10
0.0704024496937883
 20
-0.3004123651210263
 30
0.0
  0
VERTEX
  5
473
  8
LAYER_1
 10
0.0649710107037401
 20
-0.2601856083907477
 30
0.0
  0
VERTEX
  5
474
  8
LAYER_1
 10
0.0592920631014873
 20
-0.218125733632254
 30
0.0
  0
VERTEX
  5
475
  8
LAYER_1
 10
0.0534481097577646
 20
-0.1748437801882834
 30
0.0
  0
VERTEX
  5
476
  8
LAYER_1
 10
0.047521653543307
 20
-0.1309507874015743
 30
0.0
  0
VERTEX
  5
477
  8
LAYER_1
 10
0.0415951973288495
 20
-0.0870577946148653
 30
0.0
  0
VERTEX
  5
478
  8
LAYER_1
 10
0.0357512439851268
 20
-0.0437758411708947
 30
0.0
  0
VERTEX
  5
479
  8
LAYER_1
 10
0.0300722963828739
 20
-0.0017159664124009
 30
0.0
  0
VERTEX
  5
47A
  8
LAYER_1
 10
0.0246408573928258
 20
0.0385107903178776
 30
0.0
  0
VERTEX
  5
47B
  8
LAYER_1
 10
0.0195394298857173
 20
0.0762933896772025
 30
0.0
  0
VERTEX
  5
47C
  8
LAYER_1
 10
0.0148505167322834
 20
0.1110207923228353
 30
0.0
  0
VERTEX
  5
47D
  8
LAYER_1
 10
0.0106566208032589
 20
0.1420819589120377
 30
0.0
  0
VERTEX
  5
47E
  8
LAYER_1
 10
0.0070402449693787
 20
0.1688658501020712
 30
0.0
  0
VERTEX
  5
47F
  8
LAYER_1
 10
0.0040838921013779
 20
0.1907614265501973
 30
0.0
  0
VERTEX
  5
480
  8
LAYER_1
 10
0.0018700650699912
 20
0.2071576489136778
 30
0.0
  0
VERTEX
  5
481
  8
LAYER_1
 10
0.0004812667459536
 20
0.2174434778497742
 30
0.0
  0
VERTEX
  5
482
  8
LAYER_1
 10
0.0
 20
0.221007874015748
 30
0.0
  0
VERTEX
  5
483
  8
LAYER_1
 10
-0.0004812667459537
 20
0.2174434778497737
 30
0.0
  0
VERTEX
  5
484
  8
LAYER_1
 10
-0.0018700650699913
 20
0.2071576489136771
 30
0.0
  0
VERTEX
  5
485
  8
LAYER_1
 10
-0.004083892101378
 20
0.1907614265501964
 30
0.0
  0
VERTEX
  5
486
  8
LAYER_1
 10
-0.0070402449693789
 20
0.1688658501020701
 30
0.0
  0
VERTEX
  5
487
  8
LAYER_1
 10
-0.010656620803259
 20
0.1420819589120366
 30
0.0
  0
VERTEX
  5
488
  8
LAYER_1
 10
-0.0148505167322835
 20
0.1110207923228343
 30
0.0
  0
VERTEX
  5
489
  8
LAYER_1
 10
-0.0195394298857174
 20
0.0762933896772015
 30
0.0
  0
VERTEX
  5
48A
  8
LAYER_1
 10
-0.0246408573928259
 20
0.0385107903178768
 30
0.0
  0
VERTEX
  5
48B
  8
LAYER_1
 10
-0.030072296382874
 20
-0.0017159664124016
 30
0.0
  0
VERTEX
  5
48C
  8
LAYER_1
 10
-0.0357512439851268
 20
-0.0437758411708951
 30
0.0
  0
VERTEX
  5
48D
  8
LAYER_1
 10
-0.0415951973288495
 20
-0.0870577946148655
 30
0.0
  0
VERTEX
  5
48E
  8
LAYER_1
 10
-0.047521653543307
 20
-0.1309507874015743
 30
0.0
  0
VERTEX
  5
48F
  8
LAYER_1
 10
-0.0534481097577646
 20
-0.1748437801882831
 30
0.0
  0
VERTEX
  5
490
  8
LAYER_1
 10
-0.0592920631014872
 20
-0.2181257336322535
 30
0.0
  0
VERTEX
  5
491
  8
LAYER_1
 10
-0.0649710107037401
 20
-0.2601856083907471
 30
0.0
  0
VERTEX
  5
492
  8
LAYER_1
 10
-0.0704024496937882
 20
-0.3004123651210255
 30
0.0
  0
VERTEX
  5
493
  8
LAYER_1
 10
-0.0755038772008966
 20
-0.3381949644803503
 30
0.0
  0
VERTEX
  5
494
  8
LAYER_1
 10
-0.0801927903543306
 20
-0.3729223671259831
 30
0.0
  0
VERTEX
  5
495
  8
LAYER_1
 10
-0.0843866862833551
 20
-0.4039835337151856
 30
0.0
  0
VERTEX
  5
496
  8
LAYER_1
 10
-0.0880030621172352
 20
-0.4307674249052192
 30
0.0
  0
VERTEX
  5
497
  8
LAYER_1
 10
-0.0909594149852361
 20
-0.4526630013533456
 30
0.0
  0
VERTEX
  5
498
  8
LAYER_1
 10
-0.0931732420166229
 20
-0.4690592237168264
 30
0.0
  0
VERTEX
  5
499
  8
LAYER_1
 10
-0.0945620403406605
 20
-0.4793450526529232
 30
0.0
  0
VERTEX
  5
49A
  8
LAYER_1
 10
-0.0950433070866142
 20
-0.4829094488188976
 30
0.0
  0
VERTEX
  5
49B
  8
LAYER_1
 10
-0.0945620403406606
 20
-0.4845495754274203
 30
0.0
  0
VERTEX
  5
49C
  8
LAYER_1
 10
-0.0931732420166231
 20
-0.4892825122120147
 30
0.0
  0
VERTEX
  5
49D
  8
LAYER_1
 10
-0.0909594149852364
 20
-0.4968270946112199
 30
0.0
  0
VERTEX
  5
49E
  8
LAYER_1
 10
-0.0880030621172356
 20
-0.5069021580635745
 30
0.0
  0
VERTEX
  5
49F
  8
LAYER_1
 10
-0.0843866862833555
 20
-0.5192265380076179
 30
0.0
  0
VERTEX
  5
4A0
  8
LAYER_1
 10
-0.0801927903543311
 20
-0.5335190698818886
 30
0.0
  0
VERTEX
  5
4A1
  8
LAYER_1
 10
-0.0755038772008972
 20
-0.5494985891249258
 30
0.0
  0
VERTEX
  5
4A2
  8
LAYER_1
 10
-0.0704024496937887
 20
-0.5668839311752683
 30
0.0
  0
VERTEX
  5
4A3
  8
LAYER_1
 10
-0.0649710107037406
 20
-0.585393931471455
 30
0.0
  0
VERTEX
  5
4A4
  8
LAYER_1
 10
-0.0592920631014879
 20
-0.6047474254520251
 30
0.0
  0
VERTEX
  5
4A5
  8
LAYER_1
 10
-0.0534481097577652
 20
-0.6246632485555171
 30
0.0
  0
VERTEX
  5
4A6
  8
LAYER_1
 10
-0.0475216535433077
 20
-0.6448602362204704
 30
0.0
  0
VERTEX
  5
4A7
  8
LAYER_1
 10
-0.0415951973288501
 20
-0.6650572238854238
 30
0.0
  0
VERTEX
  5
4A8
  8
LAYER_1
 10
-0.0357512439851275
 20
-0.684973046988916
 30
0.0
  0
VERTEX
  5
4A9
  8
LAYER_1
 10
-0.0300722963828746
 20
-0.7043265409694861
 30
0.0
  0
VERTEX
  5
4AA
  8
LAYER_1
 10
-0.0246408573928265
 20
-0.7228365412656732
 30
0.0
  0
VERTEX
  5
4AB
  8
LAYER_1
 10
-0.019539429885718
 20
-0.7402218833160159
 30
0.0
  0
VERTEX
  5
4AC
  8
LAYER_1
 10
-0.014850516732284
 20
-0.7562014025590533
 30
0.0
  0
VERTEX
  5
4AD
  8
LAYER_1
 10
-0.0106566208032594
 20
-0.7704939344333244
 30
0.0
  0
VERTEX
  5
4AE
  8
LAYER_1
 10
-0.0070402449693792
 20
-0.782818314377368
 30
0.0
  0
VERTEX
  5
4AF
  8
LAYER_1
 10
-0.0040838921013783
 20
-0.7928933778297234
 30
0.0
  0
VERTEX
  5
4B0
  8
LAYER_1
 10
-0.0018700650699915
 20
-0.8004379602289289
 30
0.0
  0
VERTEX
  5
4B1
  8
LAYER_1
 10
-0.0004812667459538
 20
-0.805170897013524
 30
0.0
  0
SEQEND
  5
93D
  8
LAYER_1
  0
POLYLINE
  5
6C
  8
LAYER_1
 66
     1
 10
0.0
 20
0.0
 30
0.0
 70
     1
  0
VERTEX
  5
4B2
  8
LAYER_1
 10
0.3989685039370079
 20
0.6215314960629921
 30
0.0
  0
VERTEX
  5
4B3
  8
LAYER_1
 10
0.400658330143628
 20
0.6205107504465588
 30
0.0
  0
VERTEX
  5
4B4
  8
LAYER_1
 10
0.4055346857684456
 20
0.6175651702391366
 30
0.0
  0
VERTEX
  5
4B5
  8
LAYER_1
 10
0.4133078863188976
 20
0.6128697404035433
 30
0.0
  0
VERTEX
  5
4B6
  8
LAYER_1
 10
0.4236882473024206
 20
0.6065994459025955
 30
0.0
  0
VERTEX
  5
4B7
  8
LAYER_1
 10
0.4363860842264508
 20
0.5989292716991105
 30
0.0
  0
VERTEX
  5
4B8
  8
LAYER_1
 10
0.4511117125984252
 20
0.5900342027559055
 30
0.0
  0
VERTEX
  5
4B9
  8
LAYER_1
 10
0.4675754479257802
 20
0.5800892240357975
 30
0.0
  0
VERTEX
  5
4BA
  8
LAYER_1
 10
0.4854876057159522
 20
0.569269320501604
 30
0.0
  0
VERTEX
  5
4BB
  8
LAYER_1
 10
0.504558501476378
 20
0.5577494771161416
 30
0.0
  0
VERTEX
  5
4BC
  8
LAYER_1
 10
0.5244984507144941
 20
0.5457046788422281
 30
0.0
  0
VERTEX
  5
4BD
  8
LAYER_1
 10
0.545017768937737
 20
0.53330991064268
 30
0.0
  0
VERTEX
  5
4BE
  8
LAYER_1
 10
0.5658267716535434
 20
0.5207401574803149
 30
0.0
  0
VERTEX
  5
4BF
  8
LAYER_1
 10
0.5866357743693498
 20
0.5081704043179497
 30
0.0
  0
VERTEX
  5
4C0
  8
LAYER_1
 10
0.6071550925925927
 20
0.4957756361184018
 30
0.0
  0
VERTEX
  5
4C1
  8
LAYER_1
 10
0.6270950418307089
 20
0.4837308378444881
 30
0.0
  0
VERTEX
  5
4C2
  8
LAYER_1
 10
0.6461659375911346
 20
0.4722109944590259
 30
0.0
  0
VERTEX
  5
4C3
  8
LAYER_1
 10
0.6640780953813068
 20
0.4613910909248322
 30
0.0
  0
VERTEX
  5
4C4
  8
LAYER_1
 10
0.6805418307086615
 20
0.4514461122047244
 30
0.0
  0
VERTEX
  5
4C5
  8
LAYER_1
 10
0.6952674590806358
 20
0.4425510432615193
 30
0.0
  0
VERTEX
  5
4C6
  8
LAYER_1
 10
0.7079652960046661
 20
0.4348808690580344
 30
0.0
  0
VERTEX
  5
4C7
  8
LAYER_1
 10
0.7183456569881891
 20
0.4286105745570866
 30
0.0
  0
VERTEX
  5
4C8
  8
LAYER_1
 10
0.7261188575386411
 20
0.4239151447214932
 30
0.0
  0
VERTEX
  5
4C9
  8
LAYER_1
 10
0.7309952131634587
 20
0.4209695645140711
 30
0.0
  0
VERTEX
  5
4CA
  8
LAYER_1
 10
0.7326850393700788
 20
0.4199488188976378
 30
0.0
  0
VERTEX
  5
4CB
  8
LAYER_1
 10
0.7313178718057379
 20
0.4199488188976379
 30
0.0
  0
VERTEX
  5
4CC
  8
LAYER_1
 10
0.7273726168343541
 20
0.4199488188976378
 30
0.0
  0
VERTEX
  5
4CD
  8
LAYER_1
 10
0.7210836460383856
 20
0.4199488188976377
 30
0.0
  0
VERTEX
  5
4CE
  8
LAYER_1
 10
0.7126853310002915
 20
0.4199488188976378
 30
0.0
  0
VERTEX
  5
4CF
  8
LAYER_1
 10
0.7024120433025298
 20
0.4199488188976379
 30
0.0
  0
VERTEX
  5
4D0
  8
LAYER_1
 10
0.690498154527559
 20
0.4199488188976378
 30
0.0
  0
VERTEX
  5
4D1
  8
LAYER_1
 10
0.6771780362578375
 20
0.4199488188976378
 30
0.0
  0
VERTEX
  5
4D2
  8
LAYER_1
 10
0.6626860600758238
 20
0.4199488188976378
 30
0.0
  0
VERTEX
  5
4D3
  8
LAYER_1
 10
0.6472565975639764
 20
0.4199488188976379
 30
0.0
  0
VERTEX
  5
4D4
  8
LAYER_1
 10
0.6311240203047535
 20
0.4199488188976379
 30
0.0
  0
VERTEX
  5
4D5
  8
LAYER_1
 10
0.6145226998806136
 20
0.4199488188976377
 30
0.0
  0
VERTEX
  5
4D6
  8
LAYER_1
 10
0.5976870078740157
 20
0.4199488188976378
 30
0.0
  0
VERTEX
  5
4D7
  8
LAYER_1
 10
0.5808513158674177
 20
0.4199488188976379
 30
0.0
  0
VERTEX
  5
4D8
  8
LAYER_1
 10
0.5642499954432779
 20
0.4199488188976378
 30
0.0
  0
VERTEX
  5
4D9
  8
LAYER_1
 10
0.5481174181840551
 20
0.4199488188976378
 30
0.0
  0
VERTEX
  5
4DA
  8
LAYER_1
 10
0.5326879556722077
 20
0.4199488188976378
 30
0.0
  0
VERTEX
  5
4DB
  8
LAYER_1
 10
0.518195979490194
 20
0.4199488188976378
 30
0.0
  0
VERTEX
  5
4DC
  8
LAYER_1
 10
0.5048758612204727
 20
0.4199488188976378
 30
0.0
  0
VERTEX
  5
4DD
  8
LAYER_1
 10
0.4929619724455019
 20
0.4199488188976378
 30
0.0
  0
VERTEX
  5
4DE
  8
LAYER_1
 10
0.4826886847477401
 20
0.4199488188976378
 30
0.0
  0
VERTEX
  5
4DF
  8
LAYER_1
 10
0.4742903697096459
 20
0.4199488188976378
 30
0.0
  0
VERTEX
  5
4E0
  8
LAYER_1
 10
0.4680013989136776
 20
0.4199488188976378
 30
0.0
  0
VERTEX
  5
4E1
  8
LAYER_1
 10
0.4640561439422938
 20
0.4199488188976377
 30
0.0
  0
VERTEX
  5
4E2
  8
LAYER_1
 10
0.4626889763779528
 20
0.4199488188976378
 30
0.0
  0
VERTEX
  5
4E3
  8
LAYER_1
 10
0.4623663177356737
 20
0.4209695645140711
 30
0.0
  0
VERTEX
  5
4E4
  8
LAYER_1
 10
0.4614352170822398
 20
0.423915144721493
 30
0.0
  0
VERTEX
  5
4E5
  8
LAYER_1
 10
0.459950987327756
 20
0.4286105745570863
 30
0.0
  0
VERTEX
  5
4E6
  8
LAYER_1
 10
0.4579689413823273
 20
0.434880869058034
 30
0.0
  0
VERTEX
  5
4E7
  8
LAYER_1
 10
0.4555443921560587
 20
0.4425510432615189
 30
0.0
  0
VERTEX
  5
4E8
  8
LAYER_1
 10
0.4527326525590553
 20
0.4514461122047239
 30
0.0
  0
VERTEX
  5
4E9
  8
LAYER_1
 10
0.4495890355014219
 20
0.4613910909248316
 30
0.0
  0
VERTEX
  5
4EA
  8
LAYER_1
 10
0.4461688538932636
 20
0.4722109944590251
 30
0.0
  0
VERTEX
  5
4EB
  8
LAYER_1
 10
0.4425274206446852
 20
0.4837308378444874
 30
0.0
  0
VERTEX
  5
4EC
  8
LAYER_1
 10
0.4387200486657921
 20
0.4957756361184009
 30
0.0
  0
VERTEX
  5
4ED
  8
LAYER_1
 10
0.4348020508666888
 20
0.5081704043179488
 30
0.0
  0
VERTEX
  5
4EE
  8
LAYER_1
 10
0.4308287401574805
 20
0.5207401574803139
 30
0.0
  0
VERTEX
  5
4EF
  8
LAYER_1
 10
0.4268554294482725
 20
0.5333099106426791
 30
0.0
  0
VERTEX
  5
4F0
  8
LAYER_1
 10
0.4229374316491692
 20
0.545704678842227
 30
0.0
  0
VERTEX
  5
4F1
  8
LAYER_1
 10
0.4191300596702759
 20
0.5577494771161406
 30
0.0
  0
VERTEX
  5
4F2
  8
LAYER_1
 10
0.4154886264216976
 20
0.569269320501603
 30
0.0
  0
VERTEX
  5
4F3
  8
LAYER_1
 10
0.4120684448135393
 20
0.5800892240357967
 30
0.0
  0
VERTEX
  5
4F4
  8
LAYER_1
 10
0.4089248277559059
 20
0.5900342027559047
 30
0.0
  0
VERTEX
  5
4F5
  8
LAYER_1
 10
0.4061130881589023
 20
0.5989292716991097
 30
0.0
  0
VERTEX
  5
4F6
  8
LAYER_1
 10
0.4036885389326337
 20
0.6065994459025947
 30
0.0
  0
VERTEX
  5
4F7
  8
LAYER_1
 10
0.401706492987205
 20
0.6128697404035426
 30
0.0
  0
VERTEX
  5
4F8
  8
LAYER_1
 10
0.400222263232721
 20
0.6175651702391363
 30
0.0
  0
VERTEX
  5
4F9
  8
LAYER_1
 10
0.399291162579287
 20
0.6205107504465585
 30
0.0
  0
SEQEND
  5
93E
  8
LAYER_1
  0
POLYLINE
  5
6D
  8
LAYER_1
 66
     1
 10
0.0
 20
0.0
 30
0.0
 70
     1
  0
VERTEX
  5
4FA
  8
LAYER_1
 10
0.3486535433070866
 20
0.6324330708661418
 30
0.0
  0
VERTEX
  5
4FB
  8
LAYER_1
 10
0.3489847344114538
 20
0.6313571234097042
 30
0.0
  0
VERTEX
  5
4FC
  8
LAYER_1
 10
0.3499404573126275
 20
0.6282522464639836
 30
0.0
  0
VERTEX
  5
4FD
  8
LAYER_1
 10
0.3514639363927166
 20
0.6233028881643701
 30
0.0
  0
VERTEX
  5
4FE
  8
LAYER_1
 10
0.3534983960338292
 20
0.6166934966462526
 30
0.0
  0
VERTEX
  5
4FF
  8
LAYER_1
 10
0.3559870606180737
 20
0.6086085200450203
 30
0.0
  0
VERTEX
  5
500
  8
LAYER_1
 10
0.358873154527559
 20
0.5992324064960629
 30
0.0
  0
VERTEX
  5
501
  8
LAYER_1
 10
0.3620999021443934
 20
0.5887496041347696
 30
0.0
  0
VERTEX
  5
502
  8
LAYER_1
 10
0.3656105278506854
 20
0.5773445610965297
 30
0.0
  0
VERTEX
  5
503
  8
LAYER_1
 10
0.3693482560285433
 20
0.5652017255167322
 30
0.0
  0
VERTEX
  5
504
  8
LAYER_1
 10
0.3732563110600759
 20
0.552505545530767
 30
0.0
  0
VERTEX
  5
505
  8
LAYER_1
 10
0.3772779173273914
 20
0.539440469274023
 30
0.0
  0
VERTEX
  5
506
  8
LAYER_1
 10
0.3813562992125984
 20
0.5261909448818898
 30
0.0
  0
VERTEX
  5
507
  8
LAYER_1
 10
0.3854346810978055
 20
0.5129414204897564
 30
0.0
  0
VERTEX
  5
508
  8
LAYER_1
 10
0.3894562873651211
 20
0.4998763442330125
 30
0.0
  0
VERTEX
  5
509
  8
LAYER_1
 10
0.3933643423966536
 20
0.4871801642470472
 30
0.0
  0
VERTEX
  5
50A
  8
LAYER_1
 10
0.3971020705745116
 20
0.4750373286672499
 30
0.0
  0
VERTEX
  5
50B
  8
LAYER_1
 10
0.4006126962808035
 20
0.4636322856290099
 30
0.0
  0
VERTEX
  5
50C
  8
LAYER_1
 10
0.4038394438976379
 20
0.4531494832677165
 30
0.0
  0
VERTEX
  5
50D
  8
LAYER_1
 10
0.4067255378071231
 20
0.4437733697187591
 30
0.0
  0
VERTEX
  5
50E
  8
LAYER_1
 10
0.4092142023913677
 20
0.4356883931175269
 30
0.0
  0
VERTEX
  5
50F
  8
LAYER_1
 10
0.4112486620324804
 20
0.4290790015994095
 30
0.0
  0
VERTEX
  5
510
  8
LAYER_1
 10
0.4127721411125694
 20
0.4241296432997959
 30
0.0
  0
VERTEX
  5
511
  8
LAYER_1
 10
0.4137278640137431
 20
0.4210247663540755
 30
0.0
  0
VERTEX
  5
512
  8
LAYER_1
 10
0.4140590551181103
 20
0.4199488188976378
 30
0.0
  0
VERTEX
  5
513
  8
LAYER_1
 10
0.4123182733668709
 20
0.4199488188976379
 30
0.0
  0
VERTEX
  5
514
  8
LAYER_1
 10
0.4072948745990085
 20
0.4199488188976378
 30
0.0
  0
VERTEX
  5
515
  8
LAYER_1
 10
0.399287278543307
 20
0.4199488188976377
 30
0.0
  0
VERTEX
  5
516
  8
LAYER_1
 10
0.3885939049285506
 20
0.4199488188976378
 30
0.0
  0
VERTEX
  5
517
  8
LAYER_1
 10
0.3755131734835229
 20
0.4199488188976379
 30
0.0
  0
VERTEX
  5
518
  8
LAYER_1
 10
0.3603435039370078
 20
0.4199488188976378
 30
0.0
  0
VERTEX
  5
519
  8
LAYER_1
 10
0.3433833160177892
 20
0.4199488188976378
 30
0.0
  0
VERTEX
  5
51A
  8
LAYER_1
 10
0.3249310294546514
 20
0.4199488188976378
 30
0.0
  0
VERTEX
  5
51B
  8
LAYER_1
 10
0.3052850639763778
 20
0.4199488188976379
 30
0.0
  0
VERTEX
  5
51C
  8
LAYER_1
 10
0.2847438393117525
 20
0.4199488188976379
 30
0.0
  0
VERTEX
  5
51D
  8
LAYER_1
 10
0.2636057751895592
 20
0.4199488188976377
 30
0.0
  0
VERTEX
  5
51E
  8
LAYER_1
 10
0.2421692913385825
 20
0.4199488188976378
 30
0.0
  0
VERTEX
  5
51F
  8
LAYER_1
 10
0.2207328074876056
 20
0.4199488188976379
 30
0.0
  0
VERTEX
  5
520
  8
LAYER_1
 10
0.1995947433654126
 20
0.4199488188976378
 30
0.0
  0
VERTEX
  5
521
  8
LAYER_1
 10
0.1790535187007874
 20
0.4199488188976378
 30
0.0
  0
VERTEX
  5
522
  8
LAYER_1
 10
0.1594075532225139
 20
0.4199488188976378
 30
0.0
  0
VERTEX
  5
523
  8
LAYER_1
 10
0.140955266659376
 20
0.4199488188976378
 30
0.0
  0
VERTEX
  5
524
  8
LAYER_1
 10
0.1239950787401577
 20
0.4199488188976378
 30
0.0
  0
VERTEX
  5
525
  8
LAYER_1
 10
0.1088254091936427
 20
0.4199488188976378
 30
0.0
  0
VERTEX
  5
526
  8
LAYER_1
 10
0.0957446777486149
 20
0.4199488188976378
 30
0.0
  0
VERTEX
  5
527
  8
LAYER_1
 10
0.0850513041338585
 20
0.4199488188976378
 30
0.0
  0
VERTEX
  5
528
  8
LAYER_1
 10
0.0770437080781571
 20
0.4199488188976378
 30
0.0
  0
VERTEX
  5
529
  8
LAYER_1
 10
0.0720203093102946
 20
0.4199488188976377
 30
0.0
  0
VERTEX
  5
52A
  8
LAYER_1
 10
0.0702795275590551
 20
0.4199488188976378
 30
0.0
  0
VERTEX
  5
52B
  8
LAYER_1
 10
0.0716891182059273
 20
0.4210247663540755
 30
0.0
  0
VERTEX
  5
52C
  8
LAYER_1
 10
0.0757567940726157
 20
0.4241296432997957
 30
0.0
  0
VERTEX
  5
52D
  8
LAYER_1
 10
0.082240911048228
 20
0.4290790015994091
 30
0.0
  0
VERTEX
  5
52E
  8
LAYER_1
 10
0.0908998250218718
 20
0.4356883931175266
 30
0.0
  0
VERTEX
  5
52F
  8
LAYER_1
 10
0.1014918918826547
 20
0.4437733697187586
 30
0.0
  0
VERTEX
  5
530
  8
LAYER_1
 10
0.1137754675196843
 20
0.453149483267716
 30
0.0
  0
VERTEX
  5
531
  8
LAYER_1
 10
0.1275089078220683
 20
0.4636322856290092
 30
0.0
  0
VERTEX
  5
532
  8
LAYER_1
 10
0.1424505686789141
 20
0.4750373286672491
 30
0.0
  0
VERTEX
  5
533
  8
LAYER_1
 10
0.1583588059793296
 20
0.4871801642470464
 30
0.0
  0
VERTEX
  5
534
  8
LAYER_1
 10
0.1749919756124222
 20
0.4998763442330115
 30
0.0
  0
VERTEX
  5
535
  8
LAYER_1
 10
0.1921084334672997
 20
0.5129414204897554
 30
0.0
  0
VERTEX
  5
536
  8
LAYER_1
 10
0.2094665354330695
 20
0.5261909448818887
 30
0.0
  0
VERTEX
  5
537
  8
LAYER_1
 10
0.2268246373988393
 20
0.539440469274022
 30
0.0
  0
VERTEX
  5
538
  8
LAYER_1
 10
0.2439410952537168
 20
0.5525055455307659
 30
0.0
  0
VERTEX
  5
539
  8
LAYER_1
 10
0.2605742648868096
 20
0.5652017255167312
 30
0.0
  0
VERTEX
  5
53A
  8
LAYER_1
 10
0.2764825021872251
 20
0.5773445610965285
 30
0.0
  0
VERTEX
  5
53B
  8
LAYER_1
 10
0.2914241630440713
 20
0.5887496041347686
 30
0.0
  0
VERTEX
  5
53C
  8
LAYER_1
 10
0.3051576033464554
 20
0.5992324064960621
 30
0.0
  0
VERTEX
  5
53D
  8
LAYER_1
 10
0.3174411789834852
 20
0.6086085200450195
 30
0.0
  0
VERTEX
  5
53E
  8
LAYER_1
 10
0.3280332458442684
 20
0.6166934966462518
 30
0.0
  0
VERTEX
  5
53F
  8
LAYER_1
 10
0.3366921598179126
 20
0.6233028881643694
 30
0.0
  0
VERTEX
  5
540
  8
LAYER_1
 10
0.3431762767935251
 20
0.6282522464639833
 30
0.0
  0
VERTEX
  5
541
  8
LAYER_1
 10
0.347243952660214
 20
0.6313571234097038
 30
0.0
  0
SEQEND
  5
93F
  8
LAYER_1
  0
POLYLINE
  5
6E
  8
LAYER_1
 66
     1
 10
0.0
 20
0.0
 30
0.0
 70
     1
  0
VERTEX
  5
542
  8
LAYER_1
 10
0.0
 20
0.4199488188976378
 30
0.0
  0
VERTEX
  5
543
  8
LAYER_1
 10
0.0016092064012832
 20
0.4212166470727619
 30
0.0
  0
VERTEX
  5
544
  8
LAYER_1
 10
0.0062529163021289
 20
0.424875236949548
 30
0.0
  0
VERTEX
  5
545
  8
LAYER_1
 10
0.0136552657480315
 20
0.4307072465551182
 30
0.0
  0
VERTEX
  5
546
  8
LAYER_1
 10
0.0235403907844853
 20
0.4384953339165938
 30
0.0
  0
VERTEX
  5
547
  8
LAYER_1
 10
0.0356324274569845
 20
0.4480221570610966
 30
0.0
  0
VERTEX
  5
548
  8
LAYER_1
 10
0.0496555118110236
 20
0.4590703740157479
 30
0.0
  0
VERTEX
  5
549
  8
LAYER_1
 10
0.0653337798920968
 20
0.4714226428076699
 30
0.0
  0
VERTEX
  5
54A
  8
LAYER_1
 10
0.0823913677456985
 20
0.4848616214639837
 30
0.0
  0
VERTEX
  5
54B
  8
LAYER_1
 10
0.1005524114173228
 20
0.499169968011811
 30
0.0
  0
VERTEX
  5
54C
  8
LAYER_1
 10
0.1195410469524643
 20
0.5141303404782734
 30
0.0
  0
VERTEX
  5
54D
  8
LAYER_1
 10
0.1390814103966171
 20
0.5295253968904928
 30
0.0
  0
VERTEX
  5
54E
  8
LAYER_1
 10
0.1588976377952756
 20
0.5451377952755906
 30
0.0
  0
VERTEX
  5
54F
  8
LAYER_1
 10
0.1787138651939341
 20
0.5607501936606882
 30
0.0
  0
VERTEX
  5
550
  8
LAYER_1
 10
0.1982542286380869
 20
0.5761452500729075
 30
0.0
  0
VERTEX
  5
551
  8
LAYER_1
 10
0.2172428641732283
 20
0.59110562253937
 30
0.0
  0
VERTEX
  5
552
  8
LAYER_1
 10
0.2354039078448527
 20
0.6054139690871974
 30
0.0
  0
VERTEX
  5
553
  8
LAYER_1
 10
0.2524614956984543
 20
0.6188529477435112
 30
0.0
  0
VERTEX
  5
554
  8
LAYER_1
 10
0.2681397637795275
 20
0.6312052165354329
 30
0.0
  0
VERTEX
  5
555
  8
LAYER_1
 10
0.2821628481335666
 20
0.6422534334900845
 30
0.0
  0
VERTEX
  5
556
  8
LAYER_1
 10
0.2942548848060658
 20
0.6517802566345872
 30
0.0
  0
VERTEX
  5
557
  8
LAYER_1
 10
0.3041400098425197
 20
0.6595683439960629
 30
0.0
  0
VERTEX
  5
558
  8
LAYER_1
 10
0.3115423592884223
 20
0.6654003536016331
 30
0.0
  0
VERTEX
  5
559
  8
LAYER_1
 10
0.316186069189268
 20
0.6690589434784193
 30
0.0
  0
VERTEX
  5
55A
  8
LAYER_1
 10
0.3177952755905512
 20
0.6703267716535433
 30
0.0
  0
VERTEX
  5
55B
  8
LAYER_1
 10
0.3161860691892681
 20
0.6712268865968576
 30
0.0
  0
VERTEX
  5
55C
  8
LAYER_1
 10
0.3115423592884224
 20
0.6738243611475649
 30
0.0
  0
VERTEX
  5
55D
  8
LAYER_1
 10
0.3041400098425198
 20
0.677964889886811
 30
0.0
  0
VERTEX
  5
55E
  8
LAYER_1
 10
0.2942548848060659
 20
0.6834941673957421
 30
0.0
  0
VERTEX
  5
55F
  8
LAYER_1
 10
0.2821628481335667
 20
0.6902578882555045
 30
0.0
  0
VERTEX
  5
560
  8
LAYER_1
 10
0.2681397637795276
 20
0.6981017470472439
 30
0.0
  0
VERTEX
  5
561
  8
LAYER_1
 10
0.2524614956984544
 20
0.7068714383521071
 30
0.0
  0
VERTEX
  5
562
  8
LAYER_1
 10
0.2354039078448527
 20
0.7164126567512393
 30
0.0
  0
VERTEX
  5
563
  8
LAYER_1
 10
0.2172428641732282
 20
0.7265710968257874
 30
0.0
  0
VERTEX
  5
564
  8
LAYER_1
 10
0.1982542286380868
 20
0.7371924531568971
 30
0.0
  0
VERTEX
  5
565
  8
LAYER_1
 10
0.178713865193934
 20
0.7481224203257145
 30
0.0
  0
VERTEX
  5
566
  8
LAYER_1
 10
0.1588976377952754
 20
0.7592066929133859
 30
0.0
  0
VERTEX
  5
567
  8
LAYER_1
 10
0.1390814103966169
 20
0.7702909655010574
 30
0.0
  0
VERTEX
  5
568
  8
LAYER_1
 10
0.119541046952464
 20
0.7812209326698748
 30
0.0
  0
VERTEX
  5
569
  8
LAYER_1
 10
0.1005524114173225
 20
0.7918422890009844
 30
0.0
  0
VERTEX
  5
56A
  8
LAYER_1
 10
0.0823913677456981
 20
0.8020007290755324
 30
0.0
  0
VERTEX
  5
56B
  8
LAYER_1
 10
0.0653337798920965
 20
0.8115419474746648
 30
0.0
  0
VERTEX
  5
56C
  8
LAYER_1
 10
0.0496555118110233
 20
0.8203116387795277
 30
0.0
  0
VERTEX
  5
56D
  8
LAYER_1
 10
0.0356324274569842
 20
0.8281554975712673
 30
0.0
  0
VERTEX
  5
56E
  8
LAYER_1
 10
0.023540390784485
 20
0.8349192184310297
 30
0.0
  0
VERTEX
  5
56F
  8
LAYER_1
 10
0.0136552657480313
 20
0.8404484959399607
 30
0.0
  0
VERTEX
  5
570
  8
LAYER_1
 10
0.0062529163021287
 20
0.8445890246792068
 30
0.0
  0
VERTEX
  5
571
  8
LAYER_1
 10
0.0016092064012831
 20
0.8471864992299141
 30
0.0
  0
VERTEX
  5
572
  8
LAYER_1
 10
0.0
 20
0.8480866141732284
 30
0.0
  0
VERTEX
  5
573
  8
LAYER_1
 10
-0.0016092263369423
 20
0.8471864992299138
 30
0.0
  0
VERTEX
  5
574
  8
LAYER_1
 10
-0.0062529937664044
 20
0.8445890246792068
 30
0.0
  0
VERTEX
  5
575
  8
LAYER_1
 10
-0.0136554349163388
 20
0.8404484959399606
 30
0.0
  0
VERTEX
  5
576
  8
LAYER_1
 10
-0.0235406824146984
 20
0.8349192184310295
 30
0.0
  0
VERTEX
  5
577
  8
LAYER_1
 10
-0.0356328688894359
 20
0.8281554975712669
 30
0.0
  0
VERTEX
  5
578
  8
LAYER_1
 10
-0.0496561269685041
 20
0.8203116387795276
 30
0.0
  0
VERTEX
  5
579
  8
LAYER_1
 10
-0.0653345892798557
 20
0.8115419474746646
 30
0.0
  0
VERTEX
  5
57A
  8
LAYER_1
 10
-0.0823923884514436
 20
0.8020007290755322
 30
0.0
  0
VERTEX
  5
57B
  8
LAYER_1
 10
-0.1005536571112205
 20
0.7918422890009843
 30
0.0
  0
VERTEX
  5
57C
  8
LAYER_1
 10
-0.119542527887139
 20
0.7812209326698746
 30
0.0
  0
VERTEX
  5
57D
  8
LAYER_1
 10
-0.1390831334071521
 20
0.7702909655010572
 30
0.0
  0
VERTEX
  5
57E
  8
LAYER_1
 10
-0.1588996062992124
 20
0.7592066929133859
 30
0.0
  0
VERTEX
  5
57F
  8
LAYER_1
 10
-0.1787160791912727
 20
0.7481224203257147
 30
0.0
  0
VERTEX
  5
580
  8
LAYER_1
 10
-0.1982566847112857
 20
0.7371924531568972
 30
0.0
  0
VERTEX
  5
581
  8
LAYER_1
 10
-0.2172455554872043
 20
0.7265710968257877
 30
0.0
  0
VERTEX
  5
582
  8
LAYER_1
 10
-0.2354068241469812
 20
0.7164126567512397
 30
0.0
  0
VERTEX
  5
583
  8
LAYER_1
 10
-0.2524646233185691
 20
0.7068714383521073
 30
0.0
  0
VERTEX
  5
584
  8
LAYER_1
 10
-0.2681430856299208
 20
0.6981017470472444
 30
0.0
  0
VERTEX
  5
585
  8
LAYER_1
 10
-0.282166343708989
 20
0.6902578882555047
 30
0.0
  0
VERTEX
  5
586
  8
LAYER_1
 10
-0.2942585301837266
 20
0.6834941673957424
 30
0.0
  0
VERTEX
  5
587
  8
LAYER_1
 10
-0.3041437776820862
 20
0.6779648898868111
 30
0.0
  0
VERTEX
  5
588
  8
LAYER_1
 10
-0.3115462188320207
 20
0.673824361147565
 30
0.0
  0
VERTEX
  5
589
  8
LAYER_1
 10
-0.3161899862614828
 20
0.6712268865968578
 30
0.0
  0
VERTEX
  5
58A
  8
LAYER_1
 10
-0.3177992125984252
 20
0.6703267716535433
 30
0.0
  0
VERTEX
  5
58B
  8
LAYER_1
 10
-0.3161899862614831
 20
0.6690589434784194
 30
0.0
  0
VERTEX
  5
58C
  8
LAYER_1
 10
-0.3115462188320214
 20
0.6654003536016333
 30
0.0
  0
VERTEX
  5
58D
  8
LAYER_1
 10
-0.3041437776820872
 20
0.6595683439960633
 30
0.0
  0
VERTEX
  5
58E
  8
LAYER_1
 10
-0.2942585301837277
 20
0.6517802566345877
 30
0.0
  0
VERTEX
  5
58F
  8
LAYER_1
 10
-0.2821663437089905
 20
0.6422534334900853
 30
0.0
  0
VERTEX
  5
590
  8
LAYER_1
 10
-0.2681430856299224
 20
0.6312052165354339
 30
0.0
  0
VERTEX
  5
591
  8
LAYER_1
 10
-0.2524646233185708
 20
0.6188529477435121
 30
0.0
  0
VERTEX
  5
592
  8
LAYER_1
 10
-0.2354068241469831
 20
0.6054139690871985
 30
0.0
  0
VERTEX
  5
593
  8
LAYER_1
 10
-0.2172455554872063
 20
0.5911056225393714
 30
0.0
  0
VERTEX
  5
594
  8
LAYER_1
 10
-0.1982566847112878
 20
0.5761452500729088
 30
0.0
  0
VERTEX
  5
595
  8
LAYER_1
 10
-0.1787160791912748
 20
0.5607501936606897
 30
0.0
  0
VERTEX
  5
596
  8
LAYER_1
 10
-0.1588996062992145
 20
0.545137795275592
 30
0.0
  0
VERTEX
  5
597
  8
LAYER_1
 10
-0.1390831334071542
 20
0.5295253968904944
 30
0.0
  0
VERTEX
  5
598
  8
LAYER_1
 10
-0.1195425278871411
 20
0.5141303404782751
 30
0.0
  0
VERTEX
  5
599
  8
LAYER_1
 10
-0.1005536571112225
 20
0.4991699680118126
 30
0.0
  0
VERTEX
  5
59A
  8
LAYER_1
 10
-0.0823923884514455
 20
0.4848616214639853
 30
0.0
  0
VERTEX
  5
59B
  8
LAYER_1
 10
-0.0653345892798575
 20
0.4714226428076714
 30
0.0
  0
VERTEX
  5
59C
  8
LAYER_1
 10
-0.0496561269685057
 20
0.4590703740157495
 30
0.0
  0
VERTEX
  5
59D
  8
LAYER_1
 10
-0.0356328688894373
 20
0.4480221570610978
 30
0.0
  0
VERTEX
  5
59E
  8
LAYER_1
 10
-0.0235406824146995
 20
0.4384953339165948
 30
0.0
  0
VERTEX
  5
59F
  8
LAYER_1
 10
-0.0136554349163397
 20
0.430707246555119
 30
0.0
  0
VERTEX
  5
5A0
  8
LAYER_1
 10
-0.006252993766405
 20
0.4248752369495485
 30
0.0
  0
VERTEX
  5
5A1
  8
LAYER_1
 10
-0.0016092263369427
 20
0.4212166470727621
 30
0.0
  0
SEQEND
  5
940
  8
LAYER_1
  0
POLYLINE
  5
6F
  8
LAYER_1
 66
     1
 10
0.0
 20
0.0
 30
0.0
 70
     1
  0
VERTEX
  5
5A2
  8
LAYER_1
 10
-0.0821968503937008
 20
0.8599055118110236
 30
0.0
  0
VERTEX
  5
5A3
  8
LAYER_1
 10
-0.0842962547162074
 20
0.8599055118110238
 30
0.0
  0
VERTEX
  5
5A4
  8
LAYER_1
 10
-0.0903545357611549
 20
0.8599055118110235
 30
0.0
  0
VERTEX
  5
5A5
  8
LAYER_1
 10
-0.1000117956446851
 20
0.8599055118110235
 30
0.0
  0
VERTEX
  5
5A6
  8
LAYER_1
 10
-0.1129081364829397
 20
0.8599055118110237
 30
0.0
  0
VERTEX
  5
5A7
  8
LAYER_1
 10
-0.1286836603920604
 20
0.8599055118110235
 30
0.0
  0
VERTEX
  5
5A8
  8
LAYER_1
 10
-0.146978469488189
 20
0.8599055118110236
 30
0.0
  0
VERTEX
  5
5A9
  8
LAYER_1
 10
-0.1674326658874673
 20
0.8599055118110238
 30
0.0
  0
VERTEX
  5
5AA
  8
LAYER_1
 10
-0.1896863517060368
 20
0.8599055118110235
 30
0.0
  0
VERTEX
  5
5AB
  8
LAYER_1
 10
-0.2133796290600394
 20
0.8599055118110237
 30
0.0
  0
VERTEX
  5
5AC
  8
LAYER_1
 10
-0.2381526000656168
 20
0.8599055118110235
 30
0.0
  0
VERTEX
  5
5AD
  8
LAYER_1
 10
-0.2636453668389108
 20
0.8599055118110235
 30
0.0
  0
VERTEX
  5
5AE
  8
LAYER_1
 10
-0.2894980314960631
 20
0.8599055118110236
 30
0.0
  0
VERTEX
  5
5AF
  8
LAYER_1
 10
-0.3153506961532153
 20
0.8599055118110236
 30
0.0
  0
VERTEX
  5
5B0
  8
LAYER_1
 10
-0.3408434629265092
 20
0.8599055118110235
 30
0.0
  0
VERTEX
  5
5B1
  8
LAYER_1
 10
-0.3656164339320868
 20
0.8599055118110237
 30
0.0
  0
VERTEX
  5
5B2
  8
LAYER_1
 10
-0.3893097112860894
 20
0.8599055118110237
 30
0.0
  0
VERTEX
  5
5B3
  8
LAYER_1
 10
-0.4115633971046589
 20
0.8599055118110237
 30
0.0
  0
VERTEX
  5
5B4
  8
LAYER_1
 10
-0.4320175935039371
 20
0.8599055118110235
 30
0.0
  0
VERTEX
  5
5B5
  8
LAYER_1
 10
-0.4503124026000657
 20
0.8599055118110235
 30
0.0
  0
VERTEX
  5
5B6
  8
LAYER_1
 10
-0.4660879265091863
 20
0.8599055118110235
 30
0.0
  0
VERTEX
  5
5B7
  8
LAYER_1
 10
-0.478984267347441
 20
0.8599055118110237
 30
0.0
  0
VERTEX
  5
5B8
  8
LAYER_1
 10
-0.4886415272309712
 20
0.8599055118110236
 30
0.0
  0
VERTEX
  5
5B9
  8
LAYER_1
 10
-0.4946998082759186
 20
0.8599055118110235
 30
0.0
  0
VERTEX
  5
5BA
  8
LAYER_1
 10
-0.4967992125984252
 20
0.8599055118110236
 30
0.0
  0
VERTEX
  5
5BB
  8
LAYER_1
 10
-0.4960919153497741
 20
0.8591333040563941
 30
0.0
  0
VERTEX
  5
5BC
  8
LAYER_1
 10
-0.4940508575750948
 20
0.85690493310732
 30
0.0
  0
VERTEX
  5
5BD
  8
LAYER_1
 10
-0.4907972902312991
 20
0.8533527774360234
 30
0.0
  0
VERTEX
  5
5BE
  8
LAYER_1
 10
-0.4864524642752989
 20
0.8486092155147272
 30
0.0
  0
VERTEX
  5
5BF
  8
LAYER_1
 10
-0.4811376306640055
 20
0.8428066258156534
 30
0.0
  0
VERTEX
  5
5C0
  8
LAYER_1
 10
-0.4749740403543307
 20
0.8360773868110235
 30
0.0
  0
VERTEX
  5
5C1
  8
LAYER_1
 10
-0.468082944303186
 20
0.8285538769730605
 30
0.0
  0
VERTEX
  5
5C2
  8
LAYER_1
 10
-0.4605855934674832
 20
0.8203684747739864
 30
0.0
  0
VERTEX
  5
5C3
  8
LAYER_1
 10
-0.4526032388041338
 20
0.8116535586860236
 30
0.0
  0
VERTEX
  5
5C4
  8
LAYER_1
 10
-0.4442571312700494
 20
0.8025415071813939
 30
0.0
  0
VERTEX
  5
5C5
  8
LAYER_1
 10
-0.4356685218221418
 20
0.7931646987323195
 30
0.0
  0
VERTEX
  5
5C6
  8
LAYER_1
 10
-0.4269586614173227
 20
0.7836555118110234
 30
0.0
  0
VERTEX
  5
5C7
  8
LAYER_1
 10
-0.4182488010125036
 20
0.7741463248897273
 30
0.0
  0
VERTEX
  5
5C8
  8
LAYER_1
 10
-0.4096601915645961
 20
0.7647695164406532
 30
0.0
  0
VERTEX
  5
5C9
  8
LAYER_1
 10
-0.4013140840305118
 20
0.7556574649360236
 30
0.0
  0
VERTEX
  5
5CA
  8
LAYER_1
 10
-0.3933317293671625
 20
0.7469425488480608
 30
0.0
  0
VERTEX
  5
5CB
  8
LAYER_1
 10
-0.3858343785314596
 20
0.7387571466489866
 30
0.0
  0
VERTEX
  5
5CC
  8
LAYER_1
 10
-0.3789432824803151
 20
0.7312336368110237
 30
0.0
  0
VERTEX
  5
5CD
  8
LAYER_1
 10
-0.3727796921706402
 20
0.7245043978063941
 30
0.0
  0
VERTEX
  5
5CE
  8
LAYER_1
 10
-0.3674648585593469
 20
0.71870180810732
 30
0.0
  0
VERTEX
  5
5CF
  8
LAYER_1
 10
-0.3631200326033466
 20
0.7139582461860237
 30
0.0
  0
VERTEX
  5
5D0
  8
LAYER_1
 10
-0.359866465259551
 20
0.7104060905147274
 30
0.0
  0
VERTEX
  5
5D1
  8
LAYER_1
 10
-0.3578254074848717
 20
0.7081777195656532
 30
0.0
  0
VERTEX
  5
5D2
  8
LAYER_1
 10
-0.3571181102362205
 20
0.7074055118110236
 30
0.0
  0
VERTEX
  5
5D3
  8
LAYER_1
 10
-0.3557260031623652
 20
0.7081777195656531
 30
0.0
  0
VERTEX
  5
5D4
  8
LAYER_1
 10
-0.3517087798920971
 20
0.7104060905147271
 30
0.0
  0
VERTEX
  5
5D5
  8
LAYER_1
 10
-0.3453050873523625
 20
0.7139582461860235
 30
0.0
  0
VERTEX
  5
5D6
  8
LAYER_1
 10
-0.3367535724701083
 20
0.7187018081073195
 30
0.0
  0
VERTEX
  5
5D7
  8
LAYER_1
 10
-0.326292882172281
 20
0.7245043978063936
 30
0.0
  0
VERTEX
  5
5D8
  8
LAYER_1
 10
-0.3141616633858275
 20
0.7312336368110232
 30
0.0
  0
VERTEX
  5
5D9
  8
LAYER_1
 10
-0.300598563037694
 20
0.7387571466489861
 30
0.0
  0
VERTEX
  5
5DA
  8
LAYER_1
 10
-0.2858422280548273
 20
0.7469425488480599
 30
0.0
  0
VERTEX
  5
5DB
  8
LAYER_1
 10
-0.2701313053641742
 20
0.7556574649360229
 30
0.0
  0
VERTEX
  5
5DC
  8
LAYER_1
 10
-0.2537044418926812
 20
0.7647695164406525
 30
0.0
  0
VERTEX
  5
5DD
  8
LAYER_1
 10
-0.2368002845672949
 20
0.7741463248897266
 30
0.0
  0
VERTEX
  5
5DE
  8
LAYER_1
 10
-0.2196574803149619
 20
0.7836555118110227
 30
0.0
  0
VERTEX
  5
5DF
  8
LAYER_1
 10
-0.202514676062629
 20
0.7931646987323191
 30
0.0
  0
VERTEX
  5
5E0
  8
LAYER_1
 10
-0.1856105187372426
 20
0.8025415071813933
 30
0.0
  0
VERTEX
  5
5E1
  8
LAYER_1
 10
-0.1691836552657495
 20
0.8116535586860228
 30
0.0
  0
VERTEX
  5
5E2
  8
LAYER_1
 10
-0.1534727325750962
 20
0.8203684747739858
 30
0.0
  0
VERTEX
  5
5E3
  8
LAYER_1
 10
-0.1387163975922294
 20
0.8285538769730599
 30
0.0
  0
VERTEX
  5
5E4
  8
LAYER_1
 10
-0.1251532972440958
 20
0.836077386811023
 30
0.0
  0
VERTEX
  5
5E5
  8
LAYER_1
 10
-0.1130220784576419
 20
0.8428066258156526
 30
0.0
  0
VERTEX
  5
5E6
  8
LAYER_1
 10
-0.1025613881598144
 20
0.8486092155147267
 30
0.0
  0
VERTEX
  5
5E7
  8
LAYER_1
 10
-0.0940098732775599
 20
0.8533527774360232
 30
0.0
  0
VERTEX
  5
5E8
  8
LAYER_1
 10
-0.087606180737825
 20
0.8569049331073195
 30
0.0
  0
VERTEX
  5
5E9
  8
LAYER_1
 10
-0.0835889574675565
 20
0.8591333040563938
 30
0.0
  0
SEQEND
  5
941
  8
LAYER_1
  0
POLYLINE
  5
70
  8
LAYER_1
 66
     1
 10
0.0
 20
0.0
 30
0.0
 70
     1
  0
VERTEX
  5
5EA
  8
LAYER_1
 10
-0.6504015748031496
 20
0.8599055118110236
 30
0.0
  0
VERTEX
  5
5EB
  8
LAYER_1
 10
-0.6506968617855062
 20
0.8599055118110238
 30
0.0
  0
VERTEX
  5
5EC
  8
LAYER_1
 10
-0.6515489756488773
 20
0.8599055118110235
 30
0.0
  0
VERTEX
  5
5ED
  8
LAYER_1
 10
-0.6529072957677167
 20
0.8599055118110235
 30
0.0
  0
VERTEX
  5
5EE
  8
LAYER_1
 10
-0.6547212015164772
 20
0.8599055118110237
 30
0.0
  0
VERTEX
  5
5EF
  8
LAYER_1
 10
-0.656940072269612
 20
0.8599055118110235
 30
0.0
  0
VERTEX
  5
5F0
  8
LAYER_1
 10
-0.6595132874015748
 20
0.8599055118110236
 30
0.0
  0
VERTEX
  5
5F1
  8
LAYER_1
 10
-0.6623902262868184
 20
0.8599055118110238
 30
0.0
  0
VERTEX
  5
5F2
  8
LAYER_1
 10
-0.6655202682997959
 20
0.8599055118110235
 30
0.0
  0
VERTEX
  5
5F3
  8
LAYER_1
 10
-0.6688527928149607
 20
0.8599055118110237
 30
0.0
  0
VERTEX
  5
5F4
  8
LAYER_1
 10
-0.672337179206766
 20
0.8599055118110235
 30
0.0
  0
VERTEX
  5
5F5
  8
LAYER_1
 10
-0.6759228068496647
 20
0.8599055118110235
 30
0.0
  0
VERTEX
  5
5F6
  8
LAYER_1
 10
-0.6795590551181103
 20
0.8599055118110236
 30
0.0
  0
VERTEX
  5
5F7
  8
LAYER_1
 10
-0.6831953033865559
 20
0.8599055118110236
 30
0.0
  0
VERTEX
  5
5F8
  8
LAYER_1
 10
-0.6867809310294546
 20
0.8599055118110235
 30
0.0
  0
VERTEX
  5
5F9
  8
LAYER_1
 10
-0.6902653174212598
 20
0.8599055118110237
 30
0.0
  0
VERTEX
  5
5FA
  8
LAYER_1
 10
-0.6935978419364246
 20
0.8599055118110237
 30
0.0
  0
VERTEX
  5
5FB
  8
LAYER_1
 10
-0.6967278839494022
 20
0.8599055118110237
 30
0.0
  0
VERTEX
  5
5FC
  8
LAYER_1
 10
-0.6996048228346456
 20
0.8599055118110235
 30
0.0
  0
VERTEX
  5
5FD
  8
LAYER_1
 10
-0.7021780379666084
 20
0.8599055118110235
 30
0.0
  0
VERTEX
  5
5FE
  8
LAYER_1
 10
-0.7043969087197433
 20
0.8599055118110235
 30
0.0
  0
VERTEX
  5
5FF
  8
LAYER_1
 10
-0.706210814468504
 20
0.8599055118110237
 30
0.0
  0
VERTEX
  5
600
  8
LAYER_1
 10
-0.7075691345873433
 20
0.8599055118110236
 30
0.0
  0
VERTEX
  5
601
  8
LAYER_1
 10
-0.7084212484507145
 20
0.8599055118110235
 30
0.0
  0
VERTEX
  5
602
  8
LAYER_1
 10
-0.7087165354330709
 20
0.8599055118110236
 30
0.0
  0
VERTEX
  5
603
  8
LAYER_1
 10
-0.7090952730843543
 20
0.8595757361384515
 30
0.0
  0
VERTEX
  5
604
  8
LAYER_1
 10
-0.7101882017351999
 20
0.8586240977690289
 30
0.0
  0
VERTEX
  5
605
  8
LAYER_1
 10
-0.7119303949311023
 20
0.8571071296751968
 30
0.0
  0
VERTEX
  5
606
  8
LAYER_1
 10
-0.7142569262175561
 20
0.8550813648293962
 30
0.0
  0
VERTEX
  5
607
  8
LAYER_1
 10
-0.7171028691400554
 20
0.8526033362040684
 30
0.0
  0
VERTEX
  5
608
  8
LAYER_1
 10
-0.7204032972440946
 20
0.8497295767716535
 30
0.0
  0
VERTEX
  5
609
  8
LAYER_1
 10
-0.7240932840751677
 20
0.846516619504593
 30
0.0
  0
VERTEX
  5
60A
  8
LAYER_1
 10
-0.7281079031787694
 20
0.843020997375328
 30
0.0
  0
VERTEX
  5
60B
  8
LAYER_1
 10
-0.7323822281003939
 20
0.8392992433562992
 30
0.0
  0
VERTEX
  5
60C
  8
LAYER_1
 10
-0.7368513323855352
 20
0.8354078904199475
 30
0.0
  0
VERTEX
  5
60D
  8
LAYER_1
 10
-0.741450289579688
 20
0.8314034715387136
 30
0.0
  0
VERTEX
  5
60E
  8
LAYER_1
 10
-0.7461141732283465
 20
0.8273425196850392
 30
0.0
  0
VERTEX
  5
60F
  8
LAYER_1
 10
-0.750778056877005
 20
0.8232815678313647
 30
0.0
  0
VERTEX
  5
610
  8
LAYER_1
 10
-0.7553770140711578
 20
0.8192771489501312
 30
0.0
  0
VERTEX
  5
611
  8
LAYER_1
 10
-0.7598461183562992
 20
0.8153857960137796
 30
0.0
  0
VERTEX
  5
612
  8
LAYER_1
 10
-0.7641204432779236
 20
0.8116640419947507
 30
0.0
  0
VERTEX
  5
613
  8
LAYER_1
 10
-0.7681350623815252
 20
0.8081684198654855
 30
0.0
  0
VERTEX
  5
614
  8
LAYER_1
 10
-0.7718250492125984
 20
0.8049554625984252
 30
0.0
  0
VERTEX
  5
615
  8
LAYER_1
 10
-0.7751254773166374
 20
0.8020817031660106
 30
0.0
  0
VERTEX
  5
616
  8
LAYER_1
 10
-0.7779714202391368
 20
0.7996036745406825
 30
0.0
  0
VERTEX
  5
617
  8
LAYER_1
 10
-0.7802979515255906
 20
0.797577909694882
 30
0.0
  0
VERTEX
  5
618
  8
LAYER_1
 10
-0.782040144721493
 20
0.7960609416010499
 30
0.0
  0
VERTEX
  5
619
  8
LAYER_1
 10
-0.7831330733723387
 20
0.7951093032316273
 30
0.0
  0
VERTEX
  5
61A
  8
LAYER_1
 10
-0.783511811023622
 20
0.7947795275590551
 30
0.0
  0
VERTEX
  5
61B
  8
LAYER_1
 10
-0.7828377863899825
 20
0.7951093032316271
 30
0.0
  0
VERTEX
  5
61C
  8
LAYER_1
 10
-0.7808927438757655
 20
0.7960609416010499
 30
0.0
  0
VERTEX
  5
61D
  8
LAYER_1
 10
-0.7777922305610238
 20
0.797577909694882
 30
0.0
  0
VERTEX
  5
61E
  8
LAYER_1
 10
-0.7736517935258094
 20
0.7996036745406823
 30
0.0
  0
VERTEX
  5
61F
  8
LAYER_1
 10
-0.7685869798501751
 20
0.8020817031660104
 30
0.0
  0
VERTEX
  5
620
  8
LAYER_1
 10
-0.7627133366141735
 20
0.8049554625984249
 30
0.0
  0
VERTEX
  5
621
  8
LAYER_1
 10
-0.7561464108978567
 20
0.8081684198654853
 30
0.0
  0
VERTEX
  5
622
  8
LAYER_1
 10
-0.7490017497812776
 20
0.8116640419947502
 30
0.0
  0
VERTEX
  5
623
  8
LAYER_1
 10
-0.7413949003444886
 20
0.8153857960137791
 30
0.0
  0
VERTEX
  5
624
  8
LAYER_1
 10
-0.7334414096675419
 20
0.8192771489501307
 30
0.0
  0
VERTEX
  5
625
  8
LAYER_1
 10
-0.7252568248304904
 20
0.8232815678313644
 30
0.0
  0
VERTEX
  5
626
  8
LAYER_1
 10
-0.7169566929133862
 20
0.8273425196850388
 30
0.0
  0
VERTEX
  5
627
  8
LAYER_1
 10
-0.7086565609962824
 20
0.8314034715387135
 30
0.0
  0
VERTEX
  5
628
  8
LAYER_1
 10
-0.7004719761592307
 20
0.8354078904199471
 30
0.0
  0
VERTEX
  5
629
  8
LAYER_1
 10
-0.6925184854822842
 20
0.8392992433562989
 30
0.0
  0
VERTEX
  5
62A
  8
LAYER_1
 10
-0.684911636045495
 20
0.8430209973753278
 30
0.0
  0
VERTEX
  5
62B
  8
LAYER_1
 10
-0.6777669749289159
 20
0.8465166195045929
 30
0.0
  0
VERTEX
  5
62C
  8
LAYER_1
 10
-0.6712000492125991
 20
0.8497295767716533
 30
0.0
  0
VERTEX
  5
62D
  8
LAYER_1
 10
-0.6653264059765973
 20
0.8526033362040679
 30
0.0
  0
VERTEX
  5
62E
  8
LAYER_1
 10
-0.6602615923009629
 20
0.855081364829396
 30
0.0
  0
VERTEX
  5
62F
  8
LAYER_1
 10
-0.6561211552657484
 20
0.8571071296751966
 30
0.0
  0
VERTEX
  5
630
  8
LAYER_1
 10
-0.6530206419510065
 20
0.8586240977690287
 30
0.0
  0
VERTEX
  5
631
  8
LAYER_1
 10
-0.6510755994367893
 20
0.8595757361384514
 30
0.0
  0
SEQEND
  5
942
  8
LAYER_1
  0
POLYLINE
  5
71
  8
LAYER_1
 66
     1
 10
0.0
 20
0.0
 30
0.0
 70
     1
  0
VERTEX
  5
632
  8
LAYER_1
 10
-0.5624330708661417
 20
0.8527047244094488
 30
0.0
  0
VERTEX
  5
633
  8
LAYER_1
 10
-0.5641341407844853
 20
0.8518509798091647
 30
0.0
  0
VERTEX
  5
634
  8
LAYER_1
 10
-0.5690429425488479
 20
0.8493873168197725
 30
0.0
  0
VERTEX
  5
635
  8
LAYER_1
 10
-0.5768678641732284
 20
0.8454600916584645
 30
0.0
  0
VERTEX
  5
636
  8
LAYER_1
 10
-0.5873172936716244
 20
0.8402156605424324
 30
0.0
  0
VERTEX
  5
637
  8
LAYER_1
 10
-0.6000996190580346
 20
0.8338003796888672
 30
0.0
  0
VERTEX
  5
638
  8
LAYER_1
 10
-0.6149232283464565
 20
0.8263606053149606
 30
0.0
  0
VERTEX
  5
639
  8
LAYER_1
 10
-0.6314965095508894
 20
0.8180426936379047
 30
0.0
  0
VERTEX
  5
63A
  8
LAYER_1
 10
-0.6495278506853311
 20
0.8089930008748907
 30
0.0
  0
VERTEX
  5
63B
  8
LAYER_1
 10
-0.6687256397637796
 20
0.7993578832431102
 30
0.0
  0
VERTEX
  5
63C
  8
LAYER_1
 10
-0.6887982648002332
 20
0.7892836969597549
 30
0.0
  0
VERTEX
  5
63D
  8
LAYER_1
 10
-0.7094541138086906
 20
0.7789167982420165
 30
0.0
  0
VERTEX
  5
63E
  8
LAYER_1
 10
-0.7304015748031496
 20
0.7684035433070866
 30
0.0
  0
VERTEX
  5
63F
  8
LAYER_1
 10
-0.7513490357976087
 20
0.7578902883721567
 30
0.0
  0
VERTEX
  5
640
  8
LAYER_1
 10
-0.7720048848060659
 20
0.7475233896544182
 30
0.0
  0
VERTEX
  5
641
  8
LAYER_1
 10
-0.7920775098425197
 20
0.7374492033710631
 30
0.0
  0
VERTEX
  5
642
  8
LAYER_1
 10
-0.8112752989209682
 20
0.7278140857392826
 30
0.0
  0
VERTEX
  5
643
  8
LAYER_1
 10
-0.8293066400554097
 20
0.7187643929762686
 30
0.0
  0
VERTEX
  5
644
  8
LAYER_1
 10
-0.8458799212598425
 20
0.7104464812992126
 30
0.0
  0
VERTEX
  5
645
  8
LAYER_1
 10
-0.8607035305482647
 20
0.7030067069253063
 30
0.0
  0
VERTEX
  5
646
  8
LAYER_1
 10
-0.8734858559346748
 20
0.6965914260717411
 30
0.0
  0
VERTEX
  5
647
  8
LAYER_1
 10
-0.8839352854330709
 20
0.6913469949557087
 30
0.0
  0
VERTEX
  5
648
  8
LAYER_1
 10
-0.8917602070574512
 20
0.6874197697944008
 30
0.0
  0
VERTEX
  5
649
  8
LAYER_1
 10
-0.8966690088218139
 20
0.6849561068050087
 30
0.0
  0
VERTEX
  5
64A
  8
LAYER_1
 10
-0.8983700787401575
 20
0.6841023622047244
 30
0.0
  0
VERTEX
  5
64B
  8
LAYER_1
 10
-0.8978308590332458
 20
0.6828570214530476
 30
0.0
  0
VERTEX
  5
64C
  8
LAYER_1
 10
-0.8962748250218725
 20
0.6792633238553515
 30
0.0
  0
VERTEX
  5
64D
  8
LAYER_1
 10
-0.8937944143700789
 20
0.6735347563976378
 30
0.0
  0
VERTEX
  5
64E
  8
LAYER_1
 10
-0.8904820647419073
 20
0.6658848060659083
 30
0.0
  0
VERTEX
  5
64F
  8
LAYER_1
 10
-0.8864302138014
 20
0.6565269598461653
 30
0.0
  0
VERTEX
  5
650
  8
LAYER_1
 10
-0.8817312992125984
 20
0.6456747047244094
 30
0.0
  0
VERTEX
  5
651
  8
LAYER_1
 10
-0.8764777586395451
 20
0.6335415276866434
 30
0.0
  0
VERTEX
  5
652
  8
LAYER_1
 10
-0.8707620297462816
 20
0.6203409157188684
 30
0.0
  0
VERTEX
  5
653
  8
LAYER_1
 10
-0.8646765501968503
 20
0.6062863558070865
 30
0.0
  0
VERTEX
  5
654
  8
LAYER_1
 10
-0.8583137576552929
 20
0.5915913349372994
 30
0.0
  0
VERTEX
  5
655
  8
LAYER_1
 10
-0.8517660897856518
 20
0.5764693400955088
 30
0.0
  0
VERTEX
  5
656
  8
LAYER_1
 10
-0.8451259842519684
 20
0.5611338582677163
 30
0.0
  0
VERTEX
  5
657
  8
LAYER_1
 10
-0.8384858787182852
 20
0.545798376439924
 30
0.0
  0
VERTEX
  5
658
  8
LAYER_1
 10
-0.8319382108486438
 20
0.5306763815981334
 30
0.0
  0
VERTEX
  5
659
  8
LAYER_1
 10
-0.8255754183070865
 20
0.5159813607283461
 30
0.0
  0
VERTEX
  5
65A
  8
LAYER_1
 10
-0.8194899387576552
 20
0.5019268008165643
 30
0.0
  0
VERTEX
  5
65B
  8
LAYER_1
 10
-0.8137742098643918
 20
0.4887261888487894
 30
0.0
  0
VERTEX
  5
65C
  8
LAYER_1
 10
-0.8085206692913385
 20
0.4765930118110233
 30
0.0
  0
VERTEX
  5
65D
  8
LAYER_1
 10
-0.803821754702537
 20
0.4657407566892677
 30
0.0
  0
VERTEX
  5
65E
  8
LAYER_1
 10
-0.7997699037620296
 20
0.4563829104695244
 30
0.0
  0
VERTEX
  5
65F
  8
LAYER_1
 10
-0.7964575541338581
 20
0.448732960137795
 30
0.0
  0
VERTEX
  5
660
  8
LAYER_1
 10
-0.7939771434820646
 20
0.4430043926800814
 30
0.0
  0
VERTEX
  5
661
  8
LAYER_1
 10
-0.7924211094706912
 20
0.4394106950823854
 30
0.0
  0
VERTEX
  5
662
  8
LAYER_1
 10
-0.7918818897637795
 20
0.4381653543307086
 30
0.0
  0
VERTEX
  5
663
  8
LAYER_1
 10
-0.7898919720809636
 20
0.4393850179534849
 30
0.0
  0
VERTEX
  5
664
  8
LAYER_1
 10
-0.7841496381962669
 20
0.4429046186934967
 30
0.0
  0
VERTEX
  5
665
  8
LAYER_1
 10
-0.7749960168553147
 20
0.4485150713582678
 30
0.0
  0
VERTEX
  5
666
  8
LAYER_1
 10
-0.7627722368037325
 20
0.4560072907553224
 30
0.0
  0
VERTEX
  5
667
  8
LAYER_1
 10
-0.7478194267871461
 20
0.4651721916921844
 30
0.0
  0
VERTEX
  5
668
  8
LAYER_1
 10
-0.7304787155511809
 20
0.475800688976378
 30
0.0
  0
VERTEX
  5
669
  8
LAYER_1
 10
-0.7110912318414624
 20
0.4876836974154273
 30
0.0
  0
VERTEX
  5
66A
  8
LAYER_1
 10
-0.6899981044036162
 20
0.5006121318168562
 30
0.0
  0
VERTEX
  5
66B
  8
LAYER_1
 10
-0.6675404619832677
 20
0.5143769069881889
 30
0.0
  0
VERTEX
  5
66C
  8
LAYER_1
 10
-0.6440594333260425
 20
0.5287689377369494
 30
0.0
  0
VERTEX
  5
66D
  8
LAYER_1
 10
-0.6198961471775665
 20
0.5435791388706619
 30
0.0
  0
VERTEX
  5
66E
  8
LAYER_1
 10
-0.5953917322834648
 20
0.5585984251968503
 30
0.0
  0
VERTEX
  5
66F
  8
LAYER_1
 10
-0.570887317389363
 20
0.5736177115230386
 30
0.0
  0
VERTEX
  5
670
  8
LAYER_1
 10
-0.546724031240887
 20
0.588427912656751
 30
0.0
  0
VERTEX
  5
671
  8
LAYER_1
 10
-0.5232430025836619
 20
0.6028199434055115
 30
0.0
  0
VERTEX
  5
672
  8
LAYER_1
 10
-0.5007853601633134
 20
0.6165847185768443
 30
0.0
  0
VERTEX
  5
673
  8
LAYER_1
 10
-0.4796922327254671
 20
0.6295131529782733
 30
0.0
  0
VERTEX
  5
674
  8
LAYER_1
 10
-0.4603047490157486
 20
0.6413961614173225
 30
0.0
  0
VERTEX
  5
675
  8
LAYER_1
 10
-0.4429640377797833
 20
0.6520246587015162
 30
0.0
  0
VERTEX
  5
676
  8
LAYER_1
 10
-0.4280112277631968
 20
0.6611895596383782
 30
0.0
  0
VERTEX
  5
677
  8
LAYER_1
 10
-0.4157874477116146
 20
0.6686817790354328
 30
0.0
  0
VERTEX
  5
678
  8
LAYER_1
 10
-0.4066338263706623
 20
0.6742922317002039
 30
0.0
  0
VERTEX
  5
679
  8
LAYER_1
 10
-0.4008914924859655
 20
0.6778118324402158
 30
0.0
  0
VERTEX
  5
67A
  8
LAYER_1
 10
-0.3989015748031496
 20
0.6790314960629922
 30
0.0
  0
VERTEX
  5
67B
  8
LAYER_1
 10
-0.3997296422745333
 20
0.6799109177921769
 30
0.0
  0
VERTEX
  5
67C
  8
LAYER_1
 10
-0.4021192084062407
 20
0.6824486776392533
 30
0.0
  0
VERTEX
  5
67D
  8
LAYER_1
 10
-0.4059283187746059
 20
0.6864940175935037
 30
0.0
  0
VERTEX
  5
67E
  8
LAYER_1
 10
-0.4110150189559634
 20
0.6918961796442107
 30
0.0
  0
VERTEX
  5
67F
  8
LAYER_1
 10
-0.4172373545266473
 20
0.6985044057806573
 30
0.0
  0
VERTEX
  5
680
  8
LAYER_1
 10
-0.4244533710629915
 20
0.7061679379921253
 30
0.0
  0
VERTEX
  5
681
  8
LAYER_1
 10
-0.4325211141413307
 20
0.7147360182678981
 30
0.0
  0
VERTEX
  5
682
  8
LAYER_1
 10
-0.4412986293379987
 20
0.724057888597258
 30
0.0
  0
VERTEX
  5
683
  8
LAYER_1
 10
-0.4506439622293298
 20
0.7339827909694873
 30
0.0
  0
VERTEX
  5
684
  8
LAYER_1
 10
-0.4604151583916585
 20
0.7443599673738691
 30
0.0
  0
VERTEX
  5
685
  8
LAYER_1
 10
-0.4704702634013186
 20
0.7550386597996854
 30
0.0
  0
VERTEX
  5
686
  8
LAYER_1
 10
-0.4806673228346446
 20
0.7658681102362195
 30
0.0
  0
VERTEX
  5
687
  8
LAYER_1
 10
-0.4908643822679707
 20
0.7766975606727533
 30
0.0
  0
VERTEX
  5
688
  8
LAYER_1
 10
-0.5009194872776309
 20
0.78737625309857
 30
0.0
  0
VERTEX
  5
689
  8
LAYER_1
 10
-0.5106906834399595
 20
0.7977534295029516
 30
0.0
  0
VERTEX
  5
68A
  8
LAYER_1
 10
-0.5200360163312909
 20
0.8076783318751812
 30
0.0
  0
VERTEX
  5
68B
  8
LAYER_1
 10
-0.5288135315279591
 20
0.8170002022045412
 30
0.0
  0
VERTEX
  5
68C
  8
LAYER_1
 10
-0.5368812746062983
 20
0.825568282480314
 30
0.0
  0
VERTEX
  5
68D
  8
LAYER_1
 10
-0.5440972911426427
 20
0.8332318146917824
 30
0.0
  0
VERTEX
  5
68E
  8
LAYER_1
 10
-0.5503196267133267
 20
0.8398400408282289
 30
0.0
  0
VERTEX
  5
68F
  8
LAYER_1
 10
-0.5554063268946845
 20
0.8452422028789364
 30
0.0
  0
VERTEX
  5
690
  8
LAYER_1
 10
-0.55921543726305
 20
0.849287542833187
 30
0.0
  0
VERTEX
  5
691
  8
LAYER_1
 10
-0.5616050033947577
 20
0.8518253026802637
 30
0.0
  0
SEQEND
  5
943
  8
LAYER_1
  0
POLYLINE
  5
72
  8
LAYER_1
 66
     1
 10
0.0
 20
0.0
 30
0.0
 70
     1
  0
VERTEX
  5
692
  8
LAYER_1
 10
-0.9281929133858268
 20
0.6312834645669292
 30
0.0
  0
VERTEX
  5
693
  8
LAYER_1
 10
-0.9286432200532228
 20
0.6302133383229441
 30
0.0
  0
VERTEX
  5
694
  8
LAYER_1
 10
-0.9299426764362787
 20
0.6271252597331584
 30
0.0
  0
VERTEX
  5
695
  8
LAYER_1
 10
-0.9320140871062992
 20
0.6222026790108268
 30
0.0
  0
VERTEX
  5
696
  8
LAYER_1
 10
-0.9347802566345874
 20
0.6156290463692039
 30
0.0
  0
VERTEX
  5
697
  8
LAYER_1
 10
-0.9381639895924467
 20
0.6075878120215442
 30
0.0
  0
VERTEX
  5
698
  8
LAYER_1
 10
-0.9420880905511809
 20
0.5982624261811024
 30
0.0
  0
VERTEX
  5
699
  8
LAYER_1
 10
-0.9464753640820939
 20
0.5878363390611331
 30
0.0
  0
VERTEX
  5
69A
  8
LAYER_1
 10
-0.9512486147564885
 20
0.5764930008748907
 30
0.0
  0
VERTEX
  5
69B
  8
LAYER_1
 10
-0.9563306471456692
 20
0.5644158618356299
 30
0.0
  0
VERTEX
  5
69C
  8
LAYER_1
 10
-0.9616442658209389
 20
0.5517883721566055
 30
0.0
  0
VERTEX
  5
69D
  8
LAYER_1
 10
-0.9671122753536014
 20
0.5387939820510717
 30
0.0
  0
VERTEX
  5
69E
  8
LAYER_1
 10
-0.9726574803149605
 20
0.5256161417322834
 30
0.0
  0
VERTEX
  5
69F
  8
LAYER_1
 10
-0.9782026852763193
 20
0.5124383014134951
 30
0.0
  0
VERTEX
  5
6A0
  8
LAYER_1
 10
-0.9836706948089818
 20
0.4994439113079615
 30
0.0
  0
VERTEX
  5
6A1
  8
LAYER_1
 10
-0.9889843134842516
 20
0.486816421628937
 30
0.0
  0
VERTEX
  5
6A2
  8
LAYER_1
 10
-0.9940663458734322
 20
0.4747392825896762
 30
0.0
  0
VERTEX
  5
6A3
  8
LAYER_1
 10
-0.9988395965478272
 20
0.4633959444034339
 30
0.0
  0
VERTEX
  5
6A4
  8
LAYER_1
 10
-1.00322687007874
 20
0.4529698572834645
 30
0.0
  0
VERTEX
  5
6A5
  8
LAYER_1
 10
-1.007150971037474
 20
0.4436444714430227
 30
0.0
  0
VERTEX
  5
6A6
  8
LAYER_1
 10
-1.010534703995333
 20
0.435603237095363
 30
0.0
  0
VERTEX
  5
6A7
  8
LAYER_1
 10
-1.013300873523622
 20
0.4290296044537402
 30
0.0
  0
VERTEX
  5
6A8
  8
LAYER_1
 10
-1.015372284193642
 20
0.4241070237314086
 30
0.0
  0
VERTEX
  5
6A9
  8
LAYER_1
 10
-1.016671740576698
 20
0.4210189451416229
 30
0.0
  0
VERTEX
  5
6AA
  8
LAYER_1
 10
-1.017122047244094
 20
0.4199488188976378
 30
0.0
  0
VERTEX
  5
6AB
  8
LAYER_1
 10
-1.016214037779782
 20
0.4199488188976379
 30
0.0
  0
VERTEX
  5
6AC
  8
LAYER_1
 10
-1.013593781897054
 20
0.4199488188976378
 30
0.0
  0
VERTEX
  5
6AD
  8
LAYER_1
 10
-1.00941693836122
 20
0.4199488188976377
 30
0.0
  0
VERTEX
  5
6AE
  8
LAYER_1
 10
-1.003839165937591
 20
0.4199488188976378
 30
0.0
  0
VERTEX
  5
6AF
  8
LAYER_1
 10
-0.9970161233914768
 20
0.4199488188976379
 30
0.0
  0
VERTEX
  5
6B0
  8
LAYER_1
 10
-0.9891034694881884
 20
0.4199488188976378
 30
0.0
  0
VERTEX
  5
6B1
  8
LAYER_1
 10
-0.9802568629930367
 20
0.4199488188976378
 30
0.0
  0
VERTEX
  5
6B2
  8
LAYER_1
 10
-0.9706319626713323
 20
0.4199488188976378
 30
0.0
  0
VERTEX
  5
6B3
  8
LAYER_1
 10
-0.9603844272883855
 20
0.4199488188976379
 30
0.0
  0
VERTEX
  5
6B4
  8
LAYER_1
 10
-0.9496699156095068
 20
0.4199488188976379
 30
0.0
  0
VERTEX
  5
6B5
  8
LAYER_1
 10
-0.9386440864000067
 20
0.4199488188976377
 30
0.0
  0
VERTEX
  5
6B6
  8
LAYER_1
 10
-0.9274625984251965
 20
0.4199488188976378
 30
0.0
  0
VERTEX
  5
6B7
  8
LAYER_1
 10
-0.9162811104503863
 20
0.4199488188976379
 30
0.0
  0
VERTEX
  5
6B8
  8
LAYER_1
 10
-0.9052552812408863
 20
0.4199488188976378
 30
0.0
  0
VERTEX
  5
6B9
  8
LAYER_1
 10
-0.8945407695620078
 20
0.4199488188976378
 30
0.0
  0
VERTEX
  5
6BA
  8
LAYER_1
 10
-0.8842932341790608
 20
0.4199488188976378
 30
0.0
  0
VERTEX
  5
6BB
  8
LAYER_1
 10
-0.8746683338573564
 20
0.4199488188976378
 30
0.0
  0
VERTEX
  5
6BC
  8
LAYER_1
 10
-0.8658217273622049
 20
0.4199488188976378
 30
0.0
  0
VERTEX
  5
6BD
  8
LAYER_1
 10
-0.8579090734589166
 20
0.4199488188976378
 30
0.0
  0
VERTEX
  5
6BE
  8
LAYER_1
 10
-0.8510860309128027
 20
0.4199488188976378
 30
0.0
  0
VERTEX
  5
6BF
  8
LAYER_1
 10
-0.8455082584891733
 20
0.4199488188976378
 30
0.0
  0
VERTEX
  5
6C0
  8
LAYER_1
 10
-0.8413314149533392
 20
0.4199488188976378
 30
0.0
  0
VERTEX
  5
6C1
  8
LAYER_1
 10
-0.8387111590706109
 20
0.4199488188976377
 30
0.0
  0
VERTEX
  5
6C2
  8
LAYER_1
 10
-0.8378031496062992
 20
0.4199488188976378
 30
0.0
  0
VERTEX
  5
6C3
  8
LAYER_1
 10
-0.8382608524032151
 20
0.4210189451416229
 30
0.0
  0
VERTEX
  5
6C4
  8
LAYER_1
 10
-0.8395816519028869
 20
0.4241070237314084
 30
0.0
  0
VERTEX
  5
6C5
  8
LAYER_1
 10
-0.8416870847687007
 20
0.4290296044537399
 30
0.0
  0
VERTEX
  5
6C6
  8
LAYER_1
 10
-0.8444986876640417
 20
0.4356032370953626
 30
0.0
  0
VERTEX
  5
6C7
  8
LAYER_1
 10
-0.8479379972522965
 20
0.4436444714430223
 30
0.0
  0
VERTEX
  5
6C8
  8
LAYER_1
 10
-0.85192655019685
 20
0.4529698572834641
 30
0.0
  0
VERTEX
  5
6C9
  8
LAYER_1
 10
-0.8563858831610889
 20
0.4633959444034333
 30
0.0
  0
VERTEX
  5
6CA
  8
LAYER_1
 10
-0.8612375328083985
 20
0.4747392825896755
 30
0.0
  0
VERTEX
  5
6CB
  8
LAYER_1
 10
-0.866403035802165
 20
0.4868164216289361
 30
0.0
  0
VERTEX
  5
6CC
  8
LAYER_1
 10
-0.8718039288057738
 20
0.4994439113079606
 30
0.0
  0
VERTEX
  5
6CD
  8
LAYER_1
 10
-0.877361748482611
 20
0.5124383014134942
 30
0.0
  0
VERTEX
  5
6CE
  8
LAYER_1
 10
-0.8829980314960624
 20
0.5256161417322823
 30
0.0
  0
VERTEX
  5
6CF
  8
LAYER_1
 10
-0.888634314509514
 20
0.5387939820510708
 30
0.0
  0
VERTEX
  5
6D0
  8
LAYER_1
 10
-0.8941921341863512
 20
0.5517883721566044
 30
0.0
  0
VERTEX
  5
6D1
  8
LAYER_1
 10
-0.8995930271899601
 20
0.564415861835629
 30
0.0
  0
VERTEX
  5
6D2
  8
LAYER_1
 10
-0.9047585301837267
 20
0.5764930008748896
 30
0.0
  0
VERTEX
  5
6D3
  8
LAYER_1
 10
-0.9096101798310363
 20
0.5878363390611321
 30
0.0
  0
VERTEX
  5
6D4
  8
LAYER_1
 10
-0.9140695127952752
 20
0.5982624261811015
 30
0.0
  0
VERTEX
  5
6D5
  8
LAYER_1
 10
-0.9180580657398291
 20
0.6075878120215434
 30
0.0
  0
VERTEX
  5
6D6
  8
LAYER_1
 10
-0.9214973753280836
 20
0.6156290463692031
 30
0.0
  0
VERTEX
  5
6D7
  8
LAYER_1
 10
-0.924308978223425
 20
0.6222026790108262
 30
0.0
  0
VERTEX
  5
6D8
  8
LAYER_1
 10
-0.9264144110892386
 20
0.627125259733158
 30
0.0
  0
VERTEX
  5
6D9
  8
LAYER_1
 10
-0.9277352105889106
 20
0.6302133383229439
 30
0.0
  0
SEQEND
  5
944
  8
LAYER_1
  0
POLYLINE
  5
73
  8
LAYER_1
 66
     1
 10
0.0
 20
0.0
 30
0.0
 70
     1
  0
VERTEX
  5
6DA
  8
LAYER_1
 10
-0.9909803149606299
 20
0.6053937007874016
 30
0.0
  0
VERTEX
  5
6DB
  8
LAYER_1
 10
-0.9920409119595729
 20
0.6044546714375548
 30
0.0
  0
VERTEX
  5
6DC
  8
LAYER_1
 10
-0.9951014918708077
 20
0.6017449010279965
 30
0.0
  0
VERTEX
  5
6DD
  8
LAYER_1
 10
-0.9999802380659447
 20
0.5974253660187008
 30
0.0
  0
VERTEX
  5
6DE
  8
LAYER_1
 10
-1.006495333916594
 20
0.5916570428696414
 30
0.0
  0
VERTEX
  5
6DF
  8
LAYER_1
 10
-1.014464962794364
 20
0.5846009080407918
 30
0.0
  0
VERTEX
  5
6E0
  8
LAYER_1
 10
-1.023707308070866
 20
0.5764179379921259
 30
0.0
  0
VERTEX
  5
6E1
  8
LAYER_1
 10
-1.034040553117709
 20
0.5672691091836177
 30
0.0
  0
VERTEX
  5
6E2
  8
LAYER_1
 10
-1.045282881306503
 20
0.5573153980752407
 30
0.0
  0
VERTEX
  5
6E3
  8
LAYER_1
 10
-1.057252476008858
 20
0.5467177811269684
 30
0.0
  0
VERTEX
  5
6E4
  8
LAYER_1
 10
-1.069767520596384
 20
0.5356372347987752
 30
0.0
  0
VERTEX
  5
6E5
  8
LAYER_1
 10
-1.08264619844069
 20
0.5242347355506343
 30
0.0
  0
VERTEX
  5
6E6
  8
LAYER_1
 10
-1.095706692913386
 20
0.5126712598425197
 30
0.0
  0
VERTEX
  5
6E7
  8
LAYER_1
 10
-1.108767187386082
 20
0.501107784134405
 30
0.0
  0
VERTEX
  5
6E8
  8
LAYER_1
 10
-1.121645865230388
 20
0.4897052848862642
 30
0.0
  0
VERTEX
  5
6E9
  8
LAYER_1
 10
-1.134160909817914
 20
0.4786247385580708
 30
0.0
  0
VERTEX
  5
6EA
  8
LAYER_1
 10
-1.146130504520269
 20
0.4680271216097988
 30
0.0
  0
VERTEX
  5
6EB
  8
LAYER_1
 10
-1.157372832709063
 20
0.4580734105014217
 30
0.0
  0
VERTEX
  5
6EC
  8
LAYER_1
 10
-1.167706077755906
 20
0.4489245816929134
 30
0.0
  0
VERTEX
  5
6ED
  8
LAYER_1
 10
-1.176948423032408
 20
0.4407416116442475
 30
0.0
  0
VERTEX
  5
6EE
  8
LAYER_1
 10
-1.184918051910178
 20
0.433685476815398
 30
0.0
  0
VERTEX
  5
6EF
  8
LAYER_1
 10
-1.191433147760827
 20
0.4279171536663386
 30
0.0
  0
VERTEX
  5
6F0
  8
LAYER_1
 10
-1.196311893955964
 20
0.4235976186570429
 30
0.0
  0
VERTEX
  5
6F1
  8
LAYER_1
 10
-1.199372473867199
 20
0.4208878482474846
 30
0.0
  0
VERTEX
  5
6F2
  8
LAYER_1
 10
-1.200433070866142
 20
0.4199488188976378
 30
0.0
  0
VERTEX
  5
6F3
  8
LAYER_1
 10
-1.199763212785251
 20
0.4199488188976379
 30
0.0
  0
VERTEX
  5
6F4
  8
LAYER_1
 10
-1.197830193751823
 20
0.4199488188976378
 30
0.0
  0
VERTEX
  5
6F5
  8
LAYER_1
 10
-1.194748846579724
 20
0.4199488188976377
 30
0.0
  0
VERTEX
  5
6F6
  8
LAYER_1
 10
-1.190634004082823
 20
0.4199488188976378
 30
0.0
  0
VERTEX
  5
6F7
  8
LAYER_1
 10
-1.185600499074986
 20
0.4199488188976379
 30
0.0
  0
VERTEX
  5
6F8
  8
LAYER_1
 10
-1.179763164370079
 20
0.4199488188976378
 30
0.0
  0
VERTEX
  5
6F9
  8
LAYER_1
 10
-1.17323683278197
 20
0.4199488188976378
 30
0.0
  0
VERTEX
  5
6FA
  8
LAYER_1
 10
-1.166136337124526
 20
0.4199488188976378
 30
0.0
  0
VERTEX
  5
6FB
  8
LAYER_1
 10
-1.158576510211614
 20
0.4199488188976379
 30
0.0
  0
VERTEX
  5
6FC
  8
LAYER_1
 10
-1.150672184857101
 20
0.4199488188976379
 30
0.0
  0
VERTEX
  5
6FD
  8
LAYER_1
 10
-1.142538193874854
 20
0.4199488188976377
 30
0.0
  0
VERTEX
  5
6FE
  8
LAYER_1
 10
-1.13428937007874
 20
0.4199488188976378
 30
0.0
  0
VERTEX
  5
6FF
  8
LAYER_1
 10
-1.126040546282626
 20
0.4199488188976379
 30
0.0
  0
VERTEX
  5
700
  8
LAYER_1
 10
-1.117906555300379
 20
0.4199488188976378
 30
0.0
  0
VERTEX
  5
701
  8
LAYER_1
 10
-1.110002229945866
 20
0.4199488188976378
 30
0.0
  0
VERTEX
  5
702
  8
LAYER_1
 10
-1.102442403032954
 20
0.4199488188976378
 30
0.0
  0
VERTEX
  5
703
  8
LAYER_1
 10
-1.09534190737551
 20
0.4199488188976378
 30
0.0
  0
VERTEX
  5
704
  8
LAYER_1
 10
-1.088815575787401
 20
0.4199488188976378
 30
0.0
  0
VERTEX
  5
705
  8
LAYER_1
 10
-1.082978241082495
 20
0.4199488188976378
 30
0.0
  0
VERTEX
  5
706
  8
LAYER_1
 10
-1.077944736074657
 20
0.4199488188976378
 30
0.0
  0
VERTEX
  5
707
  8
LAYER_1
 10
-1.073829893577755
 20
0.4199488188976378
 30
0.0
  0
VERTEX
  5
708
  8
LAYER_1
 10
-1.070748546405657
 20
0.4199488188976378
 30
0.0
  0
VERTEX
  5
709
  8
LAYER_1
 10
-1.068815527372229
 20
0.4199488188976377
 30
0.0
  0
VERTEX
  5
70A
  8
LAYER_1
 10
-1.068145669291338
 20
0.4199488188976378
 30
0.0
  0
VERTEX
  5
70B
  8
LAYER_1
 10
-1.067754930373286
 20
0.4208878482474846
 30
0.0
  0
VERTEX
  5
70C
  8
LAYER_1
 10
-1.066627369495479
 20
0.4235976186570427
 30
0.0
  0
VERTEX
  5
70D
  8
LAYER_1
 10
-1.06482997047244
 20
0.4279171536663383
 30
0.0
  0
VERTEX
  5
70E
  8
LAYER_1
 10
-1.062429717118693
 20
0.4336854768153977
 30
0.0
  0
VERTEX
  5
70F
  8
LAYER_1
 10
-1.05949359324876
 20
0.4407416116442472
 30
0.0
  0
VERTEX
  5
710
  8
LAYER_1
 10
-1.056088582677165
 20
0.4489245816929129
 30
0.0
  0
VERTEX
  5
711
  8
LAYER_1
 10
-1.052281669218431
 20
0.4580734105014211
 30
0.0
  0
VERTEX
  5
712
  8
LAYER_1
 10
-1.04813983668708
 20
0.4680271216097981
 30
0.0
  0
VERTEX
  5
713
  8
LAYER_1
 10
-1.043730068897637
 20
0.4786247385580701
 30
0.0
  0
VERTEX
  5
714
  8
LAYER_1
 10
-1.039119349664625
 20
0.4897052848862634
 30
0.0
  0
VERTEX
  5
715
  8
LAYER_1
 10
-1.034374662802566
 20
0.5011077841344042
 30
0.0
  0
VERTEX
  5
716
  8
LAYER_1
 10
-1.029562992125984
 20
0.5126712598425187
 30
0.0
  0
VERTEX
  5
717
  8
LAYER_1
 10
-1.024751321449402
 20
0.5242347355506334
 30
0.0
  0
VERTEX
  5
718
  8
LAYER_1
 10
-1.020006634587343
 20
0.5356372347987742
 30
0.0
  0
VERTEX
  5
719
  8
LAYER_1
 10
-1.015395915354331
 20
0.5467177811269677
 30
0.0
  0
VERTEX
  5
71A
  8
LAYER_1
 10
-1.010986147564888
 20
0.5573153980752397
 30
0.0
  0
VERTEX
  5
71B
  8
LAYER_1
 10
-1.006844315033538
 20
0.5672691091836168
 30
0.0
  0
VERTEX
  5
71C
  8
LAYER_1
 10
-1.003037401574803
 20
0.5764179379921253
 30
0.0
  0
VERTEX
  5
71D
  8
LAYER_1
 10
-0.9996323910032081
 20
0.584600908040791
 30
0.0
  0
VERTEX
  5
71E
  8
LAYER_1
 10
-0.9966962671332753
 20
0.5916570428696407
 30
0.0
  0
VERTEX
  5
71F
  8
LAYER_1
 10
-0.9942960137795277
 20
0.5974253660187003
 30
0.0
  0
VERTEX
  5
720
  8
LAYER_1
 10
-0.9924986147564889
 20
0.6017449010279962
 30
0.0
  0
VERTEX
  5
721
  8
LAYER_1
 10
-0.991371053878682
 20
0.6044546714375545
 30
0.0
  0
SEQEND
  5
945
  8
LAYER_1
  0
POLYLINE
  5
74
  8
LAYER_1
 66
     1
 10
0.0
 20
0.0
 30
0.0
 70
     1
  0
VERTEX
  5
722
  8
LAYER_1
 10
-1.06459842519685
 20
0.3725275590551181
 30
0.0
  0
VERTEX
  5
723
  8
LAYER_1
 10
-1.065274961723534
 20
0.3725275590551181
 30
0.0
  0
VERTEX
  5
724
  8
LAYER_1
 10
-1.067227252843394
 20
0.372527559055118
 30
0.0
  0
VERTEX
  5
725
  8
LAYER_1
 10
-1.070339320866142
 20
0.3725275590551181
 30
0.0
  0
VERTEX
  5
726
  8
LAYER_1
 10
-1.074495188101487
 20
0.3725275590551181
 30
0.0
  0
VERTEX
  5
727
  8
LAYER_1
 10
-1.079578876859142
 20
0.3725275590551181
 30
0.0
  0
VERTEX
  5
728
  8
LAYER_1
 10
-1.085474409448819
 20
0.3725275590551181
 30
0.0
  0
VERTEX
  5
729
  8
LAYER_1
 10
-1.092065808180227
 20
0.3725275590551181
 30
0.0
  0
VERTEX
  5
72A
  8
LAYER_1
 10
-1.09923709536308
 20
0.3725275590551181
 30
0.0
  0
VERTEX
  5
72B
  8
LAYER_1
 10
-1.106872293307086
 20
0.3725275590551181
 30
0.0
  0
VERTEX
  5
72C
  8
LAYER_1
 10
-1.114855424321959
 20
0.3725275590551181
 30
0.0
  0
VERTEX
  5
72D
  8
LAYER_1
 10
-1.12307051071741
 20
0.3725275590551181
 30
0.0
  0
VERTEX
  5
72E
  8
LAYER_1
 10
-1.13140157480315
 20
0.3725275590551181
 30
0.0
  0
VERTEX
  5
72F
  8
LAYER_1
 10
-1.139732638888889
 20
0.3725275590551181
 30
0.0
  0
VERTEX
  5
730
  8
LAYER_1
 10
-1.147947725284339
 20
0.372527559055118
 30
0.0
  0
VERTEX
  5
731
  8
LAYER_1
 10
-1.155930856299213
 20
0.3725275590551181
 30
0.0
  0
VERTEX
  5
732
  8
LAYER_1
 10
-1.16356605424322
 20
0.3725275590551181
 30
0.0
  0
VERTEX
  5
733
  8
LAYER_1
 10
-1.170737341426072
 20
0.3725275590551181
 30
0.0
  0
VERTEX
  5
734
  8
LAYER_1
 10
-1.17732874015748
 20
0.372527559055118
 30
0.0
  0
VERTEX
  5
735
  8
LAYER_1
 10
-1.183224272747156
 20
0.3725275590551181
 30
0.0
  0
VERTEX
  5
736
  8
LAYER_1
 10
-1.188307961504812
 20
0.372527559055118
 30
0.0
  0
VERTEX
  5
737
  8
LAYER_1
 10
-1.192463828740158
 20
0.3725275590551181
 30
0.0
  0
VERTEX
  5
738
  8
LAYER_1
 10
-1.195575896762905
 20
0.3725275590551181
 30
0.0
  0
VERTEX
  5
739
  8
LAYER_1
 10
-1.197528187882765
 20
0.372527559055118
 30
0.0
  0
VERTEX
  5
73A
  8
LAYER_1
 10
-1.198204724409449
 20
0.3725275590551181
 30
0.0
  0
VERTEX
  5
73B
  8
LAYER_1
 10
-1.195991308052639
 20
0.3702957022136556
 30
0.0
  0
VERTEX
  5
73C
  8
LAYER_1
 10
-1.18960402085156
 20
0.3638552010425779
 30
0.0
  0
VERTEX
  5
73D
  8
LAYER_1
 10
-1.179422305610236
 20
0.3535886595718502
 30
0.0
  0
VERTEX
  5
73E
  8
LAYER_1
 10
-1.165825605132692
 20
0.3398786818314375
 30
0.0
  0
VERTEX
  5
73F
  8
LAYER_1
 10
-1.149193362222951
 20
0.3231078718513049
 30
0.0
  0
VERTEX
  5
740
  8
LAYER_1
 10
-1.129905019685039
 20
0.303658833661417
 30
0.0
  0
VERTEX
  5
741
  8
LAYER_1
 10
-1.10834002032298
 20
0.2819141712917393
 30
0.0
  0
VERTEX
  5
742
  8
LAYER_1
 10
-1.084877806940799
 20
0.2582564887722365
 30
0.0
  0
VERTEX
  5
743
  8
LAYER_1
 10
-1.05989782234252
 20
0.2330683901328737
 30
0.0
  0
VERTEX
  5
744
  8
LAYER_1
 10
-1.033779509332167
 20
0.2067324794036159
 30
0.0
  0
VERTEX
  5
745
  8
LAYER_1
 10
-1.006902310713764
 20
0.179631360614428
 30
0.0
  0
VERTEX
  5
746
  8
LAYER_1
 10
-0.9796456692913383
 20
0.1521476377952753
 30
0.0
  0
VERTEX
  5
747
  8
LAYER_1
 10
-0.9523890278689122
 20
0.1246639149761226
 30
0.0
  0
VERTEX
  5
748
  8
LAYER_1
 10
-0.9255118292505102
 20
0.0975627961869349
 30
0.0
  0
VERTEX
  5
749
  8
LAYER_1
 10
-0.8993935162401574
 20
0.0712268854576772
 30
0.0
  0
VERTEX
  5
74A
  8
LAYER_1
 10
-0.8744135316418781
 20
0.0460387868183145
 30
0.0
  0
VERTEX
  5
74B
  8
LAYER_1
 10
-0.8509513182596969
 20
0.0223811042988118
 30
0.0
  0
VERTEX
  5
74C
  8
LAYER_1
 10
-0.829386318897638
 20
0.0006364419291341
 30
0.0
  0
VERTEX
  5
74D
  8
LAYER_1
 10
-0.8100979763597261
 20
-0.0188125962607536
 30
0.0
  0
VERTEX
  5
74E
  8
LAYER_1
 10
-0.7934657334499857
 20
-0.0355834062408863
 30
0.0
  0
VERTEX
  5
74F
  8
LAYER_1
 10
-0.7798690329724413
 20
-0.0492933839812989
 30
0.0
  0
VERTEX
  5
750
  8
LAYER_1
 10
-0.7696873177311171
 20
-0.0595599254520266
 30
0.0
  0
VERTEX
  5
751
  8
LAYER_1
 10
-0.7633000305300379
 20
-0.0660004266231042
 30
0.0
  0
VERTEX
  5
752
  8
LAYER_1
 10
-0.7610866141732283
 20
-0.0682322834645669
 30
0.0
  0
VERTEX
  5
753
  8
LAYER_1
 10
-0.7626234940033535
 20
-0.0660004266231045
 30
0.0
  0
VERTEX
  5
754
  8
LAYER_1
 10
-0.7670584900845725
 20
-0.0595599254520271
 30
0.0
  0
VERTEX
  5
755
  8
LAYER_1
 10
-0.7741281373031491
 20
-0.0492933839812997
 30
0.0
  0
VERTEX
  5
756
  8
LAYER_1
 10
-0.783568970545348
 20
-0.0355834062408872
 30
0.0
  0
VERTEX
  5
757
  8
LAYER_1
 10
-0.7951175246974329
 20
-0.0188125962607547
 30
0.0
  0
VERTEX
  5
758
  8
LAYER_1
 10
-0.8085103346456683
 20
0.0006364419291328
 30
0.0
  0
VERTEX
  5
759
  8
LAYER_1
 10
-0.8234839352763185
 20
0.0223811042988103
 30
0.0
  0
VERTEX
  5
75A
  8
LAYER_1
 10
-0.8397748614756476
 20
0.0460387868183129
 30
0.0
  0
VERTEX
  5
75B
  8
LAYER_1
 10
-0.8571196481299199
 20
0.0712268854576755
 30
0.0
  0
VERTEX
  5
75C
  8
LAYER_1
 10
-0.8752548301253994
 20
0.0975627961869331
 30
0.0
  0
VERTEX
  5
75D
  8
LAYER_1
 10
-0.8939169423483506
 20
0.1246639149761208
 30
0.0
  0
VERTEX
  5
75E
  8
LAYER_1
 10
-0.9128425196850376
 20
0.1521476377952735
 30
0.0
  0
VERTEX
  5
75F
  8
LAYER_1
 10
-0.9317680970217248
 20
0.1796313606144262
 30
0.0
  0
VERTEX
  5
760
  8
LAYER_1
 10
-0.950430209244676
 20
0.2067324794036139
 30
0.0
  0
VERTEX
  5
761
  8
LAYER_1
 10
-0.9685653912401557
 20
0.2330683901328718
 30
0.0
  0
VERTEX
  5
762
  8
LAYER_1
 10
-0.9859101778944281
 20
0.2582564887722346
 30
0.0
  0
VERTEX
  5
763
  8
LAYER_1
 10
-1.002201104093758
 20
0.2819141712917374
 30
0.0
  0
VERTEX
  5
764
  8
LAYER_1
 10
-1.017174704724408
 20
0.3036588336614153
 30
0.0
  0
VERTEX
  5
765
  8
LAYER_1
 10
-1.030567514672644
 20
0.3231078718513032
 30
0.0
  0
VERTEX
  5
766
  8
LAYER_1
 10
-1.042116068824729
 20
0.3398786818314361
 30
0.0
  0
VERTEX
  5
767
  8
LAYER_1
 10
-1.051556902066928
 20
0.353588659571849
 30
0.0
  0
VERTEX
  5
768
  8
LAYER_1
 10
-1.058626549285505
 20
0.363855201042577
 30
0.0
  0
VERTEX
  5
769
  8
LAYER_1
 10
-1.063061545366724
 20
0.370295702213655
 30
0.0
  0
SEQEND
  5
946
  8
LAYER_1
  0
POLYLINE
  5
75
  8
LAYER_1
 66
     1
 10
0.0
 20
0.0
 30
0.0
 70
     1
  0
VERTEX
  5
76A
  8
LAYER_1
 10
-0.8156929133858267
 20
0.3725275590551181
 30
0.0
  0
VERTEX
  5
76B
  8
LAYER_1
 10
-0.8166810841353165
 20
0.3725275590551181
 30
0.0
  0
VERTEX
  5
76C
  8
LAYER_1
 10
-0.8195326625838436
 20
0.372527559055118
 30
0.0
  0
VERTEX
  5
76D
  8
LAYER_1
 10
-0.8240782480314959
 20
0.3725275590551181
 30
0.0
  0
VERTEX
  5
76E
  8
LAYER_1
 10
-0.8301484397783611
 20
0.3725275590551181
 30
0.0
  0
VERTEX
  5
76F
  8
LAYER_1
 10
-0.8375738371245259
 20
0.3725275590551181
 30
0.0
  0
VERTEX
  5
770
  8
LAYER_1
 10
-0.8461850393700786
 20
0.3725275590551181
 30
0.0
  0
VERTEX
  5
771
  8
LAYER_1
 10
-0.8558126458151065
 20
0.3725275590551181
 30
0.0
  0
VERTEX
  5
772
  8
LAYER_1
 10
-0.8662872557596966
 20
0.3725275590551181
 30
0.0
  0
VERTEX
  5
773
  8
LAYER_1
 10
-0.8774394685039368
 20
0.3725275590551181
 30
0.0
  0
VERTEX
  5
774
  8
LAYER_1
 10
-0.8890998833479148
 20
0.3725275590551181
 30
0.0
  0
VERTEX
  5
775
  8
LAYER_1
 10
-0.9010990995917175
 20
0.3725275590551181
 30
0.0
  0
VERTEX
  5
776
  8
LAYER_1
 10
-0.913267716535433
 20
0.3725275590551181
 30
0.0
  0
VERTEX
  5
777
  8
LAYER_1
 10
-0.9254363334791482
 20
0.3725275590551181
 30
0.0
  0
VERTEX
  5
778
  8
LAYER_1
 10
-0.9374355497229511
 20
0.372527559055118
 30
0.0
  0
VERTEX
  5
779
  8
LAYER_1
 10
-0.949095964566929
 20
0.3725275590551181
 30
0.0
  0
VERTEX
  5
77A
  8
LAYER_1
 10
-0.9602481773111693
 20
0.3725275590551181
 30
0.0
  0
VERTEX
  5
77B
  8
LAYER_1
 10
-0.9707227872557596
 20
0.3725275590551181
 30
0.0
  0
VERTEX
  5
77C
  8
LAYER_1
 10
-0.9803503937007871
 20
0.372527559055118
 30
0.0
  0
VERTEX
  5
77D
  8
LAYER_1
 10
-0.9889615959463396
 20
0.3725275590551181
 30
0.0
  0
VERTEX
  5
77E
  8
LAYER_1
 10
-0.9963869932925047
 20
0.372527559055118
 30
0.0
  0
VERTEX
  5
77F
  8
LAYER_1
 10
-1.00245718503937
 20
0.3725275590551181
 30
0.0
  0
VERTEX
  5
780
  8
LAYER_1
 10
-1.007002770487022
 20
0.3725275590551181
 30
0.0
  0
VERTEX
  5
781
  8
LAYER_1
 10
-1.009854348935549
 20
0.372527559055118
 30
0.0
  0
VERTEX
  5
782
  8
LAYER_1
 10
-1.010842519685039
 20
0.3725275590551181
 30
0.0
  0
VERTEX
  5
783
  8
LAYER_1
 10
-1.008415652226414
 20
0.3690870032033756
 30
0.0
  0
VERTEX
  5
784
  8
LAYER_1
 10
-1.001412406131525
 20
0.3591585420312043
 30
0.0
  0
VERTEX
  5
785
  8
LAYER_1
 10
-0.9902488158218498
 20
0.3433319851131887
 30
0.0
  0
VERTEX
  5
786
  8
LAYER_1
 10
-0.9753409157188679
 20
0.3221971420239134
 30
0.0
  0
VERTEX
  5
787
  8
LAYER_1
 10
-0.9571047402440577
 20
0.2963438223379627
 30
0.0
  0
VERTEX
  5
788
  8
LAYER_1
 10
-0.9359563238188972
 20
0.2663618356299209
 30
0.0
  0
VERTEX
  5
789
  8
LAYER_1
 10
-0.9123117008648651
 20
0.2328409914743726
 30
0.0
  0
VERTEX
  5
78A
  8
LAYER_1
 10
-0.8865869058034407
 20
0.1963710994459021
 30
0.0
  0
VERTEX
  5
78B
  8
LAYER_1
 10
-0.8591979730561019
 20
0.157541969119094
 30
0.0
  0
VERTEX
  5
78C
  8
LAYER_1
 10
-0.8305609370443272
 20
0.1169434100685326
 30
0.0
  0
VERTEX
  5
78D
  8
LAYER_1
 10
-0.8010918321895953
 20
0.0751652318688023
 30
0.0
  0
VERTEX
  5
78E
  8
LAYER_1
 10
-0.7712066929133854
 20
0.0327972440944877
 30
0.0
  0
VERTEX
  5
78F
  8
LAYER_1
 10
-0.7413215536371752
 20
-0.0095707436798268
 30
0.0
  0
VERTEX
  5
790
  8
LAYER_1
 10
-0.7118524487824437
 20
-0.0513489218795568
 30
0.0
  0
VERTEX
  5
791
  8
LAYER_1
 10
-0.6832154127706691
 20
-0.0919474809301181
 30
0.0
  0
VERTEX
  5
792
  8
LAYER_1
 10
-0.6558264800233304
 20
-0.1307766112569261
 30
0.0
  0
VERTEX
  5
793
  8
LAYER_1
 10
-0.630101684961906
 20
-0.1672465032853963
 30
0.0
  0
VERTEX
  5
794
  8
LAYER_1
 10
-0.6064570620078743
 20
-0.2007673474409445
 30
0.0
  0
VERTEX
  5
795
  8
LAYER_1
 10
-0.5853086455827139
 20
-0.2307493341489862
 30
0.0
  0
VERTEX
  5
796
  8
LAYER_1
 10
-0.5670724701079035
 20
-0.2566026538349369
 30
0.0
  0
VERTEX
  5
797
  8
LAYER_1
 10
-0.5521645700049216
 20
-0.2777374969242121
 30
0.0
  0
VERTEX
  5
798
  8
LAYER_1
 10
-0.5410009796952466
 20
-0.2935640538422277
 30
0.0
  0
VERTEX
  5
799
  8
LAYER_1
 10
-0.5339977336003574
 20
-0.303492515014399
 30
0.0
  0
VERTEX
  5
79A
  8
LAYER_1
 10
-0.5315708661417323
 20
-0.3069330708661417
 30
0.0
  0
VERTEX
  5
79B
  8
LAYER_1
 10
-0.5330095628508674
 20
-0.3034925150143994
 30
0.0
  0
VERTEX
  5
79C
  8
LAYER_1
 10
-0.5371612304972293
 20
-0.2935640538422285
 30
0.0
  0
VERTEX
  5
79D
  8
LAYER_1
 10
-0.5437792353592518
 20
-0.2777374969242134
 30
0.0
  0
VERTEX
  5
79E
  8
LAYER_1
 10
-0.5526169437153684
 20
-0.2566026538349384
 30
0.0
  0
VERTEX
  5
79F
  8
LAYER_1
 10
-0.5634277218440138
 20
-0.2307493341489879
 30
0.0
  0
VERTEX
  5
7A0
  8
LAYER_1
 10
-0.5759649360236213
 20
-0.2007673474409465
 30
0.0
  0
VERTEX
  5
7A1
  8
LAYER_1
 10
-0.5899819525326252
 20
-0.1672465032853986
 30
0.0
  0
VERTEX
  5
7A2
  8
LAYER_1
 10
-0.6052321376494594
 20
-0.1307766112569285
 30
0.0
  0
VERTEX
  5
7A3
  8
LAYER_1
 10
-0.6214688576525579
 20
-0.0919474809301206
 30
0.0
  0
VERTEX
  5
7A4
  8
LAYER_1
 10
-0.6384454788203545
 20
-0.0513489218795595
 30
0.0
  0
VERTEX
  5
7A5
  8
LAYER_1
 10
-0.6559153674312833
 20
-0.0095707436798295
 30
0.0
  0
VERTEX
  5
7A6
  8
LAYER_1
 10
-0.6736318897637781
 20
0.032797244094485
 30
0.0
  0
VERTEX
  5
7A7
  8
LAYER_1
 10
-0.691348412096273
 20
0.0751652318687995
 30
0.0
  0
VERTEX
  5
7A8
  8
LAYER_1
 10
-0.7088183007072019
 20
0.1169434100685296
 30
0.0
  0
VERTEX
  5
7A9
  8
LAYER_1
 10
-0.7257949218749985
 20
0.157541969119091
 30
0.0
  0
VERTEX
  5
7AA
  8
LAYER_1
 10
-0.7420316418780972
 20
0.1963710994458991
 30
0.0
  0
VERTEX
  5
7AB
  8
LAYER_1
 10
-0.7572818269949315
 20
0.2328409914743697
 30
0.0
  0
VERTEX
  5
7AC
  8
LAYER_1
 10
-0.7712988435039357
 20
0.2663618356299181
 30
0.0
  0
VERTEX
  5
7AD
  8
LAYER_1
 10
-0.7838360576835436
 20
0.2963438223379601
 30
0.0
  0
VERTEX
  5
7AE
  8
LAYER_1
 10
-0.7946468358121891
 20
0.3221971420239111
 30
0.0
  0
VERTEX
  5
7AF
  8
LAYER_1
 10
-0.8034845441683063
 20
0.3433319851131869
 30
0.0
  0
VERTEX
  5
7B0
  8
LAYER_1
 10
-0.8101025490303289
 20
0.3591585420312029
 30
0.0
  0
VERTEX
  5
7B1
  8
LAYER_1
 10
-0.8142542166766911
 20
0.3690870032033748
 30
0.0
  0
SEQEND
  5
947
  8
LAYER_1
  0
POLYLINE
  5
76
  8
LAYER_1
 66
     1
 10
0.0
 20
0.0
 30
0.0
 70
     1
  0
VERTEX
  5
7B2
  8
LAYER_1
 10
-0.4582952755905512
 20
0.3725275590551181
 30
0.0
  0
VERTEX
  5
7B3
  8
LAYER_1
 10
-0.4597306629802786
 20
0.3725275590551181
 30
0.0
  0
VERTEX
  5
7B4
  8
LAYER_1
 10
-0.4638727808763488
 20
0.372527559055118
 30
0.0
  0
VERTEX
  5
7B5
  8
LAYER_1
 10
-0.4704755628690945
 20
0.3725275590551181
 30
0.0
  0
VERTEX
  5
7B6
  8
LAYER_1
 10
-0.4792929425488481
 20
0.3725275590551181
 30
0.0
  0
VERTEX
  5
7B7
  8
LAYER_1
 10
-0.4900788535059419
 20
0.3725275590551181
 30
0.0
  0
VERTEX
  5
7B8
  8
LAYER_1
 10
-0.5025872293307087
 20
0.3725275590551181
 30
0.0
  0
VERTEX
  5
7B9
  8
LAYER_1
 10
-0.5165720036134808
 20
0.3725275590551181
 30
0.0
  0
VERTEX
  5
7BA
  8
LAYER_1
 10
-0.5317871099445902
 20
0.3725275590551181
 30
0.0
  0
VERTEX
  5
7BB
  8
LAYER_1
 10
-0.5479864819143702
 20
0.3725275590551181
 30
0.0
  0
VERTEX
  5
7BC
  8
LAYER_1
 10
-0.5649240531131525
 20
0.3725275590551181
 30
0.0
  0
VERTEX
  5
7BD
  8
LAYER_1
 10
-0.5823537571312701
 20
0.3725275590551181
 30
0.0
  0
VERTEX
  5
7BE
  8
LAYER_1
 10
-0.6000295275590553
 20
0.3725275590551181
 30
0.0
  0
VERTEX
  5
7BF
  8
LAYER_1
 10
-0.6177052979868403
 20
0.3725275590551181
 30
0.0
  0
VERTEX
  5
7C0
  8
LAYER_1
 10
-0.6351350020049578
 20
0.372527559055118
 30
0.0
  0
VERTEX
  5
7C1
  8
LAYER_1
 10
-0.6520725732037402
 20
0.3725275590551181
 30
0.0
  0
VERTEX
  5
7C2
  8
LAYER_1
 10
-0.6682719451735201
 20
0.3725275590551181
 30
0.0
  0
VERTEX
  5
7C3
  8
LAYER_1
 10
-0.6834870515046297
 20
0.3725275590551181
 30
0.0
  0
VERTEX
  5
7C4
  8
LAYER_1
 10
-0.6974718257874015
 20
0.372527559055118
 30
0.0
  0
VERTEX
  5
7C5
  8
LAYER_1
 10
-0.7099802016121683
 20
0.3725275590551181
 30
0.0
  0
VERTEX
  5
7C6
  8
LAYER_1
 10
-0.7207661125692622
 20
0.372527559055118
 30
0.0
  0
VERTEX
  5
7C7
  8
LAYER_1
 10
-0.7295834922490159
 20
0.3725275590551181
 30
0.0
  0
VERTEX
  5
7C8
  8
LAYER_1
 10
-0.7361862742417615
 20
0.3725275590551181
 30
0.0
  0
VERTEX
  5
7C9
  8
LAYER_1
 10
-0.7403283921378316
 20
0.372527559055118
 30
0.0
  0
VERTEX
  5
7CA
  8
LAYER_1
 10
-0.741763779527559
 20
0.3725275590551181
 30
0.0
  0
VERTEX
  5
7CB
  8
LAYER_1
 10
-0.7390198952181759
 20
0.3687257092537912
 30
0.0
  0
VERTEX
  5
7CC
  8
LAYER_1
 10
-0.7311018290682414
 20
0.3577546569699619
 30
0.0
  0
VERTEX
  5
7CD
  8
LAYER_1
 10
-0.7184799612450784
 20
0.340266147883858
 30
0.0
  0
VERTEX
  5
7CE
  8
LAYER_1
 10
-0.7016246719160102
 20
0.3169119276757069
 30
0.0
  0
VERTEX
  5
7CF
  8
LAYER_1
 10
-0.6810063412483593
 20
0.2883437420257361
 30
0.0
  0
VERTEX
  5
7D0
  8
LAYER_1
 10
-0.6570953494094485
 20
0.2552133366141728
 30
0.0
  0
VERTEX
  5
7D1
  8
LAYER_1
 10
-0.6303620765666005
 20
0.2181724571212448
 30
0.0
  0
VERTEX
  5
7D2
  8
LAYER_1
 10
-0.6012769028871388
 20
0.1778728492271794
 30
0.0
  0
VERTEX
  5
7D3
  8
LAYER_1
 10
-0.5703102085383855
 20
0.1349662586122042
 30
0.0
  0
VERTEX
  5
7D4
  8
LAYER_1
 10
-0.5379323736876636
 20
0.0901044309565466
 30
0.0
  0
VERTEX
  5
7D5
  8
LAYER_1
 10
-0.5046137785022959
 20
0.0439391119404339
 30
0.0
  0
VERTEX
  5
7D6
  8
LAYER_1
 10
-0.4708248031496058
 20
-0.002877952755906
 30
0.0
  0
VERTEX
  5
7D7
  8
LAYER_1
 10
-0.4370358277969157
 20
-0.0496950174522459
 30
0.0
  0
VERTEX
  5
7D8
  8
LAYER_1
 10
-0.4037172326115483
 20
-0.0958603364683582
 30
0.0
  0
VERTEX
  5
7D9
  8
LAYER_1
 10
-0.3713393977608268
 20
-0.1407221641240157
 30
0.0
  0
VERTEX
  5
7DA
  8
LAYER_1
 10
-0.3403727034120735
 20
-0.1836287547389908
 30
0.0
  0
VERTEX
  5
7DB
  8
LAYER_1
 10
-0.3112875297326117
 20
-0.223928362633056
 30
0.0
  0
VERTEX
  5
7DC
  8
LAYER_1
 10
-0.284554256889764
 20
-0.2609692421259838
 30
0.0
  0
VERTEX
  5
7DD
  8
LAYER_1
 10
-0.2606432650508533
 20
-0.2940996475375469
 30
0.0
  0
VERTEX
  5
7DE
  8
LAYER_1
 10
-0.2400249343832024
 20
-0.3226678331875177
 30
0.0
  0
VERTEX
  5
7DF
  8
LAYER_1
 10
-0.2231696450541341
 20
-0.3460220533956688
 30
0.0
  0
VERTEX
  5
7E0
  8
LAYER_1
 10
-0.2105477772309713
 20
-0.3635105624817727
 30
0.0
  0
VERTEX
  5
7E1
  8
LAYER_1
 10
-0.2026297110810368
 20
-0.3744816147656019
 30
0.0
  0
VERTEX
  5
7E2
  8
LAYER_1
 10
-0.1998858267716535
 20
-0.3782834645669291
 30
0.0
  0
VERTEX
  5
7E3
  8
LAYER_1
 10
-0.2011943236913093
 20
-0.3744816147656024
 30
0.0
  0
VERTEX
  5
7E4
  8
LAYER_1
 10
-0.2049702719451733
 20
-0.3635105624817736
 30
0.0
  0
VERTEX
  5
7E5
  8
LAYER_1
 10
-0.2109893577755902
 20
-0.3460220533956702
 30
0.0
  0
VERTEX
  5
7E6
  8
LAYER_1
 10
-0.2190272674249048
 20
-0.3226678331875194
 30
0.0
  0
VERTEX
  5
7E7
  8
LAYER_1
 10
-0.2288596871354616
 20
-0.2940996475375489
 30
0.0
  0
VERTEX
  5
7E8
  8
LAYER_1
 10
-0.2402623031496056
 20
-0.260969242125986
 30
0.0
  0
VERTEX
  5
7E9
  8
LAYER_1
 10
-0.2530108017096813
 20
-0.2239283626330585
 30
0.0
  0
VERTEX
  5
7EA
  8
LAYER_1
 10
-0.2668808690580334
 20
-0.1836287547389935
 30
0.0
  0
VERTEX
  5
7EB
  8
LAYER_1
 10
-0.2816481914370068
 20
-0.1407221641240185
 30
0.0
  0
VERTEX
  5
7EC
  8
LAYER_1
 10
-0.297088455088946
 20
-0.0958603364683612
 30
0.0
  0
VERTEX
  5
7ED
  8
LAYER_1
 10
-0.3129773462561959
 20
-0.0496950174522489
 30
0.0
  0
VERTEX
  5
7EE
  8
LAYER_1
 10
-0.329090551181101
 20
-0.002877952755909
 30
0.0
  0
VERTEX
  5
7EF
  8
LAYER_1
 10
-0.3452037561060063
 20
0.0439391119404308
 30
0.0
  0
VERTEX
  5
7F0
  8
LAYER_1
 10
-0.3610926472732562
 20
0.0901044309565432
 30
0.0
  0
VERTEX
  5
7F1
  8
LAYER_1
 10
-0.3765329109251956
 20
0.1349662586122009
 30
0.0
  0
VERTEX
  5
7F2
  8
LAYER_1
 10
-0.391300233304169
 20
0.1778728492271761
 30
0.0
  0
VERTEX
  5
7F3
  8
LAYER_1
 10
-0.4051703006525214
 20
0.2181724571212416
 30
0.0
  0
VERTEX
  5
7F4
  8
LAYER_1
 10
-0.4179187992125973
 20
0.2552133366141698
 30
0.0
  0
VERTEX
  5
7F5
  8
LAYER_1
 10
-0.4293214152267414
 20
0.2883437420257332
 30
0.0
  0
VERTEX
  5
7F6
  8
LAYER_1
 10
-0.4391538349372985
 20
0.3169119276757044
 30
0.0
  0
VERTEX
  5
7F7
  8
LAYER_1
 10
-0.4471917445866134
 20
0.340266147883856
 30
0.0
  0
VERTEX
  5
7F8
  8
LAYER_1
 10
-0.4532108304170307
 20
0.3577546569699604
 30
0.0
  0
VERTEX
  5
7F9
  8
LAYER_1
 10
-0.456986778670895
 20
0.3687257092537903
 30
0.0
  0
SEQEND
  5
948
  8
LAYER_1
  0
POLYLINE
  5
77
  8
LAYER_1
 66
     1
 10
0.0
 20
0.0
 30
0.0
 70
     1
  0
VERTEX
  5
7FA
  8
LAYER_1
 10
-0.038755905511811
 20
0.3725275590551181
 30
0.0
  0
VERTEX
  5
7FB
  8
LAYER_1
 10
-0.0406112176244896
 20
0.3725275590551181
 30
0.0
  0
VERTEX
  5
7FC
  8
LAYER_1
 10
-0.0459651182925051
 20
0.372527559055118
 30
0.0
  0
VERTEX
  5
7FD
  8
LAYER_1
 10
-0.0544995540108267
 20
0.3725275590551181
 30
0.0
  0
VERTEX
  5
7FE
  8
LAYER_1
 10
-0.065896471274424
 20
0.3725275590551181
 30
0.0
  0
VERTEX
  5
7FF
  8
LAYER_1
 10
-0.0798378165782662
 20
0.3725275590551181
 30
0.0
  0
VERTEX
  5
800
  8
LAYER_1
 10
-0.0960055364173228
 20
0.3725275590551181
 30
0.0
  0
VERTEX
  5
801
  8
LAYER_1
 10
-0.1140815772865632
 20
0.3725275590551181
 30
0.0
  0
VERTEX
  5
802
  8
LAYER_1
 10
-0.1337478856809565
 20
0.3725275590551181
 30
0.0
  0
VERTEX
  5
803
  8
LAYER_1
 10
-0.1546864080954725
 20
0.3725275590551181
 30
0.0
  0
VERTEX
  5
804
  8
LAYER_1
 10
-0.1765790910250802
 20
0.3725275590551181
 30
0.0
  0
VERTEX
  5
805
  8
LAYER_1
 10
-0.1991078809647492
 20
0.3725275590551181
 30
0.0
  0
VERTEX
  5
806
  8
LAYER_1
 10
-0.2219547244094489
 20
0.3725275590551181
 30
0.0
  0
VERTEX
  5
807
  8
LAYER_1
 10
-0.2448015678541485
 20
0.3725275590551181
 30
0.0
  0
VERTEX
  5
808
  8
LAYER_1
 10
-0.2673303577938175
 20
0.372527559055118
 30
0.0
  0
VERTEX
  5
809
  8
LAYER_1
 10
-0.2892230407234253
 20
0.3725275590551181
 30
0.0
  0
VERTEX
  5
80A
  8
LAYER_1
 10
-0.3101615631379411
 20
0.3725275590551181
 30
0.0
  0
VERTEX
  5
80B
  8
LAYER_1
 10
-0.3298278715323346
 20
0.3725275590551181
 30
0.0
  0
VERTEX
  5
80C
  8
LAYER_1
 10
-0.3479039124015748
 20
0.372527559055118
 30
0.0
  0
VERTEX
  5
80D
  8
LAYER_1
 10
-0.3640716322406314
 20
0.3725275590551181
 30
0.0
  0
VERTEX
  5
80E
  8
LAYER_1
 10
-0.3780129775444736
 20
0.372527559055118
 30
0.0
  0
VERTEX
  5
80F
  8
LAYER_1
 10
-0.3894098948080709
 20
0.3725275590551181
 30
0.0
  0
VERTEX
  5
810
  8
LAYER_1
 10
-0.3979443305263926
 20
0.3725275590551181
 30
0.0
  0
VERTEX
  5
811
  8
LAYER_1
 10
-0.4032982311944079
 20
0.372527559055118
 30
0.0
  0
VERTEX
  5
812
  8
LAYER_1
 10
-0.4051535433070866
 20
0.3725275590551181
 30
0.0
  0
VERTEX
  5
813
  8
LAYER_1
 10
-0.4037630908929353
 20
0.368535263902559
 30
0.0
  0
VERTEX
  5
814
  8
LAYER_1
 10
-0.3997506424978127
 20
0.3570146407480314
 30
0.0
  0
VERTEX
  5
815
  8
LAYER_1
 10
-0.3933545613927164
 20
0.3386500830462595
 30
0.0
  0
VERTEX
  5
816
  8
LAYER_1
 10
-0.3848132108486438
 20
0.3141259842519682
 30
0.0
  0
VERTEX
  5
817
  8
LAYER_1
 10
-0.3743649541365922
 20
0.2841267378198816
 30
0.0
  0
VERTEX
  5
818
  8
LAYER_1
 10
-0.3622481545275589
 20
0.2493367372047239
 30
0.0
  0
VERTEX
  5
819
  8
LAYER_1
 10
-0.3487011752925414
 20
0.21044037586122
 30
0.0
  0
VERTEX
  5
81A
  8
LAYER_1
 10
-0.333962379702537
 20
0.1681220472440939
 30
0.0
  0
VERTEX
  5
81B
  8
LAYER_1
 10
-0.3182701310285431
 20
0.1230661448080703
 30
0.0
  0
VERTEX
  5
81C
  8
LAYER_1
 10
-0.3018627925415571
 20
0.0759570620078734
 30
0.0
  0
VERTEX
  5
81D
  8
LAYER_1
 10
-0.2849787275125762
 20
0.0274791922982276
 30
0.0
  0
VERTEX
  5
81E
  8
LAYER_1
 10
-0.2678562992125982
 20
-0.0216830708661423
 30
0.0
  0
VERTEX
  5
81F
  8
LAYER_1
 10
-0.2507338709126201
 20
-0.0708453340305122
 30
0.0
  0
VERTEX
  5
820
  8
LAYER_1
 10
-0.2338498058836395
 20
-0.1193232037401577
 30
0.0
  0
VERTEX
  5
821
  8
LAYER_1
 10
-0.2174424673966535
 20
-0.1664322865403544
 30
0.0
  0
VERTEX
  5
822
  8
LAYER_1
 10
-0.2017502187226597
 20
-0.2114881889763778
 30
0.0
  0
VERTEX
  5
823
  8
LAYER_1
 10
-0.1870114231326553
 20
-0.2538065175935037
 30
0.0
  0
VERTEX
  5
824
  8
LAYER_1
 10
-0.1734644438976379
 20
-0.2927028789370075
 30
0.0
  0
VERTEX
  5
825
  8
LAYER_1
 10
-0.1613476442886047
 20
-0.3274928795521649
 30
0.0
  0
VERTEX
  5
826
  8
LAYER_1
 10
-0.1508993875765531
 20
-0.3574921259842515
 30
0.0
  0
VERTEX
  5
827
  8
LAYER_1
 10
-0.1423580370324805
 20
-0.3820162247785429
 30
0.0
  0
VERTEX
  5
828
  8
LAYER_1
 10
-0.1359619559273842
 20
-0.4003807824803146
 30
0.0
  0
VERTEX
  5
829
  8
LAYER_1
 10
-0.1319495075322616
 20
-0.4119014056348423
 30
0.0
  0
VERTEX
  5
82A
  8
LAYER_1
 10
-0.1305590551181102
 20
-0.4158937007874016
 30
0.0
  0
VERTEX
  5
82B
  8
LAYER_1
 10
-0.130094195419583
 20
-0.4119014056348428
 30
0.0
  0
VERTEX
  5
82C
  8
LAYER_1
 10
-0.12875274314669
 20
-0.4003807824803156
 30
0.0
  0
VERTEX
  5
82D
  8
LAYER_1
 10
-0.1266143885334646
 20
-0.3820162247785443
 30
0.0
  0
VERTEX
  5
82E
  8
LAYER_1
 10
-0.12375882181394
 20
-0.3574921259842533
 30
0.0
  0
VERTEX
  5
82F
  8
LAYER_1
 10
-0.1202657332221495
 20
-0.327492879552167
 30
0.0
  0
VERTEX
  5
830
  8
LAYER_1
 10
-0.1162148129921262
 20
-0.2927028789370099
 30
0.0
  0
VERTEX
  5
831
  8
LAYER_1
 10
-0.1116857513579034
 20
-0.2538065175935063
 30
0.0
  0
VERTEX
  5
832
  8
LAYER_1
 10
-0.1067582385535144
 20
-0.2114881889763806
 30
0.0
  0
VERTEX
  5
833
  8
LAYER_1
 10
-0.1015119648129924
 20
-0.1664322865403573
 30
0.0
  0
VERTEX
  5
834
  8
LAYER_1
 10
-0.0960266203703707
 20
-0.1193232037401608
 30
0.0
  0
VERTEX
  5
835
  8
LAYER_1
 10
-0.0903818954596825
 20
-0.0708453340305154
 30
0.0
  0
VERTEX
  5
836
  8
LAYER_1
 10
-0.084657480314961
 20
-0.0216830708661454
 30
0.0
  0
VERTEX
  5
837
  8
LAYER_1
 10
-0.0789330651702396
 20
0.0274791922982244
 30
0.0
  0
VERTEX
  5
838
  8
LAYER_1
 10
-0.0732883402595513
 20
0.0759570620078699
 30
0.0
  0
VERTEX
  5
839
  8
LAYER_1
 10
-0.0678029958169296
 20
0.1230661448080668
 30
0.0
  0
VERTEX
  5
83A
  8
LAYER_1
 10
-0.0625567220764076
 20
0.1681220472440904
 30
0.0
  0
VERTEX
  5
83B
  8
LAYER_1
 10
-0.0576292092720185
 20
0.2104403758612166
 30
0.0
  0
VERTEX
  5
83C
  8
LAYER_1
 10
-0.0531001476377957
 20
0.2493367372047208
 30
0.0
  0
VERTEX
  5
83D
  8
LAYER_1
 10
-0.0490492274077723
 20
0.2841267378198785
 30
0.0
  0
VERTEX
  5
83E
  8
LAYER_1
 10
-0.0455561388159816
 20
0.3141259842519656
 30
0.0
  0
VERTEX
  5
83F
  8
LAYER_1
 10
-0.0427005720964569
 20
0.3386500830462574
 30
0.0
  0
VERTEX
  5
840
  8
LAYER_1
 10
-0.0405622174832314
 20
0.3570146407480297
 30
0.0
  0
VERTEX
  5
841
  8
LAYER_1
 10
-0.0392207652103384
 20
0.3685352639025581
 30
0.0
  0
SEQEND
  5
949
  8
LAYER_1
  0
POLYLINE
  5
78
  8
LAYER_1
 66
     1
 10
0.0
 20
0.0
 30
0.0
 70
     1
  0
VERTEX
  5
842
  8
LAYER_1
 10
-0.1382362204724409
 20
-0.5324370078740157
 30
0.0
  0
VERTEX
  5
843
  8
LAYER_1
 10
-0.1377967986749052
 20
-0.5336967222358925
 30
0.0
  0
VERTEX
  5
844
  8
LAYER_1
 10
-0.1365287529163021
 20
-0.5373318979658792
 30
0.0
  0
VERTEX
  5
845
  8
LAYER_1
 10
-0.1345074126476378
 20
-0.5431265840305118
 30
0.0
  0
VERTEX
  5
846
  8
LAYER_1
 10
-0.1318081073199183
 20
-0.5508648293963255
 30
0.0
  0
VERTEX
  5
847
  8
LAYER_1
 10
-0.1285061663841499
 20
-0.5603306830298558
 30
0.0
  0
VERTEX
  5
848
  8
LAYER_1
 10
-0.1246769192913385
 20
-0.5713081938976378
 30
0.0
  0
VERTEX
  5
849
  8
LAYER_1
 10
-0.1203956954924905
 20
-0.5835814109662073
 30
0.0
  0
VERTEX
  5
84A
  8
LAYER_1
 10
-0.1157378244386118
 20
-0.5969343832020999
 30
0.0
  0
VERTEX
  5
84B
  8
LAYER_1
 10
-0.1107786355807086
 20
-0.6111511595718504
 30
0.0
  0
VERTEX
  5
84C
  8
LAYER_1
 10
-0.1055934583697871
 20
-0.6260157890419946
 30
0.0
  0
VERTEX
  5
84D
  8
LAYER_1
 10
-0.1002576222568533
 20
-0.6413123205790684
 30
0.0
  0
VERTEX
  5
84E
  8
LAYER_1
 10
-0.0948464566929134
 20
-0.6568248031496062
 30
0.0
  0
VERTEX
  5
84F
  8
LAYER_1
 10
-0.0894352911289734
 20
-0.6723372857201444
 30
0.0
  0
VERTEX
  5
850
  8
LAYER_1
 10
-0.0840994550160396
 20
-0.6876338172572177
 30
0.0
  0
VERTEX
  5
851
  8
LAYER_1
 10
-0.0789142778051181
 20
-0.7024984467273622
 30
0.0
  0
VERTEX
  5
852
  8
LAYER_1
 10
-0.0739550889472149
 20
-0.7167152230971128
 30
0.0
  0
VERTEX
  5
853
  8
LAYER_1
 10
-0.0692972178933362
 20
-0.7300681953330053
 30
0.0
  0
VERTEX
  5
854
  8
LAYER_1
 10
-0.0650159940944882
 20
-0.7423414124015748
 30
0.0
  0
VERTEX
  5
855
  8
LAYER_1
 10
-0.0611867470016769
 20
-0.7533189232693569
 30
0.0
  0
VERTEX
  5
856
  8
LAYER_1
 10
-0.0578848060659084
 20
-0.762784776902887
 30
0.0
  0
VERTEX
  5
857
  8
LAYER_1
 10
-0.055185500738189
 20
-0.7705230222687007
 30
0.0
  0
VERTEX
  5
858
  8
LAYER_1
 10
-0.0531641604695246
 20
-0.7763177083333334
 30
0.0
  0
VERTEX
  5
859
  8
LAYER_1
 10
-0.0518961147109215
 20
-0.7799528840633201
 30
0.0
  0
VERTEX
  5
85A
  8
LAYER_1
 10
-0.0514566929133858
 20
-0.7812125984251969
 30
0.0
  0
VERTEX
  5
85B
  8
LAYER_1
 10
-0.0534194781641877
 20
-0.7792400447014436
 30
0.0
  0
VERTEX
  5
85C
  8
LAYER_1
 10
-0.0590835156022163
 20
-0.7735478182414699
 30
0.0
  0
VERTEX
  5
85D
  8
LAYER_1
 10
-0.0681123277559054
 20
-0.7644740711122049
 30
0.0
  0
VERTEX
  5
85E
  8
LAYER_1
 10
-0.080169437153689
 20
-0.7523569553805773
 30
0.0
  0
VERTEX
  5
85F
  8
LAYER_1
 10
-0.0949183663240011
 20
-0.737534623113517
 30
0.0
  0
VERTEX
  5
860
  8
LAYER_1
 10
-0.1120226377952756
 20
-0.7203452263779527
 30
0.0
  0
VERTEX
  5
861
  8
LAYER_1
 10
-0.1311457740959464
 20
-0.7011269172408138
 30
0.0
  0
VERTEX
  5
862
  8
LAYER_1
 10
-0.1519512977544474
 20
-0.6802178477690288
 30
0.0
  0
VERTEX
  5
863
  8
LAYER_1
 10
-0.1741027312992127
 20
-0.6579561700295273
 30
0.0
  0
VERTEX
  5
864
  8
LAYER_1
 10
-0.1972635972586761
 20
-0.6346800360892386
 30
0.0
  0
VERTEX
  5
865
  8
LAYER_1
 10
-0.2210974181612717
 20
-0.6107275980150917
 30
0.0
  0
VERTEX
  5
866
  8
LAYER_1
 10
-0.2452677165354333
 20
-0.5864370078740155
 30
0.0
  0
VERTEX
  5
867
  8
LAYER_1
 10
-0.2694380149095949
 20
-0.5621464177329394
 30
0.0
  0
VERTEX
  5
868
  8
LAYER_1
 10
-0.2932718358121905
 20
-0.5381939796587923
 30
0.0
  0
VERTEX
  5
869
  8
LAYER_1
 10
-0.3164327017716538
 20
-0.5149178457185036
 30
0.0
  0
VERTEX
  5
86A
  8
LAYER_1
 10
-0.3385841353164192
 20
-0.4926561679790023
 30
0.0
  0
VERTEX
  5
86B
  8
LAYER_1
 10
-0.3593896589749201
 20
-0.4717470985072175
 30
0.0
  0
VERTEX
  5
86C
  8
LAYER_1
 10
-0.3785127952755909
 20
-0.4525287893700784
 30
0.0
  0
VERTEX
  5
86D
  8
LAYER_1
 10
-0.3956170667468653
 20
-0.4353393926345141
 30
0.0
  0
VERTEX
  5
86E
  8
LAYER_1
 10
-0.4103659959171773
 20
-0.4205170603674538
 30
0.0
  0
VERTEX
  5
86F
  8
LAYER_1
 10
-0.4224231053149609
 20
-0.4083999446358265
 30
0.0
  0
VERTEX
  5
870
  8
LAYER_1
 10
-0.4314519174686499
 20
-0.3993261975065615
 30
0.0
  0
VERTEX
  5
871
  8
LAYER_1
 10
-0.4371159549066784
 20
-0.3936339710465879
 30
0.0
  0
VERTEX
  5
872
  8
LAYER_1
 10
-0.4390787401574803
 20
-0.3916614173228347
 30
0.0
  0
VERTEX
  5
873
  8
LAYER_1
 10
-0.4404360794418926
 20
-0.388507297020815
 30
0.0
  0
VERTEX
  5
874
  8
LAYER_1
 10
-0.4443529728054827
 20
-0.3794054070064156
 30
0.0
  0
VERTEX
  5
875
  8
LAYER_1
 10
-0.4505967335137797
 20
-0.3648964536171256
 30
0.0
  0
VERTEX
  5
876
  8
LAYER_1
 10
-0.4589346748323128
 20
-0.3455211431904342
 30
0.0
  0
VERTEX
  5
877
  8
LAYER_1
 10
-0.4691341100266114
 20
-0.3218201820638303
 30
0.0
  0
VERTEX
  5
878
  8
LAYER_1
 10
-0.4809623523622048
 20
-0.2943342765748029
 30
0.0
  0
VERTEX
  5
879
  8
LAYER_1
 10
-0.4941867151046224
 20
-0.2636041330608412
 30
0.0
  0
VERTEX
  5
87A
  8
LAYER_1
 10
-0.5085745115193935
 20
-0.2301704578594342
 30
0.0
  0
VERTEX
  5
87B
  8
LAYER_1
 10
-0.5238930548720472
 20
-0.1945739573080709
 30
0.0
  0
VERTEX
  5
87C
  8
LAYER_1
 10
-0.5399096584281131
 20
-0.1573553377442404
 30
0.0
  0
VERTEX
  5
87D
  8
LAYER_1
 10
-0.5563916354531204
 20
-0.1190553055054319
 30
0.0
  0
VERTEX
  5
87E
  8
LAYER_1
 10
-0.5731062992125983
 20
-0.0802145669291343
 30
0.0
  0
VERTEX
  5
87F
  8
LAYER_1
 10
-0.5898209629720762
 20
-0.0413738283528367
 30
0.0
  0
VERTEX
  5
880
  8
LAYER_1
 10
-0.6063029399970834
 20
-0.0030737961140281
 30
0.0
  0
VERTEX
  5
881
  8
LAYER_1
 10
-0.6223195435531493
 20
0.0341448234498023
 30
0.0
  0
VERTEX
  5
882
  8
LAYER_1
 10
-0.6376380869058031
 20
0.0697413240011656
 30
0.0
  0
VERTEX
  5
883
  8
LAYER_1
 10
-0.6520258833205741
 20
0.1031749992025727
 30
0.0
  0
VERTEX
  5
884
  8
LAYER_1
 10
-0.6652502460629918
 20
0.1339051427165345
 30
0.0
  0
VERTEX
  5
885
  8
LAYER_1
 10
-0.6770784883985852
 20
0.1613910482055619
 30
0.0
  0
VERTEX
  5
886
  8
LAYER_1
 10
-0.6872779235928839
 20
0.1850920093321659
 30
0.0
  0
VERTEX
  5
887
  8
LAYER_1
 10
-0.695615864911417
 20
0.2044673197588575
 30
0.0
  0
VERTEX
  5
888
  8
LAYER_1
 10
-0.701859625619714
 20
0.2189762731481475
 30
0.0
  0
VERTEX
  5
889
  8
LAYER_1
 10
-0.7057765189833041
 20
0.2280781631625471
 30
0.0
  0
VERTEX
  5
88A
  8
LAYER_1
 10
-0.7071338582677166
 20
0.2312322834645669
 30
0.0
  0
VERTEX
  5
88B
  8
LAYER_1
 10
-0.7042531555300382
 20
0.2273653238006711
 30
0.0
  0
VERTEX
  5
88C
  8
LAYER_1
 10
-0.695940270487023
 20
0.2162063830562855
 30
0.0
  0
VERTEX
  5
88D
  8
LAYER_1
 10
-0.6826890378937018
 20
0.1984183686023635
 30
0.0
  0
VERTEX
  5
88E
  8
LAYER_1
 10
-0.6649932925051049
 20
0.1746641878098588
 30
0.0
  0
VERTEX
  5
88F
  8
LAYER_1
 10
-0.6433468690762629
 20
0.1456067480497252
 30
0.0
  0
VERTEX
  5
890
  8
LAYER_1
 10
-0.6182436023622068
 20
0.111908956692916
 30
0.0
  0
VERTEX
  5
891
  8
LAYER_1
 10
-0.5901773271179668
 20
0.0742337211103851
 30
0.0
  0
VERTEX
  5
892
  8
LAYER_1
 10
-0.5596418780985737
 20
0.033243948673086
 30
0.0
  0
VERTEX
  5
893
  8
LAYER_1
 10
-0.5271310900590581
 20
-0.0103974532480277
 30
0.0
  0
VERTEX
  5
894
  8
LAYER_1
 10
-0.4931387977544505
 20
-0.0560275772820023
 30
0.0
  0
VERTEX
  5
895
  8
LAYER_1
 10
-0.4581588359397816
 20
-0.1029835160578842
 30
0.0
  0
VERTEX
  5
896
  8
LAYER_1
 10
-0.4226850393700822
 20
-0.1506023622047198
 30
0.0
  0
VERTEX
  5
897
  8
LAYER_1
 10
-0.3872112428003826
 20
-0.1982212083515555
 30
0.0
  0
VERTEX
  5
898
  8
LAYER_1
 10
-0.3522312809857136
 20
-0.2451771471274376
 30
0.0
  0
VERTEX
  5
899
  8
LAYER_1
 10
-0.3182389886811059
 20
-0.2908072711614125
 30
0.0
  0
VERTEX
  5
89A
  8
LAYER_1
 10
-0.2857282006415899
 20
-0.3344486730825267
 30
0.0
  0
VERTEX
  5
89B
  8
LAYER_1
 10
-0.2551927516221964
 20
-0.3754384455198264
 30
0.0
  0
VERTEX
  5
89C
  8
LAYER_1
 10
-0.2271264763779559
 20
-0.413113681102358
 30
0.0
  0
VERTEX
  5
89D
  8
LAYER_1
 10
-0.202023209663899
 20
-0.446811472459168
 30
0.0
  0
VERTEX
  5
89E
  8
LAYER_1
 10
-0.1803767862350564
 20
-0.4758689122193026
 30
0.0
  0
VERTEX
  5
89F
  8
LAYER_1
 10
-0.1626810408464587
 20
-0.4996230930118083
 30
0.0
  0
VERTEX
  5
8A0
  8
LAYER_1
 10
-0.1494298082531364
 20
-0.5174111074657315
 30
0.0
  0
VERTEX
  5
8A1
  8
LAYER_1
 10
-0.1411169232101203
 20
-0.5285700482101185
 30
0.0
  0
SEQEND
  5
94A
  8
LAYER_1
  0
POLYLINE
  5
79
  8
LAYER_1
 66
     1
 10
0.0
 20
0.0
 30
0.0
 70
     1
  0
VERTEX
  5
8A2
  8
LAYER_1
 10
-0.3989724409448819
 20
0.6215314960629921
 30
0.0
  0
VERTEX
  5
8A3
  8
LAYER_1
 10
-0.4006622472158429
 20
0.6205107504465588
 30
0.0
  0
VERTEX
  5
8A4
  8
LAYER_1
 10
-0.4055385453120443
 20
0.6175651702391366
 30
0.0
  0
VERTEX
  5
8A5
  8
LAYER_1
 10
-0.4133116541584645
 20
0.6128697404035433
 30
0.0
  0
VERTEX
  5
8A6
  8
LAYER_1
 10
-0.4236918926800817
 20
0.6065994459025955
 30
0.0
  0
VERTEX
  5
8A7
  8
LAYER_1
 10
-0.4363895798018737
 20
0.5989292716991105
 30
0.0
  0
VERTEX
  5
8A8
  8
LAYER_1
 10
-0.4511150344488189
 20
0.5900342027559055
 30
0.0
  0
VERTEX
  5
8A9
  8
LAYER_1
 10
-0.4675785755458954
 20
0.5800892240357975
 30
0.0
  0
VERTEX
  5
8AA
  8
LAYER_1
 10
-0.4854905220180811
 20
0.569269320501604
 30
0.0
  0
VERTEX
  5
8AB
  8
LAYER_1
 10
-0.5045611927903544
 20
0.5577494771161416
 30
0.0
  0
VERTEX
  5
8AC
  8
LAYER_1
 10
-0.5245009067876933
 20
0.5457046788422281
 30
0.0
  0
VERTEX
  5
8AD
  8
LAYER_1
 10
-0.5450199829350759
 20
0.53330991064268
 30
0.0
  0
VERTEX
  5
8AE
  8
LAYER_1
 10
-0.5658287401574804
 20
0.5207401574803149
 30
0.0
  0
VERTEX
  5
8AF
  8
LAYER_1
 10
-0.5866374973798849
 20
0.5081704043179497
 30
0.0
  0
VERTEX
  5
8B0
  8
LAYER_1
 10
-0.6071565735272675
 20
0.4957756361184018
 30
0.0
  0
VERTEX
  5
8B1
  8
LAYER_1
 10
-0.6270962875246064
 20
0.4837308378444881
 30
0.0
  0
VERTEX
  5
8B2
  8
LAYER_1
 10
-0.6461669582968796
 20
0.4722109944590259
 30
0.0
  0
VERTEX
  5
8B3
  8
LAYER_1
 10
-0.6640789047690656
 20
0.4613910909248322
 30
0.0
  0
VERTEX
  5
8B4
  8
LAYER_1
 10
-0.6805424458661418
 20
0.4514461122047244
 30
0.0
  0
VERTEX
  5
8B5
  8
LAYER_1
 10
-0.6952679005130871
 20
0.4425510432615193
 30
0.0
  0
VERTEX
  5
8B6
  8
LAYER_1
 10
-0.7079655876348789
 20
0.4348808690580344
 30
0.0
  0
VERTEX
  5
8B7
  8
LAYER_1
 10
-0.7183458261564962
 20
0.4286105745570866
 30
0.0
  0
VERTEX
  5
8B8
  8
LAYER_1
 10
-0.7261189350029165
 20
0.4239151447214932
 30
0.0
  0
VERTEX
  5
8B9
  8
LAYER_1
 10
-0.7309952330991178
 20
0.4209695645140711
 30
0.0
  0
VERTEX
  5
8BA
  8
LAYER_1
 10
-0.7326850393700788
 20
0.4199488188976378
 30
0.0
  0
VERTEX
  5
8BB
  8
LAYER_1
 10
-0.731317891741397
 20
0.4199488188976379
 30
0.0
  0
VERTEX
  5
8BC
  8
LAYER_1
 10
-0.7273726942986294
 20
0.4199488188976378
 30
0.0
  0
VERTEX
  5
8BD
  8
LAYER_1
 10
-0.7210838152066927
 20
0.4199488188976377
 30
0.0
  0
VERTEX
  5
8BE
  8
LAYER_1
 10
-0.7126856226305045
 20
0.4199488188976378
 30
0.0
  0
VERTEX
  5
8BF
  8
LAYER_1
 10
-0.702412484734981
 20
0.4199488188976379
 30
0.0
  0
VERTEX
  5
8C0
  8
LAYER_1
 10
-0.6904987696850393
 20
0.4199488188976378
 30
0.0
  0
VERTEX
  5
8C1
  8
LAYER_1
 10
-0.6771788456455963
 20
0.4199488188976378
 30
0.0
  0
VERTEX
  5
8C2
  8
LAYER_1
 10
-0.6626870807815688
 20
0.4199488188976378
 30
0.0
  0
VERTEX
  5
8C3
  8
LAYER_1
 10
-0.647257843257874
 20
0.4199488188976379
 30
0.0
  0
VERTEX
  5
8C4
  8
LAYER_1
 10
-0.6311255012394282
 20
0.4199488188976379
 30
0.0
  0
VERTEX
  5
8C5
  8
LAYER_1
 10
-0.6145244228911487
 20
0.4199488188976377
 30
0.0
  0
VERTEX
  5
8C6
  8
LAYER_1
 10
-0.5976889763779527
 20
0.4199488188976378
 30
0.0
  0
VERTEX
  5
8C7
  8
LAYER_1
 10
-0.5808535298647565
 20
0.4199488188976379
 30
0.0
  0
VERTEX
  5
8C8
  8
LAYER_1
 10
-0.5642524515164771
 20
0.4199488188976378
 30
0.0
  0
VERTEX
  5
8C9
  8
LAYER_1
 10
-0.5481201094980315
 20
0.4199488188976378
 30
0.0
  0
VERTEX
  5
8CA
  8
LAYER_1
 10
-0.5326908719743366
 20
0.4199488188976378
 30
0.0
  0
VERTEX
  5
8CB
  8
LAYER_1
 10
-0.5181991071103093
 20
0.4199488188976378
 30
0.0
  0
VERTEX
  5
8CC
  8
LAYER_1
 10
-0.5048791830708663
 20
0.4199488188976378
 30
0.0
  0
VERTEX
  5
8CD
  8
LAYER_1
 10
-0.4929654680209247
 20
0.4199488188976378
 30
0.0
  0
VERTEX
  5
8CE
  8
LAYER_1
 10
-0.4826923301254012
 20
0.4199488188976378
 30
0.0
  0
VERTEX
  5
8CF
  8
LAYER_1
 10
-0.4742941375492128
 20
0.4199488188976378
 30
0.0
  0
VERTEX
  5
8D0
  8
LAYER_1
 10
-0.4680052584572763
 20
0.4199488188976378
 30
0.0
  0
VERTEX
  5
8D1
  8
LAYER_1
 10
-0.4640600610145087
 20
0.4199488188976377
 30
0.0
  0
VERTEX
  5
8D2
  8
LAYER_1
 10
-0.4626929133858268
 20
0.4199488188976378
 30
0.0
  0
VERTEX
  5
8D3
  8
LAYER_1
 10
-0.4623702547435477
 20
0.4209695645140711
 30
0.0
  0
VERTEX
  5
8D4
  8
LAYER_1
 10
-0.4614391540901138
 20
0.423915144721493
 30
0.0
  0
VERTEX
  5
8D5
  8
LAYER_1
 10
-0.45995492433563
 20
0.4286105745570863
 30
0.0
  0
VERTEX
  5
8D6
  8
LAYER_1
 10
-0.4579728783902013
 20
0.434880869058034
 30
0.0
  0
VERTEX
  5
8D7
  8
LAYER_1
 10
-0.4555483291639328
 20
0.4425510432615189
 30
0.0
  0
VERTEX
  5
8D8
  8
LAYER_1
 10
-0.4527365895669293
 20
0.4514461122047239
 30
0.0
  0
VERTEX
  5
8D9
  8
LAYER_1
 10
-0.4495929725092959
 20
0.4613910909248316
 30
0.0
  0
VERTEX
  5
8DA
  8
LAYER_1
 10
-0.4461727909011375
 20
0.4722109944590251
 30
0.0
  0
VERTEX
  5
8DB
  8
LAYER_1
 10
-0.4425313576525592
 20
0.4837308378444874
 30
0.0
  0
VERTEX
  5
8DC
  8
LAYER_1
 10
-0.438723985673666
 20
0.4957756361184009
 30
0.0
  0
VERTEX
  5
8DD
  8
LAYER_1
 10
-0.4348059878745628
 20
0.5081704043179488
 30
0.0
  0
VERTEX
  5
8DE
  8
LAYER_1
 10
-0.4308326771653545
 20
0.5207401574803139
 30
0.0
  0
VERTEX
  5
8DF
  8
LAYER_1
 10
-0.4268593664561465
 20
0.5333099106426791
 30
0.0
  0
VERTEX
  5
8E0
  8
LAYER_1
 10
-0.4229413686570432
 20
0.545704678842227
 30
0.0
  0
VERTEX
  5
8E1
  8
LAYER_1
 10
-0.41913399667815
 20
0.5577494771161406
 30
0.0
  0
VERTEX
  5
8E2
  8
LAYER_1
 10
-0.4154925634295716
 20
0.569269320501603
 30
0.0
  0
VERTEX
  5
8E3
  8
LAYER_1
 10
-0.4120723818214133
 20
0.5800892240357967
 30
0.0
  0
VERTEX
  5
8E4
  8
LAYER_1
 10
-0.4089287647637798
 20
0.5900342027559047
 30
0.0
  0
VERTEX
  5
8E5
  8
LAYER_1
 10
-0.4061170251667763
 20
0.5989292716991097
 30
0.0
  0
VERTEX
  5
8E6
  8
LAYER_1
 10
-0.4036924759405077
 20
0.6065994459025947
 30
0.0
  0
VERTEX
  5
8E7
  8
LAYER_1
 10
-0.4017104299950789
 20
0.6128697404035426
 30
0.0
  0
VERTEX
  5
8E8
  8
LAYER_1
 10
-0.4002262002405951
 20
0.6175651702391363
 30
0.0
  0
VERTEX
  5
8E9
  8
LAYER_1
 10
-0.3992950995871611
 20
0.6205107504465585
 30
0.0
  0
SEQEND
  5
94B
  8
LAYER_1
  0
POLYLINE
  5
7A
  8
LAYER_1
 66
     1
 10
0.0
 20
0.0
 30
0.0
 70
     1
  0
VERTEX
  5
8EA
  8
LAYER_1
 10
-0.3486574803149606
 20
0.6324330708661418
 30
0.0
  0
VERTEX
  5
8EB
  8
LAYER_1
 10
-0.3489886514836687
 20
0.6313571234097042
 30
0.0
  0
VERTEX
  5
8EC
  8
LAYER_1
 10
-0.3499443168562262
 20
0.6282522464639836
 30
0.0
  0
VERTEX
  5
8ED
  8
LAYER_1
 10
-0.3514677042322835
 20
0.6233028881643701
 30
0.0
  0
VERTEX
  5
8EE
  8
LAYER_1
 10
-0.3535020414114903
 20
0.6166934966462526
 30
0.0
  0
VERTEX
  5
8EF
  8
LAYER_1
 10
-0.3559905561934966
 20
0.6086085200450203
 30
0.0
  0
VERTEX
  5
8F0
  8
LAYER_1
 10
-0.3588764763779527
 20
0.5992324064960629
 30
0.0
  0
VERTEX
  5
8F1
  8
LAYER_1
 10
-0.3621030297645086
 20
0.5887496041347696
 30
0.0
  0
VERTEX
  5
8F2
  8
LAYER_1
 10
-0.3656134441528143
 20
0.5773445610965297
 30
0.0
  0
VERTEX
  5
8F3
  8
LAYER_1
 10
-0.3693509473425197
 20
0.5652017255167322
 30
0.0
  0
VERTEX
  5
8F4
  8
LAYER_1
 10
-0.373258767133275
 20
0.552505545530767
 30
0.0
  0
VERTEX
  5
8F5
  8
LAYER_1
 10
-0.3772801313247303
 20
0.539440469274023
 30
0.0
  0
VERTEX
  5
8F6
  8
LAYER_1
 10
-0.3813582677165354
 20
0.5261909448818898
 30
0.0
  0
VERTEX
  5
8F7
  8
LAYER_1
 10
-0.3854364041083406
 20
0.5129414204897564
 30
0.0
  0
VERTEX
  5
8F8
  8
LAYER_1
 10
-0.3894577682997959
 20
0.4998763442330125
 30
0.0
  0
VERTEX
  5
8F9
  8
LAYER_1
 10
-0.3933655880905513
 20
0.4871801642470472
 30
0.0
  0
VERTEX
  5
8FA
  8
LAYER_1
 10
-0.3971030912802567
 20
0.4750373286672499
 30
0.0
  0
VERTEX
  5
8FB
  8
LAYER_1
 10
-0.4006135056685624
 20
0.4636322856290099
 30
0.0
  0
VERTEX
  5
8FC
  8
LAYER_1
 10
-0.4038400590551182
 20
0.4531494832677165
 30
0.0
  0
VERTEX
  5
8FD
  8
LAYER_1
 10
-0.4067259792395743
 20
0.4437733697187591
 30
0.0
  0
VERTEX
  5
8FE
  8
LAYER_1
 10
-0.4092144940215807
 20
0.4356883931175269
 30
0.0
  0
VERTEX
  5
8FF
  8
LAYER_1
 10
-0.4112488312007875
 20
0.4290790015994095
 30
0.0
  0
VERTEX
  5
900
  8
LAYER_1
 10
-0.4127722185768447
 20
0.4241296432997959
 30
0.0
  0
VERTEX
  5
901
  8
LAYER_1
 10
-0.4137278839494022
 20
0.4210247663540755
 30
0.0
  0
VERTEX
  5
902
  8
LAYER_1
 10
-0.4140590551181103
 20
0.4199488188976378
 30
0.0
  0
VERTEX
  5
903
  8
LAYER_1
 10
-0.4123182733668709
 20
0.4199488188976379
 30
0.0
  0
VERTEX
  5
904
  8
LAYER_1
 10
-0.4072948745990085
 20
0.4199488188976378
 30
0.0
  0
VERTEX
  5
905
  8
LAYER_1
 10
-0.399287278543307
 20
0.4199488188976377
 30
0.0
  0
VERTEX
  5
906
  8
LAYER_1
 10
-0.3885939049285506
 20
0.4199488188976378
 30
0.0
  0
VERTEX
  5
907
  8
LAYER_1
 10
-0.3755131734835229
 20
0.4199488188976379
 30
0.0
  0
VERTEX
  5
908
  8
LAYER_1
 10
-0.3603435039370078
 20
0.4199488188976378
 30
0.0
  0
VERTEX
  5
909
  8
LAYER_1
 10
-0.3433833160177892
 20
0.4199488188976378
 30
0.0
  0
VERTEX
  5
90A
  8
LAYER_1
 10
-0.3249310294546514
 20
0.4199488188976378
 30
0.0
  0
VERTEX
  5
90B
  8
LAYER_1
 10
-0.3052850639763778
 20
0.4199488188976379
 30
0.0
  0
VERTEX
  5
90C
  8
LAYER_1
 10
-0.2847438393117525
 20
0.4199488188976379
 30
0.0
  0
VERTEX
  5
90D
  8
LAYER_1
 10
-0.2636057751895592
 20
0.4199488188976377
 30
0.0
  0
VERTEX
  5
90E
  8
LAYER_1
 10
-0.2421692913385825
 20
0.4199488188976378
 30
0.0
  0
VERTEX
  5
90F
  8
LAYER_1
 10
-0.2207328074876056
 20
0.4199488188976379
 30
0.0
  0
VERTEX
  5
910
  8
LAYER_1
 10
-0.1995947433654126
 20
0.4199488188976378
 30
0.0
  0
VERTEX
  5
911
  8
LAYER_1
 10
-0.1790535187007874
 20
0.4199488188976378
 30
0.0
  0
VERTEX
  5
912
  8
LAYER_1
 10
-0.1594075532225139
 20
0.4199488188976378
 30
0.0
  0
VERTEX
  5
913
  8
LAYER_1
 10
-0.140955266659376
 20
0.4199488188976378
 30
0.0
  0
VERTEX
  5
914
  8
LAYER_1
 10
-0.1239950787401577
 20
0.4199488188976378
 30
0.0
  0
VERTEX
  5
915
  8
LAYER_1
 10
-0.1088254091936427
 20
0.4199488188976378
 30
0.0
  0
VERTEX
  5
916
  8
LAYER_1
 10
-0.0957446777486149
 20
0.4199488188976378
 30
0.0
  0
VERTEX
  5
917
  8
LAYER_1
 10
-0.0850513041338585
 20
0.4199488188976378
 30
0.0
  0
VERTEX
  5
918
  8
LAYER_1
 10
-0.0770437080781571
 20
0.4199488188976378
 30
0.0
  0
VERTEX
  5
919
  8
LAYER_1
 10
-0.0720203093102946
 20
0.4199488188976377
 30
0.0
  0
VERTEX
  5
91A
  8
LAYER_1
 10
-0.0702795275590551
 20
0.4199488188976378
 30
0.0
  0
VERTEX
  5
91B
  8
LAYER_1
 10
-0.0716891381415863
 20
0.4210247663540755
 30
0.0
  0
VERTEX
  5
91C
  8
LAYER_1
 10
-0.075756871536891
 20
0.4241296432997957
 30
0.0
  0
VERTEX
  5
91D
  8
LAYER_1
 10
-0.0822410802165351
 20
0.4290790015994091
 30
0.0
  0
VERTEX
  5
91E
  8
LAYER_1
 10
-0.0909001166520847
 20
0.4356883931175266
 30
0.0
  0
VERTEX
  5
91F
  8
LAYER_1
 10
-0.1014923333151058
 20
0.4437733697187586
 30
0.0
  0
VERTEX
  5
920
  8
LAYER_1
 10
-0.1137760826771646
 20
0.453149483267716
 30
0.0
  0
VERTEX
  5
921
  8
LAYER_1
 10
-0.1275097172098271
 20
0.4636322856290092
 30
0.0
  0
VERTEX
  5
922
  8
LAYER_1
 10
-0.1424515893846592
 20
0.4750373286672491
 30
0.0
  0
VERTEX
  5
923
  8
LAYER_1
 10
-0.1583600516732273
 20
0.4871801642470464
 30
0.0
  0
VERTEX
  5
924
  8
LAYER_1
 10
-0.1749934565470971
 20
0.4998763442330115
 30
0.0
  0
VERTEX
  5
925
  8
LAYER_1
 10
-0.1921101564778348
 20
0.5129414204897554
 30
0.0
  0
VERTEX
  5
926
  8
LAYER_1
 10
-0.2094685039370065
 20
0.5261909448818887
 30
0.0
  0
VERTEX
  5
927
  8
LAYER_1
 10
-0.2268268513961782
 20
0.539440469274022
 30
0.0
  0
VERTEX
  5
928
  8
LAYER_1
 10
-0.243943551326916
 20
0.5525055455307659
 30
0.0
  0
VERTEX
  5
929
  8
LAYER_1
 10
-0.2605769562007859
 20
0.5652017255167312
 30
0.0
  0
VERTEX
  5
92A
  8
LAYER_1
 10
-0.276485418489354
 20
0.5773445610965285
 30
0.0
  0
VERTEX
  5
92B
  8
LAYER_1
 10
-0.2914272906641864
 20
0.5887496041347686
 30
0.0
  0
VERTEX
  5
92C
  8
LAYER_1
 10
-0.3051609251968491
 20
0.5992324064960621
 30
0.0
  0
VERTEX
  5
92D
  8
LAYER_1
 10
-0.3174446745589081
 20
0.6086085200450195
 30
0.0
  0
VERTEX
  5
92E
  8
LAYER_1
 10
-0.3280368912219295
 20
0.6166934966462518
 30
0.0
  0
VERTEX
  5
92F
  8
LAYER_1
 10
-0.3366959276574794
 20
0.6233028881643694
 30
0.0
  0
VERTEX
  5
930
  8
LAYER_1
 10
-0.3431801363371239
 20
0.6282522464639833
 30
0.0
  0
VERTEX
  5
931
  8
LAYER_1
 10
-0.3472478697324289
 20
0.6313571234097038
 30
0.0
  0
SEQEND
  5
94C
  8
LAYER_1
  0
ENDSEC
  0
EOF
