  0
SECTION
  2
HEADER
  9
$ACADVER
  1
AC1018
  9
$ACADMAINTVER
 70
     0
  9
$DWGCODEPAGE
  3
ANSI_1252
  9
$INSBASE
 10
0.0
 20
0.0
 30
0.0
  9
$EXTMIN
 10
1.000000000000000E+20
 20
1.000000000000000E+20
 30
1.000000000000000E+20
  9
$EXTMAX
 10
-1.000000000000000E+20
 20
-1.000000000000000E+20
 30
-1.000000000000000E+20
  9
$LIMMIN
 10
0.0
 20
0.0
  9
$LIMMAX
 10
12.0
 20
9.0
  9
$ORTHOMODE
 70
     0
  9
$REGENMODE
 70
     1
  9
$FILLMODE
 70
     1
  9
$QTEXTMODE
 70
     0
  9
$MIRRTEXT
 70
     1
  9
$LTSCALE
 40
1.0
  9
$ATTMODE
 70
     1
  9
$TEXTSIZE
 40
0.2
  9
$TRACEWID
 40
0.05
  9
$TEXTSTYLE
  7
Standard
  9
$CLAYER
  8
0
  9
$CELTYPE
  6
ByLayer
  9
$CECOLOR
 62
   256
  9
$CELTSCALE
 40
1.0
  9
$DISPSILH
 70
     0
  9
$DIMSCALE
 40
1.0
  9
$DIMASZ
 40
0.18
  9
$DIMEXO
 40
0.0625
  9
$DIMDLI
 40
0.38
  9
$DIMRND
 40
0.0
  9
$DIMDLE
 40
0.0
  9
$DIMEXE
 40
0.18
  9
$DIMTP
 40
0.0
  9
$DIMTM
 40
0.0
  9
$DIMTXT
 40
0.18
  9
$DIMCEN
 40
0.09
  9
$DIMTSZ
 40
0.0
  9
$DIMTOL
 70
     0
  9
$DIMLIM
 70
     0
  9
$DIMTIH
 70
     1
  9
$DIMTOH
 70
     1
  9
$DIMSE1
 70
     0
  9
$DIMSE2
 70
     0
  9
$DIMTAD
 70
     0
  9
$DIMZIN
 70
     0
  9
$DIMBLK
  1

  9
$DIMASO
 70
     1
  9
$DIMSHO
 70
     1
  9
$DIMPOST
  1

  9
$DIMAPOST
  1

  9
$DIMALT
 70
     0
  9
$DIMALTD
 70
     2
  9
$DIMALTF
 40
25.4
  9
$DIMLFAC
 40
1.0
  9
$DIMTOFL
 70
     0
  9
$DIMTVP
 40
0.0
  9
$DIMTIX
 70
     0
  9
$DIMSOXD
 70
     0
  9
$DIMSAH
 70
     0
  9
$DIMBLK1
  1

  9
$DIMBLK2
  1

  9
$DIMSTYLE
  2
Standard
  9
$DIMCLRD
 70
     0
  9
$DIMCLRE
 70
     0
  9
$DIMCLRT
 70
     0
  9
$DIMTFAC
 40
1.0
  9
$DIMGAP
 40
0.09
  9
$DIMJUST
 70
     0
  9
$DIMSD1
 70
     0
  9
$DIMSD2
 70
     0
  9
$DIMTOLJ
 70
     1
  9
$DIMTZIN
 70
     0
  9
$DIMALTZ
 70
     0
  9
$DIMALTTZ
 70
     0
  9
$DIMUPT
 70
     0
  9
$DIMDEC
 70
     4
  9
$DIMTDEC
 70
     4
  9
$DIMALTU
 70
     2
  9
$DIMALTTD
 70
     2
  9
$DIMTXSTY
  7
Standard
  9
$DIMAUNIT
 70
     0
  9
$DIMADEC
 70
     0
  9
$DIMALTRND
 40
0.0
  9
$DIMAZIN
 70
     0
  9
$DIMDSEP
 70
    46
  9
$DIMATFIT
 70
     3
  9
$DIMFRAC
 70
     0
  9
$DIMLDRBLK
  1

  9
$DIMLUNIT
 70
     2
  9
$DIMLWD
 70
    -2
  9
$DIMLWE
 70
    -2
  9
$DIMTMOVE
 70
     0
  9
$LUNITS
 70
     2
  9
$LUPREC
 70
     4
  9
$SKETCHINC
 40
0.1
  9
$FILLETRAD
 40
0.5
  9
$AUNITS
 70
     0
  9
$AUPREC
 70
     0
  9
$MENU
  1
.
  9
$ELEVATION
 40
0.0
  9
$PELEVATION
 40
0.0
  9
$THICKNESS
 40
0.0
  9
$LIMCHECK
 70
     0
  9
$CHAMFERA
 40
0.5
  9
$CHAMFERB
 40
0.5
  9
$CHAMFERC
 40
1.0
  9
$CHAMFERD
 40
0.0
  9
$SKPOLY
 70
     0
  9
$TDCREATE
 40
2458653.556992627
  9
$TDUCREATE
 40
2458653.765325961
  9
$TDUPDATE
 40
2458653.556992639
  9
$TDUUPDATE
 40
2458653.765325972
  9
$TDINDWG
 40
0.0000000116
  9
$TDUSRTIMER
 40
0.0000000116
  9
$USRTIMER
 70
     1
  9
$ANGBASE
 50
0.0
  9
$ANGDIR
 70
     0
  9
$PDMODE
 70
     0
  9
$PDSIZE
 40
0.0
  9
$PLINEWID
 40
0.0
  9
$SPLFRAME
 70
     0
  9
$SPLINETYPE
 70
     6
  9
$SPLINESEGS
 70
     8
  9
$HANDSEED
  5
7A
  9
$SURFTAB1
 70
     6
  9
$SURFTAB2
 70
     6
  9
$SURFTYPE
 70
     6
  9
$SURFU
 70
     6
  9
$SURFV
 70
     6
  9
$UCSBASE
  2

  9
$UCSNAME
  2

  9
$UCSORG
 10
0.0
 20
0.0
 30
0.0
  9
$UCSXDIR
 10
1.0
 20
0.0
 30
0.0
  9
$UCSYDIR
 10
0.0
 20
1.0
 30
0.0
  9
$UCSORTHOREF
  2

  9
$UCSORTHOVIEW
 70
     0
  9
$UCSORGTOP
 10
0.0
 20
0.0
 30
0.0
  9
$UCSORGBOTTOM
 10
0.0
 20
0.0
 30
0.0
  9
$UCSORGLEFT
 10
0.0
 20
0.0
 30
0.0
  9
$UCSORGRIGHT
 10
0.0
 20
0.0
 30
0.0
  9
$UCSORGFRONT
 10
0.0
 20
0.0
 30
0.0
  9
$UCSORGBACK
 10
0.0
 20
0.0
 30
0.0
  9
$PUCSBASE
  2

  9
$PUCSNAME
  2

  9
$PUCSORG
 10
0.0
 20
0.0
 30
0.0
  9
$PUCSXDIR
 10
1.0
 20
0.0
 30
0.0
  9
$PUCSYDIR
 10
0.0
 20
1.0
 30
0.0
  9
$PUCSORTHOREF
  2

  9
$PUCSORTHOVIEW
 70
     0
  9
$PUCSORGTOP
 10
0.0
 20
0.0
 30
0.0
  9
$PUCSORGBOTTOM
 10
0.0
 20
0.0
 30
0.0
  9
$PUCSORGLEFT
 10
0.0
 20
0.0
 30
0.0
  9
$PUCSORGRIGHT
 10
0.0
 20
0.0
 30
0.0
  9
$PUCSORGFRONT
 10
0.0
 20
0.0
 30
0.0
  9
$PUCSORGBACK
 10
0.0
 20
0.0
 30
0.0
  9
$USERI1
 70
     0
  9
$USERI2
 70
     0
  9
$USERI3
 70
     0
  9
$USERI4
 70
     0
  9
$USERI5
 70
     0
  9
$USERR1
 40
0.0
  9
$USERR2
 40
0.0
  9
$USERR3
 40
0.0
  9
$USERR4
 40
0.0
  9
$USERR5
 40
0.0
  9
$WORLDVIEW
 70
     1
  9
$SHADEDGE
 70
     3
  9
$SHADEDIF
 70
    70
  9
$TILEMODE
 70
     1
  9
$MAXACTVP
 70
    64
  9
$PINSBASE
 10
0.0
 20
0.0
 30
0.0
  9
$PLIMCHECK
 70
     0
  9
$PEXTMIN
 10
1.000000000000000E+20
 20
1.000000000000000E+20
 30
1.000000000000000E+20
  9
$PEXTMAX
 10
-1.000000000000000E+20
 20
-1.000000000000000E+20
 30
-1.000000000000000E+20
  9
$PLIMMIN
 10
0.0
 20
0.0
  9
$PLIMMAX
 10
12.0
 20
9.0
  9
$UNITMODE
 70
     0
  9
$VISRETAIN
 70
     1
  9
$PLINEGEN
 70
     0
  9
$PSLTSCALE
 70
     1
  9
$TREEDEPTH
 70
  3020
  9
$CMLSTYLE
  2
Standard
  9
$CMLJUST
 70
     0
  9
$CMLSCALE
 40
1.0
  9
$PROXYGRAPHICS
 70
     1
  9
$MEASUREMENT
 70
     0
  9
$CELWEIGHT
370
    -1
  9
$ENDCAPS
280
     0
  9
$JOINSTYLE
280
     0
  9
$LWDISPLAY
290
     1
  9
$INSUNITS
 70
     1
  9
$HYPERLINKBASE
  1

  9
$STYLESHEET
  1

  9
$XEDIT
290
     1
  9
$CEPSNTYPE
380
     0
  9
$PSTYLEMODE
290
     1
  9
$FINGERPRINTGUID
  2
{D4525328-88F1-4395-8CC3-DE3D84F7055A}
  9
$VERSIONGUID
  2
{FAEB1C32-E019-11D5-929B-00C0DF256EC4}
  9
$EXTNAMES
290
     1
  9
$PSVPSCALE
 40
0.0
  9
$OLESTARTUP
290
     0
  9
$SORTENTS
280
   127
  9
$INDEXCTL
280
     0
  9
$HIDETEXT
280
     1
  9
$XCLIPFRAME
290
     0
  9
$HALOGAP
280
     0
  9
$OBSCOLOR
 70
   257
  9
$OBSLTYPE
280
     0
  9
$INTERSECTIONDISPLAY
280
     0
  9
$INTERSECTIONCOLOR
 70
   257
  9
$DIMASSOC
280
     2
  9
$PROJECTNAME
  1

  0
ENDSEC
  0
SECTION
  2
CLASSES
  0
CLASS
  1
ACDBDICTIONARYWDFLT
  2
AcDbDictionaryWithDefault
  3
ObjectDBX Classes
 90
        0
 91
        3
280
     0
281
     0
  0
CLASS
  1
VISUALSTYLE
  2
AcDbVisualStyle
  3
ObjectDBX Classes
 90
     4095
 91
        3
280
     0
281
     0
  0
CLASS
  1
IMAGEDEF
  2
AcDbRasterImageDef
  3
ISM
 90
        0
 91
        3
280
     0
281
     0
  0
CLASS
  1
RASTERVARIABLES
  2
AcDbRasterVariables
  3
ISM
 90
        0
 91
        3
280
     0
281
     0
  0
CLASS
  1
IMAGE
  2
AcDbRasterImage
  3
ISM
 90
      127
 91
        4
280
     0
281
     1
  0
CLASS
  1
IMAGEDEF_REACTOR
  2
AcDbRasterImageDefReactor
  3
ISM
 90
        1
 91
        3
280
     0
281
     0
  0
ENDSEC
  0
SECTION
  2
TABLES
  0
TABLE
  2
VPORT
  5
8
330
0
100
AcDbSymbolTable
 70
     1
  0
VPORT
  5
29
330
8
100
AcDbSymbolTableRecord
100
AcDbViewportTableRecord
  2
*Active
 70
     0
 10
0.0
 20
0.0
 11
1.0
 21
1.0
 12
0.0
 22
0.0
 13
0.0
 23
0.0
 14
0.5
 24
0.5
 15
0.5
 25
0.5
 16
0.0
 26
0.0
 36
1.0
 17
640.0
 27
400.0
 37
0.0
 40
800.0
 41
1.6
 42
50.0
 43
0.0
 44
0.0
 50
0.0
 51
0.0
 71
     0
 72
   100
 73
     1
 74
     3
 75
     0
 76
     0
 77
     0
 78
     0
281
     0
 65
     1
110
0.0
120
0.0
130
0.0
111
1.0
121
0.0
131
0.0
112
0.0
122
1.0
132
0.0
 79
     0
146
0.0
  0
ENDTAB
  0
TABLE
  2
LTYPE
  5
5
330
0
100
AcDbSymbolTable
 70
     1
  0
LTYPE
  5
14
330
5
100
AcDbSymbolTableRecord
100
AcDbLinetypeTableRecord
  2
ByBlock
 70
     0
  3

 72
    65
 73
     0
 40
0.0
  0
LTYPE
  5
15
330
5
100
AcDbSymbolTableRecord
100
AcDbLinetypeTableRecord
  2
ByLayer
 70
     0
  3

 72
    65
 73
     0
 40
0.0
  0
LTYPE
  5
16
330
5
100
AcDbSymbolTableRecord
100
AcDbLinetypeTableRecord
  2
Continuous
 70
     0
  3
Solid line
 72
    65
 73
     0
 40
0.0
  0
ENDTAB
  0
TABLE
  2
LAYER
  5
2
330
0
100
AcDbSymbolTable
 70
     7
  0
LAYER
  5
10
330
2
100
AcDbSymbolTableRecord
100
AcDbLayerTableRecord
  2
0
 70
     0
 62
     7
  6
Continuous
370
    -3
390
F
  0
LAYER
  5
3B
330
2
100
AcDbSymbolTableRecord
100
AcDbLayerTableRecord
  2
Capa 1
 70
     0
 62
     7
  6
Continuous
370
    -3
390
F
  0
LAYER
  5
41
330
2
100
AcDbSymbolTableRecord
100
AcDbLayerTableRecord
  2
Contorno Lon
 70
     0
 62
     7
  6
Continuous
370
    -3
390
F
  0
LAYER
  5
44
330
2
100
AcDbSymbolTableRecord
100
AcDbLayerTableRecord
  2
rostro 1
 70
     0
 62
     7
  6
Continuous
370
    -3
390
F
  0
LAYER
  5
46
330
2
100
AcDbSymbolTableRecord
100
AcDbLayerTableRecord
  2
ojos
 70
     0
 62
     7
  6
Continuous
370
    -3
390
F
  0
LAYER
  5
49
330
2
100
AcDbSymbolTableRecord
100
AcDbLayerTableRecord
  2
Colmillos
 70
     0
 62
     7
  6
Continuous
370
    -3
390
F
  0
LAYER
  5
56
330
2
100
AcDbSymbolTableRecord
100
AcDbLayerTableRecord
  2
Cabellera
 70
     0
 62
     7
  6
Continuous
370
    -3
390
F
  0
ENDTAB
  0
TABLE
  2
STYLE
  5
3
330
0
100
AcDbSymbolTable
 70
     1
  0
STYLE
  5
11
330
3
100
AcDbSymbolTableRecord
100
AcDbTextStyleTableRecord
  2
Standard
 70
     0
 40
0.0
 41
1.0
 50
0.0
 71
     0
 42
0.2
  3
txt
  4

  0
ENDTAB
  0
TABLE
  2
VIEW
  5
6
330
0
100
AcDbSymbolTable
 70
     0
  0
ENDTAB
  0
TABLE
  2
UCS
  5
7
330
0
100
AcDbSymbolTable
 70
     0
  0
ENDTAB
  0
TABLE
  2
APPID
  5
9
330
0
100
AcDbSymbolTable
 70
     1
  0
APPID
  5
12
330
9
100
AcDbSymbolTableRecord
100
AcDbRegAppTableRecord
  2
ACAD
 70
     0
  0
ENDTAB
  0
TABLE
  2
DIMSTYLE
  5
A
330
0
100
AcDbSymbolTable
 70
     1
100
AcDbDimStyleTable
  0
DIMSTYLE
105
27
330
A
100
AcDbSymbolTableRecord
100
AcDbDimStyleTableRecord
  2
Standard
 70
     0
340
11
  0
ENDTAB
  0
TABLE
  2
BLOCK_RECORD
  5
1
330
0
100
AcDbSymbolTable
 70
     1
  0
BLOCK_RECORD
  5
1F
330
1
100
AcDbSymbolTableRecord
100
AcDbBlockTableRecord
  2
*Model_Space
340
22
  0
BLOCK_RECORD
  5
1B
330
1
100
AcDbSymbolTableRecord
100
AcDbBlockTableRecord
  2
*Paper_Space
340
1E
  0
BLOCK_RECORD
  5
23
330
1
100
AcDbSymbolTableRecord
100
AcDbBlockTableRecord
  2
*Paper_Space0
340
26
  0
ENDTAB
  0
ENDSEC
  0
SECTION
  2
BLOCKS
  0
BLOCK
  5
20
330
1F
100
AcDbEntity
  8
0
100
AcDbBlockBegin
  2
*Model_Space
 70
     0
 71
     0
 10
0.0
 20
0.0
 30
0.0
  3
*Model_Space
  1

  0
ENDBLK
  5
21
330
1F
100
AcDbEntity
  8
0
100
AcDbBlockEnd
  0
BLOCK
  5
1C
330
1B
100
AcDbEntity
 67
     1
  8
0
100
AcDbBlockBegin
  2
*Paper_Space
 70
     0
 71
     0
 10
0.0
 20
0.0
 30
0.0
  3
*Paper_Space
  1

  0
ENDBLK
  5
1D
330
1B
100
AcDbEntity
 67
     1
  8
0
100
AcDbBlockEnd
  0
BLOCK
  5
24
330
23
100
AcDbEntity
  8
0
100
AcDbBlockBegin
  2
*Paper_Space0
 70
     0
 71
     0
 10
0.0
 20
0.0
 30
0.0
  3
*Paper_Space0
  1

  0
ENDBLK
  5
25
330
23
100
AcDbEntity
  8
0
100
AcDbBlockEnd
  0
ENDSEC
  0
SECTION
  2
ENTITIES
  0
IMAGE
  5
3F
330
1F
100
AcDbEntity
  8
Capa 1
 92
        8
310
0800000000000000
100
AcDbRasterImage
 90
        0
 10
-361.0
 20
-600.0
 30
0.0
 11
1.0
 21
0.0
 31
0.0
 12
0.0
 22
1.0
 32
0.0
 13
2000.0
 23
2000.0
340
3D
 70
     3
280
     0
281
    50
282
    50
283
     0
360
40
 71
     1
 91
        2
 14
-0.5
 24
-0.5
 14
1999.5
 24
1999.5
  0
SPLINE
  5
42
330
1F
100
AcDbEntity
  8
Contorno Lon
 62
     7
420
 16777215
370
    35
100
AcDbSpline
210
0.0
220
0.0
230
1.0
 70
    11
 71
     3
 72
   155
 73
   151
 74
     0
 42
0.0000000001
 43
0.0000000001
 40
0.0
 40
0.0
 40
0.0
 40
0.0
 40
1.0
 40
1.0
 40
1.0
 40
2.0
 40
2.0
 40
2.0
 40
3.0
 40
3.0
 40
3.0
 40
4.0
 40
4.0
 40
4.0
 40
5.0
 40
5.0
 40
5.0
 40
6.0
 40
6.0
 40
6.0
 40
7.0
 40
7.0
 40
7.0
 40
8.0
 40
8.0
 40
8.0
 40
9.0
 40
9.0
 40
9.0
 40
10.0
 40
10.0
 40
10.0
 40
11.0
 40
11.0
 40
11.0
 40
12.0
 40
12.0
 40
12.0
 40
13.0
 40
13.0
 40
13.0
 40
14.0
 40
14.0
 40
14.0
 40
15.0
 40
15.0
 40
15.0
 40
16.0
 40
16.0
 40
16.0
 40
17.0
 40
17.0
 40
17.0
 40
18.0
 40
18.0
 40
18.0
 40
19.0
 40
19.0
 40
19.0
 40
20.0
 40
20.0
 40
20.0
 40
21.0
 40
21.0
 40
21.0
 40
22.0
 40
22.0
 40
22.0
 40
23.0
 40
23.0
 40
23.0
 40
24.0
 40
24.0
 40
24.0
 40
25.0
 40
25.0
 40
25.0
 40
26.0
 40
26.0
 40
26.0
 40
27.0
 40
27.0
 40
27.0
 40
28.0
 40
28.0
 40
28.0
 40
29.0
 40
29.0
 40
29.0
 40
30.0
 40
30.0
 40
30.0
 40
31.0
 40
31.0
 40
31.0
 40
32.0
 40
32.0
 40
32.0
 40
33.0
 40
33.0
 40
33.0
 40
34.0
 40
34.0
 40
34.0
 40
35.0
 40
35.0
 40
35.0
 40
36.0
 40
36.0
 40
36.0
 40
37.0
 40
37.0
 40
37.0
 40
38.0
 40
38.0
 40
38.0
 40
39.0
 40
39.0
 40
39.0
 40
40.0
 40
40.0
 40
40.0
 40
41.0
 40
41.0
 40
41.0
 40
42.0
 40
42.0
 40
42.0
 40
43.0
 40
43.0
 40
43.0
 40
44.0
 40
44.0
 40
44.0
 40
45.0
 40
45.0
 40
45.0
 40
46.0
 40
46.0
 40
46.0
 40
47.0
 40
47.0
 40
47.0
 40
48.0
 40
48.0
 40
48.0
 40
49.0
 40
49.0
 40
49.0
 40
50.0
 40
50.0
 40
50.0
 40
50.0
 10
-41.5
 20
261.0
 30
0.0
 10
-41.5
 20
261.0
 30
0.0
 10
68.5
 20
261.0
 30
0.0
 10
115.0
 20
323.5
 30
0.0
 10
161.5
 20
386.0
 30
0.0
 10
132.0
 20
476.5
 30
0.0
 10
266.0
 20
533.0
 30
0.0
 10
266.0
 20
533.0
 30
0.0
 10
213.0
 20
532.0
 30
0.0
 10
190.5
 20
575.0
 30
0.0
 10
190.5
 20
575.0
 30
0.0
 10
294.0
 20
564.5
 30
0.0
 10
346.0
 20
658.5
 30
0.0
 10
346.0
 20
658.5
 30
0.0
 10
316.5
 20
667.5
 30
0.0
 10
242.0
 20
637.0
 30
0.0
 10
242.0
 20
637.0
 30
0.0
 10
269.0
 20
726.5
 30
0.0
 10
405.5
 20
767.0
 30
0.0
 10
405.5
 20
767.0
 30
0.0
 10
348.5
 20
762.0
 30
0.0
 10
316.0
 20
808.5
 30
0.0
 10
316.0
 20
808.5
 30
0.0
 10
417.0
 20
824.5
 30
0.0
 10
417.0
 20
824.5
 30
0.0
 10
417.0
 20
824.5
 30
0.0
 10
461.5
 20
884.0
 30
0.0
 10
597.5
 20
910.5
 30
0.0
 10
597.5
 20
910.5
 30
0.0
 10
592.0
 20
922.0
 30
0.0
 10
606.0
 20
926.5
 30
0.0
 10
606.0
 20
926.5
 30
0.0
 10
560.5
 20
928.5
 30
0.0
 10
531.0
 20
920.0
 30
0.0
 10
531.0
 20
920.0
 30
0.0
 10
647.0
 20
998.5
 30
0.0
 10
804.5
 20
933.5
 30
0.0
 10
804.5
 20
933.5
 30
0.0
 10
782.0
 20
966.5
 30
0.0
 10
801.5
 20
984.5
 30
0.0
 10
801.5
 20
984.5
 30
0.0
 10
817.0
 20
940.0
 30
0.0
 10
943.0
 20
906.0
 30
0.0
 10
1069.0
 20
872.0
 30
0.0
 10
1066.0
 20
832.0
 30
0.0
 10
1066.0
 20
832.0
 30
0.0
 10
1066.0
 20
832.0
 30
0.0
 10
1075.0
 20
862.0
 30
0.0
 10
1050.0
 20
882.5
 30
0.0
 10
1050.0
 20
882.5
 30
0.0
 10
1106.0
 20
884.0
 30
0.0
 10
1125.0
 20
719.5
 30
0.0
 10
1125.0
 20
719.5
 30
0.0
 10
1149.0
 20
698.5
 30
0.0
 10
1161.0
 20
669.0
 30
0.0
 10
1161.0
 20
669.0
 30
0.0
 10
1234.5
 20
641.0
 30
0.0
 10
1256.0
 20
617.5
 30
0.0
 10
1277.5
 20
594.0
 30
0.0
 10
1279.0
 20
594.0
 30
0.0
 10
1275.0
 20
569.5
 30
0.0
 10
1271.0
 20
545.0
 30
0.0
 10
1292.0
 20
529.0
 30
0.0
 10
1259.5
 20
467.5
 30
0.0
 10
1259.5
 20
467.5
 30
0.0
 10
1250.0
 20
456.0
 30
0.0
 10
1244.0
 20
448.0
 30
0.0
 10
1238.0
 20
440.0
 30
0.0
 10
1234.0
 20
408.0
 30
0.0
 10
1199.5
 20
380.5
 30
0.0
 10
1199.5
 20
380.5
 30
0.0
 10
1199.0
 20
431.5
 30
0.0
 10
1199.0
 20
431.5
 30
0.0
 10
1199.0
 20
431.5
 30
0.0
 10
1174.5
 20
435.0
 30
0.0
 10
1167.0
 20
394.0
 30
0.0
 10
1167.0
 20
394.0
 30
0.0
 10
1165.5
 20
375.5
 30
0.0
 10
1133.5
 20
340.0
 30
0.0
 10
1133.5
 20
340.0
 30
0.0
 10
1125.0
 20
381.0
 30
0.0
 10
1125.0
 20
381.0
 30
0.0
 10
1125.0
 20
381.0
 30
0.0
 10
1098.5
 20
344.5
 30
0.0
 10
1113.0
 20
264.5
 30
0.0
 10
1113.0
 20
264.5
 30
0.0
 10
1117.0
 20
249.5
 30
0.0
 10
1117.0
 20
249.5
 30
0.0
 10
1117.0
 20
249.5
 30
0.0
 10
1149.0
 20
266.5
 30
0.0
 10
1149.0
 20
266.5
 30
0.0
 10
1149.0
 20
266.5
 30
0.0
 10
1149.0
 20
238.0
 30
0.0
 10
1120.5
 20
194.0
 30
0.0
 10
1120.5
 20
194.0
 30
0.0
 10
1133.5
 20
177.0
 30
0.0
 10
1126.0
 20
164.5
 30
0.0
 10
1118.5
 20
152.0
 30
0.0
 10
1107.5
 20
87.0
 30
0.0
 10
1076.5
 20
63.5
 30
0.0
 10
1076.5
 20
63.5
 30
0.0
 10
1073.0
 20
76.0
 30
0.0
 10
1073.0
 20
76.0
 30
0.0
 10
1073.0
 20
76.0
 30
0.0
 10
1058.5
 20
51.5
 30
0.0
 10
1001.5
 20
23.5
 30
0.0
 10
944.5
 20
-4.5
 30
0.0
 10
988.0
 20
-50.0
 30
0.0
 10
844.5
 20
-104.5
 30
0.0
 10
844.5
 20
-104.5
 30
0.0
 10
874.5
 20
-75.0
 30
0.0
 10
865.0
 20
-46.0
 30
0.0
 10
865.0
 20
-46.0
 30
0.0
 10
805.0
 20
-167.5
 30
0.0
 10
640.0
 20
-104.5
 30
0.0
 10
640.0
 20
-104.5
 30
0.0
 10
750.0
 20
-71.0
 30
0.0
 10
745.0
 20
-40.0
 30
0.0
 10
745.0
 20
-40.0
 30
0.0
 10
635.0
 20
-114.5
 30
0.0
 10
509.0
 20
-74.5
 30
0.0
 10
509.0
 20
-74.5
 30
0.0
 10
571.0
 20
-41.5
 30
0.0
 10
601.0
 20
14.5
 30
0.0
 10
631.0
 20
70.5
 30
0.0
 10
618.2646484375
 20
52.0
 30
0.0
 10
618.2646484375
 20
52.0
 30
0.0
 10
618.2646484375
 20
52.0
 30
0.0
 10
553.0
 20
-13.0
 30
0.0
 10
422.0
 20
-12.0
 30
0.0
 10
422.0
 20
-12.0
 30
0.0
 10
342.5
 20
-14.5
 30
0.0
 10
256.0
 20
-69.5
 30
0.0
 10
256.0
 20
-69.5
 30
0.0
 10
266.5
 20
-32.0
 30
0.0
 10
346.5
 20
22.0
 30
0.0
 10
346.5
 20
22.0
 30
0.0
 10
223.5
 20
-3.5
 30
0.0
 10
162.0
 20
-119.5
 30
0.0
 10
162.0
 20
-119.5
 30
0.0
 10
144.0
 20
-0.5
 30
0.0
 10
246.0
 20
122.0
 30
0.0
 10
246.0
 20
122.0
 30
0.0
 10
118.0
 20
87.5
 30
0.0
 10
63.5
 20
163.0
 30
0.0
 10
63.5
 20
163.0
 30
0.0
 10
136.0
 20
145.0
 30
0.0
 10
199.0
 20
179.5
 30
0.0
 10
199.0
 20
179.5
 30
0.0
 10
55.5
 20
171.0
 30
0.0
 10
-41.5
 20
261.0
 30
0.0
  0
HATCH
  5
43
330
1F
100
AcDbEntity
  8
Contorno Lon
 62
     7
420
 16777215
100
AcDbHatch
 10
0.0
 20
0.0
 30
0.0
210
0.0
220
0.0
230
1.0
  2
SOLID
 70
     1
 71
     0
 91
        1
 92
        1
 93
        1
 72
     4
 94
        3
 73
     0
 74
     1
 95
      155
 96
      151
 40
0.0
 40
0.0
 40
0.0
 40
0.0
 40
1.0
 40
1.0
 40
1.0
 40
2.0
 40
2.0
 40
2.0
 40
3.0
 40
3.0
 40
3.0
 40
4.0
 40
4.0
 40
4.0
 40
5.0
 40
5.0
 40
5.0
 40
6.0
 40
6.0
 40
6.0
 40
7.0
 40
7.0
 40
7.0
 40
8.0
 40
8.0
 40
8.0
 40
9.0
 40
9.0
 40
9.0
 40
10.0
 40
10.0
 40
10.0
 40
11.0
 40
11.0
 40
11.0
 40
12.0
 40
12.0
 40
12.0
 40
13.0
 40
13.0
 40
13.0
 40
14.0
 40
14.0
 40
14.0
 40
15.0
 40
15.0
 40
15.0
 40
16.0
 40
16.0
 40
16.0
 40
17.0
 40
17.0
 40
17.0
 40
18.0
 40
18.0
 40
18.0
 40
19.0
 40
19.0
 40
19.0
 40
20.0
 40
20.0
 40
20.0
 40
21.0
 40
21.0
 40
21.0
 40
22.0
 40
22.0
 40
22.0
 40
23.0
 40
23.0
 40
23.0
 40
24.0
 40
24.0
 40
24.0
 40
25.0
 40
25.0
 40
25.0
 40
26.0
 40
26.0
 40
26.0
 40
27.0
 40
27.0
 40
27.0
 40
28.0
 40
28.0
 40
28.0
 40
29.0
 40
29.0
 40
29.0
 40
30.0
 40
30.0
 40
30.0
 40
31.0
 40
31.0
 40
31.0
 40
32.0
 40
32.0
 40
32.0
 40
33.0
 40
33.0
 40
33.0
 40
34.0
 40
34.0
 40
34.0
 40
35.0
 40
35.0
 40
35.0
 40
36.0
 40
36.0
 40
36.0
 40
37.0
 40
37.0
 40
37.0
 40
38.0
 40
38.0
 40
38.0
 40
39.0
 40
39.0
 40
39.0
 40
40.0
 40
40.0
 40
40.0
 40
41.0
 40
41.0
 40
41.0
 40
42.0
 40
42.0
 40
42.0
 40
43.0
 40
43.0
 40
43.0
 40
44.0
 40
44.0
 40
44.0
 40
45.0
 40
45.0
 40
45.0
 40
46.0
 40
46.0
 40
46.0
 40
47.0
 40
47.0
 40
47.0
 40
48.0
 40
48.0
 40
48.0
 40
49.0
 40
49.0
 40
49.0
 40
50.0
 40
50.0
 40
50.0
 40
50.0
 10
-41.5
 20
261.0
 10
-41.5
 20
261.0
 10
68.5
 20
261.0
 10
115.0
 20
323.5
 10
161.5
 20
386.0
 10
132.0
 20
476.5
 10
266.0
 20
533.0
 10
266.0
 20
533.0
 10
213.0
 20
532.0
 10
190.5
 20
575.0
 10
190.5
 20
575.0
 10
294.0
 20
564.5
 10
346.0
 20
658.5
 10
346.0
 20
658.5
 10
316.5
 20
667.5
 10
242.0
 20
637.0
 10
242.0
 20
637.0
 10
269.0
 20
726.5
 10
405.5
 20
767.0
 10
405.5
 20
767.0
 10
348.5
 20
762.0
 10
316.0
 20
808.5
 10
316.0
 20
808.5
 10
417.0
 20
824.5
 10
417.0
 20
824.5
 10
417.0
 20
824.5
 10
461.5
 20
884.0
 10
597.5
 20
910.5
 10
597.5
 20
910.5
 10
592.0
 20
922.0
 10
606.0
 20
926.5
 10
606.0
 20
926.5
 10
560.5
 20
928.5
 10
531.0
 20
920.0
 10
531.0
 20
920.0
 10
647.0
 20
998.5
 10
804.5
 20
933.5
 10
804.5
 20
933.5
 10
782.0
 20
966.5
 10
801.5
 20
984.5
 10
801.5
 20
984.5
 10
817.0
 20
940.0
 10
943.0
 20
906.0
 10
1069.0
 20
872.0
 10
1066.0
 20
832.0
 10
1066.0
 20
832.0
 10
1066.0
 20
832.0
 10
1075.0
 20
862.0
 10
1050.0
 20
882.5
 10
1050.0
 20
882.5
 10
1106.0
 20
884.0
 10
1125.0
 20
719.5
 10
1125.0
 20
719.5
 10
1149.0
 20
698.5
 10
1161.0
 20
669.0
 10
1161.0
 20
669.0
 10
1234.5
 20
641.0
 10
1256.0
 20
617.5
 10
1277.5
 20
594.0
 10
1279.0
 20
594.0
 10
1275.0
 20
569.5
 10
1271.0
 20
545.0
 10
1292.0
 20
529.0
 10
1259.5
 20
467.5
 10
1259.5
 20
467.5
 10
1250.0
 20
456.0
 10
1244.0
 20
448.0
 10
1238.0
 20
440.0
 10
1234.0
 20
408.0
 10
1199.5
 20
380.5
 10
1199.5
 20
380.5
 10
1199.0
 20
431.5
 10
1199.0
 20
431.5
 10
1199.0
 20
431.5
 10
1174.5
 20
435.0
 10
1167.0
 20
394.0
 10
1167.0
 20
394.0
 10
1165.5
 20
375.5
 10
1133.5
 20
340.0
 10
1133.5
 20
340.0
 10
1125.0
 20
381.0
 10
1125.0
 20
381.0
 10
1125.0
 20
381.0
 10
1098.5
 20
344.5
 10
1113.0
 20
264.5
 10
1113.0
 20
264.5
 10
1117.0
 20
249.5
 10
1117.0
 20
249.5
 10
1117.0
 20
249.5
 10
1149.0
 20
266.5
 10
1149.0
 20
266.5
 10
1149.0
 20
266.5
 10
1149.0
 20
238.0
 10
1120.5
 20
194.0
 10
1120.5
 20
194.0
 10
1133.5
 20
177.0
 10
1126.0
 20
164.5
 10
1118.5
 20
152.0
 10
1107.5
 20
87.0
 10
1076.5
 20
63.5
 10
1076.5
 20
63.5
 10
1073.0
 20
76.0
 10
1073.0
 20
76.0
 10
1073.0
 20
76.0
 10
1058.5
 20
51.5
 10
1001.5
 20
23.5
 10
944.5
 20
-4.5
 10
988.0
 20
-50.0
 10
844.5
 20
-104.5
 10
844.5
 20
-104.5
 10
874.5
 20
-75.0
 10
865.0
 20
-46.0
 10
865.0
 20
-46.0
 10
805.0
 20
-167.5
 10
640.0
 20
-104.5
 10
640.0
 20
-104.5
 10
750.0
 20
-71.0
 10
745.0
 20
-40.0
 10
745.0
 20
-40.0
 10
635.0
 20
-114.5
 10
509.0
 20
-74.5
 10
509.0
 20
-74.5
 10
571.0
 20
-41.5
 10
601.0
 20
14.5
 10
631.0
 20
70.5
 10
618.2646484375
 20
52.0
 10
618.2646484375
 20
52.0
 10
618.2646484375
 20
52.0
 10
553.0
 20
-13.0
 10
422.0
 20
-12.0
 10
422.0
 20
-12.0
 10
342.5
 20
-14.5
 10
256.0
 20
-69.5
 10
256.0
 20
-69.5
 10
266.5
 20
-32.0
 10
346.5
 20
22.0
 10
346.5
 20
22.0
 10
223.5
 20
-3.5
 10
162.0
 20
-119.5
 10
162.0
 20
-119.5
 10
144.0
 20
-0.5
 10
246.0
 20
122.0
 10
246.0
 20
122.0
 10
118.0
 20
87.5
 10
63.5
 20
163.0
 10
63.5
 20
163.0
 10
136.0
 20
145.0
 10
199.0
 20
179.5
 10
199.0
 20
179.5
 10
55.5
 20
171.0
 10
-41.5
 20
261.0
 97
        0
 75
     2
 76
     1
 98
        0
  0
SPLINE
  5
45
330
1F
100
AcDbEntity
  8
rostro 1
 62
     7
420
 16777215
370
    35
100
AcDbSpline
210
0.0
220
0.0
230
1.0
 70
    11
 71
     3
 72
   182
 73
   178
 74
     0
 42
0.0000000001
 43
0.0000000001
 40
0.0
 40
0.0
 40
0.0
 40
0.0
 40
1.0
 40
1.0
 40
1.0
 40
2.0
 40
2.0
 40
2.0
 40
3.0
 40
3.0
 40
3.0
 40
4.0
 40
4.0
 40
4.0
 40
5.0
 40
5.0
 40
5.0
 40
6.0
 40
6.0
 40
6.0
 40
7.0
 40
7.0
 40
7.0
 40
8.0
 40
8.0
 40
8.0
 40
9.0
 40
9.0
 40
9.0
 40
10.0
 40
10.0
 40
10.0
 40
11.0
 40
11.0
 40
11.0
 40
12.0
 40
12.0
 40
12.0
 40
13.0
 40
13.0
 40
13.0
 40
14.0
 40
14.0
 40
14.0
 40
15.0
 40
15.0
 40
15.0
 40
16.0
 40
16.0
 40
16.0
 40
17.0
 40
17.0
 40
17.0
 40
18.0
 40
18.0
 40
18.0
 40
19.0
 40
19.0
 40
19.0
 40
20.0
 40
20.0
 40
20.0
 40
21.0
 40
21.0
 40
21.0
 40
22.0
 40
22.0
 40
22.0
 40
23.0
 40
23.0
 40
23.0
 40
24.0
 40
24.0
 40
24.0
 40
25.0
 40
25.0
 40
25.0
 40
26.0
 40
26.0
 40
26.0
 40
27.0
 40
27.0
 40
27.0
 40
28.0
 40
28.0
 40
28.0
 40
29.0
 40
29.0
 40
29.0
 40
30.0
 40
30.0
 40
30.0
 40
31.0
 40
31.0
 40
31.0
 40
32.0
 40
32.0
 40
32.0
 40
33.0
 40
33.0
 40
33.0
 40
34.0
 40
34.0
 40
34.0
 40
35.0
 40
35.0
 40
35.0
 40
36.0
 40
36.0
 40
36.0
 40
37.0
 40
37.0
 40
37.0
 40
38.0
 40
38.0
 40
38.0
 40
39.0
 40
39.0
 40
39.0
 40
40.0
 40
40.0
 40
40.0
 40
41.0
 40
41.0
 40
41.0
 40
42.0
 40
42.0
 40
42.0
 40
43.0
 40
43.0
 40
43.0
 40
44.0
 40
44.0
 40
44.0
 40
45.0
 40
45.0
 40
45.0
 40
46.0
 40
46.0
 40
46.0
 40
47.0
 40
47.0
 40
47.0
 40
48.0
 40
48.0
 40
48.0
 40
49.0
 40
49.0
 40
49.0
 40
50.0
 40
50.0
 40
50.0
 40
51.0
 40
51.0
 40
51.0
 40
52.0
 40
52.0
 40
52.0
 40
53.0
 40
53.0
 40
53.0
 40
54.0
 40
54.0
 40
54.0
 40
55.0
 40
55.0
 40
55.0
 40
56.0
 40
56.0
 40
56.0
 40
57.0
 40
57.0
 40
57.0
 40
58.0
 40
58.0
 40
58.0
 40
59.0
 40
59.0
 40
59.0
 40
59.0
 10
1102.5
 20
464.0
 30
0.0
 10
1102.5
 20
464.0
 30
0.0
 10
1011.0
 20
461.0
 30
0.0
 10
995.5
 20
385.5
 30
0.0
 10
995.5
 20
385.5
 30
0.0
 10
983.0
 20
335.0
 30
0.0
 10
956.5
 20
296.0
 30
0.0
 10
956.5
 20
296.0
 30
0.0
 10
984.0
 20
391.0
 30
0.0
 10
959.0
 20
416.5
 30
0.0
 10
959.0
 20
416.5
 30
0.0
 10
960.0
 20
373.5
 30
0.0
 10
948.5
 20
368.5
 30
0.0
 10
948.5
 20
368.5
 30
0.0
 10
940.0
 20
457.5
 30
0.0
 10
930.5
 20
475.0
 30
0.0
 10
930.5
 20
475.0
 30
0.0
 10
900.5
 20
430.939453125
 30
0.0
 10
900.5
 20
430.939453125
 30
0.0
 10
900.5
 20
430.939453125
 30
0.0
 10
908.0
 20
466.0
 30
0.0
 10
919.5
 20
495.0
 30
0.0
 10
931.0
 20
524.0
 30
0.0
 10
928.5
 20
516.0
 30
0.0
 10
928.0
 20
544.5
 30
0.0
 10
928.0
 20
544.5
 30
0.0
 10
915.5
 20
519.0
 30
0.0
 10
910.0
 20
517.5
 30
0.0
 10
910.0
 20
517.5
 30
0.0
 10
915.5
 20
550.5
 30
0.0
 10
911.0
 20
571.5
 30
0.0
 10
911.0
 20
571.5
 30
0.0
 10
801.0
 20
522.0
 30
0.0
 10
868.5
 20
657.0
 30
0.0
 10
868.5
 20
657.0
 30
0.0
 10
839.0
 20
640.5
 30
0.0
 10
829.5
 20
623.0
 30
0.0
 10
829.5
 20
623.0
 30
0.0
 10
826.0
 20
656.0
 30
0.0
 10
868.0
 20
691.5
 30
0.0
 10
868.0
 20
691.5
 30
0.0
 10
842.5
 20
698.5
 30
0.0
 10
809.5
 20
671.5
 30
0.0
 10
809.5
 20
671.5
 30
0.0
 10
827.0
 20
727.5
 30
0.0
 10
895.5
 20
740.0
 30
0.0
 10
895.5
 20
740.0
 30
0.0
 10
851.5
 20
750.0
 30
0.0
 10
851.5
 20
750.0
 30
0.0
 10
851.5
 20
750.0
 30
0.0
 10
1065.5
 20
794.0
 30
0.0
 10
1150.0
 20
671.5
 30
0.0
 10
1150.0
 20
671.5
 30
0.0
 10
1108.5
 20
691.5
 30
0.0
 10
1108.5
 20
691.5
 30
0.0
 10
1108.5
 20
691.5
 30
0.0
 10
1089.5
 20
714.5
 30
0.0
 10
1073.0
 20
719.5
 30
0.0
 10
1056.5
 20
724.5
 30
0.0
 10
1086.5
 20
699.5
 30
0.0
 10
1086.5
 20
699.5
 30
0.0
 10
1086.5
 20
699.5
 30
0.0
 10
1083.5
 20
691.5
 30
0.0
 10
1045.0
 20
719.5
 30
0.0
 10
1006.5
 20
747.5
 30
0.0
 10
945.0
 20
757.5
 30
0.0
 10
920.5
 20
725.5
 30
0.0
 10
920.5
 20
725.5
 30
0.0
 10
987.5
 20
754.5
 30
0.0
 10
1054.0
 20
699.5
 30
0.0
 10
1054.0
 20
699.5
 30
0.0
 10
1079.5
 20
686.0
 30
0.0
 10
1126.0
 20
670.5
 30
0.0
 10
1126.0
 20
670.5
 30
0.0
 10
1174.0
 20
650.5
 30
0.0
 10
1158.5
 20
647.0
 30
0.0
 10
1143.0
 20
643.5
 30
0.0
 10
1139.5
 20
642.0
 30
0.0
 10
1124.0
 20
636.5
 30
0.0
 10
1124.0
 20
636.5
 30
0.0
 10
1111.0
 20
660.5
 30
0.0
 10
1072.0
 20
664.5
 30
0.0
 10
1072.0
 20
664.5
 30
0.0
 10
1061.0
 20
663.0
 30
0.0
 10
1049.5
 20
671.5
 30
0.0
 10
1049.5
 20
671.5
 30
0.0
 10
1052.5
 20
684.5
 30
0.0
 10
1052.5
 20
684.5
 30
0.0
 10
1052.5
 20
684.5
 30
0.0
 10
1034.5
 20
681.0
 30
0.0
 10
1034.5
 20
681.0
 30
0.0
 10
1034.5
 20
681.0
 30
0.0
 10
1024.4990234375
 20
677.49951171875
 30
0.0
 10
1020.3330078125
 20
685.66650390625
 30
0.0
 10
1016.1669921875
 20
693.83349609375
 30
0.0
 10
1006.8330078125
 20
704.5
 30
0.0
 10
1006.8330078125
 20
704.5
 30
0.0
 10
1006.8330078125
 20
704.5
 30
0.0
 10
1002.0
 20
675.83447265625
 30
0.0
 10
1025.0
 20
667.50146484375
 30
0.0
 10
1048.0
 20
659.16845703125
 30
0.0
 10
1055.333984375
 20
659.16796875
 30
0.0
 10
1091.5
 20
647.3349609375
 30
0.0
 10
1091.5
 20
647.3349609375
 30
0.0
 10
1113.5
 20
638.3349609375
 30
0.0
 10
1089.5
 20
640.66845703125
 30
0.0
 10
1065.5
 20
643.001953125
 30
0.0
 10
1050.1669921875
 20
643.00244140625
 30
0.0
 10
1026.5
 20
648.83544921875
 30
0.0
 10
1002.8330078125
 20
654.66845703125
 30
0.0
 10
991.3330078125
 20
661.33544921875
 30
0.0
 10
953.3330078125
 20
642.001953125
 30
0.0
 10
953.3330078125
 20
642.001953125
 30
0.0
 10
942.666015625
 20
638.66650390625
 30
0.0
 10
916.3330078125
 20
640.66650390625
 30
0.0
 10
916.3330078125
 20
640.66650390625
 30
0.0
 10
938.3330078125
 20
627.6669921875
 30
0.0
 10
965.3330078125
 20
610.33349609375
 30
0.0
 10
992.3330078125
 20
593.0
 30
0.0
 10
1013.333984375
 20
604.33349609375
 30
0.0
 10
1033.0
 20
612.0
 30
0.0
 10
1052.666015625
 20
619.66650390625
 30
0.0
 10
1105.3330078125
 20
623.33349609375
 30
0.0
 10
1105.3330078125
 20
623.33349609375
 30
0.0
 10
1105.3330078125
 20
623.33349609375
 30
0.0
 10
1047.33203125
 20
581.3330078125
 30
0.0
 10
1033.666015625
 20
551.66650390625
 30
0.0
 10
1033.666015625
 20
551.66650390625
 30
0.0
 10
1041.3330078125
 20
560.33349609375
 30
0.0
 10
1073.3330078125
 20
576.33349609375
 30
0.0
 10
1105.3330078125
 20
592.33349609375
 30
0.0
 10
1098.0
 20
591.00048828125
 30
0.0
 10
1140.3330078125
 20
607.33349609375
 30
0.0
 10
1140.3330078125
 20
607.33349609375
 30
0.0
 10
1125.0
 20
609.33349609375
 30
0.0
 10
1125.0
 20
609.33349609375
 30
0.0
 10
1125.0
 20
609.33349609375
 30
0.0
 10
1125.33203125
 20
619.3330078125
 30
0.0
 10
1181.666015625
 20
615.66650390625
 30
0.0
 10
1181.666015625
 20
615.66650390625
 30
0.0
 10
1176.333984375
 20
627.00048828125
 30
0.0
 10
1136.0
 20
627.33349609375
 30
0.0
 10
1136.0
 20
627.33349609375
 30
0.0
 10
1148.666015625
 20
643.0
 30
0.0
 10
1198.3330078125
 20
632.0
 30
0.0
 10
1198.3330078125
 20
632.0
 30
0.0
 10
1226.33203125
 20
625.33349609375
 30
0.0
 10
1248.666015625
 20
604.0
 30
0.0
 10
1271.0
 20
582.66650390625
 30
0.0
 10
1262.6669921875
 20
573.33349609375
 30
0.0
 10
1169.0
 20
584.0
 30
0.0
 10
1169.0
 20
584.0
 30
0.0
 10
1162.666015625
 20
565.66845703125
 30
0.0
 10
1194.666015625
 20
552.00146484375
 30
0.0
 10
1226.666015625
 20
538.33447265625
 30
0.0
 10
1224.3330078125
 20
507.33447265625
 30
0.0
 10
1224.3330078125
 20
507.33447265625
 30
0.0
 10
1224.3330078125
 20
507.33447265625
 30
0.0
 10
1243.333984375
 20
482.33447265625
 30
0.0
 10
1130.0
 20
487.66796875
 30
0.0
 10
1130.0
 20
487.66796875
 30
0.0
 10
1043.2978515625
 20
482.51123046875
 30
0.0
 10
1053.3330078125
 20
526.8447265625
 30
0.0
 10
1053.3330078125
 20
526.8447265625
 30
0.0
 10
1061.3330078125
 20
558.66796875
 30
0.0
 10
1061.3330078125
 20
558.66796875
 30
0.0
 10
1061.3330078125
 20
558.66796875
 30
0.0
 10
1043.9990234375
 20
547.66796875
 30
0.0
 10
1016.666015625
 20
514.66796875
 30
0.0
 10
989.3330078125
 20
481.66796875
 30
0.0
 10
986.3330078125
 20
483.33447265625
 30
0.0
 10
986.3330078125
 20
483.33447265625
 30
0.0
 10
986.3330078125
 20
483.33447265625
 30
0.0
 10
1003.9990234375
 20
481.33642578125
 30
0.0
 10
1031.666015625
 20
494.669921875
 30
0.0
 10
1031.666015625
 20
494.669921875
 30
0.0
 10
1036.333984375
 20
469.330078125
 30
0.0
 10
1102.5
 20
464.0
 30
0.0
  0
SPLINE
  5
47
330
1F
100
AcDbEntity
  8
ojos
 62
     7
420
 16777215
370
    35
100
AcDbSpline
210
0.0
220
0.0
230
1.0
 70
    11
 71
     3
 72
    20
 73
    16
 74
     0
 42
0.0000000001
 43
0.0000000001
 40
0.0
 40
0.0
 40
0.0
 40
0.0
 40
1.0
 40
1.0
 40
1.0
 40
2.0
 40
2.0
 40
2.0
 40
3.0
 40
3.0
 40
3.0
 40
4.0
 40
4.0
 40
4.0
 40
5.0
 40
5.0
 40
5.0
 40
5.0
 10
954.6669921875
 20
631.0
 30
0.0
 10
954.6669921875
 20
631.0
 30
0.0
 10
963.0009765625
 20
636.0
 30
0.0
 10
963.0009765625
 20
636.0
 30
0.0
 10
963.0009765625
 20
636.0
 30
0.0
 10
982.0
 20
620.99951171875
 30
0.0
 10
1002.6669921875
 20
624.66650390625
 30
0.0
 10
1023.333984375
 20
628.33349609375
 30
0.0
 10
1044.6669921875
 20
633.3330078125
 30
0.0
 10
1020.333984375
 20
619.66650390625
 30
0.0
 10
1020.333984375
 20
619.66650390625
 30
0.0
 10
992.0
 20
601.0
 30
0.0
 10
974.0
 20
615.0
 30
0.0
 10
956.0
 20
629.0
 30
0.0
 10
954.6669921875
 20
631.0
 30
0.0
 10
954.6669921875
 20
631.0
 30
0.0
  0
HATCH
  5
48
330
1F
100
AcDbEntity
  8
ojos
 62
     7
420
 15919079
100
AcDbHatch
 10
0.0
 20
0.0
 30
0.0
210
0.0
220
0.0
230
1.0
  2
SOLID
 70
     1
 71
     0
 91
        1
 92
        1
 93
        1
 72
     4
 94
        3
 73
     0
 74
     1
 95
       20
 96
       16
 40
0.0
 40
0.0
 40
0.0
 40
0.0
 40
1.0
 40
1.0
 40
1.0
 40
2.0
 40
2.0
 40
2.0
 40
3.0
 40
3.0
 40
3.0
 40
4.0
 40
4.0
 40
4.0
 40
5.0
 40
5.0
 40
5.0
 40
5.0
 10
954.6669921875
 20
631.0
 10
954.6669921875
 20
631.0
 10
963.0009765625
 20
636.0
 10
963.0009765625
 20
636.0
 10
963.0009765625
 20
636.0
 10
982.0
 20
620.99951171875
 10
1002.6669921875
 20
624.66650390625
 10
1023.333984375
 20
628.33349609375
 10
1044.6669921875
 20
633.3330078125
 10
1020.333984375
 20
619.66650390625
 10
1020.333984375
 20
619.66650390625
 10
992.0
 20
601.0
 10
974.0
 20
615.0
 10
956.0
 20
629.0
 10
954.6669921875
 20
631.0
 10
954.6669921875
 20
631.0
 97
        0
 75
     2
 76
     1
 98
        0
  0
SPLINE
  5
4A
330
1F
100
AcDbEntity
  8
Colmillos
 62
     7
420
 16777215
370
    35
100
AcDbSpline
210
0.0
220
0.0
230
1.0
 70
    11
 71
     3
 72
    14
 73
    10
 74
     0
 42
0.0000000001
 43
0.0000000001
 40
0.0
 40
0.0
 40
0.0
 40
0.0
 40
1.0
 40
1.0
 40
1.0
 40
2.0
 40
2.0
 40
2.0
 40
3.0
 40
3.0
 40
3.0
 40
3.0
 10
1120.0
 20
451.33349609375
 30
0.0
 10
1120.0
 20
451.33349609375
 30
0.0
 10
1155.666015625
 20
460.33349609375
 30
0.0
 10
1155.666015625
 20
460.33349609375
 30
0.0
 10
1155.666015625
 20
460.33349609375
 30
0.0
 10
1167.5
 20
395.0029296875
 30
0.0
 10
1139.8330078125
 20
369.8369140625
 30
0.0
 10
1139.8330078125
 20
369.8369140625
 30
0.0
 10
1134.1669921875
 20
414.9912109375
 30
0.0
 10
1120.0
 20
451.33349609375
 30
0.0
  0
HATCH
  5
4B
330
1F
100
AcDbEntity
  8
Colmillos
 62
     7
420
 15919079
100
AcDbHatch
 10
0.0
 20
0.0
 30
0.0
210
0.0
220
0.0
230
1.0
  2
SOLID
 70
     1
 71
     0
 91
        1
 92
        1
 93
        1
 72
     4
 94
        3
 73
     0
 74
     1
 95
       14
 96
       10
 40
0.0
 40
0.0
 40
0.0
 40
0.0
 40
1.0
 40
1.0
 40
1.0
 40
2.0
 40
2.0
 40
2.0
 40
3.0
 40
3.0
 40
3.0
 40
3.0
 10
1120.0
 20
451.33349609375
 10
1120.0
 20
451.33349609375
 10
1155.666015625
 20
460.33349609375
 10
1155.666015625
 20
460.33349609375
 10
1155.666015625
 20
460.33349609375
 10
1167.5
 20
395.0029296875
 10
1139.8330078125
 20
369.8369140625
 10
1139.8330078125
 20
369.8369140625
 10
1134.1669921875
 20
414.9912109375
 10
1120.0
 20
451.33349609375
 97
        0
 75
     2
 76
     1
 98
        0
  0
SPLINE
  5
4C
330
1F
100
AcDbEntity
  8
Colmillos
 62
     7
420
 16777215
370
    35
100
AcDbSpline
210
0.0
220
0.0
230
1.0
 70
    11
 71
     3
 72
    14
 73
    10
 74
     0
 42
0.0000000001
 43
0.0000000001
 40
0.0
 40
0.0
 40
0.0
 40
0.0
 40
1.0
 40
1.0
 40
1.0
 40
2.0
 40
2.0
 40
2.0
 40
3.0
 40
3.0
 40
3.0
 40
3.0
 10
1213.5
 20
474.0087890625
 30
0.0
 10
1213.5
 20
474.0087890625
 30
0.0
 10
1228.3330078125
 20
481.67578125
 30
0.0
 10
1228.3330078125
 20
481.67578125
 30
0.0
 10
1228.3330078125
 20
481.67578125
 30
0.0
 10
1245.666015625
 20
449.013671875
 30
0.0
 10
1210.166015625
 20
408.5087890625
 30
0.0
 10
1210.166015625
 20
408.5087890625
 30
0.0
 10
1214.833984375
 20
450.34716796875
 30
0.0
 10
1213.5
 20
474.0087890625
 30
0.0
  0
HATCH
  5
4D
330
1F
100
AcDbEntity
  8
Colmillos
 62
     7
420
 15919079
100
AcDbHatch
 10
0.0
 20
0.0
 30
0.0
210
0.0
220
0.0
230
1.0
  2
SOLID
 70
     1
 71
     0
 91
        1
 92
        1
 93
        1
 72
     4
 94
        3
 73
     0
 74
     1
 95
       14
 96
       10
 40
0.0
 40
0.0
 40
0.0
 40
0.0
 40
1.0
 40
1.0
 40
1.0
 40
2.0
 40
2.0
 40
2.0
 40
3.0
 40
3.0
 40
3.0
 40
3.0
 10
1213.5
 20
474.0087890625
 10
1213.5
 20
474.0087890625
 10
1228.3330078125
 20
481.67578125
 10
1228.3330078125
 20
481.67578125
 10
1228.3330078125
 20
481.67578125
 10
1245.666015625
 20
449.013671875
 10
1210.166015625
 20
408.5087890625
 10
1210.166015625
 20
408.5087890625
 10
1214.833984375
 20
450.34716796875
 10
1213.5
 20
474.0087890625
 97
        0
 75
     2
 76
     1
 98
        0
  0
SPLINE
  5
4E
330
1F
100
AcDbEntity
  8
Colmillos
 62
     7
420
 16777215
370
    35
100
AcDbSpline
210
0.0
220
0.0
230
1.0
 70
    11
 71
     3
 72
    14
 73
    10
 74
     0
 42
0.0000000001
 43
0.0000000001
 40
0.0
 40
0.0
 40
0.0
 40
0.0
 40
1.0
 40
1.0
 40
1.0
 40
2.0
 40
2.0
 40
2.0
 40
3.0
 40
3.0
 40
3.0
 40
3.0
 10
1238.0
 20
498.67041015625
 30
0.0
 10
1238.0
 20
498.67041015625
 30
0.0
 10
1260.0
 20
554.17041015625
 30
0.0
 10
1260.0
 20
554.17041015625
 30
0.0
 10
1260.0
 20
554.17041015625
 30
0.0
 10
1279.83203125
 20
516.83740234375
 30
0.0
 10
1247.166015625
 20
480.33740234375
 30
0.0
 10
1247.166015625
 20
480.33740234375
 30
0.0
 10
1238.0
 20
498.67041015625
 30
0.0
 10
1238.0
 20
498.67041015625
 30
0.0
  0
HATCH
  5
4F
330
1F
100
AcDbEntity
  8
Colmillos
 62
     7
420
 15919079
100
AcDbHatch
 10
0.0
 20
0.0
 30
0.0
210
0.0
220
0.0
230
1.0
  2
SOLID
 70
     1
 71
     0
 91
        1
 92
        1
 93
        1
 72
     4
 94
        3
 73
     0
 74
     1
 95
       14
 96
       10
 40
0.0
 40
0.0
 40
0.0
 40
0.0
 40
1.0
 40
1.0
 40
1.0
 40
2.0
 40
2.0
 40
2.0
 40
3.0
 40
3.0
 40
3.0
 40
3.0
 10
1238.0
 20
498.67041015625
 10
1238.0
 20
498.67041015625
 10
1260.0
 20
554.17041015625
 10
1260.0
 20
554.17041015625
 10
1260.0
 20
554.17041015625
 10
1279.83203125
 20
516.83740234375
 10
1247.166015625
 20
480.33740234375
 10
1247.166015625
 20
480.33740234375
 10
1238.0
 20
498.67041015625
 10
1238.0
 20
498.67041015625
 97
        0
 75
     2
 76
     1
 98
        0
  0
SPLINE
  5
50
330
1F
100
AcDbEntity
  8
Colmillos
 62
     7
420
 16777215
370
    35
100
AcDbSpline
210
0.0
220
0.0
230
1.0
 70
    11
 71
     3
 72
    17
 73
    13
 74
     0
 42
0.0000000001
 43
0.0000000001
 40
0.0
 40
0.0
 40
0.0
 40
0.0
 40
1.0
 40
1.0
 40
1.0
 40
2.0
 40
2.0
 40
2.0
 40
3.0
 40
3.0
 40
3.0
 40
4.0
 40
4.0
 40
4.0
 40
4.0
 10
1065.75
 20
254.25
 30
0.0
 10
1065.75
 20
254.25
 30
0.0
 10
1045.025390625
 20
243.0
 30
0.0
 10
1034.2626953125
 20
215.0
 30
0.0
 10
1034.2626953125
 20
215.0
 30
0.0
 10
1030.25
 20
205.0
 30
0.0
 10
1041.5
 20
199.5
 30
0.0
 10
1052.75
 20
194.0
 30
0.0
 10
1057.5
 20
197.5
 30
0.0
 10
1061.25
 20
209.0
 30
0.0
 10
1065.0
 20
220.5
 30
0.0
 10
1065.75
 20
254.25
 30
0.0
 10
1065.75
 20
254.25
 30
0.0
  0
HATCH
  5
51
330
1F
100
AcDbEntity
  8
Colmillos
 62
     7
420
 15919079
100
AcDbHatch
 10
0.0
 20
0.0
 30
0.0
210
0.0
220
0.0
230
1.0
  2
SOLID
 70
     1
 71
     0
 91
        1
 92
        1
 93
        1
 72
     4
 94
        3
 73
     0
 74
     1
 95
       17
 96
       13
 40
0.0
 40
0.0
 40
0.0
 40
0.0
 40
1.0
 40
1.0
 40
1.0
 40
2.0
 40
2.0
 40
2.0
 40
3.0
 40
3.0
 40
3.0
 40
4.0
 40
4.0
 40
4.0
 40
4.0
 10
1065.75
 20
254.25
 10
1065.75
 20
254.25
 10
1045.025390625
 20
243.0
 10
1034.2626953125
 20
215.0
 10
1034.2626953125
 20
215.0
 10
1030.25
 20
205.0
 10
1041.5
 20
199.5
 10
1052.75
 20
194.0
 10
1057.5
 20
197.5
 10
1061.25
 20
209.0
 10
1065.0
 20
220.5
 10
1065.75
 20
254.25
 10
1065.75
 20
254.25
 97
        0
 75
     2
 76
     1
 98
        0
  0
SPLINE
  5
52
330
1F
100
AcDbEntity
  8
Colmillos
 62
     7
420
 16777215
370
    35
100
AcDbSpline
210
0.0
220
0.0
230
1.0
 70
    11
 71
     3
 72
    14
 73
    10
 74
     0
 42
0.0000000001
 43
0.0000000001
 40
0.0
 40
0.0
 40
0.0
 40
0.0
 40
1.0
 40
1.0
 40
1.0
 40
2.0
 40
2.0
 40
2.0
 40
3.0
 40
3.0
 40
3.0
 40
3.0
 10
1071.25
 20
200.25
 30
0.0
 10
1071.25
 20
200.25
 30
0.0
 10
1073.5
 20
232.5
 30
0.0
 10
1080.0
 20
219.75
 30
0.0
 10
1080.0
 20
219.75
 30
0.0
 10
1096.5
 20
199.0
 30
0.0
 10
1089.5
 20
200.25
 30
0.0
 10
1089.5
 20
200.25
 30
0.0
 10
1071.25
 20
200.25
 30
0.0
 10
1071.25
 20
200.25
 30
0.0
  0
HATCH
  5
53
330
1F
100
AcDbEntity
  8
Colmillos
 62
     7
420
 15919079
100
AcDbHatch
 10
0.0
 20
0.0
 30
0.0
210
0.0
220
0.0
230
1.0
  2
SOLID
 70
     1
 71
     0
 91
        1
 92
        1
 93
        1
 72
     4
 94
        3
 73
     0
 74
     1
 95
       14
 96
       10
 40
0.0
 40
0.0
 40
0.0
 40
0.0
 40
1.0
 40
1.0
 40
1.0
 40
2.0
 40
2.0
 40
2.0
 40
3.0
 40
3.0
 40
3.0
 40
3.0
 10
1071.25
 20
200.25
 10
1071.25
 20
200.25
 10
1073.5
 20
232.5
 10
1080.0
 20
219.75
 10
1080.0
 20
219.75
 10
1096.5
 20
199.0
 10
1089.5
 20
200.25
 10
1089.5
 20
200.25
 10
1071.25
 20
200.25
 10
1071.25
 20
200.25
 97
        0
 75
     2
 76
     1
 98
        0
  0
SPLINE
  5
54
330
1F
100
AcDbEntity
  8
Colmillos
 62
     7
420
 16777215
370
    35
100
AcDbSpline
210
0.0
220
0.0
230
1.0
 70
    11
 71
     3
 72
    14
 73
    10
 74
     0
 42
0.0000000001
 43
0.0000000001
 40
0.0
 40
0.0
 40
0.0
 40
0.0
 40
1.0
 40
1.0
 40
1.0
 40
2.0
 40
2.0
 40
2.0
 40
3.0
 40
3.0
 40
3.0
 40
3.0
 10
1104.75
 20
196.9501953125
 30
0.0
 10
1104.75
 20
196.9501953125
 30
0.0
 10
1123.0
 20
212.75
 30
0.0
 10
1126.0
 20
238.0
 30
0.0
 10
1126.0
 20
238.0
 30
0.0
 10
1092.75
 20
226.5
 30
0.0
 10
1097.75
 20
215.0
 30
0.0
 10
1102.75
 20
203.5
 30
0.0
 10
1104.75
 20
196.9501953125
 30
0.0
 10
1104.75
 20
196.9501953125
 30
0.0
  0
HATCH
  5
55
330
1F
100
AcDbEntity
  8
Colmillos
 62
     7
420
 15919079
100
AcDbHatch
 10
0.0
 20
0.0
 30
0.0
210
0.0
220
0.0
230
1.0
  2
SOLID
 70
     1
 71
     0
 91
        1
 92
        1
 93
        1
 72
     4
 94
        3
 73
     0
 74
     1
 95
       14
 96
       10
 40
0.0
 40
0.0
 40
0.0
 40
0.0
 40
1.0
 40
1.0
 40
1.0
 40
2.0
 40
2.0
 40
2.0
 40
3.0
 40
3.0
 40
3.0
 40
3.0
 10
1104.75
 20
196.9501953125
 10
1104.75
 20
196.9501953125
 10
1123.0
 20
212.75
 10
1126.0
 20
238.0
 10
1126.0
 20
238.0
 10
1092.75
 20
226.5
 10
1097.75
 20
215.0
 10
1102.75
 20
203.5
 10
1104.75
 20
196.9501953125
 10
1104.75
 20
196.9501953125
 97
        0
 75
     2
 76
     1
 98
        0
  0
SPLINE
  5
57
330
1F
100
AcDbEntity
  8
Cabellera
 62
     7
420
 16777215
370
    35
100
AcDbSpline
210
0.0
220
0.0
230
1.0
 70
    11
 71
     3
 72
    17
 73
    13
 74
     0
 42
0.0000000001
 43
0.0000000001
 40
0.0
 40
0.0
 40
0.0
 40
0.0
 40
1.0
 40
1.0
 40
1.0
 40
2.0
 40
2.0
 40
2.0
 40
3.0
 40
3.0
 40
3.0
 40
4.0
 40
4.0
 40
4.0
 40
4.0
 10
1072.0
 20
275.5
 30
0.0
 10
1072.0
 20
275.5
 30
0.0
 10
1080.333984375
 20
197.3330078125
 30
0.0
 10
1088.333984375
 20
265.3330078125
 30
0.0
 10
1096.333984375
 20
333.3330078125
 30
0.0
 10
1045.6669921875
 20
362.666015625
 30
0.0
 10
1017.6669921875
 20
353.3330078125
 30
0.0
 10
989.6669921875
 20
344.0
 30
0.0
 10
1005.66796875
 20
290.0
 30
0.0
 10
1024.333984375
 20
270.0
 30
0.0
 10
1043.0
 20
250.0
 30
0.0
 10
1043.0
 20
245.0
 30
0.0
 10
1072.0
 20
275.5
 30
0.0
  0
HATCH
  5
58
330
1F
100
AcDbEntity
  8
Cabellera
 62
     7
420
 16776701
100
AcDbHatch
 10
0.0
 20
0.0
 30
0.0
210
0.0
220
0.0
230
1.0
  2
SOLID
 70
     1
 71
     0
 91
        1
 92
        1
 93
        1
 72
     4
 94
        3
 73
     0
 74
     1
 95
       17
 96
       13
 40
0.0
 40
0.0
 40
0.0
 40
0.0
 40
1.0
 40
1.0
 40
1.0
 40
2.0
 40
2.0
 40
2.0
 40
3.0
 40
3.0
 40
3.0
 40
4.0
 40
4.0
 40
4.0
 40
4.0
 10
1072.0
 20
275.5
 10
1072.0
 20
275.5
 10
1080.333984375
 20
197.3330078125
 10
1088.333984375
 20
265.3330078125
 10
1096.333984375
 20
333.3330078125
 10
1045.6669921875
 20
362.666015625
 10
1017.6669921875
 20
353.3330078125
 10
989.6669921875
 20
344.0
 10
1005.66796875
 20
290.0
 10
1024.333984375
 20
270.0
 10
1043.0
 20
250.0
 10
1043.0
 20
245.0
 10
1072.0
 20
275.5
 97
        0
 75
     2
 76
     1
 98
        0
  0
SPLINE
  5
59
330
1F
100
AcDbEntity
  8
Cabellera
 62
     7
420
 16777215
370
    35
100
AcDbSpline
210
0.0
220
0.0
230
1.0
 70
    11
 71
     3
 72
    68
 73
    64
 74
     0
 42
0.0000000001
 43
0.0000000001
 40
0.0
 40
0.0
 40
0.0
 40
0.0
 40
1.0
 40
1.0
 40
1.0
 40
2.0
 40
2.0
 40
2.0
 40
3.0
 40
3.0
 40
3.0
 40
4.0
 40
4.0
 40
4.0
 40
5.0
 40
5.0
 40
5.0
 40
6.0
 40
6.0
 40
6.0
 40
7.0
 40
7.0
 40
7.0
 40
8.0
 40
8.0
 40
8.0
 40
9.0
 40
9.0
 40
9.0
 40
10.0
 40
10.0
 40
10.0
 40
11.0
 40
11.0
 40
11.0
 40
12.0
 40
12.0
 40
12.0
 40
13.0
 40
13.0
 40
13.0
 40
14.0
 40
14.0
 40
14.0
 40
15.0
 40
15.0
 40
15.0
 40
16.0
 40
16.0
 40
16.0
 40
17.0
 40
17.0
 40
17.0
 40
18.0
 40
18.0
 40
18.0
 40
19.0
 40
19.0
 40
19.0
 40
20.0
 40
20.0
 40
20.0
 40
21.0
 40
21.0
 40
21.0
 40
21.0
 10
969.3330078125
 20
262.0
 30
0.0
 10
969.3330078125
 20
262.0
 30
0.0
 10
951.9990234375
 20
223.7236328125
 30
0.0
 10
966.666015625
 20
200.1953125
 30
0.0
 10
981.3330078125
 20
176.6669921875
 30
0.0
 10
986.666015625
 20
164.6669921875
 30
0.0
 10
947.3330078125
 20
154.0
 30
0.0
 10
947.3330078125
 20
154.0
 30
0.0
 10
945.33203125
 20
141.9990234375
 30
0.0
 10
986.666015625
 20
139.3330078125
 30
0.0
 10
986.666015625
 20
139.3330078125
 30
0.0
 10
954.666015625
 20
123.3330078125
 30
0.0
 10
954.666015625
 20
123.3330078125
 30
0.0
 10
954.666015625
 20
123.3330078125
 30
0.0
 10
972.666015625
 20
108.6669921875
 30
0.0
 10
1005.3330078125
 20
128.0
 30
0.0
 10
1005.3330078125
 20
128.0
 30
0.0
 10
1008.6669921875
 20
104.0009765625
 30
0.0
 10
966.0
 20
98.6669921875
 30
0.0
 10
966.0
 20
98.6669921875
 30
0.0
 10
985.333984375
 20
87.333984375
 30
0.0
 10
1020.0
 20
98.6669921875
 30
0.0
 10
1020.0
 20
98.6669921875
 30
0.0
 10
1014.6669921875
 20
76.0
 30
0.0
 10
996.0
 20
58.0
 30
0.0
 10
996.0
 20
58.0
 30
0.0
 10
1043.3330078125
 20
54.6669921875
 30
0.0
 10
1075.3330078125
 20
118.0
 30
0.0
 10
1075.3330078125
 20
118.0
 30
0.0
 10
1081.240234375
 20
98.6669921875
 30
0.0
 10
1081.240234375
 20
98.6669921875
 30
0.0
 10
1081.240234375
 20
98.6669921875
 30
0.0
 10
1102.6669921875
 20
127.3330078125
 30
0.0
 10
1100.0
 20
156.0
 30
0.0
 10
1100.0
 20
156.0
 30
0.0
 10
1086.166015625
 20
163.4990234375
 30
0.0
 10
1085.166015625
 20
148.4990234375
 30
0.0
 10
1084.166015625
 20
133.4990234375
 30
0.0
 10
1079.3330078125
 20
135.4990234375
 30
0.0
 10
1079.3330078125
 20
135.4990234375
 30
0.0
 10
1079.3330078125
 20
135.4990234375
 30
0.0
 10
1081.83203125
 20
151.998046875
 30
0.0
 10
1076.166015625
 20
153.33203125
 30
0.0
 10
1076.166015625
 20
153.33203125
 30
0.0
 10
1064.666015625
 20
136.498046875
 30
0.0
 10
1054.8330078125
 20
132.33203125
 30
0.0
 10
1054.8330078125
 20
132.33203125
 30
0.0
 10
1063.4990234375
 20
167.33203125
 30
0.0
 10
1052.666015625
 20
168.33203125
 30
0.0
 10
1052.666015625
 20
168.33203125
 30
0.0
 10
1048.333984375
 20
142.33203125
 30
0.0
 10
1030.5
 20
136.83203125
 30
0.0
 10
1030.5
 20
136.83203125
 30
0.0
 10
1037.8017578125
 20
158.83203125
 30
0.0
 10
1033.5673828125
 20
172.33203125
 30
0.0
 10
1033.5673828125
 20
172.33203125
 30
0.0
 10
1017.1669921875
 20
169.8330078125
 30
0.0
 10
1008.5
 20
193.8330078125
 30
0.0
 10
999.8330078125
 20
217.8330078125
 30
0.0
 10
981.0009765625
 20
229.666015625
 30
0.0
 10
975.1669921875
 20
245.8330078125
 30
0.0
 10
969.3330078125
 20
262.0
 30
0.0
 10
969.3330078125
 20
262.0
 30
0.0
 10
969.3330078125
 20
262.0
 30
0.0
  0
HATCH
  5
5A
330
1F
100
AcDbEntity
  8
Cabellera
 62
     7
420
 16776701
100
AcDbHatch
 10
0.0
 20
0.0
 30
0.0
210
0.0
220
0.0
230
1.0
  2
SOLID
 70
     1
 71
     0
 91
        1
 92
        1
 93
        1
 72
     4
 94
        3
 73
     0
 74
     1
 95
       68
 96
       64
 40
0.0
 40
0.0
 40
0.0
 40
0.0
 40
1.0
 40
1.0
 40
1.0
 40
2.0
 40
2.0
 40
2.0
 40
3.0
 40
3.0
 40
3.0
 40
4.0
 40
4.0
 40
4.0
 40
5.0
 40
5.0
 40
5.0
 40
6.0
 40
6.0
 40
6.0
 40
7.0
 40
7.0
 40
7.0
 40
8.0
 40
8.0
 40
8.0
 40
9.0
 40
9.0
 40
9.0
 40
10.0
 40
10.0
 40
10.0
 40
11.0
 40
11.0
 40
11.0
 40
12.0
 40
12.0
 40
12.0
 40
13.0
 40
13.0
 40
13.0
 40
14.0
 40
14.0
 40
14.0
 40
15.0
 40
15.0
 40
15.0
 40
16.0
 40
16.0
 40
16.0
 40
17.0
 40
17.0
 40
17.0
 40
18.0
 40
18.0
 40
18.0
 40
19.0
 40
19.0
 40
19.0
 40
20.0
 40
20.0
 40
20.0
 40
21.0
 40
21.0
 40
21.0
 40
21.0
 10
969.3330078125
 20
262.0
 10
969.3330078125
 20
262.0
 10
951.9990234375
 20
223.7236328125
 10
966.666015625
 20
200.1953125
 10
981.3330078125
 20
176.6669921875
 10
986.666015625
 20
164.6669921875
 10
947.3330078125
 20
154.0
 10
947.3330078125
 20
154.0
 10
945.33203125
 20
141.9990234375
 10
986.666015625
 20
139.3330078125
 10
986.666015625
 20
139.3330078125
 10
954.666015625
 20
123.3330078125
 10
954.666015625
 20
123.3330078125
 10
954.666015625
 20
123.3330078125
 10
972.666015625
 20
108.6669921875
 10
1005.3330078125
 20
128.0
 10
1005.3330078125
 20
128.0
 10
1008.6669921875
 20
104.0009765625
 10
966.0
 20
98.6669921875
 10
966.0
 20
98.6669921875
 10
985.333984375
 20
87.333984375
 10
1020.0
 20
98.6669921875
 10
1020.0
 20
98.6669921875
 10
1014.6669921875
 20
76.0
 10
996.0
 20
58.0
 10
996.0
 20
58.0
 10
1043.3330078125
 20
54.6669921875
 10
1075.3330078125
 20
118.0
 10
1075.3330078125
 20
118.0
 10
1081.240234375
 20
98.6669921875
 10
1081.240234375
 20
98.6669921875
 10
1081.240234375
 20
98.6669921875
 10
1102.6669921875
 20
127.3330078125
 10
1100.0
 20
156.0
 10
1100.0
 20
156.0
 10
1086.166015625
 20
163.4990234375
 10
1085.166015625
 20
148.4990234375
 10
1084.166015625
 20
133.4990234375
 10
1079.3330078125
 20
135.4990234375
 10
1079.3330078125
 20
135.4990234375
 10
1079.3330078125
 20
135.4990234375
 10
1081.83203125
 20
151.998046875
 10
1076.166015625
 20
153.33203125
 10
1076.166015625
 20
153.33203125
 10
1064.666015625
 20
136.498046875
 10
1054.8330078125
 20
132.33203125
 10
1054.8330078125
 20
132.33203125
 10
1063.4990234375
 20
167.33203125
 10
1052.666015625
 20
168.33203125
 10
1052.666015625
 20
168.33203125
 10
1048.333984375
 20
142.33203125
 10
1030.5
 20
136.83203125
 10
1030.5
 20
136.83203125
 10
1037.8017578125
 20
158.83203125
 10
1033.5673828125
 20
172.33203125
 10
1033.5673828125
 20
172.33203125
 10
1017.1669921875
 20
169.8330078125
 10
1008.5
 20
193.8330078125
 10
999.8330078125
 20
217.8330078125
 10
981.0009765625
 20
229.666015625
 10
975.1669921875
 20
245.8330078125
 10
969.3330078125
 20
262.0
 10
969.3330078125
 20
262.0
 10
969.3330078125
 20
262.0
 97
        0
 75
     2
 76
     1
 98
        0
  0
SPLINE
  5
5B
330
1F
100
AcDbEntity
  8
Cabellera
 62
     7
420
 16777215
370
    35
100
AcDbSpline
210
0.0
220
0.0
230
1.0
 70
    11
 71
     3
 72
    11
 73
     7
 74
     0
 42
0.0000000001
 43
0.0000000001
 40
0.0
 40
0.0
 40
0.0
 40
0.0
 40
1.0
 40
1.0
 40
1.0
 40
2.0
 40
2.0
 40
2.0
 40
2.0
 10
901.5
 20
296.2802734375
 30
0.0
 10
901.5
 20
296.2802734375
 30
0.0
 10
910.5
 20
224.0
 30
0.0
 10
892.5
 20
148.0
 30
0.0
 10
892.5
 20
148.0
 30
0.0
 10
954.5
 20
239.060546875
 30
0.0
 10
901.5
 20
296.2802734375
 30
0.0
  0
HATCH
  5
5C
330
1F
100
AcDbEntity
  8
Cabellera
 62
     7
420
 16776701
100
AcDbHatch
 10
0.0
 20
0.0
 30
0.0
210
0.0
220
0.0
230
1.0
  2
SOLID
 70
     1
 71
     0
 91
        1
 92
        1
 93
        1
 72
     4
 94
        3
 73
     0
 74
     1
 95
       11
 96
        7
 40
0.0
 40
0.0
 40
0.0
 40
0.0
 40
1.0
 40
1.0
 40
1.0
 40
2.0
 40
2.0
 40
2.0
 40
2.0
 10
901.5
 20
296.2802734375
 10
901.5
 20
296.2802734375
 10
910.5
 20
224.0
 10
892.5
 20
148.0
 10
892.5
 20
148.0
 10
954.5
 20
239.060546875
 10
901.5
 20
296.2802734375
 97
        0
 75
     2
 76
     1
 98
        0
  0
SPLINE
  5
5D
330
1F
100
AcDbEntity
  8
Cabellera
 62
     7
420
 16777215
370
    35
100
AcDbSpline
210
0.0
220
0.0
230
1.0
 70
    11
 71
     3
 72
    23
 73
    19
 74
     0
 42
0.0000000001
 43
0.0000000001
 40
0.0
 40
0.0
 40
0.0
 40
0.0
 40
1.0
 40
1.0
 40
1.0
 40
2.0
 40
2.0
 40
2.0
 40
3.0
 40
3.0
 40
3.0
 40
4.0
 40
4.0
 40
4.0
 40
5.0
 40
5.0
 40
5.0
 40
6.0
 40
6.0
 40
6.0
 40
6.0
 10
835.0
 20
369.8369140625
 30
0.0
 10
835.0
 20
369.8369140625
 30
0.0
 10
817.5
 20
348.0
 30
0.0
 10
828.5
 20
309.0
 30
0.0
 10
828.5
 20
309.0
 30
0.0
 10
791.5
 20
328.5
 30
0.0
 10
800.0
 20
450.0
 30
0.0
 10
800.0
 20
450.0
 30
0.0
 10
741.0
 20
372.5
 30
0.0
 10
809.5
 20
288.5
 30
0.0
 10
878.0
 20
204.5
 30
0.0
 10
852.0
 20
135.5
 30
0.0
 10
852.0
 20
135.5
 30
0.0
 10
852.0
 20
135.5
 30
0.0
 10
919.5
 20
246.5
 30
0.0
 10
845.0
 20
333.0
 30
0.0
 10
845.0
 20
333.0
 30
0.0
 10
823.5
 20
360.673828125
 30
0.0
 10
835.0
 20
369.8369140625
 30
0.0
  0
HATCH
  5
5E
330
1F
100
AcDbEntity
  8
Cabellera
 62
     7
420
 16776701
100
AcDbHatch
 10
0.0
 20
0.0
 30
0.0
210
0.0
220
0.0
230
1.0
  2
SOLID
 70
     1
 71
     0
 91
        1
 92
        1
 93
        1
 72
     4
 94
        3
 73
     0
 74
     1
 95
       23
 96
       19
 40
0.0
 40
0.0
 40
0.0
 40
0.0
 40
1.0
 40
1.0
 40
1.0
 40
2.0
 40
2.0
 40
2.0
 40
3.0
 40
3.0
 40
3.0
 40
4.0
 40
4.0
 40
4.0
 40
5.0
 40
5.0
 40
5.0
 40
6.0
 40
6.0
 40
6.0
 40
6.0
 10
835.0
 20
369.8369140625
 10
835.0
 20
369.8369140625
 10
817.5
 20
348.0
 10
828.5
 20
309.0
 10
828.5
 20
309.0
 10
791.5
 20
328.5
 10
800.0
 20
450.0
 10
800.0
 20
450.0
 10
741.0
 20
372.5
 10
809.5
 20
288.5
 10
878.0
 20
204.5
 10
852.0
 20
135.5
 10
852.0
 20
135.5
 10
852.0
 20
135.5
 10
919.5
 20
246.5
 10
845.0
 20
333.0
 10
845.0
 20
333.0
 10
823.5
 20
360.673828125
 10
835.0
 20
369.8369140625
 97
        0
 75
     2
 76
     1
 98
        0
  0
SPLINE
  5
5F
330
1F
100
AcDbEntity
  8
Cabellera
 62
     7
420
 16777215
370
    35
100
AcDbSpline
210
0.0
220
0.0
230
1.0
 70
    11
 71
     3
 72
    47
 73
    43
 74
     0
 42
0.0000000001
 43
0.0000000001
 40
0.0
 40
0.0
 40
0.0
 40
0.0
 40
1.0
 40
1.0
 40
1.0
 40
2.0
 40
2.0
 40
2.0
 40
3.0
 40
3.0
 40
3.0
 40
4.0
 40
4.0
 40
4.0
 40
5.0
 40
5.0
 40
5.0
 40
6.0
 40
6.0
 40
6.0
 40
7.0
 40
7.0
 40
7.0
 40
8.0
 40
8.0
 40
8.0
 40
9.0
 40
9.0
 40
9.0
 40
10.0
 40
10.0
 40
10.0
 40
11.0
 40
11.0
 40
11.0
 40
12.0
 40
12.0
 40
12.0
 40
13.0
 40
13.0
 40
13.0
 40
14.0
 40
14.0
 40
14.0
 40
14.0
 10
677.5
 20
89.0
 30
0.0
 10
677.5
 20
89.0
 30
0.0
 10
747.0
 20
154.5
 30
0.0
 10
759.5
 20
254.25
 30
0.0
 10
759.5
 20
254.25
 30
0.0
 10
785.5
 20
209.5
 30
0.0
 10
790.5
 20
150.5
 30
0.0
 10
790.5
 20
150.5
 30
0.0
 10
822.0
 20
205.0
 30
0.0
 10
778.5
 20
281.0
 30
0.0
 10
778.5
 20
281.0
 30
0.0
 10
760.0
 20
323.5
 30
0.0
 10
760.0
 20
323.5
 30
0.0
 10
760.0
 20
323.5
 30
0.0
 10
728.0
 20
269.0
 30
0.0
 10
722.5
 20
231.0
 30
0.0
 10
722.5
 20
231.0
 30
0.0
 10
682.0
 20
340.0
 30
0.0
 10
771.0
 20
498.0
 30
0.0
 10
771.0
 20
498.0
 30
0.0
 10
703.0
 20
449.0
 30
0.0
 10
684.0
 20
400.0
 30
0.0
 10
684.0
 20
400.0
 30
0.0
 10
673.0
 20
448.0
 30
0.0
 10
752.0
 20
567.0
 30
0.0
 10
752.0
 20
567.0
 30
0.0
 10
560.0
 20
556.0
 30
0.0
 10
559.0
 20
344.0
 30
0.0
 10
559.0
 20
344.0
 30
0.0
 10
607.0
 20
478.0
 30
0.0
 10
670.0
 20
498.0
 30
0.0
 10
670.0
 20
498.0
 30
0.0
 10
629.0
 20
423.5
 30
0.0
 10
640.0
 20
292.75
 30
0.0
 10
640.0
 20
292.75
 30
0.0
 10
653.0
 20
119.0
 30
0.0
 10
460.0
 20
83.0
 30
0.0
 10
460.0
 20
83.0
 30
0.0
 10
649.0
 20
47.0
 30
0.0
 10
676.0
 20
278.0
 30
0.0
 10
676.0
 20
278.0
 30
0.0
 10
720.0
 20
209.0
 30
0.0
 10
677.5
 20
89.0
 30
0.0
  0
HATCH
  5
60
330
1F
100
AcDbEntity
  8
Cabellera
 62
     7
420
 16776701
100
AcDbHatch
 10
0.0
 20
0.0
 30
0.0
210
0.0
220
0.0
230
1.0
  2
SOLID
 70
     1
 71
     0
 91
        1
 92
        1
 93
        1
 72
     4
 94
        3
 73
     0
 74
     1
 95
       47
 96
       43
 40
0.0
 40
0.0
 40
0.0
 40
0.0
 40
1.0
 40
1.0
 40
1.0
 40
2.0
 40
2.0
 40
2.0
 40
3.0
 40
3.0
 40
3.0
 40
4.0
 40
4.0
 40
4.0
 40
5.0
 40
5.0
 40
5.0
 40
6.0
 40
6.0
 40
6.0
 40
7.0
 40
7.0
 40
7.0
 40
8.0
 40
8.0
 40
8.0
 40
9.0
 40
9.0
 40
9.0
 40
10.0
 40
10.0
 40
10.0
 40
11.0
 40
11.0
 40
11.0
 40
12.0
 40
12.0
 40
12.0
 40
13.0
 40
13.0
 40
13.0
 40
14.0
 40
14.0
 40
14.0
 40
14.0
 10
677.5
 20
89.0
 10
677.5
 20
89.0
 10
747.0
 20
154.5
 10
759.5
 20
254.25
 10
759.5
 20
254.25
 10
785.5
 20
209.5
 10
790.5
 20
150.5
 10
790.5
 20
150.5
 10
822.0
 20
205.0
 10
778.5
 20
281.0
 10
778.5
 20
281.0
 10
760.0
 20
323.5
 10
760.0
 20
323.5
 10
760.0
 20
323.5
 10
728.0
 20
269.0
 10
722.5
 20
231.0
 10
722.5
 20
231.0
 10
682.0
 20
340.0
 10
771.0
 20
498.0
 10
771.0
 20
498.0
 10
703.0
 20
449.0
 10
684.0
 20
400.0
 10
684.0
 20
400.0
 10
673.0
 20
448.0
 10
752.0
 20
567.0
 10
752.0
 20
567.0
 10
560.0
 20
556.0
 10
559.0
 20
344.0
 10
559.0
 20
344.0
 10
607.0
 20
478.0
 10
670.0
 20
498.0
 10
670.0
 20
498.0
 10
629.0
 20
423.5
 10
640.0
 20
292.75
 10
640.0
 20
292.75
 10
653.0
 20
119.0
 10
460.0
 20
83.0
 10
460.0
 20
83.0
 10
649.0
 20
47.0
 10
676.0
 20
278.0
 10
676.0
 20
278.0
 10
720.0
 20
209.0
 10
677.5
 20
89.0
 97
        0
 75
     2
 76
     1
 98
        0
  0
SPLINE
  5
61
330
1F
100
AcDbEntity
  8
Cabellera
 62
     7
420
 16777215
370
    35
100
AcDbSpline
210
0.0
220
0.0
230
1.0
 70
    11
 71
     3
 72
    11
 73
     7
 74
     0
 42
0.0000000001
 43
0.0000000001
 40
0.0
 40
0.0
 40
0.0
 40
0.0
 40
1.0
 40
1.0
 40
1.0
 40
2.0
 40
2.0
 40
2.0
 40
2.0
 10
429.0
 20
429.0
 30
0.0
 10
429.0
 20
429.0
 30
0.0
 10
444.0
 20
499.3408203125
 30
0.0
 10
560.0
 20
554.17041015625
 30
0.0
 10
560.0
 20
554.17041015625
 30
0.0
 10
425.0
 20
563.0
 30
0.0
 10
429.0
 20
429.0
 30
0.0
  0
HATCH
  5
62
330
1F
100
AcDbEntity
  8
Cabellera
 62
     7
420
 16776701
100
AcDbHatch
 10
0.0
 20
0.0
 30
0.0
210
0.0
220
0.0
230
1.0
  2
SOLID
 70
     1
 71
     0
 91
        1
 92
        1
 93
        1
 72
     4
 94
        3
 73
     0
 74
     1
 95
       11
 96
        7
 40
0.0
 40
0.0
 40
0.0
 40
0.0
 40
1.0
 40
1.0
 40
1.0
 40
2.0
 40
2.0
 40
2.0
 40
2.0
 10
429.0
 20
429.0
 10
429.0
 20
429.0
 10
444.0
 20
499.3408203125
 10
560.0
 20
554.17041015625
 10
560.0
 20
554.17041015625
 10
425.0
 20
563.0
 10
429.0
 20
429.0
 97
        0
 75
     2
 76
     1
 98
        0
  0
SPLINE
  5
63
330
1F
100
AcDbEntity
  8
Cabellera
 62
     7
420
 16777215
370
    35
100
AcDbSpline
210
0.0
220
0.0
230
1.0
 70
    11
 71
     3
 72
    11
 73
     7
 74
     0
 42
0.0000000001
 43
0.0000000001
 40
0.0
 40
0.0
 40
0.0
 40
0.0
 40
1.0
 40
1.0
 40
1.0
 40
2.0
 40
2.0
 40
2.0
 40
2.0
 10
176.0
 20
375.0
 30
0.0
 10
176.0
 20
375.0
 30
0.0
 10
197.0
 20
451.0
 30
0.0
 10
287.0
 20
506.0
 30
0.0
 10
287.0
 20
506.0
 30
0.0
 10
177.0
 20
496.0
 30
0.0
 10
176.0
 20
375.0
 30
0.0
  0
HATCH
  5
64
330
1F
100
AcDbEntity
  8
Cabellera
 62
     7
420
 16776701
100
AcDbHatch
 10
0.0
 20
0.0
 30
0.0
210
0.0
220
0.0
230
1.0
  2
SOLID
 70
     1
 71
     0
 91
        1
 92
        1
 93
        1
 72
     4
 94
        3
 73
     0
 74
     1
 95
       11
 96
        7
 40
0.0
 40
0.0
 40
0.0
 40
0.0
 40
1.0
 40
1.0
 40
1.0
 40
2.0
 40
2.0
 40
2.0
 40
2.0
 10
176.0
 20
375.0
 10
176.0
 20
375.0
 10
197.0
 20
451.0
 10
287.0
 20
506.0
 10
287.0
 20
506.0
 10
177.0
 20
496.0
 10
176.0
 20
375.0
 97
        0
 75
     2
 76
     1
 98
        0
  0
SPLINE
  5
65
330
1F
100
AcDbEntity
  8
Cabellera
 62
     7
420
 16777215
370
    35
100
AcDbSpline
210
0.0
220
0.0
230
1.0
 70
     8
 71
     3
 72
     8
 73
     4
 74
     0
 42
0.0000000001
 43
0.0000000001
 40
0.0
 40
0.0
 40
0.0
 40
0.0
 40
1.0
 40
1.0
 40
1.0
 40
1.0
 10
353.0
 20
590.0
 30
0.0
 10
353.0
 20
590.0
 30
0.0
 10
406.0
 20
699.0
 30
0.0
 10
485.0
 20
699.0
 30
0.0
  0
HATCH
  5
66
330
1F
100
AcDbEntity
  8
Cabellera
 62
     7
420
 16776701
100
AcDbHatch
 10
0.0
 20
0.0
 30
0.0
210
0.0
220
0.0
230
1.0
  2
SOLID
 70
     1
 71
     0
 91
        1
 92
        1
 93
        2
 72
     4
 94
        3
 73
     0
 74
     0
 95
        8
 96
        4
 40
0.0
 40
0.0
 40
0.0
 40
0.0
 40
1.0
 40
1.0
 40
1.0
 40
1.0
 10
353.0
 20
590.0
 10
353.0
 20
590.0
 10
406.0
 20
699.0
 10
485.0
 20
699.0
 72
     1
 10
485.0
 20
699.0
 11
353.0
 21
590.0
 97
        0
 75
     2
 76
     1
 98
        0
  0
SPLINE
  5
67
330
1F
100
AcDbEntity
  8
Cabellera
 62
     7
420
 16777215
370
    35
100
AcDbSpline
210
0.0
220
0.0
230
1.0
 70
    11
 71
     3
 72
    32
 73
    28
 74
     0
 42
0.0000000001
 43
0.0000000001
 40
0.0
 40
0.0
 40
0.0
 40
0.0
 40
1.0
 40
1.0
 40
1.0
 40
2.0
 40
2.0
 40
2.0
 40
3.0
 40
3.0
 40
3.0
 40
4.0
 40
4.0
 40
4.0
 40
5.0
 40
5.0
 40
5.0
 40
6.0
 40
6.0
 40
6.0
 40
7.0
 40
7.0
 40
7.0
 40
8.0
 40
8.0
 40
8.0
 40
9.0
 40
9.0
 40
9.0
 40
9.0
 10
714.666015625
 20
714.6669921875
 30
0.0
 10
714.666015625
 20
714.6669921875
 30
0.0
 10
670.666015625
 20
685.33349609375
 30
0.0
 10
670.666015625
 20
685.33349609375
 30
0.0
 10
670.666015625
 20
685.33349609375
 30
0.0
 10
734.0
 20
674.6669921875
 30
0.0
 10
734.0
 20
674.6669921875
 30
0.0
 10
734.0
 20
674.6669921875
 30
0.0
 10
691.3330078125
 20
644.5
 30
0.0
 10
691.3330078125
 20
644.5
 30
0.0
 10
691.3330078125
 20
644.5
 30
0.0
 10
746.6669921875
 20
638.66650390625
 30
0.0
 10
782.0
 20
675.33349609375
 30
0.0
 10
782.0
 20
675.33349609375
 30
0.0
 10
744.0
 20
689.33349609375
 30
0.0
 10
744.0
 20
689.33349609375
 30
0.0
 10
744.0
 20
689.33349609375
 30
0.0
 10
798.0
 20
711.33349609375
 30
0.0
 10
798.0
 20
711.33349609375
 30
0.0
 10
798.0
 20
711.33349609375
 30
0.0
 10
744.666015625
 20
724.00048828125
 30
0.0
 10
686.666015625
 20
770.00048828125
 30
0.0
 10
628.66650390625
 20
816.00048828125
 30
0.0
 10
541.3330078125
 20
778.00048828125
 30
0.0
 10
541.3330078125
 20
778.00048828125
 30
0.0
 10
541.3330078125
 20
778.00048828125
 30
0.0
 10
659.9990234375
 20
771.33349609375
 30
0.0
 10
714.666015625
 20
714.6669921875
 30
0.0
  0
HATCH
  5
68
330
1F
100
AcDbEntity
  8
Cabellera
 62
     7
420
 16776701
100
AcDbHatch
 10
0.0
 20
0.0
 30
0.0
210
0.0
220
0.0
230
1.0
  2
SOLID
 70
     1
 71
     0
 91
        1
 92
        1
 93
        1
 72
     4
 94
        3
 73
     0
 74
     1
 95
       32
 96
       28
 40
0.0
 40
0.0
 40
0.0
 40
0.0
 40
1.0
 40
1.0
 40
1.0
 40
2.0
 40
2.0
 40
2.0
 40
3.0
 40
3.0
 40
3.0
 40
4.0
 40
4.0
 40
4.0
 40
5.0
 40
5.0
 40
5.0
 40
6.0
 40
6.0
 40
6.0
 40
7.0
 40
7.0
 40
7.0
 40
8.0
 40
8.0
 40
8.0
 40
9.0
 40
9.0
 40
9.0
 40
9.0
 10
714.666015625
 20
714.6669921875
 10
714.666015625
 20
714.6669921875
 10
670.666015625
 20
685.33349609375
 10
670.666015625
 20
685.33349609375
 10
670.666015625
 20
685.33349609375
 10
734.0
 20
674.6669921875
 10
734.0
 20
674.6669921875
 10
734.0
 20
674.6669921875
 10
691.3330078125
 20
644.5
 10
691.3330078125
 20
644.5
 10
691.3330078125
 20
644.5
 10
746.6669921875
 20
638.66650390625
 10
782.0
 20
675.33349609375
 10
782.0
 20
675.33349609375
 10
744.0
 20
689.33349609375
 10
744.0
 20
689.33349609375
 10
744.0
 20
689.33349609375
 10
798.0
 20
711.33349609375
 10
798.0
 20
711.33349609375
 10
798.0
 20
711.33349609375
 10
744.666015625
 20
724.00048828125
 10
686.666015625
 20
770.00048828125
 10
628.66650390625
 20
816.00048828125
 10
541.3330078125
 20
778.00048828125
 10
541.3330078125
 20
778.00048828125
 10
541.3330078125
 20
778.00048828125
 10
659.9990234375
 20
771.33349609375
 10
714.666015625
 20
714.6669921875
 97
        0
 75
     2
 76
     1
 98
        0
  0
SPLINE
  5
69
330
1F
100
AcDbEntity
  8
Cabellera
 62
     7
420
 16777215
370
    35
100
AcDbSpline
210
0.0
220
0.0
230
1.0
 70
    11
 71
     3
 72
    29
 73
    25
 74
     0
 42
0.0000000001
 43
0.0000000001
 40
0.0
 40
0.0
 40
0.0
 40
0.0
 40
1.0
 40
1.0
 40
1.0
 40
2.0
 40
2.0
 40
2.0
 40
3.0
 40
3.0
 40
3.0
 40
4.0
 40
4.0
 40
4.0
 40
5.0
 40
5.0
 40
5.0
 40
6.0
 40
6.0
 40
6.0
 40
7.0
 40
7.0
 40
7.0
 40
8.0
 40
8.0
 40
8.0
 40
8.0
 10
730.666015625
 20
606.66748046875
 30
0.0
 10
730.666015625
 20
606.66748046875
 30
0.0
 10
656.6669921875
 20
601.33251953125
 30
0.0
 10
661.3330078125
 20
636.0
 30
0.0
 10
661.3330078125
 20
636.0
 30
0.0
 10
667.5234375
 20
653.333984375
 30
0.0
 10
630.76123046875
 20
666.66748046875
 30
0.0
 10
593.9990234375
 20
680.0009765625
 30
0.0
 10
597.9990234375
 20
727.333984375
 30
0.0
 10
597.9990234375
 20
727.333984375
 30
0.0
 10
597.9990234375
 20
727.333984375
 30
0.0
 10
599.33203125
 20
742.66748046875
 30
0.0
 10
583.9990234375
 20
746.66748046875
 30
0.0
 10
568.666015625
 20
750.66748046875
 30
0.0
 10
569.33251953125
 20
732.66796875
 30
0.0
 10
571.33251953125
 20
706.0009765625
 30
0.0
 10
573.33251953125
 20
679.333984375
 30
0.0
 10
581.9990234375
 20
659.666015625
 30
0.0
 10
615.9990234375
 20
644.5
 30
0.0
 10
649.9990234375
 20
629.333984375
 30
0.0
 10
635.6201171875
 20
619.333984375
 30
0.0
 10
650.4765625
 20
602.66748046875
 30
0.0
 10
665.3330078125
 20
586.0009765625
 30
0.0
 10
705.9990234375
 20
586.0009765625
 30
0.0
 10
730.666015625
 20
606.66748046875
 30
0.0
  0
HATCH
  5
6A
330
1F
100
AcDbEntity
  8
Cabellera
 62
     7
420
 16776701
100
AcDbHatch
 10
0.0
 20
0.0
 30
0.0
210
0.0
220
0.0
230
1.0
  2
SOLID
 70
     1
 71
     0
 91
        1
 92
        1
 93
        1
 72
     4
 94
        3
 73
     0
 74
     1
 95
       29
 96
       25
 40
0.0
 40
0.0
 40
0.0
 40
0.0
 40
1.0
 40
1.0
 40
1.0
 40
2.0
 40
2.0
 40
2.0
 40
3.0
 40
3.0
 40
3.0
 40
4.0
 40
4.0
 40
4.0
 40
5.0
 40
5.0
 40
5.0
 40
6.0
 40
6.0
 40
6.0
 40
7.0
 40
7.0
 40
7.0
 40
8.0
 40
8.0
 40
8.0
 40
8.0
 10
730.666015625
 20
606.66748046875
 10
730.666015625
 20
606.66748046875
 10
656.6669921875
 20
601.33251953125
 10
661.3330078125
 20
636.0
 10
661.3330078125
 20
636.0
 10
667.5234375
 20
653.333984375
 10
630.76123046875
 20
666.66748046875
 10
593.9990234375
 20
680.0009765625
 10
597.9990234375
 20
727.333984375
 10
597.9990234375
 20
727.333984375
 10
597.9990234375
 20
727.333984375
 10
599.33203125
 20
742.66748046875
 10
583.9990234375
 20
746.66748046875
 10
568.666015625
 20
750.66748046875
 10
569.33251953125
 20
732.66796875
 10
571.33251953125
 20
706.0009765625
 10
573.33251953125
 20
679.333984375
 10
581.9990234375
 20
659.666015625
 10
615.9990234375
 20
644.5
 10
649.9990234375
 20
629.333984375
 10
635.6201171875
 20
619.333984375
 10
650.4765625
 20
602.66748046875
 10
665.3330078125
 20
586.0009765625
 10
705.9990234375
 20
586.0009765625
 10
730.666015625
 20
606.66748046875
 97
        0
 75
     2
 76
     1
 98
        0
  0
SPLINE
  5
6B
330
1F
100
AcDbEntity
  8
Cabellera
 62
     7
420
 16777215
370
    35
100
AcDbSpline
210
0.0
220
0.0
230
1.0
 70
    11
 71
     3
 72
    35
 73
    31
 74
     0
 42
0.0000000001
 43
0.0000000001
 40
0.0
 40
0.0
 40
0.0
 40
0.0
 40
1.0
 40
1.0
 40
1.0
 40
2.0
 40
2.0
 40
2.0
 40
3.0
 40
3.0
 40
3.0
 40
4.0
 40
4.0
 40
4.0
 40
5.0
 40
5.0
 40
5.0
 40
6.0
 40
6.0
 40
6.0
 40
7.0
 40
7.0
 40
7.0
 40
8.0
 40
8.0
 40
8.0
 40
9.0
 40
9.0
 40
9.0
 40
10.0
 40
10.0
 40
10.0
 40
10.0
 10
287.0
 20
457.333984375
 30
0.0
 10
287.0
 20
457.333984375
 30
0.0
 10
241.33154296875
 20
434.6669921875
 30
0.0
 10
205.99853515625
 20
329.333984375
 30
0.0
 10
205.99853515625
 20
329.333984375
 30
0.0
 10
181.99853515625
 20
278.66796875
 30
0.0
 10
115.33203125
 20
260.0009765625
 30
0.0
 10
115.33203125
 20
260.0009765625
 30
0.0
 10
82.66552734375
 20
244.6669921875
 30
0.0
 10
82.66552734375
 20
244.6669921875
 30
0.0
 10
82.66552734375
 20
244.6669921875
 30
0.0
 10
203.99853515625
 20
213.3330078125
 30
0.0
 10
299.99853515625
 20
342.6669921875
 30
0.0
 10
299.99853515625
 20
342.6669921875
 30
0.0
 10
299.99853515625
 20
278.0
 30
0.0
 10
257.99853515625
 20
236.6669921875
 30
0.0
 10
257.99853515625
 20
236.6669921875
 30
0.0
 10
339.33154296875
 20
253.9990234375
 30
0.0
 10
341.99853515625
 20
400.0
 30
0.0
 10
341.99853515625
 20
400.0
 30
0.0
 10
346.66552734375
 20
481.333984375
 30
0.0
 10
392.66552734375
 20
522.66748046875
 30
0.0
 10
392.66552734375
 20
522.66748046875
 30
0.0
 10
337.9990234375
 20
512.6669921875
 30
0.0
 10
290.66552734375
 20
383.333984375
 30
0.0
 10
290.66552734375
 20
383.333984375
 30
0.0
 10
272.66552734375
 20
336.6328125
 30
0.0
 10
237.66552734375
 20
323.9833984375
 30
0.0
 10
237.66552734375
 20
323.9833984375
 30
0.0
 10
256.00146484375
 20
396.0
 30
0.0
 10
287.0
 20
457.333984375
 30
0.0
  0
HATCH
  5
6C
330
1F
100
AcDbEntity
  8
Cabellera
 62
     7
420
 16776701
100
AcDbHatch
 10
0.0
 20
0.0
 30
0.0
210
0.0
220
0.0
230
1.0
  2
SOLID
 70
     1
 71
     0
 91
        1
 92
        1
 93
        1
 72
     4
 94
        3
 73
     0
 74
     1
 95
       35
 96
       31
 40
0.0
 40
0.0
 40
0.0
 40
0.0
 40
1.0
 40
1.0
 40
1.0
 40
2.0
 40
2.0
 40
2.0
 40
3.0
 40
3.0
 40
3.0
 40
4.0
 40
4.0
 40
4.0
 40
5.0
 40
5.0
 40
5.0
 40
6.0
 40
6.0
 40
6.0
 40
7.0
 40
7.0
 40
7.0
 40
8.0
 40
8.0
 40
8.0
 40
9.0
 40
9.0
 40
9.0
 40
10.0
 40
10.0
 40
10.0
 40
10.0
 10
287.0
 20
457.333984375
 10
287.0
 20
457.333984375
 10
241.33154296875
 20
434.6669921875
 10
205.99853515625
 20
329.333984375
 10
205.99853515625
 20
329.333984375
 10
181.99853515625
 20
278.66796875
 10
115.33203125
 20
260.0009765625
 10
115.33203125
 20
260.0009765625
 10
82.66552734375
 20
244.6669921875
 10
82.66552734375
 20
244.6669921875
 10
82.66552734375
 20
244.6669921875
 10
203.99853515625
 20
213.3330078125
 10
299.99853515625
 20
342.6669921875
 10
299.99853515625
 20
342.6669921875
 10
299.99853515625
 20
278.0
 10
257.99853515625
 20
236.6669921875
 10
257.99853515625
 20
236.6669921875
 10
339.33154296875
 20
253.9990234375
 10
341.99853515625
 20
400.0
 10
341.99853515625
 20
400.0
 10
346.66552734375
 20
481.333984375
 10
392.66552734375
 20
522.66748046875
 10
392.66552734375
 20
522.66748046875
 10
337.9990234375
 20
512.6669921875
 10
290.66552734375
 20
383.333984375
 10
290.66552734375
 20
383.333984375
 10
272.66552734375
 20
336.6328125
 10
237.66552734375
 20
323.9833984375
 10
237.66552734375
 20
323.9833984375
 10
256.00146484375
 20
396.0
 10
287.0
 20
457.333984375
 97
        0
 75
     2
 76
     1
 98
        0
  0
SPLINE
  5
6D
330
1F
100
AcDbEntity
  8
Cabellera
 62
     7
420
 16777215
370
    35
100
AcDbSpline
210
0.0
220
0.0
230
1.0
 70
    11
 71
     3
 72
    17
 73
    13
 74
     0
 42
0.0000000001
 43
0.0000000001
 40
0.0
 40
0.0
 40
0.0
 40
0.0
 40
1.0
 40
1.0
 40
1.0
 40
2.0
 40
2.0
 40
2.0
 40
3.0
 40
3.0
 40
3.0
 40
4.0
 40
4.0
 40
4.0
 40
4.0
 10
363.33203125
 20
246.66796875
 30
0.0
 10
363.33203125
 20
246.66796875
 30
0.0
 10
482.6650390625
 20
291.998046875
 30
0.0
 10
497.99853515625
 20
400.0
 30
0.0
 10
513.33203125
 20
508.00146484375
 30
0.0
 10
563.99853515625
 20
526.8447265625
 30
0.0
 10
563.99853515625
 20
526.8447265625
 30
0.0
 10
563.99853515625
 20
526.8447265625
 30
0.0
 10
515.99853515625
 20
462.0439453125
 30
0.0
 10
519.99853515625
 20
355.0224609375
 30
0.0
 10
523.99853515625
 20
248.0009765625
 30
0.0
 10
363.33203125
 20
246.66796875
 30
0.0
 10
363.33203125
 20
246.66796875
 30
0.0
  0
HATCH
  5
6E
330
1F
100
AcDbEntity
  8
Cabellera
 62
     7
420
 16776701
100
AcDbHatch
 10
0.0
 20
0.0
 30
0.0
210
0.0
220
0.0
230
1.0
  2
SOLID
 70
     1
 71
     0
 91
        1
 92
        1
 93
        1
 72
     4
 94
        3
 73
     0
 74
     1
 95
       17
 96
       13
 40
0.0
 40
0.0
 40
0.0
 40
0.0
 40
1.0
 40
1.0
 40
1.0
 40
2.0
 40
2.0
 40
2.0
 40
3.0
 40
3.0
 40
3.0
 40
4.0
 40
4.0
 40
4.0
 40
4.0
 10
363.33203125
 20
246.66796875
 10
363.33203125
 20
246.66796875
 10
482.6650390625
 20
291.998046875
 10
497.99853515625
 20
400.0
 10
513.33203125
 20
508.00146484375
 10
563.99853515625
 20
526.8447265625
 10
563.99853515625
 20
526.8447265625
 10
563.99853515625
 20
526.8447265625
 10
515.99853515625
 20
462.0439453125
 10
519.99853515625
 20
355.0224609375
 10
523.99853515625
 20
248.0009765625
 10
363.33203125
 20
246.66796875
 10
363.33203125
 20
246.66796875
 97
        0
 75
     2
 76
     1
 98
        0
  0
SPLINE
  5
6F
330
1F
100
AcDbEntity
  8
Cabellera
 62
     7
420
 16777215
370
    35
100
AcDbSpline
210
0.0
220
0.0
230
1.0
 70
    11
 71
     3
 72
    23
 73
    19
 74
     0
 42
0.0000000001
 43
0.0000000001
 40
0.0
 40
0.0
 40
0.0
 40
0.0
 40
1.0
 40
1.0
 40
1.0
 40
2.0
 40
2.0
 40
2.0
 40
3.0
 40
3.0
 40
3.0
 40
4.0
 40
4.0
 40
4.0
 40
5.0
 40
5.0
 40
5.0
 40
6.0
 40
6.0
 40
6.0
 40
6.0
 10
489.33203125
 20
176.66796875
 30
0.0
 10
489.33203125
 20
176.66796875
 30
0.0
 10
584.66552734375
 20
206.0
 30
0.0
 10
602.66552734375
 20
312.0009765625
 30
0.0
 10
602.66552734375
 20
312.0009765625
 30
0.0
 10
635.33251953125
 20
155.3349609375
 30
0.0
 10
442.66552734375
 20
123.3349609375
 30
0.0
 10
249.99853515625
 20
91.3349609375
 30
0.0
 10
198.66552734375
 20
-8.6650390625
 30
0.0
 10
198.66552734375
 20
-8.6650390625
 30
0.0
 10
198.66552734375
 20
-8.6650390625
 30
0.0
 10
220.66552734375
 20
106.0009765625
 30
0.0
 10
418.66552734375
 20
179.3349609375
 30
0.0
 10
418.66552734375
 20
179.3349609375
 30
0.0
 10
486.73486328125
 20
205.94921875
 30
0.0
 10
523.33203125
 20
286.6689453125
 30
0.0
 10
523.33203125
 20
286.6689453125
 30
0.0
 10
527.99853515625
 20
233.333984375
 30
0.0
 10
489.33203125
 20
176.66796875
 30
0.0
  0
HATCH
  5
70
330
1F
100
AcDbEntity
  8
Cabellera
 62
     7
420
 16776701
100
AcDbHatch
 10
0.0
 20
0.0
 30
0.0
210
0.0
220
0.0
230
1.0
  2
SOLID
 70
     1
 71
     0
 91
        1
 92
        1
 93
        1
 72
     4
 94
        3
 73
     0
 74
     1
 95
       23
 96
       19
 40
0.0
 40
0.0
 40
0.0
 40
0.0
 40
1.0
 40
1.0
 40
1.0
 40
2.0
 40
2.0
 40
2.0
 40
3.0
 40
3.0
 40
3.0
 40
4.0
 40
4.0
 40
4.0
 40
5.0
 40
5.0
 40
5.0
 40
6.0
 40
6.0
 40
6.0
 40
6.0
 10
489.33203125
 20
176.66796875
 10
489.33203125
 20
176.66796875
 10
584.66552734375
 20
206.0
 10
602.66552734375
 20
312.0009765625
 10
602.66552734375
 20
312.0009765625
 10
635.33251953125
 20
155.3349609375
 10
442.66552734375
 20
123.3349609375
 10
249.99853515625
 20
91.3349609375
 10
198.66552734375
 20
-8.6650390625
 10
198.66552734375
 20
-8.6650390625
 10
198.66552734375
 20
-8.6650390625
 10
220.66552734375
 20
106.0009765625
 10
418.66552734375
 20
179.3349609375
 10
418.66552734375
 20
179.3349609375
 10
486.73486328125
 20
205.94921875
 10
523.33203125
 20
286.6689453125
 10
523.33203125
 20
286.6689453125
 10
527.99853515625
 20
233.333984375
 10
489.33203125
 20
176.66796875
 97
        0
 75
     2
 76
     1
 98
        0
  0
SPLINE
  5
71
330
1F
100
AcDbEntity
  8
Cabellera
 62
     7
420
 16777215
370
    35
100
AcDbSpline
210
0.0
220
0.0
230
1.0
 70
    11
 71
     3
 72
    17
 73
    13
 74
     0
 42
0.0000000001
 43
0.0000000001
 40
0.0
 40
0.0
 40
0.0
 40
0.0
 40
1.0
 40
1.0
 40
1.0
 40
2.0
 40
2.0
 40
2.0
 40
3.0
 40
3.0
 40
3.0
 40
4.0
 40
4.0
 40
4.0
 40
4.0
 10
877.998046875
 20
795.99951171875
 30
0.0
 10
877.998046875
 20
795.99951171875
 30
0.0
 10
714.6650390625
 20
994.0
 30
0.0
 10
463.6650390625
 20
824.66650390625
 30
0.0
 10
463.6650390625
 20
824.66650390625
 30
0.0
 10
628.6650390625
 20
892.48388671875
 30
0.0
 10
727.33203125
 20
844.5751953125
 30
0.0
 10
727.33203125
 20
844.5751953125
 30
0.0
 10
660.955078125
 20
845.3330078125
 30
0.0
 10
650.4765625
 20
821.3330078125
 30
0.0
 10
650.4765625
 20
821.3330078125
 30
0.0
 10
801.9970703125
 20
845.99951171875
 30
0.0
 10
877.998046875
 20
795.99951171875
 30
0.0
  0
HATCH
  5
72
330
1F
100
AcDbEntity
  8
Cabellera
 62
     7
420
 16776701
100
AcDbHatch
 10
0.0
 20
0.0
 30
0.0
210
0.0
220
0.0
230
1.0
  2
SOLID
 70
     1
 71
     0
 91
        1
 92
        1
 93
        1
 72
     4
 94
        3
 73
     0
 74
     1
 95
       17
 96
       13
 40
0.0
 40
0.0
 40
0.0
 40
0.0
 40
1.0
 40
1.0
 40
1.0
 40
2.0
 40
2.0
 40
2.0
 40
3.0
 40
3.0
 40
3.0
 40
4.0
 40
4.0
 40
4.0
 40
4.0
 10
877.998046875
 20
795.99951171875
 10
877.998046875
 20
795.99951171875
 10
714.6650390625
 20
994.0
 10
463.6650390625
 20
824.66650390625
 10
463.6650390625
 20
824.66650390625
 10
628.6650390625
 20
892.48388671875
 10
727.33203125
 20
844.5751953125
 10
727.33203125
 20
844.5751953125
 10
660.955078125
 20
845.3330078125
 10
650.4765625
 20
821.3330078125
 10
650.4765625
 20
821.3330078125
 10
801.9970703125
 20
845.99951171875
 10
877.998046875
 20
795.99951171875
 97
        0
 75
     2
 76
     1
 98
        0
  0
SPLINE
  5
73
330
1F
100
AcDbEntity
  8
Cabellera
 62
     7
420
 16777215
370
    35
100
AcDbSpline
210
0.0
220
0.0
230
1.0
 70
    11
 71
     3
 72
    14
 73
    10
 74
     0
 42
0.0000000001
 43
0.0000000001
 40
0.0
 40
0.0
 40
0.0
 40
0.0
 40
1.0
 40
1.0
 40
1.0
 40
2.0
 40
2.0
 40
2.0
 40
3.0
 40
3.0
 40
3.0
 40
3.0
 10
647.0
 20
932.0
 30
0.0
 10
647.0
 20
932.0
 30
0.0
 10
743.3330078125
 20
962.66650390625
 30
0.0
 10
844.0
 20
886.66650390625
 30
0.0
 10
844.0
 20
886.66650390625
 30
0.0
 10
892.0009765625
 20
846.666015625
 30
0.0
 10
911.333984375
 20
827.3330078125
 30
0.0
 10
911.333984375
 20
827.3330078125
 30
0.0
 10
745.3330078125
 20
930.0
 30
0.0
 10
647.0
 20
932.0
 30
0.0
  0
HATCH
  5
74
330
1F
100
AcDbEntity
  8
Cabellera
 62
     7
420
 16776701
100
AcDbHatch
 10
0.0
 20
0.0
 30
0.0
210
0.0
220
0.0
230
1.0
  2
SOLID
 70
     1
 71
     0
 91
        1
 92
        1
 93
        1
 72
     4
 94
        3
 73
     0
 74
     1
 95
       14
 96
       10
 40
0.0
 40
0.0
 40
0.0
 40
0.0
 40
1.0
 40
1.0
 40
1.0
 40
2.0
 40
2.0
 40
2.0
 40
3.0
 40
3.0
 40
3.0
 40
3.0
 10
647.0
 20
932.0
 10
647.0
 20
932.0
 10
743.3330078125
 20
962.66650390625
 10
844.0
 20
886.66650390625
 10
844.0
 20
886.66650390625
 10
892.0009765625
 20
846.666015625
 10
911.333984375
 20
827.3330078125
 10
911.333984375
 20
827.3330078125
 10
745.3330078125
 20
930.0
 10
647.0
 20
932.0
 97
        0
 75
     2
 76
     1
 98
        0
  0
SPLINE
  5
75
330
1F
100
AcDbEntity
  8
Cabellera
 62
     7
420
 16777215
370
    35
100
AcDbSpline
210
0.0
220
0.0
230
1.0
 70
    11
 71
     3
 72
    14
 73
    10
 74
     0
 42
0.0000000001
 43
0.0000000001
 40
0.0
 40
0.0
 40
0.0
 40
0.0
 40
1.0
 40
1.0
 40
1.0
 40
2.0
 40
2.0
 40
2.0
 40
3.0
 40
3.0
 40
3.0
 40
3.0
 10
1006.0
 20
812.66650390625
 30
0.0
 10
1006.0
 20
812.66650390625
 30
0.0
 10
957.333984375
 20
891.3330078125
 30
0.0
 10
859.333984375
 20
914.66650390625
 30
0.0
 10
859.333984375
 20
914.66650390625
 30
0.0
 10
893.333984375
 20
869.150390625
 30
0.0
 10
954.6669921875
 20
844.5751953125
 30
0.0
 10
983.333984375
 20
831.3330078125
 30
0.0
 10
1002.0
 20
818.0
 30
0.0
 10
1006.0
 20
812.66650390625
 30
0.0
  0
HATCH
  5
76
330
1F
100
AcDbEntity
  8
Cabellera
 62
     7
420
 16776701
100
AcDbHatch
 10
0.0
 20
0.0
 30
0.0
210
0.0
220
0.0
230
1.0
  2
SOLID
 70
     1
 71
     0
 91
        1
 92
        1
 93
        1
 72
     4
 94
        3
 73
     0
 74
     1
 95
       14
 96
       10
 40
0.0
 40
0.0
 40
0.0
 40
0.0
 40
1.0
 40
1.0
 40
1.0
 40
2.0
 40
2.0
 40
2.0
 40
3.0
 40
3.0
 40
3.0
 40
3.0
 10
1006.0
 20
812.66650390625
 10
1006.0
 20
812.66650390625
 10
957.333984375
 20
891.3330078125
 10
859.333984375
 20
914.66650390625
 10
859.333984375
 20
914.66650390625
 10
893.333984375
 20
869.150390625
 10
954.6669921875
 20
844.5751953125
 10
983.333984375
 20
831.3330078125
 10
1002.0
 20
818.0
 10
1006.0
 20
812.66650390625
 97
        0
 75
     2
 76
     1
 98
        0
  0
SPLINE
  5
77
330
1F
100
AcDbEntity
  8
Cabellera
 62
     7
420
 16777215
370
    35
100
AcDbSpline
210
0.0
220
0.0
230
1.0
 70
    11
 71
     3
 72
    11
 73
     7
 74
     0
 42
0.0000000001
 43
0.0000000001
 40
0.0
 40
0.0
 40
0.0
 40
0.0
 40
1.0
 40
1.0
 40
1.0
 40
2.0
 40
2.0
 40
2.0
 40
2.0
 10
1081.3330078125
 20
761.99951171875
 30
0.0
 10
1081.3330078125
 20
761.99951171875
 30
0.0
 10
1081.3330078125
 20
810.66650390625
 30
0.0
 10
984.666015625
 20
869.3330078125
 30
0.0
 10
984.666015625
 20
869.3330078125
 30
0.0
 10
1081.3330078125
 20
761.99951171875
 30
0.0
 10
1081.3330078125
 20
761.99951171875
 30
0.0
  0
HATCH
  5
78
330
1F
100
AcDbEntity
  8
Cabellera
 62
     7
420
 16776701
100
AcDbHatch
 10
0.0
 20
0.0
 30
0.0
210
0.0
220
0.0
230
1.0
  2
SOLID
 70
     1
 71
     0
 91
        1
 92
        1
 93
        1
 72
     4
 94
        3
 73
     0
 74
     1
 95
       11
 96
        7
 40
0.0
 40
0.0
 40
0.0
 40
0.0
 40
1.0
 40
1.0
 40
1.0
 40
2.0
 40
2.0
 40
2.0
 40
2.0
 10
1081.3330078125
 20
761.99951171875
 10
1081.3330078125
 20
761.99951171875
 10
1081.3330078125
 20
810.66650390625
 10
984.666015625
 20
869.3330078125
 10
984.666015625
 20
869.3330078125
 10
1081.3330078125
 20
761.99951171875
 10
1081.3330078125
 20
761.99951171875
 97
        0
 75
     2
 76
     1
 98
        0
  0
ENDSEC
  0
SECTION
  2
OBJECTS
  0
DICTIONARY
  5
C
330
0
100
AcDbDictionary
281
     1
  3
ACAD_GROUP
350
D
  3
ACAD_IMAGE_DICT
350
3C
  3
ACAD_IMAGE_VARS
350
3E
  3
ACAD_LAYOUT
350
1A
  3
ACAD_MLINESTYLE
350
17
  3
ACAD_PLOTSETTINGS
350
19
  3
ACAD_PLOTSTYLENAME
350
E
  3
ACAD_TABLESTYLE
350
79
  3
ACAD_VISUALSTYLE
350
2A
  0
IMAGEDEF_REACTOR
  5
40
330
3F
100
AcDbRasterImageDefReactor
 90
        2
330
3F
  0
DICTIONARY
  5
D
102
{ACAD_REACTORS
330
C
102
}
330
C
100
AcDbDictionary
281
     1
  0
DICTIONARY
  5
3C
102
{ACAD_REACTORS
330
C
102
}
330
C
100
AcDbDictionary
281
     1
  3
C:\Users\BBzos\Desktop\pedidos\Lion Aguilera\Lion jfaguilera_1.png
350
3D
  0
RASTERVARIABLES
  5
3E
102
{ACAD_REACTORS
330
C
102
}
330
C
100
AcDbRasterVariables
 90
        0
 70
     0
 71
     1
 72
     0
  0
DICTIONARY
  5
1A
102
{ACAD_REACTORS
330
C
102
}
330
C
100
AcDbDictionary
281
     1
  3
Layout1
350
1E
  3
Layout2
350
26
  3
Model
350
22
  0
DICTIONARY
  5
17
102
{ACAD_REACTORS
330
C
102
}
330
C
100
AcDbDictionary
281
     1
  3
Standard
350
18
  0
DICTIONARY
  5
19
102
{ACAD_REACTORS
330
C
102
}
330
C
100
AcDbDictionary
281
     1
  0
ACDBDICTIONARYWDFLT
  5
E
102
{ACAD_REACTORS
330
C
102
}
330
C
100
AcDbDictionary
281
     1
  3
Normal
350
F
100
AcDbDictionaryWithDefault
340
F
  0
DICTIONARY
  5
79
102
{ACAD_REACTORS
330
C
102
}
330
C
100
AcDbDictionary
281
     1
  0
DICTIONARY
  5
2A
102
{ACAD_REACTORS
330
C
102
}
330
C
100
AcDbDictionary
281
     1
  3
2dWireframe
350
2F
  3
3D Hidden
350
31
  3
3dWireframe
350
30
  3
Basic
350
32
  3
Brighten
350
36
  3
ColorChange
350
3A
  3
Conceptual
350
34
  3
Dim
350
35
  3
Facepattern
350
39
  3
Flat
350
2B
  3
FlatWithEdges
350
2C
  3
Gouraud
350
2D
  3
GouraudWithEdges
350
2E
  3
Linepattern
350
38
  3
Realistic
350
33
  3
Thicken
350
37
  0
IMAGEDEF
  5
3D
102
{ACAD_REACTORS
330
3C
330
40
102
}
330
3C
100
AcDbRasterImageDef
 90
        0
  1
C:\Users\BBzos\Desktop\pedidos\Lion Aguilera\Lion jfaguilera_1.png
 10
2000.0
 20
2000.0
 11
0.3527777777777777
 21
0.3527777777777777
280
     1
281
     5
  0
LAYOUT
  5
1E
102
{ACAD_REACTORS
330
1A
102
}
330
1A
100
AcDbPlotSettings
  1

  2
none_device
  4

  6

 40
0.0
 41
0.0
 42
0.0
 43
0.0
 44
0.0
 45
0.0
 46
0.0
 47
0.0
 48
0.0
 49
0.0
140
0.0
141
0.0
142
1.0
143
1.0
 70
   688
 72
     0
 73
     0
 74
     5
  7

 75
    16
 76
     0
 77
     2
 78
   300
147
1.0
148
0.0
149
0.0
100
AcDbLayout
  1
Layout1
 70
     1
 71
     1
 10
0.0
 20
0.0
 11
12.0
 21
9.0
 12
0.0
 22
0.0
 32
0.0
 14
1.000000000000000E+20
 24
1.000000000000000E+20
 34
1.000000000000000E+20
 15
-1.000000000000000E+20
 25
-1.000000000000000E+20
 35
-1.000000000000000E+20
146
0.0
 13
0.0
 23
0.0
 33
0.0
 16
1.0
 26
0.0
 36
0.0
 17
0.0
 27
1.0
 37
0.0
 76
     0
330
1B
  0
LAYOUT
  5
26
102
{ACAD_REACTORS
330
1A
102
}
330
1A
100
AcDbPlotSettings
  1

  2
none_device
  4

  6

 40
0.0
 41
0.0
 42
0.0
 43
0.0
 44
0.0
 45
0.0
 46
0.0
 47
0.0
 48
0.0
 49
0.0
140
0.0
141
0.0
142
1.0
143
1.0
 70
   688
 72
     0
 73
     0
 74
     5
  7

 75
    16
 76
     0
 77
     2
 78
   300
147
1.0
148
0.0
149
0.0
100
AcDbLayout
  1
Layout2
 70
     1
 71
     2
 10
0.0
 20
0.0
 11
0.0
 21
0.0
 12
0.0
 22
0.0
 32
0.0
 14
0.0
 24
0.0
 34
0.0
 15
0.0
 25
0.0
 35
0.0
146
0.0
 13
0.0
 23
0.0
 33
0.0
 16
1.0
 26
0.0
 36
0.0
 17
0.0
 27
1.0
 37
0.0
 76
     0
330
23
  0
LAYOUT
  5
22
102
{ACAD_REACTORS
330
1A
102
}
330
1A
100
AcDbPlotSettings
  1

  2
none_device
  4

  6

 40
0.0
 41
0.0
 42
0.0
 43
0.0
 44
0.0
 45
0.0
 46
0.0
 47
0.0
 48
0.0
 49
0.0
140
0.0
141
0.0
142
1.0
143
1.0
 70
  1712
 72
     0
 73
     0
 74
     0
  7

 75
     0
 76
     0
 77
     2
 78
   300
147
1.0
148
0.0
149
0.0
100
AcDbLayout
  1
Model
 70
     1
 71
     0
 10
0.0
 20
0.0
 11
12.0
 21
9.0
 12
0.0
 22
0.0
 32
0.0
 14
1.000000000000000E+20
 24
1.000000000000000E+20
 34
1.000000000000000E+20
 15
-1.000000000000000E+20
 25
-1.000000000000000E+20
 35
-1.000000000000000E+20
146
0.0
 13
0.0
 23
0.0
 33
0.0
 16
1.0
 26
0.0
 36
0.0
 17
0.0
 27
1.0
 37
0.0
 76
     0
330
1F
331
29
  0
MLINESTYLE
  5
18
102
{ACAD_REACTORS
330
17
102
}
330
17
100
AcDbMlineStyle
  2
Standard
 70
     0
  3

 62
   256
 51
90.0
 52
90.0
 71
     2
 49
0.5
 62
   256
  6
BYLAYER
 49
-0.5
 62
   256
  6
BYLAYER
  0
ACDBPLACEHOLDER
  5
F
102
{ACAD_REACTORS
330
E
102
}
330
E
  0
VISUALSTYLE
  5
2F
102
{ACAD_REACTORS
330
2A
102
}
330
2A
100
AcDbVisualStyle
  2
2dWireframe
 70
     4
 71
     0
 72
     2
 73
     0
 90
        0
 40
-0.6
 41
-30.0
 62
     5
 63
     7
421
 16777215
 74
     1
 91
        4
 64
     7
 65
   257
 75
     1
175
     1
 42
1.0
 92
        0
 66
   257
 43
1.0
 76
     1
 77
     6
 78
     2
 67
     7
 79
     5
170
     0
171
     0
290
     0
174
     0
 93
        1
 44
0.0
173
     0
291
     0
 45
0.0
1001
ACAD
1000
AcDbSavedByObjectVersion
1070
     0
  0
VISUALSTYLE
  5
31
102
{ACAD_REACTORS
330
2A
102
}
330
2A
100
AcDbVisualStyle
  2
3D Hidden
 70
     6
 71
     1
 72
     2
 73
     2
 90
        0
 40
-0.6
 41
-30.0
 62
     5
 63
     7
421
 16777215
 74
     2
 91
        2
 64
     7
 65
   257
 75
     2
175
     1
 42
40.0
 92
        0
 66
   257
 43
1.0
 76
     1
 77
     6
 78
     2
 67
     7
 79
     3
170
     0
171
     0
290
     0
174
     0
 93
        1
 44
0.0
173
     0
291
     0
 45
0.0
1001
ACAD
1000
AcDbSavedByObjectVersion
1070
     0
  0
VISUALSTYLE
  5
30
102
{ACAD_REACTORS
330
2A
102
}
330
2A
100
AcDbVisualStyle
  2
3dWireframe
 70
     5
 71
     0
 72
     2
 73
     0
 90
        0
 40
-0.6
 41
-30.0
 62
     5
 63
     7
421
 16777215
 74
     1
 91
        4
 64
     7
 65
   257
 75
     1
175
     1
 42
1.0
 92
        0
 66
   257
 43
1.0
 76
     1
 77
     6
 78
     2
 67
     7
 79
     5
170
     0
171
     0
290
     0
174
     0
 93
        1
 44
0.0
173
     0
291
     0
 45
0.0
1001
ACAD
1000
AcDbSavedByObjectVersion
1070
     0
  0
VISUALSTYLE
  5
32
102
{ACAD_REACTORS
330
2A
102
}
330
2A
100
AcDbVisualStyle
  2
Basic
 70
     7
 71
     1
 72
     0
 73
     1
 90
        0
 40
-0.6
 41
-30.0
 62
     5
 63
     7
421
 16777215
 74
     0
 91
        4
 64
     7
 65
   257
 75
     1
175
     1
 42
1.0
 92
        8
 66
     7
 43
1.0
 76
     1
 77
     6
 78
     2
 67
     7
 79
     5
170
     0
171
     0
290
     0
174
     0
 93
        1
 44
0.0
173
     0
291
     1
 45
0.0
1001
ACAD
1000
AcDbSavedByObjectVersion
1070
     0
  0
VISUALSTYLE
  5
36
102
{ACAD_REACTORS
330
2A
102
}
330
2A
100
AcDbVisualStyle
  2
Brighten
 70
    12
 71
     2
 72
     2
 73
     0
 90
        0
 40
-0.6
 41
-30.0
 62
     5
 63
     7
421
 16777215
 74
     1
 91
        4
 64
     7
 65
   257
 75
     1
175
     1
 42
1.0
 92
        8
 66
     7
 43
1.0
 76
     1
 77
     6
 78
     2
 67
     7
 79
     5
170
     0
171
     0
290
     0
174
     0
 93
        1
 44
50.0
173
     0
291
     1
 45
0.0
1001
ACAD
1000
AcDbSavedByObjectVersion
1070
     0
  0
VISUALSTYLE
  5
3A
102
{ACAD_REACTORS
330
2A
102
}
330
2A
100
AcDbVisualStyle
  2
ColorChange
 70
    16
 71
     2
 72
     2
 73
     3
 90
        0
 40
-0.6
 41
-30.0
 62
     5
 63
     8
421
  8421504
 74
     1
 91
        4
 64
     7
 65
   257
 75
     1
175
     1
 42
1.0
 92
        8
 66
     8
424
  8421504
 43
1.0
 76
     1
 77
     6
 78
     2
 67
     7
 79
     5
170
     0
171
     0
290
     0
174
     0
 93
        1
 44
0.0
173
     0
291
     1
 45
0.0
1001
ACAD
1000
AcDbSavedByObjectVersion
1070
     0
  0
VISUALSTYLE
  5
34
102
{ACAD_REACTORS
330
2A
102
}
330
2A
100
AcDbVisualStyle
  2
Conceptual
 70
     9
 71
     3
 72
     2
 73
     0
 90
        0
 40
-0.6
 41
-30.0
 62
     5
 63
     7
421
 16777215
 74
     2
 91
        2
 64
     7
 65
   257
 75
     1
175
     1
 42
40.0
 92
        8
 66
     7
 43
1.0
 76
     1
 77
     6
 78
     2
 67
     7
 79
     3
170
     0
171
     0
290
     0
174
     0
 93
        1
 44
0.0
173
     0
291
     0
 45
0.0
1001
ACAD
1000
AcDbSavedByObjectVersion
1070
     0
  0
VISUALSTYLE
  5
35
102
{ACAD_REACTORS
330
2A
102
}
330
2A
100
AcDbVisualStyle
  2
Dim
 70
    11
 71
     2
 72
     2
 73
     0
 90
        0
 40
-0.6
 41
-30.0
 62
     5
 63
     7
421
 16777215
 74
     1
 91
        4
 64
     7
 65
   257
 75
     1
175
     1
 42
1.0
 92
        8
 66
     7
 43
1.0
 76
     1
 77
     6
 78
     2
 67
     7
 79
     5
170
     0
171
     0
290
     0
174
     0
 93
        1
 44
-50.0
173
     0
291
     1
 45
0.0
1001
ACAD
1000
AcDbSavedByObjectVersion
1070
     0
  0
VISUALSTYLE
  5
39
102
{ACAD_REACTORS
330
2A
102
}
330
2A
100
AcDbVisualStyle
  2
Facepattern
 70
    15
 71
     2
 72
     2
 73
     0
 90
        0
 40
-0.6
 41
-30.0
 62
     5
 63
     7
421
 16777215
 74
     1
 91
        4
 64
     7
 65
   257
 75
     1
175
     1
 42
1.0
 92
        8
 66
     7
 43
1.0
 76
     1
 77
     6
 78
     2
 67
     7
 79
     5
170
     0
171
     0
290
     0
174
     0
 93
        1
 44
0.0
173
     0
291
     1
 45
0.0
1001
ACAD
1000
AcDbSavedByObjectVersion
1070
     0
  0
VISUALSTYLE
  5
2B
102
{ACAD_REACTORS
330
2A
102
}
330
2A
100
AcDbVisualStyle
  2
Flat
 70
     0
 71
     2
 72
     1
 73
     1
 90
        2
 40
-0.6
 41
30.0
 62
     5
 63
     7
421
 16777215
 74
     0
 91
        4
 64
     7
 65
   257
 75
     1
175
     1
 42
1.0
 92
        8
 66
     7
 43
1.0
 76
     1
 77
     6
 78
     2
 67
     7
 79
     5
170
     0
171
     0
290
     0
174
     0
 93
       13
 44
0.0
173
     0
291
     1
 45
0.0
1001
ACAD
1000
AcDbSavedByObjectVersion
1070
     0
  0
VISUALSTYLE
  5
2C
102
{ACAD_REACTORS
330
2A
102
}
330
2A
100
AcDbVisualStyle
  2
FlatWithEdges
 70
     1
 71
     2
 72
     1
 73
     1
 90
        2
 40
-0.6
 41
30.0
 62
     5
 63
     7
421
 16777215
 74
     1
 91
        4
 64
     7
 65
   257
 75
     1
175
     1
 42
1.0
 92
        0
 66
   257
 43
1.0
 76
     1
 77
     6
 78
     2
 67
     7
 79
     5
170
     0
171
     0
290
     0
174
     0
 93
       13
 44
0.0
173
     0
291
     1
 45
0.0
1001
ACAD
1000
AcDbSavedByObjectVersion
1070
     0
  0
VISUALSTYLE
  5
2D
102
{ACAD_REACTORS
330
2A
102
}
330
2A
100
AcDbVisualStyle
  2
Gouraud
 70
     2
 71
     2
 72
     2
 73
     1
 90
        2
 40
-0.6
 41
30.0
 62
     5
 63
     7
421
 16777215
 74
     0
 91
        4
 64
     7
 65
   257
 75
     1
175
     1
 42
1.0
 92
        0
 66
     7
 43
1.0
 76
     1
 77
     6
 78
     2
 67
     7
 79
     5
170
     0
171
     0
290
     0
174
     0
 93
       13
 44
0.0
173
     0
291
     1
 45
0.0
1001
ACAD
1000
AcDbSavedByObjectVersion
1070
     0
  0
VISUALSTYLE
  5
2E
102
{ACAD_REACTORS
330
2A
102
}
330
2A
100
AcDbVisualStyle
  2
GouraudWithEdges
 70
     3
 71
     2
 72
     2
 73
     1
 90
        2
 40
-0.6
 41
30.0
 62
     5
 63
     7
421
 16777215
 74
     1
 91
        4
 64
     7
 65
   257
 75
     1
175
     1
 42
1.0
 92
        0
 66
   257
 43
1.0
 76
     1
 77
     6
 78
     2
 67
     7
 79
     5
170
     0
171
     0
290
     0
174
     0
 93
       13
 44
0.0
173
     0
291
     1
 45
0.0
1001
ACAD
1000
AcDbSavedByObjectVersion
1070
     0
  0
VISUALSTYLE
  5
38
102
{ACAD_REACTORS
330
2A
102
}
330
2A
100
AcDbVisualStyle
  2
Linepattern
 70
    14
 71
     2
 72
     2
 73
     0
 90
        0
 40
-0.6
 41
-30.0
 62
     5
 63
     7
421
 16777215
 74
     1
 91
        4
 64
     7
 65
   257
 75
     7
175
     7
 42
1.0
 92
        8
 66
     7
 43
1.0
 76
     1
 77
     6
 78
     2
 67
     7
 79
     5
170
     0
171
     0
290
     0
174
     0
 93
        1
 44
0.0
173
     0
291
     1
 45
0.0
1001
ACAD
1000
AcDbSavedByObjectVersion
1070
     0
  0
VISUALSTYLE
  5
33
102
{ACAD_REACTORS
330
2A
102
}
330
2A
100
AcDbVisualStyle
  2
Realistic
 70
     8
 71
     2
 72
     2
 73
     0
 90
        0
 40
-0.6
 41
-30.0
 62
     5
 63
     7
421
 16777215
 74
     1
 91
        0
 64
     7
 65
   257
 75
     1
175
     1
 42
1.0
 92
        8
 66
     8
424
  7895160
 43
1.0
 76
     1
 77
     6
 78
     2
 67
     7
 79
     5
170
     0
171
     0
290
     0
174
     0
 93
       13
 44
0.0
173
     0
291
     0
 45
0.0
1001
ACAD
1000
AcDbSavedByObjectVersion
1070
     0
  0
VISUALSTYLE
  5
37
102
{ACAD_REACTORS
330
2A
102
}
330
2A
100
AcDbVisualStyle
  2
Thicken
 70
    13
 71
     2
 72
     2
 73
     0
 90
        0
 40
-0.6
 41
-30.0
 62
     5
 63
     7
421
 16777215
 74
     1
 91
        4
 64
     7
 65
   257
 75
     1
175
     1
 42
1.0
 92
       12
 66
     7
 43
1.0
 76
     1
 77
     6
 78
     2
 67
     7
 79
     5
170
     0
171
     0
290
     0
174
     0
 93
        1
 44
0.0
173
     0
291
     1
 45
0.0
1001
ACAD
1000
AcDbSavedByObjectVersion
1070
     0
  0
ENDSEC
  0
EOF
