<svg xmlns="http://www.w3.org/2000/svg"><svg xmlns="http://www.w3.org/2000/svg" viewBox="0 0 3000 1500" version="1.1"><!-- ВАЖНО: polygon задаёт контур листа --><polygon points="0,0 3000,0 3000,1500 0,1500" fill="none" stroke="black" stroke-width="2"></polygon></svg><g class="nestable" transform="translate(0,0)"><path d="M 13.50003572494225 93.5910684577268A 3.200000000000045 3.200000000000045 0 0 0 13.50003572494225 87.19106845772671" fill="none" stroke="black"></path></g><g class="nestable" transform="translate(0,0)"><path d="M 8.500035724942208 87.19106845772671A 3.200000000000045 3.200000000000045 0 0 0 8.500035724942208 93.5910684577268" fill="none" stroke="black"></path></g><g class="nestable" transform="translate(0,0)"><path d="M 213.50003572494222 93.5910684577268A 3.200000000000045 3.200000000000045 0 0 0 213.50003572494222 87.19106845772671" fill="none" stroke="black"></path></g><g class="nestable" transform="translate(0,0)"><path d="M 208.50003572494222 87.19106845772671A 3.200000000000045 3.200000000000045 0 0 0 208.50003572494222 93.5910684577268" fill="none" stroke="black"></path></g><g class="nestable" transform="translate(0,0)"><path d="M 109.01169982833463 128.18514600852131A 18.50000000000002 18.50000000000002 0 0 0 112.9883716215499 128.18514600852131" fill="none" stroke="black"></path></g><g class="nestable" transform="translate(0,0)"><path d="M 0.00003572494220804856 110.29230717482676A 10 10 0 0 0 10.000035724942208 120.29230717482676" fill="none" stroke="black"></path></g><g class="nestable" transform="translate(0,0)"><path d="M 8.000035724942208 81.69106845772673A 8.000000000000014 8.000000000000014 0 0 0 0.000035724942193837705 89.69106845772674" fill="none" stroke="black"></path></g><g class="nestable" transform="translate(0,0)"><path d="M 28.00003572494225 102.29230717482679A 8.000000000000028 8.000000000000028 0 0 0 36.00003572494228 94.29230717482676" fill="none" stroke="black"></path></g><g class="nestable" transform="translate(0,0)"><path d="M 42.00003572494225 82.09106845772675A 6 6 0 0 0 36.00003572494225 88.09106845772675" fill="none" stroke="black"></path></g><g class="nestable" transform="translate(0,0)"><path d="M 186.00003572494222 88.09106845772675A 6 6 0 0 0 180.00003572494222 82.09106845772675" fill="none" stroke="black"></path></g><g class="nestable" transform="translate(0,0)"><path d="M 186.0000357249422 94.29230717482676A 8.000000000000028 8.000000000000028 0 0 0 194.00003572494222 102.29230717482679" fill="none" stroke="black"></path></g><g class="nestable" transform="translate(0,0)"><path d="M 208.00003572494222 81.69106845772674A 8 8 0 0 0 200.00003572494222 89.69106845772674" fill="none" stroke="black"></path></g><g class="nestable" transform="translate(0,0)"><path d="M 222.00003572494222 89.69106845772674A 8 8 0 0 0 214.00003572494222 81.69106845772674" fill="none" stroke="black"></path></g><g class="nestable" transform="translate(0,0)"><path d="M 212.00003572494222 120.29230717482676A 10 10 0 0 0 222.00003572494222 110.29230717482676" fill="none" stroke="black"></path></g><g class="nestable" transform="translate(0,0)"><path d="M 22.000035724942265 89.69106845772674A 8.000000000000014 8.000000000000014 0 0 0 14.00003572494225 81.69106845772673" fill="none" stroke="black"></path></g><g class="nestable" transform="translate(0,0)"><path d="M 186 92.19166427505782 L 36 92.19166427505782" fill="none" stroke="black"></path></g><g class="nestable" transform="translate(0,0)"><path d="M 222 100.99166427505781 L 200 100.99166427505781" fill="none" stroke="black"></path></g><g class="nestable" transform="translate(0,0)"><path d="M 22 100.99166427505781 L 0 100.99166427505781" fill="none" stroke="black"></path></g><g class="nestable" transform="translate(0,0)"><path d="M 8.5 93.59106427505782 L 13.5 93.59106427505782" fill="none" stroke="black"></path></g><g class="nestable" transform="translate(0,0)"><path d="M 208.5 87.19106427505781 L 213.5 87.19106427505781" fill="none" stroke="black"></path></g><g class="nestable" transform="translate(0,0)"><path d="M 213.5 93.59106427505782 L 208.5 93.59106427505782" fill="none" stroke="black"></path></g><g class="nestable" transform="translate(0,0)"><path d="M 84.95 109.79226427505782 A 3.05 3.05 0 1 0 91.05000000000001 109.79226427505782 A 3.05 3.05 0 1 0 84.95 109.79226427505782" fill="none" stroke="black"></path></g><g class="nestable" transform="translate(0,0)"><path d="M 112.98840000000001 128.18516427505782 L 186 120.29226427505782" fill="none" stroke="black"></path></g><g class="nestable" transform="translate(0,0)"><path d="M 109.0117 128.18516427505782 L 36 120.29226427505782" fill="none" stroke="black"></path></g><g class="nestable" transform="translate(0,0)"><path d="M 36 120.29226427505782 L 10 120.29226427505782" fill="none" stroke="black"></path></g><g class="nestable" transform="translate(0,0)"><path d="M 0 110.29226427505782 L 0 89.69106427505781" fill="none" stroke="black"></path></g><g class="nestable" transform="translate(0,0)"><path d="M 14 81.69106427505781 L 8 81.69106427505781" fill="none" stroke="black"></path></g><g class="nestable" transform="translate(0,0)"><path d="M 22 89.69106427505781 L 22 102.29226427505782" fill="none" stroke="black"></path></g><g class="nestable" transform="translate(0,0)"><path d="M 22 102.29226427505782 L 28 102.29226427505782" fill="none" stroke="black"></path></g><g class="nestable" transform="translate(0,0)"><path d="M 36 94.29226427505782 L 36 88.09106427505782" fill="none" stroke="black"></path></g><g class="nestable" transform="translate(0,0)"><path d="M 42 82.09106427505782 L 180 82.09106427505782" fill="none" stroke="black"></path></g><g class="nestable" transform="translate(0,0)"><path d="M 186 94.29226427505782 L 186 88.09106427505782" fill="none" stroke="black"></path></g><g class="nestable" transform="translate(0,0)"><path d="M 200 102.29226427505782 L 194 102.29226427505782" fill="none" stroke="black"></path></g><g class="nestable" transform="translate(0,0)"><path d="M 200 102.29226427505782 L 200 89.69106427505781" fill="none" stroke="black"></path></g><g class="nestable" transform="translate(0,0)"><path d="M 208 81.69106427505781 L 214 81.69106427505781" fill="none" stroke="black"></path></g><g class="nestable" transform="translate(0,0)"><path d="M 222 110.29226427505782 L 222 89.69106427505781" fill="none" stroke="black"></path></g><g class="nestable" transform="translate(0,0)"><path d="M 186 120.29226427505782 L 212 120.29226427505782" fill="none" stroke="black"></path></g><g class="nestable" transform="translate(0,0)"><path d="M 130.95000000000002 109.79226427505782 A 3.05 3.05 0 1 0 137.05 109.79226427505782 A 3.05 3.05 0 1 0 130.95000000000002 109.79226427505782" fill="none" stroke="black"></path></g><g class="nestable" transform="translate(0,0)"><path d="M 98.4 109.79226427505782 A 12.6 12.6 0 1 0 123.60000000000001 109.79226427505782 A 12.6 12.6 0 1 0 98.4 109.79226427505782" fill="none" stroke="black"></path></g><g class="nestable" transform="translate(0,0)"><path d="M 13.5 87.19106427505781 L 8.5 87.19106427505781" fill="none" stroke="black"></path></g></svg>