<?xml version="1.0" encoding="utf-8" ?>
<svg baseProfile="tiny" height="209.915mm" version="1.2" viewBox="416.8835142155611,-856.0523503069757,1000.0,209.91548987752628" width="1000.0mm" xmlns="http://www.w3.org/2000/svg" xmlns:ev="http://www.w3.org/2001/xml-events" xmlns:xlink="http://www.w3.org/1999/xlink"><defs /><line stroke="black" x1="1254.7213" x2="579.0457" y1="-808.7523" y2="-808.7523" /><line stroke="black" x1="1416.8835" x2="1317.7844" y1="-769.1126" y2="-769.1126" /><line stroke="black" x1="515.9826" x2="416.8835" y1="-769.1126" y2="-769.1126" /><path d="M 477.69433068634567 -802.4487445279901 A 14.414414228643981 14.414414228643981 0 0 0 477.69433068634567 -831.2775729852781" fill="none" stroke="black" /><path d="M 455.1718084540897 -831.2775729852781 A 14.414414228643981 14.414414228643981 0 0 0 455.1718084540897 -802.4487445279901" fill="none" stroke="black" /><line stroke="black" x1="455.1718" x2="477.6943" y1="-802.4487" y2="-802.4487" /><path d="M 1378.5952199765816 -802.4487445279901 A 14.414414228643981 14.414414228643981 0 0 0 1378.5952199765816 -831.2775729852781" fill="none" stroke="black" /><line stroke="black" x1="1356.0727" x2="1378.5952" y1="-831.2776" y2="-831.2776" /><path d="M 1356.0726977443258 -831.2775729852781 A 14.414414228643981 14.414414228643981 0 0 0 1356.0726977443258 -802.4487445279901" fill="none" stroke="black" /><line stroke="black" x1="1378.5952" x2="1356.0727" y1="-802.4487" y2="-802.4487" /><circle cx="813.2799" cy="-729.4702" fill="none" r="13.7387" stroke="black" /><line stroke="black" x1="925.84" x2="1254.7214" y1="-646.6196" y2="-682.1729" /><path d="M 907.9270463280283 -646.6195683795593 A 83.33333225934695 83.33333225934695 0 0 0 925.8399821026435 -646.6195683795593" fill="none" stroke="black" /><line stroke="black" x1="907.927" x2="579.0457" y1="-646.6196" y2="-682.1729" /><line stroke="black" x1="579.0457" x2="461.9285" y1="-682.1729" y2="-682.1729" /><path d="M 416.8835206592547 -727.2179404655708 A 45.045044464511804 45.045044464511804 0 0 0 461.92856512376653 -682.172896001059" fill="none" stroke="black" /><line stroke="black" x1="416.8835" x2="416.8835" y1="-727.2179" y2="-820.0163" /><path d="M 452.91955623086415 -856.0523474407596 A 36.03603557160951 36.03603557160951 0 0 0 416.88352065925466 -820.0163118691501" fill="none" stroke="black" /><line stroke="black" x1="479.9466" x2="452.9196" y1="-856.0524" y2="-856.0524" /><line stroke="black" x1="515.9826" x2="515.9826" y1="-820.0163" y2="-763.254" /><line stroke="black" x1="515.9826" x2="543.0097" y1="-763.254" y2="-763.254" /><path d="M 543.0096451598878 -763.2539760371801 A 36.036035571609574 36.036035571609574 0 0 0 579.0456807314973 -799.2900116087897" fill="none" stroke="black" /><line stroke="black" x1="579.0457" x2="579.0457" y1="-799.29" y2="-827.2235" /><path d="M 606.0727074102043 -854.250545662179 A 27.027026678707085 27.027026678707085 0 0 0 579.0456807314972 -827.2235189834719" fill="none" stroke="black" /><line stroke="black" x1="606.0727" x2="1227.6943" y1="-854.2505" y2="-854.2505" /><path d="M 1254.7213476991742 -827.2235189834719 A 27.027026678707085 27.027026678707085 0 0 0 1227.6943210204672 -854.250545662179" fill="none" stroke="black" /><line stroke="black" x1="1254.7214" x2="1254.7214" y1="-799.29" y2="-827.2235" /><path d="M 1254.7213476991742 -799.2900116087897 A 36.036035571609574 36.036035571609574 0 0 0 1290.7573832707837 -763.2539760371801" fill="none" stroke="black" /><line stroke="black" x1="1317.7844" x2="1290.7574" y1="-763.254" y2="-763.254" /><line stroke="black" x1="1317.7844" x2="1317.7844" y1="-763.254" y2="-820.0163" /><path d="M 1353.8204455211003 -856.0523474407595 A 36.036035571609446 36.036035571609446 0 0 0 1317.7844099494907 -820.0163118691501" fill="none" stroke="black" /><line stroke="black" x1="1353.8205" x2="1380.8475" y1="-856.0524" y2="-856.0524" /><path d="M 1416.8835077714168 -820.0163118691501 A 36.036035571609446 36.036035571609446 0 0 0 1380.8474721998073 -856.0523474407595" fill="none" stroke="black" /><line stroke="black" x1="1416.8835" x2="1416.8835" y1="-727.2179" y2="-820.0163" /><path d="M 1371.838463306905 -682.172896001059 A 45.045044464511804 45.045044464511804 0 0 0 1416.8835077714168 -727.2179404655708" fill="none" stroke="black" /><line stroke="black" x1="1254.7214" x2="1371.8385" y1="-682.1729" y2="-682.1729" /><circle cx="1020.4871" cy="-729.4702" fill="none" r="13.7387" stroke="black" /><circle cx="916.8835" cy="-729.4702" fill="none" r="56.7568" stroke="black" /><path d="M 515.9826184811808 -820.0163118691501 A 36.03603557160951 36.03603557160951 0 0 0 479.94658290957125 -856.0523474407596" fill="none" stroke="black" /><line stroke="black" x1="477.6943" x2="455.1718" y1="-831.2776" y2="-831.2776" /></svg>