<?xml version="1.0" encoding="utf-8" ?>
<svg baseProfile="tiny" height="711.629mm" version="1.2" viewBox="-500.00076227994884,-355.81398539776535,1000.0,711.6294953554282" width="1000.0mm" xmlns="http://www.w3.org/2000/svg" xmlns:ev="http://www.w3.org/2001/xml-events" xmlns:xlink="http://www.w3.org/1999/xlink"><defs /><polygon fill="none" points="0.0,355.8155 2.5318,353.2303 9.8379,345.7701 21.4843,333.878 37.037,317.9974 56.0618,298.5713 78.1249,276.0429 102.7921,250.8555 129.6294,223.4521 158.2029,194.276 188.0784,163.7704 218.822,132.3784 249.9996,100.5432 281.1772,68.708 311.9208,37.316 341.7964,6.8104 370.3698,-22.3657 397.2071,-49.7691 421.8744,-74.9565 443.9374,-97.4849 462.9623,-116.911 478.5149,-132.7916 490.1613,-144.6837 497.4674,-152.1439 499.9992,-154.7291 498.8686,-155.7473 495.606,-158.6856 490.4051,-163.3695 483.4599,-169.6243 474.9641,-177.2755 465.1116,-186.1486 454.0961,-196.069 442.1116,-206.8622 429.3518,-218.3536 416.0105,-230.3687 402.2815,-242.7328 388.3588,-255.2715 374.436,-267.8103 360.7071,-280.1744 347.3658,-292.1895 334.6059,-303.6809 322.6214,-314.4741 311.6059,-324.3945 301.7534,-333.2676 293.2576,-340.9188 286.3124,-347.1736 281.1116,-351.8575 277.8489,-354.7958 276.7183,-355.814 275.3171,-355.814 271.2736,-355.814 264.8281,-355.814 256.2206,-355.814 245.6916,-355.814 233.4811,-355.814 219.8293,-355.814 204.9765,-355.814 189.1629,-355.814 172.6287,-355.814 155.614,-355.814 138.3591,-355.814 121.1043,-355.814 104.0896,-355.814 87.5554,-355.814 71.7418,-355.814 56.889,-355.814 43.2372,-355.814 31.0267,-355.814 20.4977,-355.814 11.8902,-355.814 5.4447,-355.814 1.4012,-355.814 0.0,-355.814 -1.4012,-355.814 -5.4447,-355.814 -11.8902,-355.814 -20.4977,-355.814 -31.0267,-355.814 -43.2372,-355.814 -56.889,-355.814 -71.7418,-355.814 -87.5554,-355.814 -104.0896,-355.814 -121.1043,-355.814 -138.3591,-355.814 -155.614,-355.814 -172.6287,-355.814 -189.1629,-355.814 -204.9765,-355.814 -219.8293,-355.814 -233.4811,-355.814 -245.6916,-355.814 -256.2206,-355.814 -264.8281,-355.814 -271.2736,-355.814 -275.3171,-355.814 -276.7183,-355.814 -277.8489,-354.7958 -281.1116,-351.8575 -286.3125,-347.1736 -293.2577,-340.9188 -301.7536,-333.2676 -311.6062,-324.3945 -322.6217,-314.4741 -334.6063,-303.6809 -347.3663,-292.1895 -360.7076,-280.1744 -374.4367,-267.8103 -388.3595,-255.2715 -402.2824,-242.7328 -416.0114,-230.3687 -429.3528,-218.3536 -442.1127,-206.8622 -454.0973,-196.069 -465.1129,-186.1486 -474.9655,-177.2755 -483.4613,-169.6243 -490.4066,-163.3695 -495.6075,-158.6856 -498.8701,-155.7473 -500.0008,-154.7291 -497.4689,-152.1439 -490.1628,-144.6837 -478.5164,-132.7916 -462.9637,-116.911 -443.9388,-97.4849 -421.8756,-74.9565 -397.2084,-49.7691 -370.3709,-22.3657 -341.7974,6.8104 -311.9218,37.316 -281.1781,68.708 -250.0004,100.5432 -218.8227,132.3784 -188.079,163.7704 -158.2034,194.276 -129.6298,223.4521 -102.7924,250.8555 -78.1251,276.0429 -56.062,298.5713 -37.0371,317.9974 -21.4844,333.878 -9.838,345.7701 -2.5318,353.2303" stroke="black" /><polygon fill="none" points="31.8282,-332.9883 32.6412,-332.9883 34.9872,-332.9883 38.7269,-332.9883 43.7209,-332.9883 49.8299,-332.9883 56.9144,-332.9883 64.8351,-332.9883 73.4527,-332.9883 82.6277,-332.9883 92.2208,-332.9883 102.0927,-332.9883 112.1039,-332.9883 122.1152,-332.9883 131.987,-332.9883 141.5802,-332.9883 150.7552,-332.9883 159.3728,-332.9883 167.2935,-332.9883 174.378,-332.9883 180.4869,-332.9883 185.4809,-332.9883 189.2206,-332.9883 191.5667,-332.9883 192.3796,-332.9883 192.1057,-332.6892 191.3154,-331.8263 190.0555,-330.4508 188.373,-328.6139 186.3149,-326.3669 183.9281,-323.7611 181.2596,-320.8477 178.3563,-317.678 175.2653,-314.3033 172.0333,-310.7747 168.7075,-307.1437 165.3347,-303.4614 161.9619,-299.779 158.6361,-296.148 155.4041,-292.6194 152.3131,-289.2447 149.4098,-286.075 146.7413,-283.1616 144.3545,-280.5558 142.2964,-278.3088 140.614,-276.4719 139.354,-275.0964 138.5637,-274.2335 138.2898,-273.9344 137.7507,-274.2335 136.195,-275.0964 133.7153,-276.4719 130.4037,-278.3088 126.3529,-280.5558 121.6552,-283.1616 116.4029,-286.075 110.6886,-289.2447 104.6047,-292.6194 98.2435,-296.148 91.6975,-299.779 85.059,-303.4614 78.4206,-307.1437 71.8745,-310.7747 65.5133,-314.3033 59.4294,-317.678 53.7151,-320.8477 48.4629,-323.7611 43.7651,-326.3669 39.7143,-328.6139 36.4028,-330.4508 33.923,-331.8263 32.3673,-332.6892" stroke="black" /><polygon fill="none" points="251.8603,-332.9883 251.9747,-332.9883 252.3047,-332.9883 252.8307,-332.9883 253.5331,-332.9883 254.3923,-332.9883 255.3887,-332.9883 256.5028,-332.9883 257.7149,-332.9883 259.0054,-332.9883 260.3546,-332.9883 261.7431,-332.9883 263.1512,-332.9883 264.5593,-332.9883 265.9478,-332.9883 267.2971,-332.9883 268.5876,-332.9883 269.7997,-332.9883 270.9137,-332.9883 271.9102,-332.9883 272.7694,-332.9883 273.4718,-332.9883 273.9978,-332.9883 274.3278,-332.9883 274.4421,-332.9883 274.5888,-332.8606 275.012,-332.4921 275.6867,-331.9046 276.5876,-331.1202 277.6896,-330.1606 278.9677,-329.0478 280.3966,-327.8036 281.9512,-326.4499 283.6064,-325.0087 285.337,-323.5019 287.1179,-321.9512 288.9239,-320.3786 290.73,-318.8061 292.5108,-317.2554 294.2415,-315.7485 295.8966,-314.3073 297.4512,-312.9537 298.8802,-311.7095 300.1582,-310.5967 301.2603,-309.6371 302.1612,-308.8526 302.8358,-308.2652 303.2591,-307.8967 303.4057,-307.769 303.1447,-307.8967 302.3915,-308.2652 301.1909,-308.8526 299.5875,-309.6371 297.6262,-310.5967 295.3518,-311.7095 292.8088,-312.9537 290.0421,-314.3073 287.0964,-315.7485 284.0165,-317.2554 280.8472,-318.8061 277.633,-320.3786 274.4189,-321.9512 271.2495,-323.5019 268.1696,-325.0087 265.224,-326.4499 262.4573,-327.8036 259.9143,-329.0478 257.6398,-330.1606 255.6785,-331.1202 254.0752,-331.9046 252.8745,-332.4921 252.1214,-332.8606" stroke="black" /><polygon fill="none" points="217.7956,-330.1999 218.4543,-329.8693 220.3552,-328.9152 223.3853,-327.3945 227.4317,-325.3636 232.3815,-322.8794 238.1218,-319.9984 244.5396,-316.7774 251.522,-313.273 258.9561,-309.5419 266.729,-305.6408 274.7277,-301.6263 282.8394,-297.5552 290.9511,-293.4841 298.9498,-289.4696 306.7227,-285.5685 314.1568,-281.8374 321.1392,-278.333 327.557,-275.112 333.2973,-272.2311 338.2471,-269.7468 342.2935,-267.716 345.3236,-266.1952 347.2245,-265.2412 347.8832,-264.9106 347.6744,-264.4283 347.0719,-263.0367 346.1114,-260.8184 344.8287,-257.856 343.2597,-254.2323 341.4401,-250.0299 339.4057,-245.3315 337.1923,-240.2197 334.8358,-234.7772 332.3719,-229.0868 329.8364,-223.231 327.2651,-217.2925 324.6938,-211.354 322.1583,-205.4982 319.6944,-199.8077 317.3378,-194.3652 315.1245,-189.2535 313.0901,-184.555 311.2705,-180.3526 309.7015,-176.7289 308.4188,-173.7666 307.4583,-171.5482 306.8557,-170.1566 306.6469,-169.6744 305.8763,-170.1467 303.6527,-171.5096 300.108,-173.6822 295.3744,-176.5834 289.5841,-180.1324 282.869,-184.2482 275.3614,-188.8498 267.1932,-193.8561 258.4967,-199.1864 249.4039,-204.7595 240.0468,-210.4946 230.5577,-216.3107 221.0685,-222.1267 211.7115,-227.8618 202.6186,-233.4349 193.9221,-238.7652 185.754,-243.7715 178.2463,-248.3731 171.5312,-252.4889 165.7409,-256.0379 161.0073,-258.9391 157.4627,-261.1117 155.239,-262.4746 154.4684,-262.9469 154.7891,-263.2875 155.7144,-264.2702 157.1895,-265.8367 159.1593,-267.9286 161.5689,-270.4876 164.3633,-273.4552 167.4875,-276.7731 170.8866,-280.3829 174.5055,-284.2262 178.2894,-288.2446 182.1832,-292.3798 186.132,-296.5734 190.0808,-300.767 193.9746,-304.9022 197.7585,-308.9206 201.3774,-312.7639 204.7765,-316.3737 207.9007,-319.6916 210.6951,-322.6592 213.1047,-325.2182 215.0745,-327.3101 216.5496,-328.8766 217.4749,-329.8593" stroke="black" /><polygon fill="none" points="359.4302,-244.4571 359.6046,-244.0427 360.1078,-242.8469 360.91,-240.9407 361.9812,-238.3951 363.2916,-235.2812 364.8112,-231.6701 366.5102,-227.6327 368.3587,-223.2401 370.3267,-218.5634 372.3845,-213.6735 374.502,-208.6416 376.6494,-203.5387 378.7968,-198.4357 380.9143,-193.4038 382.972,-188.5139 384.9401,-183.8372 386.7885,-179.4446 388.4875,-175.4072 390.0072,-171.7961 391.3175,-168.6822 392.3888,-166.1367 393.1909,-164.2304 393.6941,-163.0346 393.8685,-162.6202 393.5169,-162.6202 392.5022,-162.6202 390.8847,-162.6202 388.7248,-162.6202 386.0826,-162.6202 383.0184,-162.6202 379.5926,-162.6202 375.8654,-162.6202 371.8971,-162.6202 367.7479,-162.6202 363.4782,-162.6202 359.1482,-162.6202 354.8182,-162.6202 350.5485,-162.6202 346.3993,-162.6202 342.431,-162.6202 338.7038,-162.6202 335.278,-162.6202 332.2138,-162.6202 329.5716,-162.6202 327.4116,-162.6202 325.7942,-162.6202 324.7795,-162.6202 324.4279,-162.6202 324.6051,-163.0346 325.1166,-164.2304 325.9319,-166.1367 327.0206,-168.6822 328.3525,-171.7961 329.897,-175.4072 331.6238,-179.4446 333.5026,-183.8372 335.5028,-188.5139 337.5943,-193.4038 339.7465,-198.4357 341.9291,-203.5387 344.1116,-208.6416 346.2638,-213.6735 348.3553,-218.5634 350.3556,-223.2401 352.2343,-227.6327 353.9611,-231.6701 355.5056,-235.2812 356.8375,-238.3951 357.9262,-240.9407 358.7415,-242.8469 359.253,-244.0427" stroke="black" /><polygon fill="none" points="383.7439,-234.4316 384.1546,-234.0679 385.3398,-233.0186 387.229,-231.3459 389.7519,-229.1122 392.8381,-226.3798 396.4171,-223.2111 400.4185,-219.6683 404.772,-215.8138 409.407,-211.71 414.2533,-207.4192 419.2405,-203.0037 424.298,-198.5259 429.3555,-194.0481 434.3426,-189.6326 439.1889,-185.3418 443.824,-181.238 448.1775,-177.3835 452.1789,-173.8408 455.7579,-170.672 458.844,-167.9396 461.3669,-165.7059 463.2562,-164.0332 464.4413,-162.9839 464.852,-162.6202 464.5926,-162.6202 463.8441,-162.6202 462.651,-162.6202 461.0576,-162.6202 459.1085,-162.6202 456.8481,-162.6202 454.3209,-162.6202 451.5714,-162.6202 448.6441,-162.6202 445.5833,-162.6202 442.4336,-162.6202 439.2394,-162.6202 436.0453,-162.6202 432.8956,-162.6202 429.8348,-162.6202 426.9074,-162.6202 424.1579,-162.6202 421.6308,-162.6202 419.3704,-162.6202 417.4213,-162.6202 415.8279,-162.6202 414.6347,-162.6202 413.8862,-162.6202 413.6268,-162.6202 413.4755,-162.9839 413.0388,-164.0332 412.3428,-165.7059 411.4133,-167.9396 410.2762,-170.672 408.9576,-173.8408 407.4834,-177.3835 405.8794,-181.238 404.1717,-185.3418 402.3861,-189.6326 400.5487,-194.0481 398.6854,-198.5259 396.822,-203.0037 394.9846,-207.4192 393.1991,-211.71 391.4913,-215.8138 389.8874,-219.6683 388.4131,-223.2111 387.0945,-226.3798 385.9575,-229.1122 385.028,-231.3459 384.3319,-233.0186 383.8952,-234.0679" stroke="black" /><polygon fill="none" points="412.2532,-144.2569 412.5152,-144.2569 413.2711,-144.2569 414.4762,-144.2569 416.0855,-144.2569 418.054,-144.2569 420.3369,-144.2569 422.8893,-144.2569 425.6662,-144.2569 428.6228,-144.2569 431.714,-144.2569 434.8952,-144.2569 438.1212,-144.2569 441.3472,-144.2569 444.5283,-144.2569 447.6196,-144.2569 450.5761,-144.2569 453.353,-144.2569 455.9054,-144.2569 458.1883,-144.2569 460.1568,-144.2569 461.7661,-144.2569 462.9712,-144.2569 463.7272,-144.2569 463.9891,-144.2569 463.132,-143.3926 460.6586,-140.8986 456.7159,-136.923 451.4507,-131.614 445.0101,-125.1197 437.5409,-117.5883 429.1901,-109.1679 420.1046,-100.0068 410.4314,-90.253 400.3174,-80.0547 389.9095,-69.5601 379.3547,-58.9174 368.7999,-48.2746 358.392,-37.78 348.278,-27.5818 338.6048,-17.828 329.5193,-8.6668 321.1686,-0.2465 313.6994,7.285 307.2587,13.7793 301.9936,19.0883 298.0508,23.0639 295.5774,25.5579 294.7203,26.4221 295.3154,25.5579 297.0329,23.0639 299.7705,19.0883 303.4264,13.7793 307.8985,7.285 313.0848,-0.2465 318.8832,-8.6668 325.1918,-17.828 331.9084,-27.5818 338.9312,-37.78 346.1579,-48.2746 353.4867,-58.9174 360.8155,-69.5601 368.0423,-80.0547 375.065,-90.253 381.7817,-100.0068 388.0903,-109.1679 393.8887,-117.5883 399.075,-125.1197 403.5471,-131.614 407.203,-136.923 409.9406,-140.8986 411.658,-143.3926" stroke="black" /><polygon fill="none" points="315.8675,-144.2569 316.2501,-144.2569 317.3544,-144.2569 319.1146,-144.2569 321.4652,-144.2569 324.3406,-144.2569 327.6752,-144.2569 331.4034,-144.2569 335.4595,-144.2569 339.7781,-144.2569 344.2935,-144.2569 348.94,-144.2569 353.6522,-144.2569 358.3643,-144.2569 363.0109,-144.2569 367.5262,-144.2569 371.8448,-144.2569 375.901,-144.2569 379.6291,-144.2569 382.9637,-144.2569 385.8391,-144.2569 388.1897,-144.2569 389.95,-144.2569 391.0542,-144.2569 391.4369,-144.2569 390.4971,-142.9246 387.7852,-139.0799 383.4622,-132.9513 377.6893,-124.767 370.6275,-114.7557 362.4381,-103.1455 353.282,-90.1649 343.3203,-76.0424 332.7143,-61.0063 321.6249,-45.285 310.2134,-29.1069 298.6407,-12.7003 287.068,3.7062 275.6565,19.8843 264.5671,35.6056 253.9611,50.6417 243.9995,64.7642 234.8433,77.7448 226.6539,89.355 219.5921,99.3664 213.8192,107.5506 209.4963,113.6792 206.7843,117.5239 205.8446,118.8562 206.4017,117.5239 208.0094,113.6792 210.5721,107.5506 213.9944,99.3664 218.1807,89.355 223.0356,77.7448 228.4636,64.7642 234.369,50.6417 240.6565,35.6056 247.2305,19.8843 253.9955,3.7062 260.856,-12.7003 267.7165,-29.1069 274.4815,-45.285 281.0555,-61.0063 287.343,-76.0424 293.2485,-90.1649 298.6764,-103.1455 303.5313,-114.7557 307.7176,-124.767 311.1399,-132.9513 313.7027,-139.0799 315.3103,-142.9246" stroke="black" /><polygon fill="none" points="177.4694,-144.2569 178.0253,-144.2569 179.6293,-144.2569 182.1861,-144.2569 185.6005,-144.2569 189.7773,-144.2569 194.621,-144.2569 200.0364,-144.2569 205.9283,-144.2569 212.2013,-144.2569 218.7602,-144.2569 225.5096,-144.2569 232.3544,-144.2569 239.1991,-144.2569 245.9485,-144.2569 252.5074,-144.2569 258.7804,-144.2569 264.6723,-144.2569 270.0877,-144.2569 274.9315,-144.2569 279.1082,-144.2569 282.5226,-144.2569 285.0795,-144.2569 286.6834,-144.2569 287.2393,-144.2569 286.1767,-142.7847 283.1106,-138.5363 278.2229,-131.7641 271.6959,-122.7204 263.7117,-111.6577 254.4524,-98.8284 244.1003,-84.4847 232.8374,-68.8792 220.8459,-52.2641 208.308,-34.8919 195.4057,-17.0149 182.3214,1.1145 169.237,19.2438 156.3347,37.1208 143.7968,54.493 131.8053,71.1081 120.5424,86.7136 110.1903,101.0573 100.931,113.8866 92.9468,124.9493 86.4198,133.993 81.5321,140.7652 78.466,145.0136 77.4034,146.4858 77.9101,145.0136 79.3723,140.7652 81.7031,133.993 84.8157,124.9493 88.6232,113.8866 93.0387,101.0573 97.9755,86.7136 103.3465,71.1081 109.0649,54.493 115.044,37.1208 121.1968,19.2438 127.4364,1.1145 133.6761,-17.0149 139.8289,-34.8919 145.8079,-52.2641 151.5264,-68.8792 156.8974,-84.4847 161.8341,-98.8284 166.2497,-111.6577 170.0571,-122.7204 173.1697,-131.7641 175.5006,-138.5363 176.9627,-142.7847" stroke="black" /><polygon fill="none" points="15.0078,-144.2569 15.7262,-144.2569 17.7994,-144.2569 21.1042,-144.2569 25.5175,-144.2569 30.9161,-144.2569 37.1768,-144.2569 44.1764,-144.2569 51.7919,-144.2569 59.9,-144.2569 68.3776,-144.2569 77.1015,-144.2569 85.9486,-144.2569 94.7957,-144.2569 103.5196,-144.2569 111.9972,-144.2569 120.1053,-144.2569 127.7207,-144.2569 134.7204,-144.2569 140.9811,-144.2569 146.3797,-144.2569 150.7929,-144.2569 154.0978,-144.2569 156.171,-144.2569 156.8894,-144.2569 156.351,-142.7109 154.7972,-138.2497 152.3204,-131.1383 149.0129,-121.6416 144.9669,-110.0247 140.2748,-96.5527 135.0289,-81.4906 129.3215,-65.1033 123.2448,-47.6559 116.8913,-29.4135 110.3531,-10.641 103.7227,8.3965 97.0922,27.434 90.5541,46.2065 84.2005,64.4489 78.1239,81.8963 72.4164,98.2836 67.1705,113.3457 62.4784,126.8178 58.4325,138.4346 55.1249,147.9313 52.6481,155.0427 51.0944,159.504 50.5559,161.0499 50.3759,159.504 49.8565,155.0427 49.0285,147.9313 47.9227,138.4346 46.5701,126.8178 45.0015,113.3457 43.2478,98.2836 41.3397,81.8963 39.3083,64.4489 37.1842,46.2065 34.9985,27.434 32.7818,8.3965 30.5652,-10.641 28.3795,-29.4135 26.2554,-47.6559 24.224,-65.1033 22.3159,-81.4906 20.5622,-96.5527 18.9936,-110.0247 17.641,-121.6416 16.5352,-131.1383 15.7072,-138.2497 15.1878,-142.7109" stroke="black" /><polygon fill="none" points="53.5303,206.18 53.3602,206.6678 52.8692,208.0754 52.0864,210.3194 51.0411,213.3159 49.7625,216.9815 48.2797,221.2324 46.6218,225.985 44.8181,231.1558 42.8977,236.6611 40.8898,242.4172 38.8236,248.3406 36.7282,254.3477 34.6328,260.3547 32.5665,266.2781 30.5586,272.0342 28.6382,277.5395 26.8345,282.7103 25.1767,287.463 23.6938,291.7139 22.4152,295.3794 21.3699,298.376 20.5872,300.6199 20.0962,302.0276 19.926,302.5154 20.6861,301.7515 22.8794,299.5473 26.3757,296.0336 31.0447,291.3414 36.756,285.6016 43.3794,278.9452 50.7847,271.5031 58.8413,263.4063 67.4192,254.7858 76.388,245.7724 85.6174,236.4971 94.977,227.0908 104.3367,217.6846 113.5661,208.4093 122.5348,199.3959 131.1127,190.7753 139.1694,182.6785 146.5746,175.2364 153.198,168.58 158.9094,162.8403 163.5784,158.1481 167.0747,154.6344 169.268,152.4301 170.0281,151.6663 170.5537,150.4449 172.0705,146.9203 174.4883,141.3019 177.717,133.799 181.6667,124.6211 186.247,113.9775 191.368,102.0776 196.9395,89.1308 202.8714,75.3465 209.0737,60.934 215.4561,46.1028 221.9287,31.0621 228.4012,16.0215 234.7837,1.1903 240.9859,-13.2222 246.9178,-27.0065 252.4893,-39.9533 257.6103,-51.8532 262.1907,-62.4968 266.1403,-71.6747 269.369,-79.1776 271.7869,-84.796 273.3036,-88.3206 273.8293,-89.542 272.7137,-88.0445 269.4947,-83.7234 264.3633,-76.8352 257.5108,-67.6366 249.1285,-56.3845 239.4075,-43.3354 228.5392,-28.7461 216.7147,-12.8733 204.1253,4.0263 190.9622,21.696 177.4166,39.8792 163.6798,58.319 149.943,76.7588 136.3974,94.942 123.2343,112.6117 110.6449,129.5113 98.8204,145.3841 87.9521,159.9734 78.2311,173.0225 69.8488,184.2746 62.9963,193.4732 57.8649,200.3614 54.6459,204.6825" stroke="black" /><polygon fill="none" points="0.0,312.4281 0.1864,311.7929 0.7242,309.9602 1.5814,307.0386 2.7263,303.1372 4.1267,298.3647 5.7507,292.8301 7.5664,286.6422 9.5419,279.9099 11.6451,272.7422 13.8442,265.2477 16.1072,257.5356 18.4022,249.7145 20.6972,241.8935 22.9602,234.1813 25.1593,226.6869 27.2625,219.5191 29.238,212.7869 31.0537,206.599 32.6777,201.0644 34.0781,196.2919 35.223,192.3904 36.0802,189.4689 36.618,187.6361 36.8044,187.001 36.618,185.6207 36.0802,181.6377 35.223,175.2884 34.0781,166.8096 32.6777,156.4379 31.0537,144.4098 29.238,130.962 27.2625,116.3311 25.1593,100.7538 22.9602,84.4666 20.6972,67.7062 18.4022,50.7091 16.1072,33.7121 13.8442,16.9517 11.6451,0.6645 9.5419,-14.9128 7.5664,-29.5437 5.7507,-42.9915 4.1267,-55.0196 2.7263,-65.3913 1.5814,-73.8701 0.7242,-80.2194 0.1864,-84.2024 0.0,-85.5827 -0.1864,-84.2024 -0.7242,-80.2194 -1.5814,-73.8701 -2.7263,-65.3913 -4.1267,-55.0196 -5.7507,-42.9915 -7.5664,-29.5437 -9.5419,-14.9128 -11.6451,0.6645 -13.8442,16.9517 -16.1072,33.7121 -18.4022,50.7091 -20.6972,67.7062 -22.9602,84.4666 -25.1593,100.7538 -27.2625,116.3311 -29.238,130.962 -31.0537,144.4098 -32.6777,156.4379 -34.0781,166.8096 -35.223,175.2884 -36.0802,181.6377 -36.618,185.6207 -36.8044,187.001 -36.618,187.6361 -36.0802,189.4689 -35.223,192.3904 -34.0781,196.2919 -32.6777,201.0644 -31.0537,206.599 -29.238,212.7869 -27.2625,219.5191 -25.1593,226.6869 -22.9602,234.1813 -20.6972,241.8935 -18.4022,249.7145 -16.1072,257.5356 -13.8442,265.2477 -11.6451,272.7422 -9.5419,279.9099 -7.5664,286.6422 -5.7507,292.8301 -4.1267,298.3647 -2.7263,303.1372 -1.5814,307.0386 -0.7242,309.9602 -0.1864,311.7929" stroke="black" /><polygon fill="none" points="154.4959,-240.6807 155.1502,-240.2855 157.0385,-239.1448 160.0486,-237.3266 164.0683,-234.8985 168.9854,-231.9283 174.6877,-228.4838 181.0631,-224.6327 187.9994,-220.4428 195.3843,-215.9819 203.1058,-211.3177 211.0517,-206.518 219.1097,-201.6505 227.1678,-196.783 235.1137,-191.9833 242.8352,-187.3191 250.2201,-182.8581 257.1564,-178.6683 263.5318,-174.8172 269.2341,-171.3727 274.1512,-168.4025 278.1709,-165.9744 281.181,-164.1561 283.0693,-163.0155 283.7236,-162.6202 283.1942,-162.6202 281.6665,-162.6202 279.2311,-162.6202 275.979,-162.6202 272.0008,-162.6202 267.3873,-162.6202 262.2292,-162.6202 256.6174,-162.6202 250.6425,-162.6202 244.3953,-162.6202 237.9667,-162.6202 231.4472,-162.6202 224.9278,-162.6202 218.4992,-162.6202 212.252,-162.6202 206.2771,-162.6202 200.6653,-162.6202 195.5072,-162.6202 190.8937,-162.6202 186.9155,-162.6202 183.6634,-162.6202 181.228,-162.6202 179.7003,-162.6202 179.1709,-162.6202 179.0459,-163.0155 178.6853,-164.1561 178.1106,-165.9744 177.3431,-168.4025 176.4042,-171.3727 175.3154,-174.8172 174.0981,-178.6683 172.7736,-182.8581 171.3635,-187.3191 169.8892,-191.9833 168.372,-196.783 166.8334,-201.6505 165.2947,-206.518 163.7775,-211.3177 162.3032,-215.9819 160.8931,-220.4428 159.5686,-224.6327 158.3513,-228.4838 157.2625,-231.9283 156.3236,-234.8985 155.5561,-237.3266 154.9814,-239.1448 154.6208,-240.2855" stroke="black" /><polygon fill="none" points="135.012,-244.9023 135.1402,-244.4856 135.5103,-243.2833 136.1003,-241.3667 136.8881,-238.8073 137.8518,-235.6765 138.9694,-232.0457 140.2189,-227.9863 141.5784,-223.5699 143.0258,-218.8677 144.5391,-213.9513 146.0964,-208.892 147.6757,-203.7612 149.255,-198.6305 150.8124,-193.5712 152.3257,-188.6548 153.7731,-183.9526 155.1325,-179.5361 156.3821,-175.4768 157.4997,-171.846 158.4634,-168.7152 159.2512,-166.1558 159.8411,-164.2392 160.2112,-163.0369 160.3395,-162.6202 159.6654,-162.6202 157.7201,-162.6202 154.6193,-162.6202 150.4784,-162.6202 145.4131,-162.6202 139.5388,-162.6202 132.9711,-162.6202 125.8257,-162.6202 118.218,-162.6202 110.2637,-162.6202 102.0782,-162.6202 93.7772,-162.6202 85.4762,-162.6202 77.2907,-162.6202 69.3364,-162.6202 61.7287,-162.6202 54.5833,-162.6202 48.0156,-162.6202 42.1414,-162.6202 37.076,-162.6202 32.9351,-162.6202 29.8343,-162.6202 27.889,-162.6202 27.2149,-162.6202 27.7608,-163.0369 29.3359,-164.2392 31.8468,-166.1558 35.1999,-168.7152 39.3015,-171.846 44.0582,-175.4768 49.3763,-179.5361 55.1623,-183.9526 61.3226,-188.6548 67.7636,-193.5712 74.3917,-198.6305 81.1134,-203.7612 87.8352,-208.892 94.4633,-213.9513 100.9043,-218.8677 107.0646,-223.5699 112.8506,-227.9863 118.1687,-232.0457 122.9254,-235.6765 127.027,-238.8073 130.3801,-241.3667 132.891,-243.2833 134.4661,-244.4856" stroke="black" /><polygon fill="none" points="0.0,-162.6202 0.6231,-163.1112 2.4214,-164.5279 5.2878,-166.7863 9.1157,-169.8021 13.7982,-173.4913 19.2285,-177.7696 25.2997,-182.5529 31.9051,-187.7569 38.9377,-193.2977 46.2909,-199.0909 53.8576,-205.0525 61.5312,-211.0982 69.2048,-217.1439 76.7716,-223.1055 84.1247,-228.8987 91.1574,-234.4394 97.7627,-239.6435 103.834,-244.4268 109.2642,-248.7051 113.9467,-252.3942 117.7746,-255.4101 120.6411,-257.6684 122.4393,-259.0852 123.0625,-259.5761 122.4393,-259.9247 120.6411,-260.9305 117.7746,-262.5339 113.9467,-264.6751 109.2642,-267.2942 103.834,-270.3317 97.7627,-273.7276 91.1574,-277.4224 84.1247,-281.3561 76.7716,-285.4691 69.2048,-289.7016 61.5312,-293.9938 53.8576,-298.2861 46.2909,-302.5186 38.9377,-306.6316 31.9051,-310.5653 25.2997,-314.2601 19.2285,-317.656 13.7982,-320.6935 9.1157,-323.3126 5.2878,-325.4538 2.4214,-327.0571 0.6231,-328.063 0.0,-328.4115 -0.6232,-328.063 -2.4214,-327.0571 -5.2879,-325.4538 -9.1159,-323.3126 -13.7984,-320.6935 -19.2287,-317.656 -25.3,-314.2601 -31.9055,-310.5653 -38.9382,-306.6316 -46.2914,-302.5186 -53.8583,-298.2861 -61.532,-293.9938 -69.2057,-289.7016 -76.7726,-285.4691 -84.1258,-281.3561 -91.1585,-277.4224 -97.7639,-273.7276 -103.8352,-270.3317 -109.2656,-267.2942 -113.9481,-264.6751 -117.7761,-262.5339 -120.6426,-260.9305 -122.4408,-259.9247 -123.064,-259.5761 -122.4408,-259.0852 -120.6426,-257.6684 -117.7761,-255.4101 -113.9481,-252.3942 -109.2656,-248.7051 -103.8352,-244.4268 -97.7639,-239.6435 -91.1585,-234.4394 -84.1258,-228.8987 -76.7726,-223.1055 -69.2057,-217.1439 -61.532,-211.0982 -53.8583,-205.0525 -46.2914,-199.0909 -38.9382,-193.2977 -31.9055,-187.7569 -25.3,-182.5529 -19.2287,-177.7696 -13.7984,-173.4913 -9.1159,-169.8021 -5.2879,-166.7863 -2.4214,-164.5279 -0.6232,-163.1112" stroke="black" /><polygon fill="none" points="-31.8298,-332.9883 -32.6427,-332.9883 -34.9887,-332.9883 -38.7284,-332.9883 -43.7223,-332.9883 -49.8312,-332.9883 -56.9157,-332.9883 -64.8363,-332.9883 -73.4538,-332.9883 -82.6287,-332.9883 -92.2218,-332.9883 -102.0936,-332.9883 -112.1047,-332.9883 -122.1158,-332.9883 -131.9876,-332.9883 -141.5807,-332.9883 -150.7556,-332.9883 -159.3731,-332.9883 -167.2937,-332.9883 -174.3782,-332.9883 -180.4871,-332.9883 -185.481,-332.9883 -189.2207,-332.9883 -191.5667,-332.9883 -192.3796,-332.9883 -192.1057,-332.6892 -191.3154,-331.8263 -190.0555,-330.4508 -188.373,-328.6139 -186.3149,-326.3669 -183.9281,-323.7611 -181.2596,-320.8477 -178.3563,-317.678 -175.2653,-314.3033 -172.0333,-310.7747 -168.7075,-307.1437 -165.3347,-303.4614 -161.9619,-299.779 -158.6361,-296.148 -155.4041,-292.6194 -152.3131,-289.2447 -149.4098,-286.075 -146.7413,-283.1616 -144.3545,-280.5558 -142.2964,-278.3088 -140.614,-276.4719 -139.354,-275.0964 -138.5637,-274.2335 -138.2898,-273.9344 -137.7507,-274.2335 -136.1951,-275.0964 -133.7153,-276.4719 -130.4039,-278.3088 -126.3531,-280.5558 -121.6554,-283.1616 -116.4033,-286.075 -110.689,-289.2447 -104.6052,-292.6194 -98.2441,-296.148 -91.6981,-299.779 -85.0598,-303.4614 -78.4214,-307.1437 -71.8755,-310.7747 -65.5144,-314.3033 -59.4305,-317.678 -53.7163,-320.8477 -48.4641,-323.7611 -43.7665,-326.3669 -39.7157,-328.6139 -36.4042,-330.4508 -33.9245,-331.8263 -32.3688,-332.6892" stroke="black" /><polygon fill="none" points="-251.8603,-332.9883 -251.9747,-332.9883 -252.3047,-332.9883 -252.8307,-332.9883 -253.5331,-332.9883 -254.3923,-332.9883 -255.3887,-332.9883 -256.5028,-332.9883 -257.7149,-332.9883 -259.0054,-332.9883 -260.3546,-332.9883 -261.7431,-332.9883 -263.1512,-332.9883 -264.5593,-332.9883 -265.9478,-332.9883 -267.2971,-332.9883 -268.5876,-332.9883 -269.7997,-332.9883 -270.9137,-332.9883 -271.9102,-332.9883 -272.7694,-332.9883 -273.4718,-332.9883 -273.9978,-332.9883 -274.3278,-332.9883 -274.4421,-332.9883 -274.5888,-332.8606 -275.012,-332.4921 -275.6867,-331.9046 -276.5876,-331.1202 -277.6896,-330.1606 -278.9677,-329.0478 -280.3966,-327.8036 -281.9512,-326.4499 -283.6064,-325.0087 -285.337,-323.5019 -287.1179,-321.9512 -288.9239,-320.3786 -290.73,-318.8061 -292.5108,-317.2554 -294.2415,-315.7485 -295.8966,-314.3073 -297.4512,-312.9537 -298.8802,-311.7095 -300.1582,-310.5967 -301.2603,-309.6371 -302.1612,-308.8526 -302.8358,-308.2652 -303.2591,-307.8967 -303.4057,-307.769 -303.1447,-307.8967 -302.3915,-308.2652 -301.1909,-308.8526 -299.5875,-309.6371 -297.6262,-310.5967 -295.3518,-311.7095 -292.8088,-312.9537 -290.0421,-314.3073 -287.0964,-315.7485 -284.0165,-317.2554 -280.8472,-318.8061 -277.633,-320.3786 -274.4189,-321.9512 -271.2495,-323.5019 -268.1696,-325.0087 -265.224,-326.4499 -262.4573,-327.8036 -259.9143,-329.0478 -257.6398,-330.1606 -255.6785,-331.1202 -254.0752,-331.9046 -252.8745,-332.4921 -252.1214,-332.8606" stroke="black" /><polygon fill="none" points="-217.7956,-330.1999 -218.4543,-329.8693 -220.3552,-328.9152 -223.3853,-327.3945 -227.4317,-325.3636 -232.3815,-322.8794 -238.1218,-319.9984 -244.5396,-316.7774 -251.522,-313.273 -258.9561,-309.5419 -266.729,-305.6408 -274.7277,-301.6263 -282.8394,-297.5552 -290.9511,-293.4841 -298.9498,-289.4696 -306.7227,-285.5685 -314.1568,-281.8374 -321.1392,-278.333 -327.557,-275.112 -333.2973,-272.2311 -338.2471,-269.7468 -342.2935,-267.716 -345.3236,-266.1952 -347.2245,-265.2412 -347.8832,-264.9106 -347.6744,-264.4283 -347.0719,-263.0367 -346.1114,-260.8184 -344.8287,-257.856 -343.2597,-254.2323 -341.4401,-250.0299 -339.4057,-245.3315 -337.1923,-240.2197 -334.8358,-234.7772 -332.3719,-229.0868 -329.8364,-223.231 -327.2651,-217.2925 -324.6938,-211.354 -322.1583,-205.4982 -319.6944,-199.8077 -317.3378,-194.3652 -315.1245,-189.2535 -313.0901,-184.555 -311.2705,-180.3526 -309.7015,-176.7289 -308.4188,-173.7666 -307.4583,-171.5482 -306.8557,-170.1566 -306.6469,-169.6744 -305.8764,-170.1467 -303.6527,-171.5096 -300.1081,-173.6822 -295.3746,-176.5834 -289.5843,-180.1324 -282.8693,-184.2482 -275.3617,-188.8498 -267.1936,-193.8561 -258.4972,-199.1864 -249.4044,-204.7595 -240.0475,-210.4946 -230.5584,-216.3107 -221.0694,-222.1267 -211.7124,-227.8618 -202.6197,-233.4349 -193.9232,-238.7652 -185.7552,-243.7715 -178.2476,-248.3731 -171.5326,-252.4889 -165.7423,-256.0379 -161.0088,-258.9391 -157.4642,-261.1117 -155.2405,-262.4746 -154.4699,-262.9469 -154.7906,-263.2875 -155.7159,-264.2702 -157.191,-265.8367 -159.1607,-267.9286 -161.5702,-270.4876 -164.3646,-273.4552 -167.4887,-276.7731 -170.8877,-280.3829 -174.5066,-284.2262 -178.2903,-288.2446 -182.1841,-292.3798 -186.1328,-296.5734 -190.0814,-300.767 -193.9752,-304.9022 -197.7589,-308.9206 -201.3778,-312.7639 -204.7768,-316.3737 -207.9009,-319.6916 -210.6953,-322.6592 -213.1048,-325.2182 -215.0746,-327.3101 -216.5496,-328.8766 -217.4749,-329.8593" stroke="black" /><polygon fill="none" points="-359.4318,-244.4571 -359.6061,-244.0427 -360.1093,-242.8469 -360.9115,-240.9407 -361.9826,-238.3951 -363.2929,-235.2812 -364.8125,-231.6701 -366.5114,-227.6327 -368.3598,-223.2401 -370.3278,-218.5634 -372.3854,-213.6735 -374.5028,-208.6416 -376.6501,-203.5387 -378.7975,-198.4357 -380.9149,-193.4038 -382.9725,-188.5139 -384.9405,-183.8372 -386.7889,-179.4446 -388.4878,-175.4072 -390.0073,-171.7961 -391.3177,-168.6822 -392.3888,-166.1367 -393.1909,-164.2304 -393.6941,-163.0346 -393.8685,-162.6202 -393.5169,-162.6202 -392.5022,-162.6202 -390.8848,-162.6202 -388.7249,-162.6202 -386.0827,-162.6202 -383.0187,-162.6202 -379.5929,-162.6202 -375.8658,-162.6202 -371.8976,-162.6202 -367.7485,-162.6202 -363.4789,-162.6202 -359.149,-162.6202 -354.8191,-162.6202 -350.5494,-162.6202 -346.4004,-162.6202 -342.4321,-162.6202 -338.705,-162.6202 -335.2793,-162.6202 -332.2152,-162.6202 -329.573,-162.6202 -327.4131,-162.6202 -325.7957,-162.6202 -324.781,-162.6202 -324.4294,-162.6202 -324.6066,-163.0346 -325.1181,-164.2304 -325.9334,-166.1367 -327.0222,-168.6822 -328.354,-171.7961 -329.8985,-175.4072 -331.6253,-179.4446 -333.5041,-183.8372 -335.5044,-188.5139 -337.5958,-193.4038 -339.748,-198.4357 -341.9306,-203.5387 -344.1132,-208.6416 -346.2654,-213.6735 -348.3568,-218.5634 -350.3571,-223.2401 -352.2358,-227.6327 -353.9626,-231.6701 -355.5072,-235.2812 -356.839,-238.3951 -357.9278,-240.9407 -358.7431,-242.8469 -359.2545,-244.0427" stroke="black" /><polygon fill="none" points="-383.7454,-234.4316 -384.1562,-234.0679 -385.3413,-233.0186 -387.2306,-231.3459 -389.7535,-229.1122 -392.8396,-226.3798 -396.4186,-223.2111 -400.42,-219.6683 -404.7735,-215.8138 -409.4086,-211.71 -414.2549,-207.4192 -419.242,-203.0037 -424.2995,-198.5259 -429.357,-194.0481 -434.3441,-189.6326 -439.1904,-185.3418 -443.8255,-181.238 -448.179,-177.3835 -452.1804,-173.8408 -455.7594,-170.672 -458.8456,-167.9396 -461.3684,-165.7059 -463.2577,-164.0332 -464.4429,-162.9839 -464.8536,-162.6202 -464.5942,-162.6202 -463.8456,-162.6202 -462.6524,-162.6202 -461.059,-162.6202 -459.1098,-162.6202 -456.8494,-162.6202 -454.3221,-162.6202 -451.5726,-162.6202 -448.6451,-162.6202 -445.5842,-162.6202 -442.4344,-162.6202 -439.2402,-162.6202 -436.0459,-162.6202 -432.8961,-162.6202 -429.8353,-162.6202 -426.9078,-162.6202 -424.1582,-162.6202 -421.631,-162.6202 -419.3706,-162.6202 -417.4214,-162.6202 -415.828,-162.6202 -414.6348,-162.6202 -413.8862,-162.6202 -413.6268,-162.6202 -413.4755,-162.9839 -413.0389,-164.0332 -412.3429,-165.7059 -411.4134,-167.9396 -410.2764,-170.672 -408.9579,-173.8408 -407.4837,-177.3835 -405.8798,-181.238 -404.1722,-185.3418 -402.3867,-189.6326 -400.5494,-194.0481 -398.6861,-198.5259 -396.8229,-203.0037 -394.9855,-207.4192 -393.2001,-211.71 -391.4925,-215.8138 -389.8886,-219.6683 -388.4144,-223.2111 -387.0959,-226.3798 -385.9589,-229.1122 -385.0294,-231.3459 -384.3334,-233.0186 -383.8968,-234.0679" stroke="black" /><polygon fill="none" points="-412.2532,-144.2569 -412.5152,-144.2569 -413.2712,-144.2569 -414.4763,-144.2569 -416.0856,-144.2569 -418.0542,-144.2569 -420.3372,-144.2569 -422.8896,-144.2569 -425.6666,-144.2569 -428.6232,-144.2569 -431.7146,-144.2569 -434.8958,-144.2569 -438.1219,-144.2569 -441.348,-144.2569 -444.5292,-144.2569 -447.6206,-144.2569 -450.5772,-144.2569 -453.3542,-144.2569 -455.9067,-144.2569 -458.1897,-144.2569 -460.1583,-144.2569 -461.7676,-144.2569 -462.9727,-144.2569 -463.7287,-144.2569 -463.9907,-144.2569 -463.1335,-143.3926 -460.6601,-140.8986 -456.7174,-136.923 -451.4522,-131.614 -445.0116,-125.1197 -437.5424,-117.5883 -429.1916,-109.1679 -420.1061,-100.0068 -410.4329,-90.253 -400.3189,-80.0547 -389.9111,-69.5601 -379.3562,-58.9174 -368.8014,-48.2746 -358.3935,-37.78 -348.2795,-27.5818 -338.6063,-17.828 -329.5209,-8.6668 -321.1701,-0.2465 -313.7009,7.285 -307.2603,13.7793 -301.9951,19.0883 -298.0523,23.0639 -295.5789,25.5579 -294.7218,26.4221 -295.317,25.5579 -297.0344,23.0639 -299.772,19.0883 -303.4278,13.7793 -307.8999,7.285 -313.0861,-0.2465 -318.8844,-8.6668 -325.1929,-17.828 -331.9095,-27.5818 -338.9321,-37.78 -346.1588,-48.2746 -353.4875,-58.9174 -360.8162,-69.5601 -368.0429,-80.0547 -375.0655,-90.253 -381.7821,-100.0068 -388.0906,-109.1679 -393.8889,-117.5883 -399.0751,-125.1197 -403.5472,-131.614 -407.203,-136.923 -409.9407,-140.8986 -411.6581,-143.3926" stroke="black" /><polygon fill="none" points="-315.8675,-144.2569 -316.2501,-144.2569 -317.3544,-144.2569 -319.1146,-144.2569 -321.4652,-144.2569 -324.3406,-144.2569 -327.6752,-144.2569 -331.4034,-144.2569 -335.4595,-144.2569 -339.7781,-144.2569 -344.2935,-144.2569 -348.94,-144.2569 -353.6522,-144.2569 -358.3643,-144.2569 -363.0109,-144.2569 -367.5262,-144.2569 -371.8448,-144.2569 -375.901,-144.2569 -379.6291,-144.2569 -382.9637,-144.2569 -385.8391,-144.2569 -388.1897,-144.2569 -389.95,-144.2569 -391.0542,-144.2569 -391.4369,-144.2569 -390.4971,-142.9246 -387.7852,-139.0799 -383.4622,-132.9513 -377.6893,-124.767 -370.6275,-114.7557 -362.4381,-103.1455 -353.282,-90.1649 -343.3203,-76.0424 -332.7143,-61.0063 -321.6249,-45.285 -310.2134,-29.1069 -298.6407,-12.7003 -287.068,3.7062 -275.6565,19.8843 -264.5671,35.6056 -253.9611,50.6417 -243.9995,64.7642 -234.8433,77.7448 -226.6539,89.355 -219.5921,99.3664 -213.8192,107.5506 -209.4963,113.6792 -206.7843,117.5239 -205.8446,118.8562 -206.4017,117.5239 -208.0094,113.6792 -210.5721,107.5506 -213.9944,99.3664 -218.1807,89.355 -223.0356,77.7448 -228.4636,64.7642 -234.369,50.6417 -240.6565,35.6056 -247.2305,19.8843 -253.9955,3.7062 -260.856,-12.7003 -267.7165,-29.1069 -274.4815,-45.285 -281.0555,-61.0063 -287.343,-76.0424 -293.2485,-90.1649 -298.6764,-103.1455 -303.5313,-114.7557 -307.7176,-124.767 -311.1399,-132.9513 -313.7027,-139.0799 -315.3103,-142.9246" stroke="black" /><polygon fill="none" points="-177.4694,-144.2569 -178.0253,-144.2569 -179.6293,-144.2569 -182.1861,-144.2569 -185.6005,-144.2569 -189.7773,-144.2569 -194.621,-144.2569 -200.0364,-144.2569 -205.9283,-144.2569 -212.2013,-144.2569 -218.7602,-144.2569 -225.5096,-144.2569 -232.3544,-144.2569 -239.1991,-144.2569 -245.9485,-144.2569 -252.5074,-144.2569 -258.7804,-144.2569 -264.6723,-144.2569 -270.0877,-144.2569 -274.9315,-144.2569 -279.1082,-144.2569 -282.5226,-144.2569 -285.0795,-144.2569 -286.6834,-144.2569 -287.2393,-144.2569 -286.1767,-142.7847 -283.1106,-138.5363 -278.2229,-131.7641 -271.6959,-122.7204 -263.7117,-111.6577 -254.4524,-98.8284 -244.1003,-84.4847 -232.8374,-68.8792 -220.8459,-52.2641 -208.308,-34.8919 -195.4057,-17.0149 -182.3214,1.1145 -169.237,19.2438 -156.3347,37.1208 -143.7968,54.493 -131.8053,71.1081 -120.5424,86.7136 -110.1903,101.0573 -100.931,113.8866 -92.9468,124.9493 -86.4198,133.993 -81.5321,140.7652 -78.466,145.0136 -77.4034,146.4858 -77.9101,145.0136 -79.3723,140.7652 -81.7031,133.993 -84.8157,124.9493 -88.6232,113.8866 -93.0387,101.0573 -97.9755,86.7136 -103.3465,71.1081 -109.0649,54.493 -115.044,37.1208 -121.1968,19.2438 -127.4364,1.1145 -133.6761,-17.0149 -139.8289,-34.8919 -145.8079,-52.2641 -151.5264,-68.8792 -156.8974,-84.4847 -161.8341,-98.8284 -166.2497,-111.6577 -170.0571,-122.7204 -173.1697,-131.7641 -175.5006,-138.5363 -176.9627,-142.7847" stroke="black" /><polygon fill="none" points="-15.0078,-144.2569 -15.7262,-144.2569 -17.7995,-144.2569 -21.1043,-144.2569 -25.5176,-144.2569 -30.9163,-144.2569 -37.177,-144.2569 -44.1767,-144.2569 -51.7923,-144.2569 -59.9005,-144.2569 -68.3782,-144.2569 -77.1022,-144.2569 -85.9494,-144.2569 -94.7965,-144.2569 -103.5205,-144.2569 -111.9982,-144.2569 -120.1064,-144.2569 -127.722,-144.2569 -134.7217,-144.2569 -140.9824,-144.2569 -146.3811,-144.2569 -150.7944,-144.2569 -154.0993,-144.2569 -156.1725,-144.2569 -156.8909,-144.2569 -156.3525,-142.7109 -154.7987,-138.2497 -152.3219,-131.1383 -149.0144,-121.6416 -144.9684,-110.0247 -140.2763,-96.5527 -135.0304,-81.4906 -129.323,-65.1033 -123.2464,-47.6559 -116.8928,-29.4135 -110.3547,-10.641 -103.7242,8.3965 -97.0937,27.434 -90.5556,46.2065 -84.202,64.4489 -78.1254,81.8963 -72.418,98.2836 -67.1721,113.3457 -62.48,126.8178 -58.434,138.4346 -55.1265,147.9313 -52.6497,155.0427 -51.0959,159.504 -50.5575,161.0499 -50.3774,159.504 -49.858,155.0427 -49.0299,147.9313 -47.9241,138.4346 -46.5715,126.8178 -45.0028,113.3457 -43.249,98.2836 -41.3409,81.8963 -39.3093,64.4489 -37.1852,46.2065 -34.9993,27.434 -32.7826,8.3965 -30.5659,-10.641 -28.38,-29.4135 -26.2559,-47.6559 -24.2244,-65.1033 -22.3162,-81.4906 -20.5624,-96.5527 -18.9937,-110.0247 -17.6411,-121.6416 -16.5353,-131.1383 -15.7072,-138.2497 -15.1878,-142.7109" stroke="black" /><polygon fill="none" points="-53.5303,206.18 -53.3602,206.6678 -52.8692,208.0754 -52.0864,210.3194 -51.0411,213.3159 -49.7625,216.9815 -48.2797,221.2324 -46.6218,225.985 -44.8181,231.1558 -42.8977,236.6611 -40.8898,242.4172 -38.8236,248.3406 -36.7282,254.3477 -34.6328,260.3547 -32.5665,266.2781 -30.5586,272.0342 -28.6382,277.5395 -26.8345,282.7103 -25.1767,287.463 -23.6938,291.7139 -22.4152,295.3794 -21.3699,298.376 -20.5872,300.6199 -20.0962,302.0276 -19.926,302.5154 -20.6861,301.7515 -22.8794,299.5473 -26.3757,296.0336 -31.0447,291.3414 -36.756,285.6016 -43.3794,278.9452 -50.7847,271.5031 -58.8413,263.4063 -67.4192,254.7858 -76.388,245.7724 -85.6174,236.4971 -94.977,227.0908 -104.3367,217.6846 -113.5661,208.4093 -122.5348,199.3959 -131.1127,190.7753 -139.1694,182.6785 -146.5746,175.2364 -153.198,168.58 -158.9094,162.8403 -163.5784,158.1481 -167.0747,154.6344 -169.268,152.4301 -170.0281,151.6663 -170.5537,150.4449 -172.0705,146.9203 -174.4883,141.3019 -177.717,133.799 -181.6667,124.6211 -186.247,113.9775 -191.368,102.0776 -196.9395,89.1308 -202.8714,75.3465 -209.0737,60.934 -215.4561,46.1028 -221.9287,31.0621 -228.4012,16.0215 -234.7837,1.1903 -240.9859,-13.2222 -246.9178,-27.0065 -252.4893,-39.9533 -257.6103,-51.8532 -262.1907,-62.4968 -266.1403,-71.6747 -269.369,-79.1776 -271.7869,-84.796 -273.3036,-88.3206 -273.8293,-89.542 -272.7137,-88.0445 -269.4947,-83.7234 -264.3633,-76.8352 -257.5108,-67.6366 -249.1285,-56.3845 -239.4075,-43.3354 -228.5392,-28.7461 -216.7147,-12.8733 -204.1253,4.0263 -190.9622,21.696 -177.4166,39.8792 -163.6798,58.319 -149.943,76.7588 -136.3974,94.942 -123.2343,112.6117 -110.6449,129.5113 -98.8204,145.3841 -87.9521,159.9734 -78.2311,173.0225 -69.8488,184.2746 -62.9963,193.4732 -57.8649,200.3614 -54.6459,204.6825" stroke="black" /><polygon fill="none" points="-154.4974,-240.6807 -155.1517,-240.2855 -157.04,-239.1448 -160.0501,-237.3266 -164.0697,-234.8985 -168.9867,-231.9283 -174.689,-228.4838 -181.0643,-224.6327 -188.0005,-220.4428 -195.3854,-215.9819 -203.1068,-211.3177 -211.0526,-206.518 -219.1105,-201.6505 -227.1685,-196.783 -235.1142,-191.9833 -242.8356,-187.3191 -250.2205,-182.8581 -257.1567,-178.6683 -263.532,-174.8172 -269.2343,-171.3727 -274.1513,-168.4025 -278.171,-165.9744 -281.181,-164.1561 -283.0693,-163.0155 -283.7236,-162.6202 -283.1942,-162.6202 -281.6665,-162.6202 -279.2312,-162.6202 -275.9791,-162.6202 -272.001,-162.6202 -267.3875,-162.6202 -262.2295,-162.6202 -256.6178,-162.6202 -250.643,-162.6202 -244.3959,-162.6202 -237.9673,-162.6202 -231.448,-162.6202 -224.9287,-162.6202 -218.5001,-162.6202 -212.2531,-162.6202 -206.2783,-162.6202 -200.6665,-162.6202 -195.5085,-162.6202 -190.8951,-162.6202 -186.9169,-162.6202 -183.6648,-162.6202 -181.2295,-162.6202 -179.7018,-162.6202 -179.1724,-162.6202 -179.0474,-163.0155 -178.6869,-164.1561 -178.1121,-165.9744 -177.3446,-168.4025 -176.4057,-171.3727 -175.3169,-174.8172 -174.0996,-178.6683 -172.7752,-182.8581 -171.3651,-187.3191 -169.8907,-191.9833 -168.3735,-196.783 -166.8349,-201.6505 -165.2963,-206.518 -163.7791,-211.3177 -162.3047,-215.9819 -160.8946,-220.4428 -159.5702,-224.6327 -158.3528,-228.4838 -157.264,-231.9283 -156.3252,-234.8985 -155.5576,-237.3266 -154.9829,-239.1448 -154.6223,-240.2855" stroke="black" /><polygon fill="none" points="-135.0135,-244.9023 -135.1417,-244.4856 -135.5118,-243.2833 -136.1017,-241.3667 -136.8895,-238.8073 -137.8531,-235.6765 -138.9707,-232.0457 -140.2201,-227.9863 -141.5795,-223.5699 -143.0268,-218.8677 -144.5401,-213.9513 -146.0973,-208.892 -147.6765,-203.7612 -149.2557,-198.6305 -150.8129,-193.5712 -152.3262,-188.6548 -153.7735,-183.9526 -155.1329,-179.5361 -156.3823,-175.4768 -157.4998,-171.846 -158.4635,-168.7152 -159.2513,-166.1558 -159.8412,-164.2392 -160.2112,-163.0369 -160.3395,-162.6202 -159.6654,-162.6202 -157.7201,-162.6202 -154.6193,-162.6202 -150.4784,-162.6202 -145.4131,-162.6202 -139.5388,-162.6202 -132.9711,-162.6202 -125.8257,-162.6202 -118.218,-162.6202 -110.2637,-162.6202 -102.0782,-162.6202 -93.7772,-162.6202 -85.4762,-162.6202 -77.2907,-162.6202 -69.3364,-162.6202 -61.7287,-162.6202 -54.5833,-162.6202 -48.0156,-162.6202 -42.1414,-162.6202 -37.076,-162.6202 -32.9351,-162.6202 -29.8343,-162.6202 -27.889,-162.6202 -27.2149,-162.6202 -27.7608,-163.0369 -29.336,-164.2392 -31.8469,-166.1558 -35.2,-168.7152 -39.3017,-171.846 -44.0584,-175.4768 -49.3766,-179.5361 -55.1627,-183.9526 -61.3231,-188.6548 -67.7642,-193.5712 -74.3924,-198.6305 -81.1142,-203.7612 -87.836,-208.892 -94.4643,-213.9513 -100.9054,-218.8677 -107.0657,-223.5699 -112.8518,-227.9863 -118.17,-232.0457 -122.9267,-235.6765 -127.0284,-238.8073 -130.3815,-241.3667 -132.8925,-243.2833 -134.4676,-244.4856" stroke="black" /></svg>