<?xml version="1.0" encoding="utf-8" ?>
<svg baseProfile="tiny" height="1837.705mm" version="1.2" viewBox="-1291.196850393701,-918.8503937007877,2582.389763779528,1837.7047244094492" width="2582.390mm" xmlns="http://www.w3.org/2000/svg" xmlns:ev="http://www.w3.org/2001/xml-events" xmlns:xlink="http://www.w3.org/1999/xlink"><defs /><polygon fill="none" points="0.0,918.8543 6.5382,912.1783 25.4054,892.9131 55.4809,862.2032 95.6439,821.1932 144.7735,771.0274 201.7489,712.8504 265.4492,647.8066 334.7537,577.0404 408.5415,501.6964 485.6918,422.9189 565.0837,341.8526 645.5965,259.6417 726.1092,177.4309 805.5011,96.3645 882.6514,17.5871 956.4392,-57.7569 1025.7437,-128.5231 1089.444,-193.5669 1146.4194,-251.744 1195.549,-301.9097 1235.712,-342.9198 1265.7875,-373.6296 1284.6548,-392.8948 1291.1929,-399.5709 1288.2732,-402.2003 1279.8478,-409.7882 1266.4172,-421.8837 1248.4819,-438.036 1226.5425,-457.7945 1201.0994,-480.7083 1172.6532,-506.3267 1141.7044,-534.1989 1108.7536,-563.8742 1074.3011,-594.9017 1038.8477,-626.8308 1002.8937,-659.2106 966.9397,-691.5905 931.4863,-723.5196 897.0338,-754.5471 864.083,-784.2224 833.1342,-812.0946 804.688,-837.713 779.2449,-860.6268 757.3055,-880.3852 739.3702,-896.5376 725.9396,-908.6331 717.5142,-916.2209 714.5945,-918.8504 710.976,-918.8504 700.5342,-918.8504 683.8893,-918.8504 661.6616,-918.8504 634.4714,-918.8504 602.9391,-918.8504 567.6849,-918.8504 529.3293,-918.8504 488.4923,-918.8504 445.7945,-918.8504 401.856,-918.8504 357.2972,-918.8504 312.7385,-918.8504 268.8,-918.8504 226.1022,-918.8504 185.2652,-918.8504 146.9095,-918.8504 111.6554,-918.8504 80.1231,-918.8504 52.9329,-918.8504 30.7052,-918.8504 14.0603,-918.8504 3.6185,-918.8504 0.0,-918.8504 -3.6185,-918.8504 -14.0603,-918.8504 -30.7052,-918.8504 -52.9329,-918.8504 -80.1231,-918.8504 -111.6554,-918.8504 -146.9095,-918.8504 -185.2652,-918.8504 -226.1022,-918.8504 -268.8,-918.8504 -312.7385,-918.8504 -357.2972,-918.8504 -401.856,-918.8504 -445.7945,-918.8504 -488.4923,-918.8504 -529.3293,-918.8504 -567.6849,-918.8504 -602.9391,-918.8504 -634.4714,-918.8504 -661.6616,-918.8504 -683.8893,-918.8504 -700.5342,-918.8504 -710.976,-918.8504 -714.5945,-918.8504 -717.5142,-916.2209 -725.9397,-908.6331 -739.3704,-896.5376 -757.3058,-880.3852 -779.2454,-860.6268 -804.6886,-837.713 -833.135,-812.0946 -864.084,-784.2224 -897.0351,-754.5471 -931.4877,-723.5196 -966.9414,-691.5905 -1002.8957,-659.2106 -1038.8499,-626.8308 -1074.3036,-594.9017 -1108.7563,-563.8742 -1141.7073,-534.1989 -1172.6563,-506.3267 -1201.1027,-480.7083 -1226.546,-457.7945 -1248.4856,-438.036 -1266.421,-421.8837 -1279.8517,-409.7882 -1288.2771,-402.2003 -1291.1969,-399.5709 -1284.6587,-392.8948 -1265.7914,-373.6296 -1235.7157,-342.9198 -1195.5526,-301.9097 -1146.4229,-251.744 -1089.4473,-193.5669 -1025.7468,-128.5231 -956.4421,-57.7569 -882.6541,17.5871 -805.5036,96.3645 -726.1114,177.4309 -645.5984,259.6417 -565.0854,341.8526 -485.6933,422.9189 -408.5428,501.6964 -334.7547,577.0404 -265.45,647.8066 -201.7495,712.8504 -144.774,771.0274 -95.6442,821.1932 -55.4811,862.2032 -25.4055,892.9131 -6.5382,912.1783" stroke="black" /><polygon fill="none" points="82.1929,-859.9055 84.2923,-859.9055 90.3507,-859.9055 100.008,-859.9055 112.9045,-859.9055 128.6802,-859.9055 146.9751,-859.9055 167.4295,-859.9055 189.6834,-859.9055 213.3769,-859.9055 238.1501,-859.9055 263.6432,-859.9055 289.4961,-859.9055 315.349,-859.9055 340.842,-859.9055 365.6152,-859.9055 389.3087,-859.9055 411.5626,-859.9055 432.017,-859.9055 450.312,-859.9055 466.0876,-859.9055 478.9841,-859.9055 488.6414,-859.9055 494.6998,-859.9055 496.7992,-859.9055 496.0919,-859.1333 494.0509,-856.9049 490.7973,-853.3528 486.4525,-848.6092 481.1376,-842.8066 474.974,-836.0774 468.0829,-828.5539 460.5856,-820.3685 452.6032,-811.6536 444.2571,-802.5415 435.6685,-793.1647 426.9587,-783.6555 418.2488,-774.1463 409.6602,-764.7695 401.3141,-755.6575 393.3317,-746.9425 385.8344,-738.7571 378.9433,-731.2336 372.7797,-724.5044 367.4649,-718.7018 363.12,-713.9582 359.8665,-710.4061 357.8254,-708.1777 357.1181,-707.4055 355.726,-708.1777 351.7087,-710.4061 345.3049,-713.9582 336.7533,-718.7018 326.2924,-724.5044 314.161,-731.2336 300.5978,-738.7571 285.8412,-746.9425 270.1301,-755.6575 253.703,-764.7695 236.7986,-774.1463 219.6555,-783.6555 202.5125,-793.1647 185.6081,-802.5415 169.181,-811.6536 153.4698,-820.3685 138.7133,-828.5539 125.15,-836.0774 113.0186,-842.8066 102.5577,-848.6092 94.0061,-853.3528 87.6023,-856.9049 83.585,-859.1333" stroke="black" /><polygon fill="none" points="650.4016,-859.9055 650.6969,-859.9055 651.549,-859.9055 652.9073,-859.9055 654.7212,-859.9055 656.9401,-859.9055 659.5133,-859.9055 662.3902,-859.9055 665.5203,-859.9055 668.8528,-859.9055 672.3372,-859.9055 675.9228,-859.9055 679.5591,-859.9055 683.1953,-859.9055 686.7809,-859.9055 690.2653,-859.9055 693.5978,-859.9055 696.7279,-859.9055 699.6048,-859.9055 702.178,-859.9055 704.3969,-859.9055 706.2108,-859.9055 707.5691,-859.9055 708.4212,-859.9055 708.7165,-859.9055 709.0953,-859.5757 710.1882,-858.6241 711.9304,-857.1071 714.2569,-855.0814 717.1029,-852.6033 720.4033,-849.7296 724.0933,-846.5166 728.1079,-843.021 732.3822,-839.2992 736.8513,-835.4079 741.4503,-831.4035 746.1142,-827.3425 750.7781,-823.2816 755.377,-819.2771 759.8461,-815.3858 764.1204,-811.664 768.1351,-808.1684 771.825,-804.9555 775.1255,-802.0817 777.9714,-799.6037 780.298,-797.5779 782.0401,-796.0609 783.1331,-795.1093 783.5118,-794.7795 782.8378,-795.1093 780.8927,-796.0609 777.7922,-797.5779 773.6518,-799.6037 768.587,-802.0817 762.7133,-804.9555 756.1464,-808.1684 749.0017,-811.664 741.3949,-815.3858 733.4414,-819.2771 725.2568,-823.2816 716.9567,-827.3425 708.6566,-831.4035 700.472,-835.4079 692.5185,-839.2992 684.9116,-843.021 677.767,-846.5166 671.2,-849.7296 665.3264,-852.6033 660.2616,-855.0814 656.1212,-857.1071 653.0206,-858.6241 651.0756,-859.5757" stroke="black" /><polygon fill="none" points="562.4331,-852.7047 564.1341,-851.851 569.0429,-849.3873 576.8679,-845.4601 587.3173,-840.2157 600.0996,-833.8004 614.9232,-826.3606 631.4965,-818.0427 649.5279,-808.993 668.7256,-799.3579 688.7983,-789.2837 709.4541,-778.9168 730.4016,-768.4035 751.349,-757.8903 772.0049,-747.5234 792.0775,-737.4492 811.2753,-727.8141 829.3066,-718.7644 845.8799,-710.4465 860.7035,-703.0067 873.4859,-696.5914 883.9353,-691.347 891.7602,-687.4198 896.669,-684.9561 898.3701,-684.1024 897.8309,-682.857 896.2748,-679.2633 893.7944,-673.5348 890.4821,-665.8848 886.4302,-656.527 881.7313,-645.6747 876.4778,-633.5415 870.762,-620.3409 864.6766,-606.2864 858.3138,-591.5913 851.7661,-576.4693 845.126,-561.1339 838.4859,-545.7984 831.9382,-530.6764 825.5754,-515.9814 819.4899,-501.9268 813.7742,-488.7262 808.5207,-476.593 803.8218,-465.7408 799.7699,-456.3829 796.4576,-448.733 793.9771,-443.0044 792.4211,-439.4107 791.8819,-438.1654 789.892,-439.385 784.1496,-442.9046 774.9958,-448.5151 762.7719,-456.0073 747.819,-465.1722 730.4781,-475.8007 711.0904,-487.6837 689.9971,-500.6121 667.5392,-514.3769 644.058,-528.7689 619.8944,-543.5791 595.3898,-558.5984 570.8851,-573.6177 546.7216,-588.4279 523.2403,-602.8199 500.7824,-616.5847 479.6891,-629.5132 460.3014,-641.3962 442.9605,-652.0247 428.0076,-661.1896 415.7837,-668.6818 406.63,-674.2922 400.8876,-677.8118 398.8976,-679.0315 399.7257,-679.9109 402.1153,-682.4487 405.9246,-686.494 411.0114,-691.8962 417.2339,-698.5044 424.45,-706.1679 432.518,-714.736 441.2957,-724.0579 450.6413,-733.9828 460.4127,-744.36 470.468,-755.0387 480.6654,-765.8681 490.8627,-776.6976 500.918,-787.3763 510.6894,-797.7534 520.035,-807.6783 528.8127,-817.0002 536.8807,-825.5683 544.0968,-833.2318 550.3193,-839.84 555.4062,-845.2422 559.2154,-849.2875 561.605,-851.8253" stroke="black" /><polygon fill="none" points="928.189,-631.2835 928.6393,-630.2133 929.9388,-627.1253 932.0103,-622.2027 934.7766,-615.629 938.1605,-607.5878 942.0848,-598.2624 946.4722,-587.8363 951.2457,-576.493 956.328,-564.4159 961.6418,-551.7884 967.1101,-538.794 972.6555,-525.6161 978.201,-512.4383 983.6692,-499.4439 988.9831,-486.8164 994.0653,-474.7393 998.8388,-463.3959 1003.2263,-452.9699 1007.1505,-443.6445 1010.5344,-435.6032 1013.3007,-429.0296 1015.3722,-424.107 1016.6717,-421.0189 1017.122,-419.9488 1016.214,-419.9488 1013.5937,-419.9488 1009.4168,-419.9488 1003.8389,-419.9488 997.0157,-419.9488 989.1029,-419.9488 980.2561,-419.9488 970.6309,-419.9488 960.3832,-419.9488 949.6684,-419.9488 938.6424,-419.9488 927.4606,-419.9488 916.2789,-419.9488 905.2528,-419.9488 894.5381,-419.9488 884.2903,-419.9488 874.6652,-419.9488 865.8184,-419.9488 857.9056,-419.9488 851.0824,-419.9488 845.5045,-419.9488 841.3276,-419.9488 838.7072,-419.9488 837.7992,-419.9488 838.2569,-421.0189 839.5777,-424.107 841.6831,-429.0296 844.4948,-435.6032 847.9341,-443.6445 851.9226,-452.9699 856.3819,-463.3959 861.2336,-474.7393 866.3991,-486.8164 871.8,-499.4439 877.3578,-512.4383 882.9941,-525.6161 888.6304,-538.794 894.1882,-551.7884 899.5891,-564.4159 904.7546,-576.493 909.6062,-587.8363 914.0656,-598.2624 918.0541,-607.5878 921.4934,-615.629 924.305,-622.2027 926.4105,-627.1253 927.7313,-630.2133" stroke="black" /><polygon fill="none" points="990.9764,-605.3937 992.037,-604.4547 995.0976,-601.7449 999.9763,-597.4254 1006.4914,-591.657 1014.461,-584.6009 1023.7034,-576.4179 1034.0366,-567.2691 1045.2789,-557.3154 1057.2485,-546.7178 1069.7636,-535.6372 1082.6423,-524.2347 1095.7028,-512.6713 1108.7633,-501.1078 1121.6419,-489.7053 1134.157,-478.6247 1146.1266,-468.0271 1157.3689,-458.0734 1167.7021,-448.9246 1176.9445,-440.7416 1184.9141,-433.6855 1191.4292,-427.9172 1196.308,-423.5976 1199.3685,-420.8878 1200.4291,-419.9488 1199.7593,-419.9488 1197.8263,-419.9488 1194.7451,-419.9488 1190.6304,-419.9488 1185.597,-419.9488 1179.7598,-419.9488 1173.2337,-419.9488 1166.1334,-419.9488 1158.5738,-419.9488 1150.6697,-419.9488 1142.536,-419.9488 1134.2874,-419.9488 1126.0388,-419.9488 1117.9051,-419.9488 1110.001,-419.9488 1102.4414,-419.9488 1095.3411,-419.9488 1088.815,-419.9488 1082.9778,-419.9488 1077.9444,-419.9488 1073.8297,-419.9488 1070.7485,-419.9488 1068.8155,-419.9488 1068.1457,-419.9488 1067.7549,-420.8878 1066.6273,-423.5976 1064.8298,-427.9172 1062.4294,-433.6855 1059.4932,-440.7416 1056.088,-448.9246 1052.2809,-458.0734 1048.1388,-468.0271 1043.7288,-478.6247 1039.1179,-489.7053 1034.3729,-501.1078 1029.561,-512.6713 1024.7491,-524.2347 1020.0042,-535.6372 1015.3932,-546.7178 1010.9832,-557.3154 1006.8412,-567.2691 1003.0341,-576.4179 999.6289,-584.6009 996.6926,-591.657 994.2922,-597.4254 992.4948,-601.7449 991.3671,-604.4547" stroke="black" /><polygon fill="none" points="1064.5984,-372.5276 1065.2749,-372.5276 1067.2272,-372.5276 1070.3392,-372.5276 1074.4949,-372.5276 1079.5784,-372.5276 1085.4738,-372.5276 1092.065,-372.5276 1099.2361,-372.5276 1106.871,-372.5276 1114.8539,-372.5276 1123.0688,-372.5276 1131.3996,-372.5276 1139.7304,-372.5276 1147.9453,-372.5276 1155.9282,-372.5276 1163.5631,-372.5276 1170.7342,-372.5276 1177.3254,-372.5276 1183.2208,-372.5276 1188.3043,-372.5276 1192.4601,-372.5276 1195.572,-372.5276 1197.5243,-372.5276 1198.2008,-372.5276 1195.9874,-370.2957 1189.6001,-363.8552 1179.4184,-353.5887 1165.8217,-339.8787 1149.1894,-323.1079 1129.9011,-303.6588 1108.3361,-281.9142 1084.8739,-258.2565 1059.8939,-233.0684 1033.7756,-206.7325 1006.8984,-179.6314 979.6417,-152.1476 952.3851,-124.6639 925.5079,-97.5628 899.3896,-71.2269 874.4096,-46.0388 850.9474,-22.3811 829.3824,-0.6364 810.094,18.8126 793.4618,35.5834 779.8651,49.2934 769.6834,59.5599 763.2961,66.0004 761.0827,68.2323 762.6196,66.0004 767.0546,59.5599 774.1244,49.2934 783.5653,35.5834 795.114,18.8126 808.507,-0.6364 823.4808,-22.3811 839.7719,-46.0388 857.117,-71.2269 875.2524,-97.5628 893.9147,-124.6639 912.8406,-152.1476 931.7664,-179.6314 950.4287,-206.7325 968.5641,-233.0684 985.9092,-258.2565 1002.2003,-281.9142 1017.1741,-303.6588 1030.5671,-323.1079 1042.1158,-339.8787 1051.5567,-353.5887 1058.6265,-363.8552 1063.0615,-370.2957" stroke="black" /><polygon fill="none" points="815.6929,-372.5276 816.6811,-372.5276 819.5327,-372.5276 824.0782,-372.5276 830.1484,-372.5276 837.5738,-372.5276 846.185,-372.5276 855.8126,-372.5276 866.2873,-372.5276 877.4395,-372.5276 889.0999,-372.5276 901.0991,-372.5276 913.2677,-372.5276 925.4363,-372.5276 937.4355,-372.5276 949.096,-372.5276 960.2482,-372.5276 970.7228,-372.5276 980.3504,-372.5276 988.9616,-372.5276 996.387,-372.5276 1002.4572,-372.5276 1007.0028,-372.5276 1009.8543,-372.5276 1010.8425,-372.5276 1008.4157,-369.087 1001.4124,-359.1585 990.2488,-343.332 975.3409,-322.1971 957.1047,-296.3438 935.9563,-266.3618 912.3117,-232.841 886.5869,-196.3711 859.198,-157.542 830.5609,-116.9434 801.0918,-75.1652 771.2067,-32.7972 741.3216,9.5707 711.8524,51.3489 683.2154,91.9475 655.8265,130.7766 630.1017,167.2465 606.4571,200.7673 585.3086,230.7493 567.0725,256.6027 552.1646,277.7375 541.001,293.5641 533.9977,303.4925 531.5709,306.9331 533.0096,303.4925 537.1612,293.5641 543.7792,277.7375 552.6169,256.6027 563.4277,230.7493 575.9649,200.7673 589.982,167.2465 605.2321,130.7766 621.4689,91.9475 638.4455,51.3489 655.9154,9.5707 673.6319,-32.7972 691.3484,-75.1652 708.8183,-116.9434 725.7949,-157.542 742.0316,-196.3711 757.2818,-232.841 771.2988,-266.3618 783.8361,-296.3438 794.6468,-322.1971 803.4845,-343.332 810.1025,-359.1585 814.2542,-369.087" stroke="black" /><polygon fill="none" points="458.2953,-372.5276 459.7307,-372.5276 463.8728,-372.5276 470.4756,-372.5276 479.2929,-372.5276 490.0789,-372.5276 502.5872,-372.5276 516.572,-372.5276 531.7871,-372.5276 547.9865,-372.5276 564.9241,-372.5276 582.3538,-372.5276 600.0295,-372.5276 617.7053,-372.5276 635.135,-372.5276 652.0726,-372.5276 668.2719,-372.5276 683.4871,-372.5276 697.4718,-372.5276 709.9802,-372.5276 720.7661,-372.5276 729.5835,-372.5276 736.1863,-372.5276 740.3284,-372.5276 741.7638,-372.5276 739.0199,-368.7257 731.1018,-357.7547 718.48,-340.2661 701.6247,-316.9119 681.0063,-288.3437 657.0953,-255.2133 630.3621,-218.1725 601.2769,-177.8728 570.3102,-134.9663 537.9324,-90.1044 504.6138,-43.9391 470.8248,2.878 437.0358,49.695 403.7172,95.8603 371.3394,140.7222 340.3727,183.6288 311.2875,223.9284 284.5543,260.9692 260.6433,294.0996 240.0249,322.6678 223.1696,346.0221 210.5478,363.5106 202.6297,374.4816 199.8858,378.2835 201.1943,374.4816 204.9703,363.5106 210.9894,346.0221 219.0273,322.6678 228.8597,294.0996 240.2623,260.9692 253.0108,223.9284 266.8809,183.6288 281.6482,140.7222 297.0885,95.8603 312.9773,49.695 329.0906,2.878 345.2038,-43.9391 361.0926,-90.1044 376.5329,-134.9663 391.3002,-177.8728 405.1703,-218.1725 417.9188,-255.2133 429.3214,-288.3437 439.1538,-316.9119 447.1917,-340.2661 453.2108,-357.7547 456.9868,-368.7257" stroke="black" /><polygon fill="none" points="38.7559,-372.5276 40.6112,-372.5276 45.965,-372.5276 54.4994,-372.5276 65.8962,-372.5276 79.8374,-372.5276 96.0049,-372.5276 114.0808,-372.5276 133.7469,-372.5276 154.6852,-372.5276 176.5776,-372.5276 199.1062,-372.5276 221.9528,-372.5276 244.7994,-372.5276 267.3279,-372.5276 289.2203,-372.5276 310.1586,-372.5276 329.8247,-372.5276 347.9006,-372.5276 364.0681,-372.5276 378.0093,-372.5276 389.4061,-372.5276 397.9405,-372.5276 403.2943,-372.5276 405.1496,-372.5276 403.7592,-368.5353 399.7467,-357.0146 393.3506,-338.6501 384.8093,-314.126 374.361,-284.1267 362.2442,-249.3367 348.6972,-210.4404 333.9584,-168.122 318.2662,-123.0661 301.8589,-75.9571 284.9748,-27.4792 267.8524,21.6831 250.7299,70.8453 233.8459,119.3232 217.4385,166.4323 201.7463,211.4882 187.0075,253.8065 173.4605,292.7029 161.3437,327.4929 150.8955,357.4921 142.3541,382.0162 135.958,400.3808 131.9456,411.9014 130.5551,415.8937 130.0903,411.9014 128.7489,400.3808 126.6106,382.0162 123.7552,357.4921 120.2622,327.4929 116.2115,292.7029 111.6826,253.8065 106.7553,211.4882 101.5093,166.4323 96.0242,119.3232 90.3797,70.8453 84.6555,21.6831 78.9313,-27.4792 73.2869,-75.9571 67.8018,-123.0661 62.5557,-168.122 57.6284,-210.4404 53.0995,-249.3367 49.0488,-284.1267 45.5558,-314.126 42.7004,-338.6501 40.5621,-357.0146 39.2207,-368.5353" stroke="black" /><polygon fill="none" points="138.2362,532.437 137.7968,533.6967 136.5288,537.3319 134.5074,543.1266 131.8081,550.8648 128.5062,560.3307 124.6769,571.3082 120.3957,583.5814 115.7378,596.9344 110.7786,611.1512 105.5935,626.0158 100.2576,641.3123 94.8465,656.8248 89.4353,672.3373 84.0995,687.6338 78.9143,702.4984 73.9551,716.7152 69.2972,730.0682 65.016,742.3414 61.1867,753.3189 57.8848,762.7848 55.1855,770.523 53.1642,776.3177 51.8961,779.9529 51.4567,781.2126 53.4195,779.24 59.0835,773.5478 68.1123,764.4741 80.1694,752.357 94.9184,737.5346 112.0226,720.3452 131.1458,701.1269 151.9513,680.2178 174.1027,657.9562 197.2636,634.68 221.0974,610.7276 245.2677,586.437 269.438,562.1464 293.2718,538.194 316.4327,514.9178 338.5841,492.6562 359.3897,471.7471 378.5128,452.5288 395.6171,435.3394 410.366,420.5171 422.4231,408.3999 431.4519,399.3262 437.116,393.634 439.0787,391.6614 440.4361,388.5073 444.353,379.4054 450.5967,364.8965 458.9347,345.5211 469.1341,321.8202 480.9624,294.3343 494.1867,263.6041 508.5745,230.1705 523.8931,194.574 539.9097,157.3553 556.3916,119.0553 573.1063,80.2146 589.821,41.3738 606.3029,3.0738 622.3195,-34.1448 637.6381,-69.7413 652.0259,-103.175 665.2502,-133.9051 677.0785,-161.391 687.2779,-185.092 695.6159,-204.4673 701.8596,-218.9763 705.7765,-228.0782 707.1339,-231.2323 704.2532,-227.3653 695.9403,-216.2064 682.689,-198.4184 664.9933,-174.6642 643.3469,-145.6067 618.2436,-111.909 590.1773,-74.2337 559.6419,-33.2439 527.1311,10.3975 493.1388,56.0276 458.1588,102.9835 422.685,150.6024 387.2112,198.2212 352.2313,245.1771 318.239,290.8073 285.7282,334.4487 255.1928,375.4384 227.1265,413.1137 202.0232,446.8115 180.3768,475.8689 162.681,499.6231 149.4298,517.4111 141.1169,528.57" stroke="black" /><polygon fill="none" points="0.0,806.811 0.4813,805.1709 1.8701,800.438 4.0839,792.8934 7.0402,782.8183 10.6566,770.4939 14.8505,756.2014 19.5394,740.2219 24.6409,722.8365 30.0723,704.3265 35.7512,684.973 41.5952,665.0572 47.5217,644.8602 53.4481,624.6632 59.2921,604.7474 64.971,585.3939 70.4024,566.8839 75.5039,549.4986 80.1928,533.5191 84.3867,519.2265 88.0031,506.9022 90.9594,496.8271 93.1732,489.2825 94.562,484.5496 95.0433,482.9094 94.562,479.3451 93.1732,469.0592 90.9594,452.663 88.0031,430.7674 84.3867,403.9835 80.1928,372.9224 75.5039,338.195 70.4024,300.4124 64.971,260.1856 59.2921,218.1257 53.4481,174.8438 47.5217,130.9508 41.5952,87.0578 35.7512,43.7758 30.0723,1.716 24.6409,-38.5108 19.5394,-76.2934 14.8505,-111.0208 10.6566,-142.082 7.0402,-168.8659 4.0839,-190.7614 1.8701,-207.1576 0.4813,-217.4435 0.0,-221.0079 -0.4813,-217.4435 -1.8701,-207.1576 -4.0839,-190.7614 -7.0402,-168.8659 -10.6566,-142.082 -14.8505,-111.0208 -19.5394,-76.2934 -24.6409,-38.5108 -30.0723,1.716 -35.7512,43.7758 -41.5952,87.0578 -47.5217,130.9508 -53.4481,174.8438 -59.2921,218.1257 -64.971,260.1856 -70.4024,300.4124 -75.5039,338.195 -80.1928,372.9224 -84.3867,403.9835 -88.0031,430.7674 -90.9594,452.663 -93.1732,469.0592 -94.562,479.3451 -95.0433,482.9094 -94.562,484.5496 -93.1732,489.2825 -90.9594,496.8271 -88.0031,506.9022 -84.3867,519.2265 -80.1928,533.5191 -75.5039,549.4986 -70.4024,566.8839 -64.971,585.3939 -59.2921,604.7474 -53.4481,624.6632 -47.5217,644.8602 -41.5952,665.0572 -35.7512,684.973 -30.0723,704.3265 -24.6409,722.8365 -19.5394,740.2219 -14.8505,756.2014 -10.6566,770.4939 -7.0402,782.8183 -4.0839,792.8934 -1.8701,800.438 -0.4813,805.1709" stroke="black" /><polygon fill="none" points="398.9685,-621.5315 400.6583,-620.5108 405.5347,-617.5652 413.3079,-612.8697 423.6882,-606.5994 436.3861,-598.9293 451.1117,-590.0342 467.5754,-580.0892 485.4876,-569.2693 504.5585,-557.7495 524.4985,-545.7047 545.0178,-533.3099 565.8268,-520.7402 586.6358,-508.1704 607.1551,-495.7756 627.095,-483.7308 646.1659,-472.211 664.0781,-461.3911 680.5418,-451.4461 695.2675,-442.551 707.9653,-434.8809 718.3457,-428.6106 726.1189,-423.9151 730.9952,-420.9696 732.685,-419.9488 731.3179,-419.9488 727.3726,-419.9488 721.0836,-419.9488 712.6853,-419.9488 702.412,-419.9488 690.4982,-419.9488 677.178,-419.9488 662.6861,-419.9488 647.2566,-419.9488 631.124,-419.9488 614.5227,-419.9488 597.687,-419.9488 580.8513,-419.9488 564.25,-419.9488 548.1174,-419.9488 532.688,-419.9488 518.196,-419.9488 504.8759,-419.9488 492.962,-419.9488 482.6887,-419.9488 474.2904,-419.9488 468.0014,-419.9488 464.0561,-419.9488 462.689,-419.9488 462.3663,-420.9696 461.4352,-423.9151 459.951,-428.6106 457.9689,-434.8809 455.5444,-442.551 452.7327,-451.4461 449.589,-461.3911 446.1689,-472.211 442.5274,-483.7308 438.72,-495.7756 434.8021,-508.1704 430.8287,-520.7402 426.8554,-533.3099 422.9374,-545.7047 419.1301,-557.7495 415.4886,-569.2693 412.0684,-580.0892 408.9248,-590.0342 406.1131,-598.9293 403.6885,-606.5994 401.7065,-612.8697 400.2223,-617.5652 399.2912,-620.5108" stroke="black" /><polygon fill="none" points="348.6535,-632.4331 348.9847,-631.3571 349.9405,-628.2522 351.4639,-623.3029 353.4984,-616.6935 355.9871,-608.6085 358.8732,-599.2324 362.0999,-588.7496 365.6105,-577.3446 369.3483,-565.2017 373.2563,-552.5055 377.2779,-539.4405 381.3563,-526.1909 385.4347,-512.9414 389.4563,-499.8763 393.3643,-487.1802 397.1021,-475.0373 400.6127,-463.6323 403.8394,-453.1495 406.7255,-443.7734 409.2142,-435.6884 411.2487,-429.079 412.7721,-424.1296 413.7279,-421.0248 414.0591,-419.9488 412.3183,-419.9488 407.2949,-419.9488 399.2873,-419.9488 388.5939,-419.9488 375.5132,-419.9488 360.3435,-419.9488 343.3833,-419.9488 324.931,-419.9488 305.2851,-419.9488 284.7438,-419.9488 263.6058,-419.9488 242.1693,-419.9488 220.7328,-419.9488 199.5947,-419.9488 179.0535,-419.9488 159.4076,-419.9488 140.9553,-419.9488 123.9951,-419.9488 108.8254,-419.9488 95.7447,-419.9488 85.0513,-419.9488 77.0437,-419.9488 72.0203,-419.9488 70.2795,-419.9488 71.6891,-421.0248 75.7568,-424.1296 82.2409,-429.079 90.8998,-435.6884 101.4919,-443.7734 113.7755,-453.1495 127.5089,-463.6323 142.4506,-475.0373 158.3588,-487.1802 174.992,-499.8763 192.1084,-512.9414 209.4665,-526.1909 226.8246,-539.4405 243.9411,-552.5055 260.5743,-565.2017 276.4825,-577.3446 291.4242,-588.7496 305.1576,-599.2324 317.4412,-608.6085 328.0332,-616.6935 336.6922,-623.3029 343.1763,-628.2522 347.244,-631.3571" stroke="black" /><polygon fill="none" points="0.0,-419.9488 1.6092,-421.2166 6.2529,-424.8752 13.6553,-430.7072 23.5404,-438.4953 35.6324,-448.0222 49.6555,-459.0704 65.3338,-471.4226 82.3914,-484.8616 100.5524,-499.17 119.541,-514.1303 139.0814,-529.5254 158.8976,-545.1378 178.7139,-560.7502 198.2542,-576.1453 217.2429,-591.1056 235.4039,-605.414 252.4615,-618.8529 268.1398,-631.2052 282.1628,-642.2534 294.2549,-651.7803 304.14,-659.5683 311.5424,-665.4004 316.1861,-669.0589 317.7953,-670.3268 316.1861,-671.2269 311.5424,-673.8244 304.14,-677.9649 294.2549,-683.4942 282.1628,-690.2579 268.1398,-698.1017 252.4615,-706.8714 235.4039,-716.4127 217.2429,-726.5711 198.2542,-737.1925 178.7139,-748.1224 158.8976,-759.2067 139.0814,-770.291 119.541,-781.2209 100.5524,-791.8423 82.3914,-802.0007 65.3338,-811.5419 49.6555,-820.3116 35.6324,-828.1555 23.5404,-834.9192 13.6553,-840.4485 6.2529,-844.589 1.6092,-847.1865 0.0,-848.0866 -1.6092,-847.1865 -6.253,-844.589 -13.6554,-840.4485 -23.5407,-834.9192 -35.6329,-828.1555 -49.6561,-820.3116 -65.3346,-811.5419 -82.3924,-802.0007 -100.5537,-791.8423 -119.5425,-781.2209 -139.0831,-770.291 -158.8996,-759.2067 -178.7161,-748.1224 -198.2567,-737.1925 -217.2456,-726.5711 -235.4068,-716.4127 -252.4646,-706.8714 -268.1431,-698.1017 -282.1663,-690.2579 -294.2585,-683.4942 -304.1438,-677.9649 -311.5462,-673.8244 -316.19,-671.2269 -317.7992,-670.3268 -316.19,-669.0589 -311.5462,-665.4004 -304.1438,-659.5683 -294.2585,-651.7803 -282.1663,-642.2534 -268.1431,-631.2052 -252.4646,-618.8529 -235.4068,-605.414 -217.2456,-591.1056 -198.2567,-576.1453 -178.7161,-560.7502 -158.8996,-545.1378 -139.0831,-529.5254 -119.5425,-514.1303 -100.5537,-499.17 -82.3924,-484.8616 -65.3346,-471.4226 -49.6561,-459.0704 -35.6329,-448.0222 -23.5407,-438.4953 -13.6554,-430.7072 -6.253,-424.8752 -1.6092,-421.2166" stroke="black" /><polygon fill="none" points="-82.1969,-859.9055 -84.2963,-859.9055 -90.3545,-859.9055 -100.0118,-859.9055 -112.9081,-859.9055 -128.6837,-859.9055 -146.9785,-859.9055 -167.4327,-859.9055 -189.6864,-859.9055 -213.3796,-859.9055 -238.1526,-859.9055 -263.6454,-859.9055 -289.498,-859.9055 -315.3507,-859.9055 -340.8435,-859.9055 -365.6164,-859.9055 -389.3097,-859.9055 -411.5634,-859.9055 -432.0176,-859.9055 -450.3124,-859.9055 -466.0879,-859.9055 -478.9843,-859.9055 -488.6415,-859.9055 -494.6998,-859.9055 -496.7992,-859.9055 -496.0919,-859.1333 -494.0509,-856.9049 -490.7973,-853.3528 -486.4525,-848.6092 -481.1376,-842.8066 -474.974,-836.0774 -468.0829,-828.5539 -460.5856,-820.3685 -452.6032,-811.6536 -444.2571,-802.5415 -435.6685,-793.1647 -426.9587,-783.6555 -418.2488,-774.1463 -409.6602,-764.7695 -401.3141,-755.6575 -393.3317,-746.9425 -385.8344,-738.7571 -378.9433,-731.2336 -372.7797,-724.5044 -367.4649,-718.7018 -363.12,-713.9582 -359.8665,-710.4061 -357.8254,-708.1777 -357.1181,-707.4055 -355.726,-708.1777 -351.7088,-710.4061 -345.3051,-713.9582 -336.7536,-718.7018 -326.2929,-724.5044 -314.1617,-731.2336 -300.5986,-738.7571 -285.8422,-746.9425 -270.1313,-755.6575 -253.7044,-764.7695 -236.8003,-774.1463 -219.6575,-783.6555 -202.5147,-793.1647 -185.6105,-802.5415 -169.1837,-811.6536 -153.4727,-820.3685 -138.7164,-828.5539 -125.1533,-836.0774 -113.0221,-842.8066 -102.5614,-848.6092 -94.0099,-853.3528 -87.6062,-856.9049 -83.589,-859.1333" stroke="black" /><polygon fill="none" points="-650.4016,-859.9055 -650.6969,-859.9055 -651.549,-859.9055 -652.9073,-859.9055 -654.7212,-859.9055 -656.9401,-859.9055 -659.5133,-859.9055 -662.3902,-859.9055 -665.5203,-859.9055 -668.8528,-859.9055 -672.3372,-859.9055 -675.9228,-859.9055 -679.5591,-859.9055 -683.1953,-859.9055 -686.7809,-859.9055 -690.2653,-859.9055 -693.5978,-859.9055 -696.7279,-859.9055 -699.6048,-859.9055 -702.178,-859.9055 -704.3969,-859.9055 -706.2108,-859.9055 -707.5691,-859.9055 -708.4212,-859.9055 -708.7165,-859.9055 -709.0953,-859.5757 -710.1882,-858.6241 -711.9304,-857.1071 -714.2569,-855.0814 -717.1029,-852.6033 -720.4033,-849.7296 -724.0933,-846.5166 -728.1079,-843.021 -732.3822,-839.2992 -736.8513,-835.4079 -741.4503,-831.4035 -746.1142,-827.3425 -750.7781,-823.2816 -755.377,-819.2771 -759.8461,-815.3858 -764.1204,-811.664 -768.1351,-808.1684 -771.825,-804.9555 -775.1255,-802.0817 -777.9714,-799.6037 -780.298,-797.5779 -782.0401,-796.0609 -783.1331,-795.1093 -783.5118,-794.7795 -782.8378,-795.1093 -780.8927,-796.0609 -777.7922,-797.5779 -773.6518,-799.6037 -768.587,-802.0817 -762.7133,-804.9555 -756.1464,-808.1684 -749.0017,-811.664 -741.3949,-815.3858 -733.4414,-819.2771 -725.2568,-823.2816 -716.9567,-827.3425 -708.6566,-831.4035 -700.472,-835.4079 -692.5185,-839.2992 -684.9116,-843.021 -677.767,-846.5166 -671.2,-849.7296 -665.3264,-852.6033 -660.2616,-855.0814 -656.1212,-857.1071 -653.0206,-858.6241 -651.0756,-859.5757" stroke="black" /><polygon fill="none" points="-562.4331,-852.7047 -564.1341,-851.851 -569.0429,-849.3873 -576.8679,-845.4601 -587.3173,-840.2157 -600.0996,-833.8004 -614.9232,-826.3606 -631.4965,-818.0427 -649.5279,-808.993 -668.7256,-799.3579 -688.7983,-789.2837 -709.4541,-778.9168 -730.4016,-768.4035 -751.349,-757.8903 -772.0049,-747.5234 -792.0775,-737.4492 -811.2753,-727.8141 -829.3066,-718.7644 -845.8799,-710.4465 -860.7035,-703.0067 -873.4859,-696.5914 -883.9353,-691.347 -891.7602,-687.4198 -896.669,-684.9561 -898.3701,-684.1024 -897.8309,-682.857 -896.2748,-679.2633 -893.7944,-673.5348 -890.4821,-665.8848 -886.4302,-656.527 -881.7313,-645.6747 -876.4778,-633.5415 -870.762,-620.3409 -864.6766,-606.2864 -858.3138,-591.5913 -851.7661,-576.4693 -845.126,-561.1339 -838.4859,-545.7984 -831.9382,-530.6764 -825.5754,-515.9814 -819.4899,-501.9268 -813.7742,-488.7262 -808.5207,-476.593 -803.8218,-465.7408 -799.7699,-456.3829 -796.4576,-448.733 -793.9771,-443.0044 -792.4211,-439.4107 -791.8819,-438.1654 -789.892,-439.385 -784.1496,-442.9046 -774.996,-448.5151 -762.7722,-456.0073 -747.8194,-465.1722 -730.4787,-475.8007 -711.0912,-487.6837 -689.9981,-500.6121 -667.5405,-514.3769 -644.0594,-528.7689 -619.8961,-543.5791 -595.3917,-558.5984 -570.8873,-573.6177 -546.724,-588.4279 -523.243,-602.8199 -500.7854,-616.5847 -479.6922,-629.5132 -460.3047,-641.3962 -442.964,-652.0247 -428.0112,-661.1896 -415.7874,-668.6818 -406.6338,-674.2922 -400.8915,-677.8118 -398.9016,-679.0315 -399.7296,-679.9109 -402.1192,-682.4487 -405.9283,-686.494 -411.015,-691.8962 -417.2374,-698.5044 -424.4534,-706.1679 -432.5211,-714.736 -441.2986,-724.0579 -450.644,-733.9828 -460.4152,-744.36 -470.4703,-755.0387 -480.6673,-765.8681 -490.8644,-776.6976 -500.9195,-787.3763 -510.6907,-797.7534 -520.036,-807.6783 -528.8135,-817.0002 -536.8813,-825.5683 -544.0973,-833.2318 -550.3196,-839.84 -555.4063,-845.2422 -559.2154,-849.2875 -561.605,-851.8253" stroke="black" /><polygon fill="none" points="-928.1929,-631.2835 -928.6432,-630.2133 -929.9427,-627.1253 -932.0141,-622.2027 -934.7803,-615.629 -938.164,-607.5878 -942.0881,-598.2624 -946.4754,-587.8363 -951.2486,-576.493 -956.3306,-564.4159 -961.6443,-551.7884 -967.1123,-538.794 -972.6575,-525.6161 -978.2027,-512.4383 -983.6707,-499.4439 -988.9843,-486.8164 -994.0663,-474.7393 -998.8396,-463.3959 -1003.2269,-452.9699 -1007.151,-443.6445 -1010.5347,-435.6032 -1013.3009,-429.0296 -1015.3723,-424.107 -1016.6717,-421.0189 -1017.122,-419.9488 -1016.214,-419.9488 -1013.5938,-419.9488 -1009.4169,-419.9488 -1003.8392,-419.9488 -997.0161,-419.9488 -989.1035,-419.9488 -980.2569,-419.9488 -970.632,-419.9488 -960.3844,-419.9488 -949.6699,-419.9488 -938.6441,-419.9488 -927.4626,-419.9488 -916.2811,-419.9488 -905.2553,-419.9488 -894.5408,-419.9488 -884.2932,-419.9488 -874.6683,-419.9488 -865.8217,-419.9488 -857.9091,-419.9488 -851.086,-419.9488 -845.5083,-419.9488 -841.3314,-419.9488 -838.7112,-419.9488 -837.8031,-419.9488 -838.2609,-421.0189 -839.5817,-424.107 -841.6871,-429.0296 -844.4987,-435.6032 -847.938,-443.6445 -851.9266,-452.9699 -856.3859,-463.3959 -861.2375,-474.7393 -866.403,-486.8164 -871.8039,-499.4439 -877.3617,-512.4383 -882.998,-525.6161 -888.6343,-538.794 -894.1921,-551.7884 -899.593,-564.4159 -904.7585,-576.493 -909.6102,-587.8363 -914.0695,-598.2624 -918.0581,-607.5878 -921.4974,-615.629 -924.309,-622.2027 -926.4144,-627.1253 -927.7352,-630.2133" stroke="black" /><polygon fill="none" points="-990.9803,-605.3937 -992.0409,-604.4547 -995.1015,-601.7449 -999.9802,-597.4254 -1006.4953,-591.657 -1014.465,-584.6009 -1023.7073,-576.4179 -1034.0406,-567.2691 -1045.2829,-557.3154 -1057.2525,-546.7178 -1069.7675,-535.6372 -1082.6462,-524.2347 -1095.7067,-512.6713 -1108.7672,-501.1078 -1121.6459,-489.7053 -1134.1609,-478.6247 -1146.1305,-468.0271 -1157.3728,-458.0734 -1167.7061,-448.9246 -1176.9484,-440.7416 -1184.9181,-433.6855 -1191.4331,-427.9172 -1196.3119,-423.5976 -1199.3725,-420.8878 -1200.4331,-419.9488 -1199.7632,-419.9488 -1197.8302,-419.9488 -1194.7488,-419.9488 -1190.634,-419.9488 -1185.6005,-419.9488 -1179.7632,-419.9488 -1173.2368,-419.9488 -1166.1363,-419.9488 -1158.5765,-419.9488 -1150.6722,-419.9488 -1142.5382,-419.9488 -1134.2894,-419.9488 -1126.0405,-419.9488 -1117.9066,-419.9488 -1110.0022,-419.9488 -1102.4424,-419.9488 -1095.3419,-419.9488 -1088.8156,-419.9488 -1082.9782,-419.9488 -1077.9447,-419.9488 -1073.8299,-419.9488 -1070.7485,-419.9488 -1068.8155,-419.9488 -1068.1457,-419.9488 -1067.7549,-420.8878 -1066.6274,-423.5976 -1064.83,-427.9172 -1062.4297,-433.6855 -1059.4936,-440.7416 -1056.0886,-448.9246 -1052.2817,-458.0734 -1048.1398,-468.0271 -1043.7301,-478.6247 -1039.1193,-489.7053 -1034.3747,-501.1078 -1029.563,-512.6713 -1024.7513,-524.2347 -1020.0066,-535.6372 -1015.3959,-546.7178 -1010.9861,-557.3154 -1006.8443,-567.2691 -1003.0374,-576.4179 -999.6324,-584.6009 -996.6963,-591.657 -994.296,-597.4254 -992.4986,-601.7449 -991.3711,-604.4547" stroke="black" /><polygon fill="none" points="-1064.5984,-372.5276 -1065.275,-372.5276 -1067.2273,-372.5276 -1070.3393,-372.5276 -1074.4952,-372.5276 -1079.5789,-372.5276 -1085.4744,-372.5276 -1092.0658,-372.5276 -1099.2371,-372.5276 -1106.8723,-372.5276 -1114.8554,-372.5276 -1123.0705,-372.5276 -1131.4016,-372.5276 -1139.7326,-372.5276 -1147.9477,-372.5276 -1155.9309,-372.5276 -1163.5661,-372.5276 -1170.7373,-372.5276 -1177.3287,-372.5276 -1183.2243,-372.5276 -1188.308,-372.5276 -1192.4638,-372.5276 -1195.5759,-372.5276 -1197.5282,-372.5276 -1198.2047,-372.5276 -1195.9913,-370.2957 -1189.604,-363.8552 -1179.4223,-353.5887 -1165.8256,-339.8787 -1149.1934,-323.1079 -1129.905,-303.6588 -1108.34,-281.9142 -1084.8778,-258.2565 -1059.8978,-233.0684 -1033.7795,-206.7325 -1006.9023,-179.6314 -979.6457,-152.1476 -952.389,-124.6639 -925.5118,-97.5628 -899.3935,-71.2269 -874.4135,-46.0388 -850.9513,-22.3811 -829.3863,-0.6364 -810.098,18.8126 -793.4657,35.5834 -779.869,49.2934 -769.6873,59.5599 -763.3,66.0004 -761.0866,68.2323 -762.6235,66.0004 -767.0585,59.5599 -774.1281,49.2934 -783.569,35.5834 -795.1175,18.8126 -808.5103,-0.6364 -823.4839,-22.3811 -839.7749,-46.0388 -857.1196,-71.2269 -875.2548,-97.5628 -893.9169,-124.6639 -912.8425,-152.1476 -931.7681,-179.6314 -950.4302,-206.7325 -968.5654,-233.0684 -985.9102,-258.2565 -1002.2011,-281.9142 -1017.1747,-303.6588 -1030.5675,-323.1079 -1042.1161,-339.8787 -1051.5569,-353.5887 -1058.6265,-363.8552 -1063.0615,-370.2957" stroke="black" /><polygon fill="none" points="-815.6929,-372.5276 -816.6811,-372.5276 -819.5327,-372.5276 -824.0782,-372.5276 -830.1484,-372.5276 -837.5738,-372.5276 -846.185,-372.5276 -855.8126,-372.5276 -866.2873,-372.5276 -877.4395,-372.5276 -889.0999,-372.5276 -901.0991,-372.5276 -913.2677,-372.5276 -925.4363,-372.5276 -937.4355,-372.5276 -949.096,-372.5276 -960.2482,-372.5276 -970.7228,-372.5276 -980.3504,-372.5276 -988.9616,-372.5276 -996.387,-372.5276 -1002.4572,-372.5276 -1007.0028,-372.5276 -1009.8543,-372.5276 -1010.8425,-372.5276 -1008.4157,-369.087 -1001.4124,-359.1585 -990.2488,-343.332 -975.3409,-322.1971 -957.1047,-296.3438 -935.9563,-266.3618 -912.3117,-232.841 -886.5869,-196.3711 -859.198,-157.542 -830.5609,-116.9434 -801.0918,-75.1652 -771.2067,-32.7972 -741.3216,9.5707 -711.8524,51.3489 -683.2154,91.9475 -655.8265,130.7766 -630.1017,167.2465 -606.4571,200.7673 -585.3086,230.7493 -567.0725,256.6027 -552.1646,277.7375 -541.001,293.5641 -533.9977,303.4925 -531.5709,306.9331 -533.0096,303.4925 -537.1612,293.5641 -543.7792,277.7375 -552.6169,256.6027 -563.4277,230.7493 -575.9649,200.7673 -589.982,167.2465 -605.2321,130.7766 -621.4689,91.9475 -638.4455,51.3489 -655.9154,9.5707 -673.6319,-32.7972 -691.3484,-75.1652 -708.8183,-116.9434 -725.7949,-157.542 -742.0316,-196.3711 -757.2818,-232.841 -771.2988,-266.3618 -783.8361,-296.3438 -794.6468,-322.1971 -803.4845,-343.332 -810.1025,-359.1585 -814.2542,-369.087" stroke="black" /><polygon fill="none" points="-458.2953,-372.5276 -459.7307,-372.5276 -463.8728,-372.5276 -470.4756,-372.5276 -479.2929,-372.5276 -490.0789,-372.5276 -502.5872,-372.5276 -516.572,-372.5276 -531.7871,-372.5276 -547.9865,-372.5276 -564.9241,-372.5276 -582.3538,-372.5276 -600.0295,-372.5276 -617.7053,-372.5276 -635.135,-372.5276 -652.0726,-372.5276 -668.2719,-372.5276 -683.4871,-372.5276 -697.4718,-372.5276 -709.9802,-372.5276 -720.7661,-372.5276 -729.5835,-372.5276 -736.1863,-372.5276 -740.3284,-372.5276 -741.7638,-372.5276 -739.0199,-368.7257 -731.1018,-357.7547 -718.48,-340.2661 -701.6247,-316.9119 -681.0063,-288.3437 -657.0953,-255.2133 -630.3621,-218.1725 -601.2769,-177.8728 -570.3102,-134.9663 -537.9324,-90.1044 -504.6138,-43.9391 -470.8248,2.878 -437.0358,49.695 -403.7172,95.8603 -371.3394,140.7222 -340.3727,183.6288 -311.2875,223.9284 -284.5543,260.9692 -260.6433,294.0996 -240.0249,322.6678 -223.1696,346.0221 -210.5478,363.5106 -202.6297,374.4816 -199.8858,378.2835 -201.1943,374.4816 -204.9703,363.5106 -210.9894,346.0221 -219.0273,322.6678 -228.8597,294.0996 -240.2623,260.9692 -253.0108,223.9284 -266.8809,183.6288 -281.6482,140.7222 -297.0885,95.8603 -312.9773,49.695 -329.0906,2.878 -345.2038,-43.9391 -361.0926,-90.1044 -376.5329,-134.9663 -391.3002,-177.8728 -405.1703,-218.1725 -417.9188,-255.2133 -429.3214,-288.3437 -439.1538,-316.9119 -447.1917,-340.2661 -453.2108,-357.7547 -456.9868,-368.7257" stroke="black" /><polygon fill="none" points="-38.7559,-372.5276 -40.6112,-372.5276 -45.9651,-372.5276 -54.4996,-372.5276 -65.8965,-372.5276 -79.8378,-372.5276 -96.0055,-372.5276 -114.0816,-372.5276 -133.7479,-372.5276 -154.6864,-372.5276 -176.5791,-372.5276 -199.1079,-372.5276 -221.9547,-372.5276 -244.8016,-372.5276 -267.3304,-372.5276 -289.223,-372.5276 -310.1616,-372.5276 -329.8279,-372.5276 -347.9039,-372.5276 -364.0716,-372.5276 -378.013,-372.5276 -389.4099,-372.5276 -397.9443,-372.5276 -403.2982,-372.5276 -405.1535,-372.5276 -403.7631,-368.5353 -399.7506,-357.0146 -393.3546,-338.6501 -384.8132,-314.126 -374.365,-284.1267 -362.2482,-249.3367 -348.7012,-210.4404 -333.9624,-168.122 -318.2701,-123.0661 -301.8628,-75.9571 -284.9787,-27.4792 -267.8563,21.6831 -250.7339,70.8453 -233.8498,119.3232 -217.4425,166.4323 -201.7502,211.4882 -187.0114,253.8065 -173.4644,292.7029 -161.3476,327.4929 -150.8994,357.4921 -142.358,382.0162 -135.962,400.3808 -131.9495,411.9014 -130.5591,415.8937 -130.0942,411.9014 -128.7527,400.3808 -126.6144,382.0162 -123.7588,357.4921 -120.2657,327.4929 -116.2148,292.7029 -111.6858,253.8065 -106.7582,211.4882 -101.512,166.4323 -96.0266,119.3232 -90.3819,70.8453 -84.6575,21.6831 -78.9331,-27.4792 -73.2883,-75.9571 -67.803,-123.0661 -62.5567,-168.122 -57.6292,-210.4404 -53.1001,-249.3367 -49.0492,-284.1267 -45.5561,-314.126 -42.7006,-338.6501 -40.5622,-357.0146 -39.2208,-368.5353" stroke="black" /><polygon fill="none" points="-138.2362,532.437 -137.7968,533.6967 -136.5288,537.3319 -134.5074,543.1266 -131.8081,550.8648 -128.5062,560.3307 -124.6769,571.3082 -120.3957,583.5814 -115.7378,596.9344 -110.7786,611.1512 -105.5935,626.0158 -100.2576,641.3123 -94.8465,656.8248 -89.4353,672.3373 -84.0995,687.6338 -78.9143,702.4984 -73.9551,716.7152 -69.2972,730.0682 -65.016,742.3414 -61.1867,753.3189 -57.8848,762.7848 -55.1855,770.523 -53.1642,776.3177 -51.8961,779.9529 -51.4567,781.2126 -53.4195,779.24 -59.0835,773.5478 -68.1123,764.4741 -80.1694,752.357 -94.9184,737.5346 -112.0226,720.3452 -131.1458,701.1269 -151.9513,680.2178 -174.1027,657.9562 -197.2636,634.68 -221.0974,610.7276 -245.2677,586.437 -269.438,562.1464 -293.2718,538.194 -316.4327,514.9178 -338.5841,492.6562 -359.3897,471.7471 -378.5128,452.5288 -395.6171,435.3394 -410.366,420.5171 -422.4231,408.3999 -431.4519,399.3262 -437.116,393.634 -439.0787,391.6614 -440.4361,388.5073 -444.353,379.4054 -450.5967,364.8965 -458.9347,345.5211 -469.1341,321.8202 -480.9624,294.3343 -494.1867,263.6041 -508.5745,230.1705 -523.8931,194.574 -539.9097,157.3553 -556.3916,119.0553 -573.1063,80.2146 -589.821,41.3738 -606.3029,3.0738 -622.3195,-34.1448 -637.6381,-69.7413 -652.0259,-103.175 -665.2502,-133.9051 -677.0785,-161.391 -687.2779,-185.092 -695.6159,-204.4673 -701.8596,-218.9763 -705.7765,-228.0782 -707.1339,-231.2323 -704.2532,-227.3653 -695.9403,-216.2064 -682.689,-198.4184 -664.9933,-174.6642 -643.3469,-145.6067 -618.2436,-111.909 -590.1773,-74.2337 -559.6419,-33.2439 -527.1311,10.3975 -493.1388,56.0276 -458.1588,102.9835 -422.685,150.6024 -387.2112,198.2212 -352.2313,245.1771 -318.239,290.8073 -285.7282,334.4487 -255.1928,375.4384 -227.1265,413.1137 -202.0232,446.8115 -180.3768,475.8689 -162.681,499.6231 -149.4298,517.4111 -141.1169,528.57" stroke="black" /><polygon fill="none" points="-398.9724,-621.5315 -400.6622,-620.5108 -405.5385,-617.5652 -413.3117,-612.8697 -423.6919,-606.5994 -436.3896,-598.9293 -451.115,-590.0342 -467.5786,-580.0892 -485.4905,-569.2693 -504.5612,-557.7495 -524.5009,-545.7047 -545.02,-533.3099 -565.8287,-520.7402 -586.6375,-508.1704 -607.1566,-495.7756 -627.0963,-483.7308 -646.167,-472.211 -664.0789,-461.3911 -680.5424,-451.4461 -695.2679,-442.551 -707.9656,-434.8809 -718.3458,-428.6106 -726.1189,-423.9151 -730.9952,-420.9696 -732.685,-419.9488 -731.3179,-419.9488 -727.3727,-419.9488 -721.0838,-419.9488 -712.6856,-419.9488 -702.4125,-419.9488 -690.4988,-419.9488 -677.1788,-419.9488 -662.6871,-419.9488 -647.2578,-419.9488 -631.1255,-419.9488 -614.5244,-419.9488 -597.689,-419.9488 -580.8535,-419.9488 -564.2525,-419.9488 -548.1201,-419.9488 -532.6909,-419.9488 -518.1991,-419.9488 -504.8792,-419.9488 -492.9655,-419.9488 -482.6923,-419.9488 -474.2941,-419.9488 -468.0053,-419.9488 -464.0601,-419.9488 -462.6929,-419.9488 -462.3703,-420.9696 -461.4392,-423.9151 -459.9549,-428.6106 -457.9729,-434.8809 -455.5483,-442.551 -452.7366,-451.4461 -449.593,-461.3911 -446.1728,-472.211 -442.5314,-483.7308 -438.724,-495.7756 -434.806,-508.1704 -430.8327,-520.7402 -426.8594,-533.3099 -422.9414,-545.7047 -419.134,-557.7495 -415.4926,-569.2693 -412.0724,-580.0892 -408.9288,-590.0342 -406.117,-598.9293 -403.6925,-606.5994 -401.7104,-612.8697 -400.2262,-617.5652 -399.2951,-620.5108" stroke="black" /><polygon fill="none" points="-348.6575,-632.4331 -348.9887,-631.3571 -349.9443,-628.2522 -351.4677,-623.3029 -353.502,-616.6935 -355.9906,-608.6085 -358.8765,-599.2324 -362.103,-588.7496 -365.6134,-577.3446 -369.3509,-565.2017 -373.2588,-552.5055 -377.2801,-539.4405 -381.3583,-526.1909 -385.4364,-512.9414 -389.4578,-499.8763 -393.3656,-487.1802 -397.1031,-475.0373 -400.6135,-463.6323 -403.8401,-453.1495 -406.726,-443.7734 -409.2145,-435.6884 -411.2488,-429.079 -412.7722,-424.1296 -413.7279,-421.0248 -414.0591,-419.9488 -412.3183,-419.9488 -407.2949,-419.9488 -399.2873,-419.9488 -388.5939,-419.9488 -375.5132,-419.9488 -360.3435,-419.9488 -343.3833,-419.9488 -324.931,-419.9488 -305.2851,-419.9488 -284.7438,-419.9488 -263.6058,-419.9488 -242.1693,-419.9488 -220.7328,-419.9488 -199.5947,-419.9488 -179.0535,-419.9488 -159.4076,-419.9488 -140.9553,-419.9488 -123.9951,-419.9488 -108.8254,-419.9488 -95.7447,-419.9488 -85.0513,-419.9488 -77.0437,-419.9488 -72.0203,-419.9488 -70.2795,-419.9488 -71.6891,-421.0248 -75.7569,-424.1296 -82.2411,-429.079 -90.9001,-435.6884 -101.4923,-443.7734 -113.7761,-453.1495 -127.5097,-463.6323 -142.4516,-475.0373 -158.3601,-487.1802 -174.9935,-499.8763 -192.1102,-512.9414 -209.4685,-526.1909 -226.8269,-539.4405 -243.9436,-552.5055 -260.577,-565.2017 -276.4854,-577.3446 -291.4273,-588.7496 -305.1609,-599.2324 -317.4447,-608.6085 -328.0369,-616.6935 -336.6959,-623.3029 -343.1801,-628.2522 -347.2479,-631.3571" stroke="black" /></svg>