<svg xmlns="http://www.w3.org/2000/svg" baseProfile="tiny" height="212.103mm" version="1.2" viewBox="205.55007188585066,131.8195163302951,244.53968166775368,212.10324639214414" width="244.540mm"><defs /><polyline fill="none" points="213.7842,228.7194 212.8883,228.671 212.02,228.5291 211.1844,228.2989 210.3865,227.9853 209.6315,227.5936 208.9244,227.1286 208.2702,226.5954 207.674,225.9993 207.1409,225.3451 206.6759,224.6379 206.2841,223.8829 205.9706,223.0851 205.7403,222.2495 205.5985,221.3812 205.5501,220.4852 205.5501,219.4605 205.5501,216.5769 205.5501,212.1204 205.5501,206.3769 205.5501,199.6326 205.5501,192.1733 205.5501,184.2851 205.5501,176.2538 205.5501,168.3656 205.5501,160.9063 205.5501,154.1619 205.5501,148.4185 205.5501,143.962 205.5501,141.0784 205.5501,140.0536 205.5985,139.1577 205.7403,138.2894 205.9706,137.4538 206.2841,136.656 206.6759,135.901 207.1409,135.1938 207.674,134.5396 208.2702,133.9434 208.9244,133.4103 209.6315,132.9453 210.3865,132.5535 211.1844,132.24 212.02,132.0098 212.8883,131.8679 213.7842,131.8195 216.5888,131.8195 224.481,131.8195 236.6779,131.8195 252.3969,131.8195 270.8554,131.8195 291.2705,131.8195 312.8597,131.8195 334.8403,131.8195 356.4295,131.8195 376.8446,131.8195 395.3031,131.8195 411.0221,131.8195 423.219,131.8195 431.1112,131.8195 433.9158,131.8195 434.8117,131.8679 435.68,132.0098 436.5156,132.24 437.3135,132.5535 438.0685,132.9453 438.7756,133.4103 439.4298,133.9434 440.026,134.5396 440.5591,135.1938 441.0241,135.901 441.4159,136.656 441.7294,137.4538 441.9597,138.2894 442.1015,139.1577 442.1499,140.0536 442.1499,141.0784 442.1499,143.962 442.1499,148.4185 442.1499,154.1619 442.1499,160.9063 442.1499,168.3656 442.1499,176.2538 442.1499,184.2851 442.1499,192.1733 442.1499,199.6326 442.1499,206.3769 442.1499,212.1204 442.1499,216.5769 442.1499,219.4605 442.1499,220.4852 442.1015,221.3812 441.9597,222.2495 441.7294,223.0851 441.4159,223.8829 441.0241,224.6379 440.5591,225.3451 440.026,225.9993 439.4298,226.5954 438.7756,227.1286 438.0685,227.5936 437.3135,227.9853 436.5156,228.2989 435.68,228.5291 434.8117,228.671 433.9158,228.7194 431.1112,228.7194 423.219,228.7194 411.0221,228.7194 395.3031,228.7194 376.8446,228.7194 356.4295,228.7194 334.8403,228.7194 312.8597,228.7194 291.2705,228.7194 270.8554,228.7194 252.3969,228.7194 236.6779,228.7194 224.481,228.7194 216.5888,228.7194 213.7842,228.7194" stroke="black" /><polyline fill="none" points="433.9158,224.7194 431.1112,224.7194 423.2191,224.7194 411.0221,224.7194 395.3031,224.7194 376.8447,224.7194 356.4295,224.7194 334.8403,224.7194 312.8597,224.7194 291.2705,224.7194 270.8553,224.7194 252.3969,224.7194 236.6779,224.7194 224.4809,224.7194 216.5888,224.7194 213.7842,224.7194 213.3245,224.6945 212.8788,224.6213 212.4496,224.5027 212.0396,224.3411 211.6514,224.1392 211.2877,223.8997 210.9511,223.6252 210.6442,223.3183 210.3697,222.9817 210.1302,222.618 209.9284,222.2299 209.7668,221.8199 209.6481,221.3907 209.575,220.9449 209.55,220.4853 209.55,219.4605 209.55,216.5769 209.55,212.1204 209.55,206.377 209.55,199.6326 209.55,192.1733 209.55,184.2851 209.55,176.2538 209.55,168.3656 209.55,160.9063 209.55,154.1619 209.55,148.4185 209.55,143.962 209.55,141.0784 209.55,140.0536 209.575,139.5939 209.6481,139.1482 209.7668,138.719 209.9284,138.309 210.1302,137.9209 210.3697,137.5572 210.6442,137.2206 210.9511,136.9137 211.2877,136.6392 211.6514,136.3997 212.0396,136.1978 212.4496,136.0362 212.8788,135.9176 213.3245,135.8444 213.7842,135.8194 216.5888,135.8194 224.4809,135.8194 236.6779,135.8194 252.3969,135.8194 270.8553,135.8194 291.2705,135.8194 312.8597,135.8194 334.8403,135.8194 356.4295,135.8194 376.8447,135.8194 395.3031,135.8194 411.0221,135.8194 423.2191,135.8194 431.1112,135.8194 433.9158,135.8194 434.3755,135.8444 434.8212,135.9176 435.2504,136.0362 435.6604,136.1978 436.0486,136.3997 436.4123,136.6392 436.7489,136.9137 437.0558,137.2206 437.3303,137.5572 437.5698,137.9209 437.7716,138.309 437.9332,138.719 438.0519,139.1482 438.125,139.5939 438.15,140.0536 438.15,141.0784 438.15,143.962 438.15,148.4185 438.15,154.1619 438.15,160.9063 438.15,168.3656 438.15,176.2538 438.15,184.2851 438.15,192.1733 438.15,199.6326 438.15,206.377 438.15,212.1204 438.15,216.5769 438.15,219.4605 438.15,220.4853 438.125,220.9449 438.0519,221.3907 437.9332,221.8199 437.7716,222.2299 437.5698,222.618 437.3303,222.9817 437.0558,223.3183 436.7489,223.6252 436.4123,223.8997 436.0486,224.1392 435.6604,224.3411 435.2504,224.5027 434.8212,224.6213 434.3755,224.6945 433.9158,224.7194" stroke="black" /><polyline fill="none" points="221.1035,200.025 223.0613,162.0308 235.4439,162.0308 235.2322,166.6344 227.8238,166.6344 227.1889,178.1703 233.7506,178.1703 233.5389,182.774 226.9772,182.774 226.2894,195.4213 233.6977,195.4213 233.486,200.025 221.1035,200.025" stroke="black" /><polyline fill="none" points="248.3554,180.3928 249.3078,162.0308 254.282,162.0308 252.3241,200.025 247.3499,200.025 247.7203,192.4578 243.2754,175.1542 242.0054,200.025 237.0312,200.025 238.989,162.0308 243.9632,162.0308 248.3554,180.3928" stroke="black" /><polyline fill="none" points="265.3416,186.1078 265.3612,185.7668 265.4102,184.9143 265.4739,183.806 265.5376,182.6977 265.5866,181.8452 265.6062,181.5042 266.1667,181.5042 267.568,181.5042 269.3897,181.5042 271.2114,181.5042 272.6126,181.5042 273.1732,181.5042 273.1026,182.8761 272.9262,186.3059 272.697,190.7646 272.4677,195.2233 272.2913,198.6531 272.2208,200.025 271.4995,200.025 269.6964,200.025 267.3524,200.025 265.0084,200.025 263.2053,200.025 262.4841,200.025 260.7303,199.8472 259.3148,199.3137 258.2373,198.4244 257.498,197.1794 257.0968,195.5786 257.0336,193.6219 257.1316,191.764 257.3766,187.1191 257.695,181.0808 258.0135,175.0424 258.2585,170.3975 258.3565,168.5396 258.6137,166.5508 259.1737,164.9236 260.0365,163.658 261.2021,162.754 262.6706,162.2116 264.4419,162.0308 264.6928,162.0308 265.3199,162.0308 266.1353,162.0308 266.9506,162.0308 267.5777,162.0308 267.8286,162.0308 269.7601,162.2145 271.3211,162.7658 272.5118,163.6845 273.332,164.9707 273.7818,166.6243 273.8611,168.6453 273.8455,168.9511 273.8063,169.7155 273.7553,170.7091 273.7043,171.7028 273.6651,172.4672 273.6494,172.7729 273.281,172.7729 272.3598,172.7729 271.1623,172.7729 269.9649,172.7729 269.0437,172.7729 268.6752,172.7729 268.687,172.5221 268.7164,171.8949 268.7547,171.0797 268.7929,170.2644 268.8223,169.6372 268.8341,169.3864 268.8237,168.5457 268.6869,167.8577 268.4237,167.3226 268.0341,166.9403 267.5182,166.7109 266.876,166.6344 266.782,166.6344 266.5468,166.6344 266.2411,166.6344 265.9354,166.6344 265.7002,166.6344 265.6062,166.6344 264.9386,166.7109 264.3829,166.9403 263.9391,167.3226 263.6069,167.8577 263.3865,168.5457 263.2778,169.3864 263.1877,171.1111 262.9623,175.4228 262.6692,181.0281 262.3762,186.6333 262.1508,190.945 262.0607,192.6697 262.0724,193.5105 262.2135,194.1984 262.4838,194.7335 262.8836,195.1156 263.4129,195.3449 264.0716,195.4213 264.3224,195.4213 264.9496,195.4213 265.7649,195.4213 266.5802,195.4213 267.2074,195.4213 267.4583,195.4213 267.4935,194.7314 267.5817,193.0067 267.6963,190.7646 267.8109,188.5225 267.8991,186.7977 267.9344,186.1078 267.7423,186.1078 267.2622,186.1078 266.638,186.1078 266.0138,186.1078 265.5337,186.1078 265.3416,186.1078" stroke="black" /><polyline fill="none" points="276.2948,200.025 278.2526,162.0308 283.2268,162.0308 281.269,200.025 276.2948,200.025" stroke="black" /><polyline fill="none" points="297.2494,180.3928 298.2018,162.0308 303.176,162.0308 301.2181,200.025 296.2439,200.025 296.6143,192.4578 292.1694,175.1542 290.8994,200.025 285.9252,200.025 287.883,162.0308 292.8572,162.0308 297.2494,180.3928" stroke="black" /><polyline fill="none" points="305.8747,200.025 307.8325,162.0308 320.2151,162.0308 320.0034,166.6344 312.595,166.6344 311.9601,178.1703 318.5218,178.1703 318.3101,182.774 311.7484,182.774 311.0606,195.4213 318.4689,195.4213 318.2572,200.025 305.8747,200.025" stroke="black" /><polyline fill="none" points="321.8024,200.025 323.7603,162.0308 336.1428,162.0308 335.9311,166.6344 328.5228,166.6344 327.8878,178.1703 334.4495,178.1703 334.2378,182.774 327.6761,182.774 326.9883,195.4213 334.3966,195.4213 334.1849,200.025 321.8024,200.025" stroke="black" /><polyline fill="none" points="339.688,162.0308 339.9184,162.0308 340.5498,162.0308 341.492,162.0308 342.6551,162.0308 343.9492,162.0308 345.2841,162.0308 346.57,162.0308 347.7168,162.0308 348.6345,162.0308 349.2331,162.0308 349.5195,162.0312 350.5074,162.0959 351.3938,162.2699 352.1789,162.5533 352.8626,162.9461 353.445,163.4483 353.9259,164.0598 354.3055,164.7808 354.5837,165.6111 354.7605,166.5508 354.8359,167.5999 354.8219,168.5473 354.8067,168.8455 354.7727,169.5137 354.7244,170.4651 354.666,171.6133 354.602,172.8717 354.5368,174.1537 354.4748,175.3728 354.4204,176.4423 354.378,177.2757 354.3521,177.7864 354.331,178.1522 354.2459,179.0169 354.1137,179.8201 353.9345,180.562 353.7081,181.2425 353.4346,181.8616 353.114,182.4193 352.7463,182.9156 352.3315,183.3506 351.8696,183.7242 351.3606,184.0363 351.021,184.2546 351.1281,184.8829 351.3373,186.1095 351.6236,187.788 351.9621,189.7724 352.3278,191.9163 352.6957,194.0735 353.041,196.0977 353.3387,197.8427 353.5637,199.1624 353.6913,199.9103 353.687,200.025 353.482,200.025 353.1029,200.025 352.5932,200.025 351.9965,200.025 351.3562,200.025 350.7159,200.025 350.1191,200.025 349.6094,200.025 349.2303,200.025 349.0253,200.025 348.9834,199.9137 348.8658,199.1883 348.6584,197.9084 348.3841,196.2159 348.0659,194.2526 347.7268,192.1603 347.3897,190.0809 347.0778,188.1563 346.8139,186.5282 346.6211,185.3386 346.5224,184.7292 346.4847,184.6792 346.331,184.6792 346.0709,184.6792 345.7323,184.6792 345.3429,184.6792 344.9308,184.6792 344.5237,184.6792 344.1496,184.6792 343.8363,184.6792 343.6117,184.6792 343.5036,184.6792 343.488,184.8747 343.4447,185.7115 343.374,187.077 343.2834,188.8293 343.1801,190.8266 343.0715,192.9271 342.9648,194.9889 342.8675,196.8701 342.7869,198.429 342.7302,199.5237 342.705,200.0124 342.6246,200.025 342.3359,200.025 341.88,200.025 341.3028,200.025 340.6505,200.025 339.9689,200.025 339.304,200.025 338.7018,200.025 338.2083,200.025 337.8694,200.025 337.7311,200.025 337.7686,199.2774 337.889,196.9415 338.0735,193.3605 338.3041,188.8856 338.5627,183.868 338.8311,178.6587 339.0913,173.6092 339.3252,169.0704 339.5147,165.3936 339.6416,162.93 339.688,162.0308" stroke="black" /><polyline fill="none" points="343.7098,180.3401 343.7336,180.3401 343.8016,180.3401 343.9091,180.3401 344.051,180.3401 344.2224,180.3401 344.4184,180.3401 344.6341,180.3401 344.8646,180.3401 345.1049,180.3401 345.3502,180.3401 345.5954,180.3401 345.8357,180.3401 346.0662,180.3401 346.2819,180.3401 346.4779,180.3401 346.6493,180.3401 346.7912,180.3401 346.8987,180.3401 346.9667,180.3401 346.9905,180.3401 347.2076,180.3332 347.4144,180.3126 347.6109,180.2782 347.797,180.23 347.9728,180.1681 348.1383,180.0924 348.2935,180.003 348.4384,179.8998 348.5729,179.7829 348.6971,179.6522 348.8111,179.5078 348.9146,179.3495 349.0079,179.1776 349.0908,178.9918 349.1635,178.7923 349.2258,178.5791 349.2778,178.3521 349.3194,178.1113 349.3508,177.8568 349.3718,177.5885 349.3749,177.529 349.3836,177.3588 349.3975,177.0902 349.4158,176.7355 349.4379,176.3069 349.4632,175.8168 349.4911,175.2775 349.5208,174.7013 349.5518,174.1005 349.5835,173.4874 349.6151,172.8743 349.6461,172.2735 349.6759,171.6973 349.7037,171.158 349.729,170.668 349.7512,170.2394 349.7695,169.8847 349.7833,169.616 349.7921,169.4459 349.7952,169.3864 349.8051,169.1181 349.8031,168.8636 349.7892,168.6229 349.7634,168.3959 349.7257,168.1826 349.6761,167.9831 349.6145,167.7973 349.5411,167.6253 349.4558,167.4671 349.3585,167.3226 349.2494,167.1919 349.1283,167.0749 348.9954,166.9717 348.8505,166.8822 348.6938,166.8065 348.5251,166.7446 348.3445,166.6964 348.1521,166.662 347.9477,166.6413 347.7314,166.6344 347.7076,166.6344 347.6395,166.6344 347.5321,166.6344 347.3902,166.6344 347.2188,166.6344 347.0227,166.6344 346.807,166.6344 346.5765,166.6344 346.3362,166.6344 346.0909,166.6344 345.8457,166.6344 345.6054,166.6344 345.3749,166.6344 345.1591,166.6344 344.9631,166.6344 344.7917,166.6344 344.6498,166.6344 344.5423,166.6344 344.4743,166.6344 344.4505,166.6344 344.4451,166.7338 344.4297,167.0182 344.4055,167.4671 344.3734,168.0598 344.3347,168.7759 344.2905,169.5949 344.2418,170.496 344.1897,171.4588 344.1355,172.4628 344.0801,173.4873 344.0248,174.5118 343.9705,175.5157 343.9185,176.4785 343.8698,177.3797 343.8255,178.1986 343.7868,178.9147 343.7548,179.5075 343.7305,179.9563 343.7151,180.2407 343.7098,180.3401" stroke="black" /><polyline fill="none" points="357.3091,200.025 359.267,162.0308 364.2412,162.0308 362.2833,200.025 357.3091,200.025" stroke="black" /><polyline fill="none" points="378.2636,180.3928 379.2161,162.0308 384.1905,162.0308 382.2323,200.025 377.2583,200.025 377.6286,192.4578 373.1838,175.1542 371.9137,200.025 366.9395,200.025 368.8974,162.0308 373.8718,162.0308 378.2636,180.3928" stroke="black" /><polyline fill="none" points="395.2499,186.1078 395.2695,185.7668 395.3185,184.9143 395.3822,183.806 395.4459,182.6977 395.4949,181.8452 395.5145,181.5042 396.0751,181.5042 397.4764,181.5042 399.2981,181.5042 401.1198,181.5042 402.5212,181.5042 403.0817,181.5042 403.0111,182.8761 402.8347,186.3059 402.6054,190.7646 402.3761,195.2233 402.1997,198.6531 402.1291,200.025 401.4079,200.025 399.6047,200.025 397.2607,200.025 394.9166,200.025 393.1135,200.025 392.3922,200.025 390.6386,199.8472 389.2231,199.3137 388.1457,198.4244 387.4064,197.1794 387.0052,195.5786 386.9421,193.6219 387.0401,191.764 387.2851,187.1191 387.6036,181.0808 387.922,175.0424 388.167,170.3975 388.265,168.5396 388.5222,166.5508 389.0821,164.9236 389.9449,163.658 391.1105,162.754 392.579,162.2116 394.3504,162.0308 394.6013,162.0308 395.2284,162.0308 396.0437,162.0308 396.859,162.0308 397.4861,162.0308 397.737,162.0308 399.6684,162.2145 401.2295,162.7658 402.4201,163.6845 403.2403,164.9707 403.69,166.6243 403.7693,168.6453 403.7537,168.9511 403.7145,169.7155 403.6636,170.7091 403.6126,171.7028 403.5735,172.4672 403.5578,172.7729 403.1893,172.7729 402.2682,172.7729 401.0708,172.7729 399.8733,172.7729 398.9522,172.7729 398.5838,172.7729 398.5955,172.5221 398.6249,171.8949 398.663,171.0797 398.7012,170.2644 398.7305,169.6372 398.7422,169.3864 398.732,168.5457 398.5953,167.8577 398.3321,167.3226 397.9426,166.9403 397.4266,166.7109 396.7844,166.6344 396.6903,166.6344 396.4552,166.6344 396.1495,166.6344 395.8438,166.6344 395.6086,166.6344 395.5145,166.6344 394.847,166.7109 394.2913,166.9403 393.8475,167.3226 393.5153,167.8577 393.2948,168.5457 393.186,169.3864 393.0959,171.1111 392.8705,175.4228 392.5776,181.0281 392.2847,186.6333 392.0593,190.945 391.9692,192.6697 391.9808,193.5105 392.1217,194.1984 392.3921,194.7335 392.7918,195.1156 393.321,195.3449 393.9797,195.4213 394.2306,195.4213 394.8578,195.4213 395.6732,195.4213 396.4885,195.4213 397.1157,195.4213 397.3666,195.4213 397.4019,194.7314 397.4901,193.0067 397.6047,190.7646 397.7193,188.5225 397.8075,186.7977 397.8427,186.1078 397.6507,186.1078 397.1705,186.1078 396.5463,186.1078 395.9222,186.1078 395.442,186.1078 395.2499,186.1078" stroke="black" /><polyline fill="none" points="433.8214,179.765 417.3961,208.22 410.5381,208.22 426.967,179.765 410.5381,151.3099 417.3961,151.3099 433.8214,179.765" stroke="black" /><polyline fill="none" points="446.2568,295.4723 446.0051,295.9084 445.2906,297.1461 444.1746,299.0797 442.718,301.6031 440.982,304.6105 439.0278,307.9961 436.9164,311.6539 434.709,315.4781 432.4667,319.3628 430.2506,323.2021 428.1217,326.8901 426.1413,330.3211 424.3705,333.389 422.8702,335.988 421.7018,338.0123 420.9262,339.3559 420.6046,339.9131 419.1587,339.9223 414.1084,339.9223 405.8801,339.9223 394.9472,339.9223 381.7829,339.9223 366.8607,339.9223 350.6537,339.9223 333.6353,339.9223 316.2788,339.9223 299.0576,339.9223 282.4449,339.9223 266.9141,339.9223 252.9385,339.9223 240.9913,339.9223 231.546,339.9223 225.0757,339.9223 222.0539,339.9223 221.6014,339.9124 221.2058,339.8665 220.8219,339.7846 220.4514,339.6686 220.0961,339.5202 219.7578,339.3412 219.4382,339.1334 219.1391,338.8985 218.8623,338.6383 218.6094,338.3546 218.3824,338.0492 218.1829,337.7238 218.0127,337.3802 217.8736,337.0201 217.7673,336.6454 217.6957,336.2579 217.6604,335.8592 217.6568,335.4233 217.6568,333.7818 217.6568,330.7993 217.6568,326.6673 217.6568,321.5774 217.6568,315.7212 217.6568,309.2903 217.6568,302.4762 217.6568,295.4705 217.6568,288.4648 217.6568,281.6507 217.6568,275.2198 217.6568,269.3636 217.6568,264.2737 217.6568,260.1417 217.6568,257.1592 217.6568,255.5177 217.6604,255.0818 217.6957,254.6832 217.7673,254.2958 217.8736,253.9213 218.0127,253.5615 218.1829,253.2181 218.3824,252.893 218.6094,252.5878 218.8623,252.3044 219.1391,252.0445 219.4382,251.81 219.7578,251.6024 220.0961,251.4237 220.4514,251.2755 220.8219,251.1597 221.2058,251.0779 221.6014,251.0321 222.0539,251.0223 225.0757,251.0223 231.546,251.0223 240.9913,251.0223 252.9385,251.0223 266.9141,251.0223 282.4449,251.0223 299.0576,251.0223 316.2788,251.0223 333.6353,251.0223 350.6537,251.0223 366.8607,251.0223 381.7829,251.0223 394.9472,251.0223 405.8801,251.0223 414.1084,251.0223 419.1587,251.0223 420.6046,251.0315 420.9262,251.5886 421.7018,252.9322 422.8702,254.9565 424.3705,257.5556 426.1413,260.6235 428.1217,264.0544 430.2506,267.7425 432.4667,271.5818 434.709,275.4665 436.9164,279.2907 439.0278,282.9485 440.982,286.334 442.718,289.3415 444.1746,291.8649 445.2906,293.7984 446.0051,295.0362 446.2568,295.4723" stroke="black" /><polyline fill="none" points="229.2103,315.2262 231.1681,277.232 243.5507,277.232 243.339,281.8357 235.9306,281.8357 235.2957,293.3716 241.8574,293.3716 241.6457,297.9753 235.084,297.9753 234.3962,310.6226 241.8045,310.6226 241.5928,315.2262 229.2103,315.2262" stroke="black" /><polyline fill="none" points="256.4622,295.594 257.4146,277.232 262.3888,277.232 260.431,315.2262 255.4568,315.2262 255.8271,307.6591 251.3822,290.3554 250.1122,315.2262 245.138,315.2262 247.0959,277.232 252.0701,277.232 256.4622,295.594" stroke="black" /><polyline fill="none" points="273.4484,301.3091 273.468,300.9681 273.517,300.1155 273.5807,299.0072 273.6444,297.899 273.6934,297.0464 273.713,296.7054 274.2735,296.7054 275.6748,296.7054 277.4965,296.7054 279.3182,296.7054 280.7195,296.7054 281.28,296.7054 281.2094,298.0773 281.0331,301.5071 280.8038,305.9658 280.5745,310.4245 280.3981,313.8543 280.3276,315.2262 279.6064,315.2262 277.8033,315.2262 275.4592,315.2262 273.1152,315.2262 271.3121,315.2262 270.5909,315.2262 268.8372,315.0484 267.4216,314.5149 266.3442,313.6256 265.6048,312.3806 265.2036,310.7798 265.1404,308.8232 265.2384,306.9652 265.4834,302.3203 265.8019,296.282 266.1203,290.2437 266.3653,285.5988 266.4633,283.7408 266.7205,281.7521 267.2805,280.1249 268.1433,278.8592 269.3089,277.9552 270.7774,277.4128 272.5487,277.232 272.7996,277.232 273.4268,277.232 274.2421,277.232 275.0574,277.232 275.6846,277.232 275.9354,277.232 277.8669,277.4158 279.428,277.967 280.6186,278.8858 281.4388,280.172 281.8886,281.8256 281.968,283.8466 281.9523,284.1523 281.9131,284.9167 281.8621,285.9104 281.8112,286.904 281.772,287.6684 281.7563,287.9742 281.3878,287.9742 280.4667,287.9742 279.2692,287.9742 278.0717,287.9742 277.1505,287.9742 276.7821,287.9742 276.7938,287.7233 276.8232,287.0962 276.8615,286.2809 276.8997,285.4656 276.9291,284.8385 276.9409,284.5876 276.9305,283.7469 276.7937,283.059 276.5305,282.5238 276.1409,282.1416 275.625,281.9122 274.9829,281.8357 274.8888,281.8357 274.6536,281.8357 274.3479,281.8357 274.0422,281.8357 273.8071,281.8357 273.713,281.8357 273.0455,281.9122 272.4898,282.1416 272.0459,282.5238 271.7138,283.059 271.4934,283.7469 271.3846,284.5876 271.2945,286.3123 271.0691,290.624 270.7761,296.2293 270.483,301.8345 270.2576,306.1463 270.1675,307.871 270.1792,308.7118 270.3203,309.3997 270.5907,309.9347 270.9905,310.3168 271.5197,310.5461 272.1784,310.6226 272.4293,310.6226 273.0564,310.6226 273.8717,310.6226 274.6871,310.6226 275.3142,310.6226 275.5651,310.6226 275.6004,309.9327 275.6885,308.208 275.8031,305.9658 275.9178,303.7237 276.0059,301.999 276.0412,301.3091 275.8491,301.3091 275.369,301.3091 274.7448,301.3091 274.1206,301.3091 273.6405,301.3091 273.4484,301.3091" stroke="black" /><polyline fill="none" points="284.4016,315.2262 286.3594,277.232 291.3336,277.232 289.3758,315.2262 284.4016,315.2262" stroke="black" /><polyline fill="none" points="305.3562,295.594 306.3086,277.232 311.2828,277.232 309.325,315.2262 304.3508,315.2262 304.7211,307.6591 300.2762,290.3554 299.0062,315.2262 294.032,315.2262 295.9899,277.232 300.9641,277.232 305.3562,295.594" stroke="black" /><polyline fill="none" points="313.9815,315.2262 315.9394,277.232 328.3219,277.232 328.1102,281.8357 320.7019,281.8357 320.0669,293.3716 326.6286,293.3716 326.4169,297.9753 319.8552,297.9753 319.1674,310.6226 326.5758,310.6226 326.3641,315.2262 313.9815,315.2262" stroke="black" /><polyline fill="none" points="329.9092,315.2262 331.8671,277.232 344.2496,277.232 344.0379,281.8357 336.6296,281.8357 335.9947,293.3716 342.5564,293.3716 342.3447,297.9753 335.7829,297.9753 335.0951,310.6226 342.5035,310.6226 342.2918,315.2262 329.9092,315.2262" stroke="black" /><polyline fill="none" points="347.7948,277.232 348.0252,277.232 348.6566,277.232 349.5988,277.232 350.762,277.232 352.056,277.232 353.391,277.232 354.6768,277.232 355.8236,277.232 356.7413,277.232 357.3399,277.232 357.6263,277.2325 358.6142,277.2971 359.5007,277.4711 360.2858,277.7545 360.9695,278.1473 361.5518,278.6495 362.0327,279.2611 362.4123,279.982 362.6905,280.8124 362.8673,281.7521 362.9428,282.8011 362.9287,283.7485 362.9135,284.0468 362.8796,284.7149 362.8312,285.6664 362.7728,286.8146 362.7088,288.073 362.6436,289.355 362.5816,290.574 362.5272,291.6435 362.4849,292.4769 362.4589,292.9877 362.4378,293.3535 362.3527,294.2181 362.2206,295.0213 362.0413,295.7632 361.8149,296.4437 361.5414,297.0628 361.2208,297.6205 360.8531,298.1169 360.4383,298.5518 359.9764,298.9254 359.4674,299.2376 359.1278,299.4559 359.235,300.0841 359.4442,301.3107 359.7305,302.9893 360.0689,304.9736 360.4346,307.1175 360.8026,309.2747 361.1478,311.2989 361.4455,313.044 361.6706,314.3636 361.7981,315.1115 361.7939,315.2262 361.5889,315.2262 361.2097,315.2262 360.7,315.2262 360.1033,315.2262 359.463,315.2262 358.8227,315.2262 358.2259,315.2262 357.7162,315.2262 357.3371,315.2262 357.1321,315.2262 357.0902,315.115 356.9727,314.3896 356.7652,313.1096 356.4909,311.4171 356.1727,309.4538 355.8336,307.3615 355.4966,305.2821 355.1846,303.3575 354.9208,301.7294 354.7279,300.5398 354.6292,299.9304 354.5915,299.8804 354.4378,299.8804 354.1778,299.8804 353.8391,299.8804 353.4498,299.8804 353.0376,299.8804 352.6305,299.8804 352.2564,299.8804 351.9431,299.8804 351.7185,299.8804 351.6105,299.8804 351.5948,300.0759 351.5515,300.9127 351.4809,302.2782 351.3902,304.0305 351.2869,306.0278 351.1783,308.1283 351.0716,310.1901 350.9743,312.0714 350.8937,313.6303 350.8371,314.725 350.8118,315.2136 350.7314,315.2262 350.4427,315.2262 349.9868,315.2262 349.4097,315.2262 348.7573,315.2262 348.0757,315.2262 347.4108,315.2262 346.8086,315.2262 346.3151,315.2262 345.9762,315.2262 345.838,315.2262 345.8755,314.4787 345.9958,312.1428 346.1804,308.5618 346.411,304.0868 346.6695,299.0692 346.938,293.86 347.1982,288.8104 347.432,284.2716 347.6215,280.5948 347.7485,278.1312 347.7948,277.232" stroke="black" /><polyline fill="none" points="351.8166,295.5413 351.8404,295.5413 351.9085,295.5413 352.0159,295.5413 352.1578,295.5413 352.3292,295.5413 352.5252,295.5413 352.741,295.5413 352.9714,295.5413 353.2117,295.5413 353.457,295.5413 353.7022,295.5413 353.9425,295.5413 354.173,295.5413 354.3887,295.5413 354.5847,295.5413 354.7562,295.5413 354.8981,295.5413 355.0055,295.5413 355.0736,295.5413 355.0974,295.5413 355.3145,295.5344 355.5212,295.5138 355.7177,295.4794 355.9038,295.4313 356.0797,295.3693 356.2452,295.2937 356.4003,295.2043 356.5452,295.1011 356.6798,294.9841 356.804,294.8534 356.9179,294.709 357.0215,294.5508 357.1147,294.3788 357.1977,294.1931 357.2703,293.9936 357.3326,293.7803 357.3846,293.5533 357.4262,293.3125 357.4576,293.058 357.4786,292.7897 357.4817,292.7302 357.4905,292.56 357.5043,292.2914 357.5226,291.9367 357.5448,291.5081 357.5701,291.0181 357.5979,290.4788 357.6276,289.9026 357.6587,289.3018 357.6903,288.6887 357.722,288.0756 357.753,287.4748 357.7827,286.8986 357.8106,286.3593 357.8359,285.8692 357.858,285.4406 357.8763,285.0859 357.8902,284.8173 357.8989,284.6471 357.902,284.5876 357.9119,284.3194 357.9099,284.0649 357.896,283.8241 357.8702,283.5971 357.8325,283.3838 357.7829,283.1843 357.7214,282.9986 357.6479,282.8266 357.5626,282.6683 357.4654,282.5238 357.3562,282.3931 357.2352,282.2761 357.1022,282.1729 356.9574,282.0834 356.8006,282.0077 356.6319,281.9458 356.4514,281.8976 356.2589,281.8632 356.0545,281.8426 355.8382,281.8357 355.8144,281.8357 355.7464,281.8357 355.6389,281.8357 355.497,281.8357 355.3256,281.8357 355.1295,281.8357 354.9138,281.8357 354.6833,281.8357 354.443,281.8357 354.1978,281.8357 353.9525,281.8357 353.7122,281.8357 353.4817,281.8357 353.266,281.8357 353.0699,281.8357 352.8985,281.8357 352.7566,281.8357 352.6492,281.8357 352.5811,281.8357 352.5573,281.8357 352.5519,281.935 352.5366,282.2194 352.5123,282.6683 352.4803,283.2611 352.4416,283.9772 352.3973,284.7961 352.3486,285.6972 352.2966,286.6601 352.2423,287.664 352.1869,288.6885 352.1316,289.713 352.0773,290.7169 352.0253,291.6797 351.9766,292.5809 351.9323,293.3998 351.8936,294.1159 351.8616,294.7087 351.8373,295.1575 351.822,295.4419 351.8166,295.5413" stroke="black" /><polyline fill="none" points="365.4159,315.2262 367.3738,277.232 372.348,277.232 370.3901,315.2262 365.4159,315.2262" stroke="black" /><polyline fill="none" points="386.3704,295.594 387.323,277.232 392.2973,277.232 390.3391,315.2262 385.3651,315.2262 385.7355,307.6591 381.2906,290.3554 380.0206,315.2262 375.0464,315.2262 377.0042,277.232 381.9786,277.232 386.3704,295.594" stroke="black" /><polyline fill="none" points="403.3568,301.3091 403.3764,300.9681 403.4254,300.1155 403.4891,299.0072 403.5528,297.899 403.6018,297.0464 403.6214,296.7054 404.1819,296.7054 405.5832,296.7054 407.4049,296.7054 409.2267,296.7054 410.628,296.7054 411.1885,296.7054 411.1179,298.0773 410.9415,301.5071 410.7122,305.9658 410.4829,310.4245 410.3065,313.8543 410.2359,315.2262 409.5147,315.2262 407.7116,315.2262 405.3675,315.2262 403.0234,315.2262 401.2203,315.2262 400.4991,315.2262 398.7454,315.0484 397.3299,314.5149 396.2525,313.6256 395.5132,312.3806 395.112,310.7798 395.0489,308.8232 395.1469,306.9652 395.3919,302.3203 395.7104,296.282 396.0289,290.2437 396.2738,285.5988 396.3718,283.7408 396.629,281.7521 397.1889,280.1249 398.0517,278.8592 399.2173,277.9552 400.6858,277.4128 402.4573,277.232 402.7081,277.232 403.3352,277.232 404.1505,277.232 404.9658,277.232 405.5929,277.232 405.8438,277.232 407.7753,277.4158 409.3363,277.967 410.5269,278.8858 411.3471,280.172 411.7969,281.8256 411.8762,283.8466 411.8605,284.1523 411.8213,284.9167 411.7704,285.9104 411.7195,286.904 411.6803,287.6684 411.6646,287.9742 411.2962,287.9742 410.3751,287.9742 409.1776,287.9742 407.9802,287.9742 407.059,287.9742 406.6906,287.9742 406.7023,287.7233 406.7317,287.0962 406.7698,286.2809 406.808,285.4656 406.8373,284.8385 406.8491,284.5876 406.8389,283.7469 406.7021,283.059 406.439,282.5238 406.0494,282.1416 405.5335,281.9122 404.8912,281.8357 404.7972,281.8357 404.562,281.8357 404.2563,281.8357 403.9506,281.8357 403.7154,281.8357 403.6214,281.8357 402.9538,281.9122 402.3982,282.1416 401.9543,282.5238 401.6221,283.059 401.4017,283.7469 401.2928,284.5876 401.2027,286.3123 400.9773,290.624 400.6844,296.2293 400.3915,301.8345 400.1661,306.1463 400.076,307.871 400.0876,308.7118 400.2286,309.3997 400.4989,309.9347 400.8986,310.3168 401.4279,310.5461 402.0866,310.6226 402.3374,310.6226 402.9646,310.6226 403.78,310.6226 404.5954,310.6226 405.2226,310.6226 405.4734,310.6226 405.5087,309.9327 405.5969,308.208 405.7115,305.9658 405.8261,303.7237 405.9143,301.999 405.9496,301.3091 405.7575,301.3091 405.2774,301.3091 404.6532,301.3091 404.029,301.3091 403.5488,301.3091 403.3568,301.3091" stroke="black" /><polyline fill="none" points="446.2568,295.4723 420.5993,339.9223 405.2676,339.9223 430.9322,295.4723 405.2676,251.0223 420.5993,251.0223 446.2568,295.4723" stroke="black" /><polyline fill="none" points="446.2568,295.4723 420.5993,339.9223 409.8854,339.9223 435.55,295.4723 409.8854,251.0223 420.5993,251.0223 446.2568,295.4723" stroke="black" /><polyline fill="none" points="449.4071,298.0158 448.9146,298.869 447.5531,301.2279 445.4962,304.7913 442.918,309.2582 439.9921,314.3273 436.8923,319.6975 433.7926,325.0678 430.8667,330.1369 428.2884,334.6037 426.2316,338.1671 424.87,340.526 424.3775,341.3792 424.1351,341.7598 423.8625,342.114 423.5621,342.4404 423.236,342.738 422.8865,343.0052 422.5158,343.241 422.1261,343.444 421.7197,343.613 421.2988,343.7466 420.8656,343.8436 420.4224,343.9028 419.9714,343.9228 416.0121,343.9228 405.0658,343.9228 388.53,343.9228 367.8021,343.9228 344.2793,343.9228 319.3591,343.9228 294.439,343.9228 270.9162,343.9228 250.1882,343.9228 233.6524,343.9228 222.7062,343.9228 218.7469,343.9228 218.0561,343.8763 217.3936,343.7409 216.7654,343.5227 216.1775,343.2278 215.6361,342.8621 215.1473,342.4318 214.717,341.943 214.3513,341.4016 214.0564,340.8138 213.8382,340.1855 213.7028,339.523 213.6563,338.8322 213.6563,337.1259 213.6563,332.4085 213.6563,325.2822 213.6563,316.3493 213.6563,306.2119 213.6563,295.4723 213.6563,284.7327 213.6563,274.5953 213.6563,265.6623 213.6563,258.536 213.6563,253.8186 213.6563,252.1123 213.7028,251.4215 213.8382,250.759 214.0564,250.1308 214.3513,249.543 214.717,249.0016 215.1473,248.5127 215.6361,248.0824 216.1775,247.7168 216.7654,247.4218 217.3936,247.2036 218.0561,247.0683 218.7469,247.0218 222.7062,247.0218 233.6524,247.0218 250.1882,247.0218 270.9162,247.0218 294.439,247.0218 319.3591,247.0218 344.2793,247.0218 367.8021,247.0218 388.53,247.0218 405.0658,247.0218 416.0121,247.0218 419.9714,247.0218 420.4224,247.0418 420.8656,247.1009 421.2988,247.198 421.7197,247.3317 422.1261,247.5008 422.5158,247.704 422.8865,247.94 423.236,248.2076 423.5621,248.5056 423.8625,248.8326 424.1351,249.1875 424.3775,249.5688 424.87,250.422 426.2316,252.7807 428.2884,256.3438 430.8667,260.8103 433.7926,265.879 436.8923,271.2488 439.9921,276.6186 442.918,281.6873 445.4962,286.1537 447.5531,289.7169 448.9146,292.0756 449.4071,292.9287 449.6157,293.3293 449.7864,293.7426 449.9191,294.1661 450.0139,294.5972 450.0708,295.0335 450.0898,295.4723 450.0708,295.9111 450.0139,296.3473 449.9191,296.7784 449.7864,297.2019 449.6157,297.6152 449.4071,298.0158" stroke="black" /></svg>