<svg xmlns="http://www.w3.org/2000/svg" baseProfile="tiny" height="158.004mm" version="1.2" viewBox="0 0 333.403 158.004" width="333.403mm"><g transform="translate(111.4026 111.40256427505781)"><defs /><path d="M -97.90256427505776 -17.811495817331004 A 3.200000000000045 3.200000000000045 0 0 0 -97.90256427505776 -24.211495817331095" fill="none" stroke="black" /><path d="M -102.9025642750578 -24.211495817331095 A 3.200000000000045 3.200000000000045 0 0 0 -102.9025642750578 -17.811495817331004" fill="none" stroke="black" /><path d="M 102.0974357249422 -17.811495817331004 A 3.200000000000045 3.200000000000045 0 0 0 102.0974357249422 -24.211495817331095" fill="none" stroke="black" /><path d="M 97.09743572494222 -24.211495817331095 A 3.200000000000045 3.200000000000045 0 0 0 97.09743572494222 -17.811495817331004" fill="none" stroke="black" /><path d="M -2.3909001716653746 16.7825817334635 A 18.50000000000002 18.50000000000002 0 0 0 1.5857716215498883 16.782581733463495" fill="none" stroke="black" /><path d="M -111.4025642750578 -1.1102571002310544 A 10.0 10.0 0 0 0 -101.4025642750578 8.889742899768947" fill="none" stroke="black" /><path d="M -103.4025642750578 -29.711495817331084 A 8.000000000000014 8.000000000000014 0 0 0 -111.40256427505781 -21.71149581733107" fill="none" stroke="black" /><path d="M -83.40256427505776 -9.11025710023102 A 8.000000000000028 8.000000000000028 0 0 0 -75.40256427505773 -17.11025710023105" fill="none" stroke="black" /><path d="M -69.40256427505776 -29.31149581733106 A 6.0 6.0 0 0 0 -75.40256427505776 -23.31149581733106" fill="none" stroke="black" /><path d="M 74.59743572494222 -23.31149581733106 A 6.0 6.0 0 0 0 68.59743572494222 -29.31149581733106" fill="none" stroke="black" /><path d="M 74.59743572494219 -17.11025710023105 A 8.000000000000028 8.000000000000028 0 0 0 82.59743572494222 -9.11025710023102" fill="none" stroke="black" /><path d="M 96.59743572494222 -29.71149581733107 A 8.0 8.0 0 0 0 88.59743572494222 -21.71149581733107" fill="none" stroke="black" /><path d="M 110.5974357249422 -21.71149581733107 A 8.0 8.0 0 0 0 102.5974357249422 -29.71149581733107" fill="none" stroke="black" /><path d="M 100.5974357249422 8.889742899768947 A 10.0 10.0 0 0 0 110.5974357249422 -1.110257100231053" fill="none" stroke="black" /><path d="M -89.40256427505774 -21.71149581733107 A 8.000000000000014 8.000000000000014 0 0 0 -97.40256427505776 -29.711495817331084" fill="none" stroke="black" /><path d="M 74.5974 -19.2109 L -75.4026 -19.2109 M 110.5974 -10.4109 L 88.5974 -10.4109 M -89.4026 -10.4109 L -111.4026 -10.4109 M -102.9026 -17.8115 L -97.9026 -17.8115 M 97.0974 -24.2115 L 102.0974 -24.2115 M 102.0974 -17.8115 L 97.0974 -17.8115 M -26.4526 -1.6103 A 3.05 3.05 0 1 0 -20.3526 -1.6103 A 3.05 3.05 0 1 0 -26.4526 -1.6103 M 1.5858 16.7826 L 74.5974 8.8897 M -2.3909 16.7826 L -75.4026 8.8897 M -75.4026 8.8897 L -101.4026 8.8897 M -111.4026 -1.1103 L -111.4026 -21.7115 M -97.4026 -29.7115 L -103.4026 -29.7115 M -89.4026 -21.7115 L -89.4026 -9.1103 M -89.4026 -9.1103 L -83.4026 -9.1103 M -75.4026 -17.1103 L -75.4026 -23.3115 M -69.4026 -29.3115 L 68.5974 -29.3115 M 74.5974 -17.1103 L 74.5974 -23.3115 M 88.5974 -9.1103 L 82.5974 -9.1103 M 88.5974 -9.1103 L 88.5974 -21.7115 M 96.5974 -29.7115 L 102.5974 -29.7115 M 110.5974 -1.1103 L 110.5974 -21.7115 M 74.5974 8.8897 L 100.5974 8.8897 M 19.5474 -1.6103 A 3.05 3.05 0 1 0 25.6474 -1.6103 A 3.05 3.05 0 1 0 19.5474 -1.6103 M -13.0026 -1.6103 A 12.6 12.6 0 1 0 12.1974 -1.6103 A 12.6 12.6 0 1 0 -13.0026 -1.6103 M -97.9026 -24.2115 L -102.9026 -24.2115 " fill="none" stroke="black" /></g></svg>