<?xml version="1.0" encoding="utf-8" ?>
<svg baseProfile="tiny" height="46.601mm" version="1.2" viewBox="-111.4025657055578,-29.71149645363107,222.00000286110009,46.60123935340004" width="222.000mm" xmlns="http://www.w3.org/2000/svg" xmlns:ev="http://www.w3.org/2001/xml-events" xmlns:xlink="http://www.w3.org/1999/xlink"><defs /><line stroke="black" x1="74.5974" x2="-75.4026" y1="-19.2109" y2="-19.2109" /><line stroke="black" x1="110.5974" x2="88.5974" y1="-10.4109" y2="-10.4109" /><line stroke="black" x1="-89.4026" x2="-111.4026" y1="-10.4109" y2="-10.4109" /><path d="M -97.90256427505776 -17.811495817331004 A 3.200000000000045 3.200000000000045 0 0 0 -97.90256427505776 -24.211495817331095" fill="none" stroke="black" /><path d="M -102.9025642750578 -24.211495817331095 A 3.200000000000045 3.200000000000045 0 0 0 -102.9025642750578 -17.811495817331004" fill="none" stroke="black" /><line stroke="black" x1="-102.9026" x2="-97.9026" y1="-17.8115" y2="-17.8115" /><path d="M 102.0974357249422 -17.811495817331004 A 3.200000000000045 3.200000000000045 0 0 0 102.0974357249422 -24.211495817331095" fill="none" stroke="black" /><line stroke="black" x1="97.0974" x2="102.0974" y1="-24.2115" y2="-24.2115" /><path d="M 97.09743572494222 -24.211495817331095 A 3.200000000000045 3.200000000000045 0 0 0 97.09743572494222 -17.811495817331004" fill="none" stroke="black" /><line stroke="black" x1="102.0974" x2="97.0974" y1="-17.8115" y2="-17.8115" /><circle cx="-23.4026" cy="-1.6103" fill="none" r="3.05" stroke="black" /><line stroke="black" x1="1.5858" x2="74.5974" y1="16.7826" y2="8.8897" /><path d="M -2.3909001716653746 16.7825817334635 A 18.50000000000002 18.50000000000002 0 0 0 1.5857716215498883 16.782581733463495" fill="none" stroke="black" /><line stroke="black" x1="-2.3909" x2="-75.4026" y1="16.7826" y2="8.8897" /><line stroke="black" x1="-75.4026" x2="-101.4026" y1="8.8897" y2="8.8897" /><path d="M -111.4025642750578 -1.1102571002310544 A 10.0 10.0 0 0 0 -101.4025642750578 8.889742899768947" fill="none" stroke="black" /><line stroke="black" x1="-111.4026" x2="-111.4026" y1="-1.1103" y2="-21.7115" /><path d="M -103.4025642750578 -29.711495817331084 A 8.000000000000014 8.000000000000014 0 0 0 -111.40256427505781 -21.71149581733107" fill="none" stroke="black" /><line stroke="black" x1="-97.4026" x2="-103.4026" y1="-29.7115" y2="-29.7115" /><line stroke="black" x1="-89.4026" x2="-89.4026" y1="-21.7115" y2="-9.1103" /><line stroke="black" x1="-89.4026" x2="-83.4026" y1="-9.1103" y2="-9.1103" /><path d="M -83.40256427505776 -9.11025710023102 A 8.000000000000028 8.000000000000028 0 0 0 -75.40256427505773 -17.11025710023105" fill="none" stroke="black" /><line stroke="black" x1="-75.4026" x2="-75.4026" y1="-17.1103" y2="-23.3115" /><path d="M -69.40256427505776 -29.31149581733106 A 6.0 6.0 0 0 0 -75.40256427505776 -23.31149581733106" fill="none" stroke="black" /><line stroke="black" x1="-69.4026" x2="68.5974" y1="-29.3115" y2="-29.3115" /><path d="M 74.59743572494222 -23.31149581733106 A 6.0 6.0 0 0 0 68.59743572494222 -29.31149581733106" fill="none" stroke="black" /><line stroke="black" x1="74.5974" x2="74.5974" y1="-17.1103" y2="-23.3115" /><path d="M 74.59743572494219 -17.11025710023105 A 8.000000000000028 8.000000000000028 0 0 0 82.59743572494222 -9.11025710023102" fill="none" stroke="black" /><line stroke="black" x1="88.5974" x2="82.5974" y1="-9.1103" y2="-9.1103" /><line stroke="black" x1="88.5974" x2="88.5974" y1="-9.1103" y2="-21.7115" /><path d="M 96.59743572494222 -29.71149581733107 A 8.0 8.0 0 0 0 88.59743572494222 -21.71149581733107" fill="none" stroke="black" /><line stroke="black" x1="96.5974" x2="102.5974" y1="-29.7115" y2="-29.7115" /><path d="M 110.5974357249422 -21.71149581733107 A 8.0 8.0 0 0 0 102.5974357249422 -29.71149581733107" fill="none" stroke="black" /><line stroke="black" x1="110.5974" x2="110.5974" y1="-1.1103" y2="-21.7115" /><path d="M 100.5974357249422 8.889742899768947 A 10.0 10.0 0 0 0 110.5974357249422 -1.110257100231053" fill="none" stroke="black" /><line stroke="black" x1="74.5974" x2="100.5974" y1="8.8897" y2="8.8897" /><circle cx="22.5974" cy="-1.6103" fill="none" r="3.05" stroke="black" /><circle cx="-0.4026" cy="-1.6103" fill="none" r="12.6" stroke="black" /><path d="M -89.40256427505774 -21.71149581733107 A 8.000000000000014 8.000000000000014 0 0 0 -97.40256427505776 -29.711495817331084" fill="none" stroke="black" /><line stroke="black" x1="-97.9026" x2="-102.9026" y1="-24.2115" y2="-24.2115" /></svg>