<svg xmlns="http://www.w3.org/2000/svg" baseProfile="tiny" height="247.715mm" version="1.2" viewBox="0 0 313.691 247.715" width="313.692mm"><g transform="translate(104.5706 82.5634)"><defs /><polyline fill="none" points="-64.6509,-58.7185 -64.7409,-58.7489 -64.8334,-58.7819 -64.9284,-58.8172 -65.0256,-58.855 -65.125,-58.8949 -65.2264,-58.937 -65.3296,-58.9811 -65.4346,-59.0271 -65.5411,-59.0748 -65.6434,-59.1326 -65.7446,-59.1951 -65.8462,-59.2597 -65.948,-59.3262 -66.05,-59.3946 -66.1518,-59.4647 -66.2535,-59.5363 -66.3547,-59.6094 -66.4554,-59.6838 -66.5496,-59.7662 -66.6376,-59.8555 -66.7243,-59.9456 -66.8096,-60.0362 -66.8932,-60.1273 -66.9751,-60.2188 -67.0551,-60.3104 -67.1331,-60.4021 -67.2089,-60.4936 -67.2795,-60.5875 -67.3418,-60.6859 -67.4021,-60.783 -67.4603,-60.8787 -67.5162,-60.9727 -67.5696,-61.0651 -67.6205,-61.1558 -67.6687,-61.2445 -67.714,-61.3313 -67.7579,-61.4234 -67.8157,-61.5967 -67.8656,-61.7555 -67.9078,-61.8984 -67.9427,-62.024 -67.9706,-62.1307 -67.9919,-62.2171 -68.007,-62.2818 -68.016,-62.3233 -68.0195,-62.3401 -68.0127,-62.3338 -67.9873,-62.3097 -67.9438,-62.2696 -67.8832,-62.2151 -67.8061,-62.1478 -67.7134,-62.0693 -67.6059,-61.9812 -67.4843,-61.8853 -67.3495,-61.783 -67.2558,-61.7041 -67.1906,-61.6413 -67.1226,-61.5777 -67.0517,-61.5133 -66.9783,-61.4482 -66.9025,-61.3827 -66.8245,-61.3166 -66.7445,-61.2502 -66.6627,-61.1836 -66.5822,-61.1142 -66.5044,-61.0408 -66.4247,-60.9676 -66.3433,-60.8946 -66.2603,-60.822 -66.1759,-60.75 -66.0903,-60.6786 -66.0035,-60.6079 -65.9158,-60.5382 -65.8286,-60.4679 -65.7478,-60.3905 -65.6662,-60.3142 -65.5839,-60.2389 -65.5011,-60.1649 -65.4178,-60.0922 -65.3341,-60.0211 -65.2504,-59.9515 -65.1665,-59.8837 -65.0828,-59.8178 -65.0045,-59.7456 -64.927,-59.6744 -64.8501,-59.605 -64.774,-59.5376 -64.6987,-59.4724 -64.6243,-59.4095 -64.5511,-59.3493 -64.4791,-59.2917 -64.4085,-59.2372 -64.301,-59.1344 -64.1829,-59.0192 -64.0735,-58.9163 -63.9747,-58.8263 -63.888,-58.7496 -63.8151,-58.687 -63.7578,-58.639 -63.7177,-58.6062 -63.6964,-58.5892 -63.694,-58.5868 -63.7003,-58.5872 -63.7131,-58.5881 -63.732,-58.5894 -63.7571,-58.5914 -63.788,-58.594 -63.8247,-58.5973 -63.867,-58.6015 -63.9146,-58.6065 -63.9675,-58.6124 -64.0255,-58.6193 -64.0883,-58.6273 -64.1559,-58.6364 -64.228,-58.6467 -64.3045,-58.6583 -64.3852,-58.6712 -64.4699,-58.6855 -64.5586,-58.7012 -64.6509,-58.7185" stroke="black" /><polyline fill="none" points="-71.4421,-59.2695 -71.5322,-59.3 -71.6248,-59.3329 -71.7198,-59.3683 -71.8171,-59.4059 -71.9164,-59.4457 -72.0178,-59.4875 -72.1211,-59.5313 -72.2261,-59.5768 -72.3327,-59.6241 -72.4346,-59.6822 -72.5356,-59.7451 -72.637,-59.8099 -72.7389,-59.8766 -72.8409,-59.945 -72.9429,-60.0151 -73.0446,-60.0869 -73.146,-60.1601 -73.2467,-60.2348 -73.3408,-60.3175 -73.4287,-60.4066 -73.5153,-60.4966 -73.6004,-60.5871 -73.6839,-60.6781 -73.7657,-60.7694 -73.8457,-60.8608 -73.9238,-60.9522 -73.9998,-61.0434 -74.0707,-61.1371 -74.1329,-61.2359 -74.1931,-61.3333 -74.2511,-61.4292 -74.3067,-61.5234 -74.3599,-61.6159 -74.4106,-61.7066 -74.4585,-61.7954 -74.5035,-61.8822 -74.5473,-61.9743 -74.6058,-62.1476 -74.6562,-62.3064 -74.6987,-62.4493 -74.7338,-62.5749 -74.7618,-62.6816 -74.7832,-62.768 -74.7982,-62.8327 -74.8073,-62.8742 -74.8107,-62.891 -74.8039,-62.8847 -74.7783,-62.8606 -74.7348,-62.8205 -74.674,-62.766 -74.5968,-62.6987 -74.5041,-62.6202 -74.3967,-62.5322 -74.2753,-62.4362 -74.1409,-62.334 -74.0473,-62.2551 -73.982,-62.1923 -73.9137,-62.1286 -73.8426,-62.0642 -73.7691,-61.9992 -73.6932,-61.9336 -73.6152,-61.8675 -73.5353,-61.8011 -73.4537,-61.7345 -73.3732,-61.6651 -73.2951,-61.5917 -73.2153,-61.5185 -73.1339,-61.4455 -73.051,-61.373 -72.9667,-61.301 -72.8812,-61.2296 -72.7946,-61.159 -72.7069,-61.0894 -72.6197,-61.0192 -72.5385,-60.9416 -72.4565,-60.865 -72.374,-60.7895 -72.2911,-60.7153 -72.2078,-60.6424 -72.1243,-60.571 -72.0408,-60.5013 -71.9573,-60.4333 -71.874,-60.3674 -71.7957,-60.2956 -71.7182,-60.2247 -71.6413,-60.1555 -71.565,-60.0883 -71.4896,-60.0232 -71.4151,-59.9604 -71.3417,-59.9002 -71.2694,-59.8426 -71.1985,-59.7881 -71.0908,-59.6849 -70.9726,-59.5694 -70.8632,-59.4662 -70.7643,-59.3759 -70.6776,-59.2992 -70.6047,-59.2365 -70.5473,-59.1885 -70.5071,-59.1558 -70.4858,-59.1388 -70.4834,-59.1364 -70.4898,-59.1368 -70.5025,-59.1377 -70.5216,-59.1391 -70.5467,-59.1412 -70.5778,-59.1439 -70.6146,-59.1473 -70.657,-59.1516 -70.7048,-59.1567 -70.7578,-59.1627 -70.8159,-59.1697 -70.8789,-59.1778 -70.9466,-59.187 -71.0188,-59.1974 -71.0954,-59.2091 -71.1762,-59.222 -71.261,-59.2364 -71.3497,-59.2522 -71.4421,-59.2695" stroke="black" /><polyline fill="none" points="-78.2333,-59.819 -78.3234,-59.8494 -78.4159,-59.8824 -78.5107,-59.9177 -78.6077,-59.9555 -78.7068,-59.9954 -78.8079,-60.0375 -78.9109,-60.0816 -79.0157,-60.1276 -79.1221,-60.1753 -79.2244,-60.2335 -79.3256,-60.2962 -79.4273,-60.3609 -79.5292,-60.4274 -79.6312,-60.4957 -79.7332,-60.5656 -79.835,-60.6371 -79.9366,-60.71 -80.0376,-60.7843 -80.1318,-60.8669 -80.2194,-60.9566 -80.3059,-61.0468 -80.3909,-61.1376 -80.4744,-61.2288 -80.5562,-61.3202 -80.6361,-61.4117 -80.7141,-61.5031 -80.7899,-61.5943 -80.8605,-61.6879 -80.9228,-61.7863 -80.9831,-61.8835 -81.0413,-61.9791 -81.0972,-62.0732 -81.1506,-62.1656 -81.2015,-62.2563 -81.2495,-62.345 -81.2947,-62.4318 -81.3385,-62.5239 -81.3966,-62.6972 -81.4467,-62.856 -81.4892,-62.9989 -81.5244,-63.1245 -81.5527,-63.2312 -81.5743,-63.3176 -81.5895,-63.3823 -81.5988,-63.4238 -81.6023,-63.4406 -81.5955,-63.4343 -81.5699,-63.4103 -81.5262,-63.3703 -81.4653,-63.316 -81.388,-63.2488 -81.295,-63.1704 -81.1872,-63.0823 -81.0655,-62.9862 -80.9305,-62.8836 -80.837,-62.8046 -80.7721,-62.7418 -80.7042,-62.6782 -80.6334,-62.6139 -80.5599,-62.549 -80.484,-62.4835 -80.4058,-62.4178 -80.3257,-62.3517 -80.2439,-62.2855 -80.1633,-62.2162 -80.0855,-62.1425 -80.0059,-62.069 -79.9247,-61.996 -79.8418,-61.9236 -79.7575,-61.8517 -79.6719,-61.7804 -79.585,-61.71 -79.4971,-61.6403 -79.4096,-61.5701 -79.3288,-61.4925 -79.2472,-61.416 -79.1649,-61.3405 -79.0821,-61.2662 -78.9988,-61.1933 -78.9151,-61.1219 -78.8314,-61.0522 -78.7475,-60.9843 -78.6638,-60.9183 -78.5858,-60.8461 -78.5086,-60.7749 -78.432,-60.7055 -78.3559,-60.638 -78.2806,-60.5728 -78.2062,-60.51 -78.1329,-60.4497 -78.0606,-60.3921 -77.9897,-60.3376 -77.882,-60.2348 -77.7639,-60.1197 -77.6545,-60.0168 -77.5557,-59.9267 -77.469,-59.8501 -77.3961,-59.7875 -77.3388,-59.7395 -77.2987,-59.7067 -77.2774,-59.6897 -77.275,-59.6873 -77.2813,-59.6877 -77.2941,-59.6886 -77.3132,-59.6899 -77.3383,-59.6919 -77.3693,-59.6945 -77.4061,-59.6978 -77.4485,-59.702 -77.4962,-59.707 -77.5492,-59.7129 -77.6073,-59.7198 -77.6702,-59.7278 -77.7379,-59.7369 -77.8101,-59.7472 -77.8867,-59.7588 -77.9674,-59.7717 -78.0523,-59.786 -78.1409,-59.8017 -78.2333,-59.819" stroke="black" /><polyline fill="none" points="-85.0245,-60.3699 -85.1141,-60.4003 -85.2063,-60.4332 -85.3011,-60.4686 -85.3981,-60.5062 -85.4974,-60.5461 -85.5987,-60.5879 -85.7018,-60.6317 -85.8068,-60.6773 -85.9133,-60.7246 -86.0156,-60.7827 -86.1168,-60.8456 -86.2184,-60.9104 -86.3203,-60.977 -86.4222,-61.0455 -86.5241,-61.1156 -86.6257,-61.1873 -86.7269,-61.2606 -86.8276,-61.3353 -86.9218,-61.418 -87.0098,-61.5071 -87.0965,-61.5971 -87.1818,-61.6876 -87.2654,-61.7786 -87.3473,-61.8699 -87.4273,-61.9613 -87.5053,-62.0527 -87.5811,-62.1439 -87.6517,-62.2376 -87.714,-62.3364 -87.7742,-62.4338 -87.8322,-62.5297 -87.8879,-62.6239 -87.9413,-62.7164 -87.9922,-62.8071 -88.0404,-62.8959 -88.0859,-62.9827 -88.1301,-63.0748 -88.188,-63.248 -88.2381,-63.4067 -88.2805,-63.5494 -88.3157,-63.6746 -88.3439,-63.781 -88.3655,-63.8672 -88.3807,-63.9316 -88.39,-63.9729 -88.3935,-63.9897 -88.3867,-63.9834 -88.3611,-63.9595 -88.3174,-63.9196 -88.2565,-63.8654 -88.1792,-63.7983 -88.0862,-63.7201 -87.9784,-63.6324 -87.8567,-63.5366 -87.7217,-63.4344 -87.6282,-63.3555 -87.5633,-63.2927 -87.4954,-63.2291 -87.4246,-63.1647 -87.3511,-63.0996 -87.2752,-63.0341 -87.197,-62.968 -87.1169,-62.9016 -87.0351,-62.835 -86.9545,-62.7656 -86.8766,-62.6922 -86.7969,-62.619 -86.7155,-62.546 -86.6326,-62.4735 -86.5482,-62.4015 -86.4625,-62.3301 -86.3757,-62.2595 -86.288,-62.1899 -86.2008,-62.1197 -86.12,-62.0422 -86.0384,-61.9657 -85.9561,-61.8904 -85.8733,-61.8162 -85.79,-61.7434 -85.7063,-61.6721 -85.6226,-61.6023 -85.5387,-61.5342 -85.455,-61.4679 -85.3767,-61.3961 -85.2992,-61.3252 -85.2223,-61.256 -85.1462,-61.1888 -85.0709,-61.1237 -84.9965,-61.0609 -84.9233,-61.0007 -84.8513,-60.9431 -84.7807,-60.8886 -84.6732,-60.7858 -84.5551,-60.6706 -84.4457,-60.5677 -84.3469,-60.4777 -84.2602,-60.401 -84.1873,-60.3384 -84.13,-60.2904 -84.0899,-60.2576 -84.0686,-60.2406 -84.0662,-60.2382 -84.0725,-60.2386 -84.0853,-60.2395 -84.1042,-60.2408 -84.1293,-60.2428 -84.1603,-60.2454 -84.197,-60.2487 -84.2393,-60.2529 -84.287,-60.2579 -84.3399,-60.2638 -84.3979,-60.2707 -84.4608,-60.2787 -84.5285,-60.2878 -84.6007,-60.2981 -84.6773,-60.3097 -84.7582,-60.3226 -84.8431,-60.3369 -84.9319,-60.3526 -85.0245,-60.3699" stroke="black" /><polyline fill="none" points="-91.8144,-60.9213 -91.9045,-60.9512 -91.9971,-60.9837 -92.092,-61.0188 -92.1893,-61.0564 -92.2886,-61.0963 -92.3899,-61.1384 -92.4931,-61.1826 -92.598,-61.2289 -92.7045,-61.277 -92.8068,-61.335 -92.9081,-61.3974 -93.0097,-61.4619 -93.1116,-61.5283 -93.2136,-61.5966 -93.3154,-61.6666 -93.417,-61.7383 -93.5183,-61.8115 -93.6189,-61.8862 -93.713,-61.9689 -93.8009,-62.058 -93.8875,-62.148 -93.9726,-62.2385 -94.0561,-62.3295 -94.1379,-62.4208 -94.2179,-62.5122 -94.296,-62.6036 -94.372,-62.6948 -94.4429,-62.7885 -94.5052,-62.8875 -94.5653,-62.985 -94.6233,-63.0809 -94.679,-63.1752 -94.7322,-63.2677 -94.7828,-63.3583 -94.8307,-63.447 -94.8757,-63.5337 -94.9195,-63.6257 -94.978,-63.7986 -95.0284,-63.9571 -95.0709,-64.0998 -95.106,-64.2252 -95.134,-64.3318 -95.1554,-64.4181 -95.1704,-64.4828 -95.1795,-64.5243 -95.1829,-64.5411 -95.1761,-64.5348 -95.1506,-64.5108 -95.107,-64.4708 -95.0462,-64.4165 -94.9691,-64.3493 -94.8764,-64.2709 -94.7689,-64.1828 -94.6476,-64.0867 -94.5131,-63.9841 -94.4195,-63.9051 -94.3542,-63.8425 -94.2859,-63.779 -94.2148,-63.7149 -94.1413,-63.6501 -94.0654,-63.5848 -93.9874,-63.519 -93.9075,-63.4528 -93.826,-63.3863 -93.7455,-63.317 -93.6674,-63.2435 -93.5875,-63.1703 -93.5061,-63.0973 -93.4232,-63.0248 -93.3389,-62.9527 -93.2534,-62.8813 -93.1668,-62.8106 -93.0791,-62.7409 -92.9919,-62.6706 -92.9107,-62.593 -92.8287,-62.5165 -92.7462,-62.441 -92.6633,-62.3667 -92.58,-62.2938 -92.4966,-62.2224 -92.413,-62.1527 -92.3295,-62.0848 -92.2462,-62.0188 -92.1679,-61.9466 -92.0904,-61.8754 -92.0135,-61.806 -91.9373,-61.7385 -91.8619,-61.6733 -91.7874,-61.6105 -91.7139,-61.5502 -91.6417,-61.4926 -91.5707,-61.4381 -91.463,-61.3352 -91.3449,-61.22 -91.2355,-61.1171 -91.1366,-61.027 -91.0498,-60.9504 -90.9769,-60.8879 -90.9195,-60.8399 -90.8793,-60.8072 -90.858,-60.7902 -90.8556,-60.7878 -90.862,-60.7882 -90.8747,-60.7891 -90.8938,-60.7904 -90.9189,-60.7924 -90.95,-60.795 -90.9868,-60.7984 -91.0292,-60.8026 -91.077,-60.8077 -91.1301,-60.8136 -91.1882,-60.8206 -91.2511,-60.8287 -91.3188,-60.838 -91.3911,-60.8484 -91.4677,-60.8601 -91.5485,-60.8732 -91.6333,-60.8877 -91.722,-60.9037 -91.8144,-60.9213" stroke="black" /><polyline fill="none" points="-98.6056,-61.4704 -98.6956,-61.5008 -98.7881,-61.5338 -98.8829,-61.5691 -98.9799,-61.6069 -99.0791,-61.6468 -99.1802,-61.6889 -99.2832,-61.733 -99.388,-61.779 -99.4944,-61.8267 -99.5967,-61.8846 -99.6979,-61.9472 -99.7995,-62.0118 -99.9013,-62.0783 -100.0033,-62.1467 -100.1051,-62.2168 -100.2068,-62.2884 -100.308,-62.3616 -100.4087,-62.436 -100.5029,-62.5185 -100.5909,-62.6077 -100.6776,-62.6978 -100.7629,-62.7886 -100.8467,-62.8798 -100.9287,-62.9713 -101.0089,-63.0629 -101.0871,-63.1544 -101.1632,-63.2457 -101.2341,-63.3393 -101.2963,-63.4377 -101.3563,-63.5349 -101.4142,-63.6305 -101.4697,-63.7246 -101.5228,-63.817 -101.5734,-63.9077 -101.6214,-63.9964 -101.6666,-64.0832 -101.7107,-64.1753 -101.7692,-64.3486 -101.8196,-64.5074 -101.8622,-64.6503 -101.8974,-64.7759 -101.9255,-64.8826 -101.9469,-64.969 -101.962,-65.0337 -101.9711,-65.0752 -101.9746,-65.092 -101.9678,-65.0857 -101.9422,-65.0618 -101.8986,-65.0218 -101.8377,-64.9675 -101.7605,-64.9004 -101.6677,-64.822 -101.5602,-64.7339 -101.4388,-64.6378 -101.3043,-64.5351 -101.2107,-64.456 -101.1454,-64.3932 -101.0771,-64.3296 -101.006,-64.2652 -100.9323,-64.2001 -100.8563,-64.1346 -100.7781,-64.0685 -100.6979,-64.0021 -100.6161,-63.9355 -100.5355,-63.8661 -100.4577,-63.7928 -100.3782,-63.7197 -100.2969,-63.6469 -100.2142,-63.5746 -100.13,-63.5027 -100.0445,-63.4314 -99.958,-63.3607 -99.8703,-63.2908 -99.7831,-63.2202 -99.702,-63.1427 -99.6201,-63.0662 -99.5376,-62.9909 -99.4545,-62.9167 -99.371,-62.8439 -99.2873,-62.7726 -99.2034,-62.7028 -99.1195,-62.6347 -99.0356,-62.5684 -98.9578,-62.4966 -98.8807,-62.4256 -98.8041,-62.3565 -98.7281,-62.2892 -98.6529,-62.2241 -98.5785,-62.1614 -98.5051,-62.1011 -98.4329,-62.0436 -98.3619,-61.9891 -98.2542,-61.8863 -98.1361,-61.771 -98.0267,-61.668 -97.9278,-61.5777 -97.841,-61.5009 -97.7681,-61.438 -97.7107,-61.3898 -97.6705,-61.3569 -97.6492,-61.3398 -97.6468,-61.3374 -97.6532,-61.3378 -97.6659,-61.3387 -97.685,-61.3401 -97.7101,-61.3422 -97.7412,-61.3449 -97.778,-61.3483 -97.8204,-61.3525 -97.8682,-61.3576 -97.9213,-61.3637 -97.9794,-61.3707 -98.0423,-61.3788 -98.11,-61.388 -98.1823,-61.3984 -98.2589,-61.41 -98.3397,-61.423 -98.4245,-61.4373 -98.5132,-61.4531 -98.6056,-61.4704" stroke="black" /><polyline fill="none" points="25.5431,-12.6305 23.8675,-17.2022 22.5293,-22.6039 24.1874,-25.7064 33.3842,-24.6604 42.6266,-24.1384 45.4632,-23.9791 42.8236,-23.8223 40.0876,-23.701 37.8506,-23.6369 35.757,-23.6021 33.7265,-23.5994 31.7971,-23.6241 30.0038,-23.6763 28.382,-23.7489 26.9686,-23.8333 25.8008,-23.9215 24.9119,-24.0018 24.3374,-24.0519 24.1145,-24.0714 24.2671,-24.0399 24.7713,-23.9369 25.592,-23.7671 26.6976,-23.5478 28.0555,-23.3057 29.6313,-23.0474 31.3903,-22.7872 33.2961,-22.5355 35.3152,-22.3003 37.4095,-22.0881 39.5429,-21.8972 43.3382,-21.6283 46.9338,-21.4466 49.3199,-20.8247 49.5348,-18.7534 49.931,-16.4539 51.0004,-11.5283 53.0777,-5.296 55.7972,2.1283 53.9097,3.9552 47.958,4.3326 44.9355,4.2622 43.9773,1.4877 42.9798,-1.1867 42.0113,-3.7853 41.0883,-6.2984 40.3287,-8.6374 39.7909,-10.7709 39.4241,-12.6342 39.2422,-14.1714 39.1828,-14.8498 39.1615,-15.3596 39.1488,-15.7546 39.1399,-16.0273 39.1355,-16.1702 39.1324,-16.1767 39.1102,-16.0479 39.066,-15.7899 38.9986,-15.4097 38.9144,-14.9109 38.8447,-14.2961 38.7594,-12.7459 38.8112,-10.8142 39.1118,-8.5804 39.6198,-6.1124 40.3233,-3.481 41.1672,-0.9053 42.0149,1.6145 42.8273,4.1797 40.6328,4.7972 34.9659,5.1564 32.2026,5.3361 36.1111,5.5835 41.8277,5.9454 43.6489,6.9996 44.3052,9.6356 44.8138,12.2432 45.2049,14.9115 45.5241,17.5112 45.7095,19.9093 45.7931,22.047 45.8452,23.8721 45.8374,25.3272 45.831,26.3608 45.8188,26.9159 45.8297,26.9425 45.9456,26.4466 46.1571,25.4734 46.411,24.0649 46.6715,22.2643 46.8526,20.1173 46.9253,17.6788 46.8716,15.0041 46.619,12.2873 46.2405,9.8232 45.7367,7.3178 46.7028,6.2537 52.5926,6.6269 57.2036,6.9191 57.5395,7.5372 57.7673,8.2988 58.1549,9.6421 59.6859,17.2525 60.221,25.4683 58.4844,30.6609 45.2801,31.4971 32.0758,32.3334 32.9892,32.5715 41.6237,33.1192 47.5272,33.4937 42.5413,33.4972 32.338,33.4972 28.5156,32.8743 30.2002,28.1453 31.1263,20.7929 31.1528,10.5698 30.2617,1.6369 28.832,-4.9318 27.2869,-9.354 26.0496,-11.8477 25.5431,-12.6305" stroke="black" /><polyline fill="none" points="-58.084,-60.1283 -54.3965,-68.0001 -35.1441,-71.7687 -30.1265,-71.6456 -25.1724,-71.443 -17.9792,-75.8408 10.8662,-78.5442 18.3772,-78.4006 24.6013,-78.1482 24.6932,-78.1458 25.8354,-78.1025 29.1974,-77.933 33.9116,-77.6681 40.7938,-77.2185 47.6863,-76.6919 54.5535,-76.0927 61.3357,-75.4244 67.9705,-74.622 74.3987,-73.6847 80.5457,-72.5152 86.3311,-71.0379 91.6065,-69.0208 94.6161,-67.3177 96.6226,-65.7164 98.2427,-63.8757 99.3947,-61.875 99.874,-60.706 100.1852,-59.7104 100.4076,-58.7356 100.5662,-57.794 100.6761,-56.8888 100.7373,-56.0227 100.7768,-55.1992 100.781,-54.199 100.6643,-51.574 100.4812,-49.6997 100.3542,-48.6175 100.3241,-48.3785 100.3348,-49.009 100.3516,-50.4618 100.3062,-52.6722 100.1748,-54.7331 100.0921,-55.5113 99.9789,-56.3249 99.8267,-57.1664 99.6386,-58.0368 99.3809,-58.9217 99.0739,-59.8221 98.6989,-60.7276 97.1211,-63.1897 93.6216,-66.0605 90.007,-67.7392 86.4293,-68.8761 87.0995,-67.6798 88.9631,-65.3495 91.2821,-58.7947 91.4237,-50.6914 91.0618,-46.5794 90.4237,-43.0975 90.2647,-42.7357 90.1496,-42.5818 88.9972,-41.3672 87.342,-40.1521 85.1491,-39.084 82.4304,-38.2331 79.2455,-37.6001 75.7114,-37.09 71.9502,-36.6863 66.9584,-36.3276 58.609,-36.1127 47.2515,-36.3137 30.8806,-36.9435 19.8279,-37.8197 14.5196,-38.5172 11.439,-39.0317 9.9904,-39.3047 9.0074,-39.5036 8.5213,-39.6006 8.5637,-39.587 9.1253,-39.4417 10.1723,-39.1679 11.6742,-38.8002 15.2123,-38.0181 20.7144,-37.0128 33.2648,-35.3969 49.8992,-33.8744 59.9253,-33.1896 68.3733,-32.9983 72.8177,-33.098 76.6949,-33.3137 80.1848,-33.6401 83.1688,-34.0149 74.5738,-32.432 63.6126,-32.371 30.5829,-33.416 3.4604,-38.9014 3.4347,-62.1429 3.2795,-73.9005 0.8204,-51.8505 -2.2983,-41.5132 -9.2034,-41.6159 -16.6213,-42.9369 -22.8577,-45.3048 -25.5262,-49.614 -25.4322,-65.9277 -26.0029,-66.6563 -28.6865,-51.5889 -35.264,-48.8229 -46.2038,-50.2018 -52.0755,-51.5337 -54.732,-52.5423 -55.504,-56.6704 -55.4533,-65.4432 -56.104,-62.4049 -57.3879,-55.1952 -57.6499,-55.2712 -57.8849,-55.7604 -58.0918,-56.8337 -58.1681,-57.9708 -58.1507,-59.073 -58.084,-60.1283" stroke="black" /><polyline fill="none" points="16.1865,-11.72 16.0539,-11.9675 15.9477,-12.2229 15.8644,-12.4836 15.8011,-12.7475 15.7544,-13.0119 15.7211,-13.2747 15.6981,-13.5335 15.6856,-13.7807 15.6736,-14.0284 15.6616,-14.2768 15.6496,-14.5258 15.6375,-14.7752 15.6255,-15.0247 15.6134,-15.2743 15.596,-15.736 15.5683,-16.2246 15.5307,-16.7102 15.4839,-17.1917 15.4283,-17.6676 15.3644,-18.1365 15.2926,-18.5973 15.2269,-19.0506 15.1562,-19.4939 15.0788,-19.9254 14.9959,-20.344 14.9087,-20.7484 14.8185,-21.1372 14.7265,-21.5092 14.5848,-22.1301 14.429,-22.7606 14.2814,-23.3033 14.1499,-23.7495 14.0423,-24.0903 13.9663,-24.3168 13.9298,-24.4204 13.9456,-24.3963 14.0278,-24.2543 14.1687,-24.0015 14.3593,-23.644 14.5907,-23.1882 14.8539,-22.6403 15.1401,-22.0066 15.3306,-21.5297 15.4635,-21.1529 15.5958,-20.7587 15.7262,-20.3481 15.8534,-19.9221 15.9761,-19.4818 16.0931,-19.0282 16.1951,-18.5616 16.2843,-18.0841 16.3659,-17.5979 16.4391,-17.1043 16.5034,-16.6048 16.5581,-16.1006 16.6027,-15.5933 16.6291,-15.0823 16.6326,-14.5738 16.6304,-14.077 16.637,-13.5985 16.667,-13.1451 16.7348,-12.7236 16.855,-12.3408 17.0303,-12.0002 17.2617,-11.71 17.5488,-11.4722 17.877,-11.2821 18.2318,-11.1355 18.5988,-11.0278 18.9635,-10.9545 19.3177,-10.9037 19.6655,-10.859 19.9994,-10.8238 20.3165,-10.7947 20.6142,-10.7686 20.8895,-10.742 21.1398,-10.7117 21.3628,-10.6765 21.5579,-10.6418 21.7235,-10.6074 21.8589,-10.5754 21.9633,-10.5478 22.036,-10.5265 22.0762,-10.5137 22.0831,-10.5111 22.0553,-10.5145 21.9938,-10.5207 21.8998,-10.5279 21.7746,-10.5343 21.6197,-10.5382 21.4364,-10.5376 21.2256,-10.5318 20.9892,-10.5183 20.7288,-10.4949 20.4442,-10.4652 20.1352,-10.4329 19.8018,-10.4016 19.4437,-10.3748 19.0956,-10.3596 18.896,-10.3683 18.6909,-10.384 18.4808,-10.4082 18.2664,-10.4423 18.0481,-10.4878 17.8267,-10.5462 17.6161,-10.6143 17.5043,-10.6559 17.3918,-10.703 17.2792,-10.7556 17.1669,-10.8137 17.0556,-10.8774 16.9458,-10.9469 16.838,-11.0223 16.7328,-11.1035 16.6307,-11.1907 16.5323,-11.2841 16.4381,-11.3836 16.3488,-11.4893 16.2647,-11.6014 16.1865,-11.72" stroke="black" /><polyline fill="none" points="-7.5215,47.0547 -7.2321,44.6605 -6.4099,42.4762 -5.1242,40.5711 -3.444,39.0144 -1.4385,37.8752 0.8231,37.2228 2.5129,37.0924 3.4988,37.0924 5.3101,37.0924 7.5341,37.0924 9.7581,37.0924 11.5694,37.0924 12.5553,37.0924 12.6268,37.093 12.616,37.0958 12.5994,37.1001 12.5806,37.1049 12.5629,37.1095 12.5497,37.1129 12.5446,37.1142 14.7784,37.1142 20.4871,37.1142 28.1815,37.1142 36.3722,37.1142 43.5701,37.1142 48.286,37.1142 48.9612,37.1238 44.2321,37.252 35.5438,37.4875 24.8758,37.7766 14.2079,38.0657 5.5196,38.3012 0.7905,38.4294 2.3388,38.4906 11.0541,38.727 24.3563,39.0878 39.4932,39.4984 53.7128,39.8841 64.2628,40.1702 68.3911,40.2822 68.7349,40.8676 69.0285,41.4653 69.2755,42.0794 69.4794,42.7142 69.6439,43.3737 69.7725,44.0623 69.855,44.6615 69.8984,45.0272 69.9396,45.3926 69.9789,45.7577 70.0164,46.1227 70.0522,46.4878 70.0866,46.8529 68.0044,47.0295 58.4166,47.2809 43.7825,47.6647 27.1299,48.1015 11.4866,48.5117 -0.1198,48.8161 -4.6614,48.9352 -0.1037,49.0548 11.5439,49.3604 27.2427,49.7724 43.9544,50.2109 58.6404,50.5963 68.2623,50.8488 70.3842,51.4137 70.4327,52.9434 70.4604,54.4739 70.4701,56.0059 70.4645,57.5405 70.4462,59.0782 70.4181,60.62 70.3668,62.5395 70.2621,64.6701 70.0881,66.8156 69.8264,68.9604 69.4588,71.0892 68.9671,73.1866 68.3329,75.2371 64.2082,75.349 53.6672,75.6349 39.4598,76.0202 24.3358,76.4304 11.045,76.7909 2.3372,77.027 0.8297,77.0893 6.082,77.2317 15.7317,77.4935 27.58,77.8148 39.4282,78.1362 49.0779,78.398 54.3302,78.5404 53.2598,78.5511 46.5543,78.5511 36.3196,78.5511 24.6731,78.5511 13.7325,78.5511 5.6153,78.5511 2.439,78.5511 0.0451,78.2616 -2.1389,77.4392 -4.0436,76.1531 -5.6,74.4727 -6.7389,72.4671 -7.3912,70.2057 -7.5215,68.5504 -7.5215,67.9871 -7.5215,66.8424 -7.5215,65.2252 -7.5215,63.2446 -7.5215,61.0096 -7.5215,58.6293 -7.5215,56.2126 -7.5215,53.8686 -7.5215,51.7063 -7.5215,49.8348 -7.5215,48.363 -7.5215,47.3999 -7.5215,47.0547" stroke="black" /><polyline fill="none" points="92.6661,-72.9729 81.5169,-76.3835 65.1305,-78.895 42.5209,-80.9859 29.2377,-81.9381 20.8469,-82.3553 13.0696,-82.5634 2.883,-82.49 -8.3022,-81.7352 -17.1436,-80.2428 -22.6805,-78.4422 -24.5941,-77.4855 -26.0986,-76.499 -27.2893,-75.541 -29.9602,-75.6808 -32.5127,-75.7693 -34.9381,-75.8069 -47.513,-74.8414 -56.7769,-71.2528 -61.0028,-65.8172 -64.7674,-63.156 -80.3303,-64.3128 -97.0358,-65.5546 -102.2381,-65.9143 -103.3816,-65.5395 -104.2149,-64.6913 -104.5706,-63.5127 -104.3317,-62.316 -103.5868,-61.3933 -102.4764,-60.9079 -95.9828,-60.4138 -78.7378,-59.132 -64.1563,-58.0483 -62.101,-56.2825 -61.3064,-53.1556 -59.347,-49.9069 -55.5322,-46.6554 -49.1126,-43.7503 -40.2696,-41.6295 -29.7501,-40.2211 -28.532,-38.8832 -26.8184,-37.4845 -24.5312,-36.0536 -17.7984,-33.1456 -7.7376,-30.3465 5.0347,-27.9875 11.6957,-24.9985 12.7616,-20.8077 13.4518,-16.0127 13.6581,-11.9222 14.4373,-10.1627 15.9186,-8.9737 17.6522,-8.5925 19.1375,-8.5925 21.6269,-8.5925 23.165,-8.5925 24.5094,-5.2174 26.1001,1.3013 27.1237,10.9411 27.076,20.7996 26.3448,26.8454 25.2654,30.3668 24.2259,31.9533 23.1461,32.6415 21.481,32.9771 19.2316,33.0544 14.5617,33.0544 7.0035,33.0544 2.494,33.0544 -3.5027,34.3784 -8.6402,38.5044 -11.3459,44.6023 -11.5608,49.2944 -11.5608,58.0916 -11.5608,66.684 -11.2759,71.4078 -8.4171,77.4201 -3.1724,81.4148 2.9003,82.5886 21.0927,82.5886 49.5678,82.5886 65.9456,82.5886 72.1676,81.1864 77.2509,76.9963 79.8795,70.8578 80.0631,66.1755 80.0631,57.2842 80.0631,48.8024 79.8571,44.6405 77.9445,39.6313 74.3627,35.7725 70.5183,33.5654 70.5183,26.9731 70.5183,16.9808 70.5183,11.451 69.8624,4.9726 68.1003,-1.5174 65.7969,-7.6057 63.7744,-12.5774 62.1786,-17.009 61.2024,-21.1462 61.0473,-23.2485 61.0475,-23.2854 61.048,-23.3224 61.6685,-23.3307 64.4251,-23.2552 67.0165,-23.2097 69.4604,-23.194 80.5941,-23.6423 89.0609,-25.1189 95.1934,-27.7502 99.7411,-31.9033 102.5342,-37.4188 103.9664,-44.1476 104.4893,-50.2185 104.55,-54.6384 104.1131,-58.9417 102.9422,-63.0276 100.8015,-66.7953 97.4548,-70.144 92.6661,-72.9729" stroke="black" /><polyline fill="none" points="-40.6381,-52.0155 -40.9651,-52.0564 -41.3051,-52.1056 -41.6573,-52.1605 -42.0209,-52.2185 -42.3951,-52.2772 -42.7792,-52.3338 -43.1722,-52.3859 -43.5716,-52.4408 -43.9773,-52.4997 -44.388,-52.5622 -44.8028,-52.6281 -45.2204,-52.6973 -45.6397,-52.7695 -46.0596,-52.8444 -46.4814,-52.9076 -46.9021,-52.9716 -47.3206,-53.0382 -47.7356,-53.1071 -48.1463,-53.1781 -48.5515,-53.2509 -48.9502,-53.3252 -49.3409,-53.4007 -49.7246,-53.4698 -50.1002,-53.5339 -50.4659,-53.5949 -50.8203,-53.6549 -51.1616,-53.7159 -51.4884,-53.7798 -51.801,-53.8376 -52.0988,-53.8903 -52.3803,-53.9402 -52.6441,-53.9869 -52.889,-54.0303 -53.1138,-54.0701 -53.3172,-54.1061 -53.4994,-54.1357 -53.6586,-54.1606 -53.7933,-54.1816 -53.9024,-54.1985 -53.9847,-54.2113 -54.0391,-54.2198 -54.0646,-54.2237 -54.0607,-54.2213 -54.0293,-54.2069 -53.9717,-54.1803 -53.8887,-54.142 -53.7815,-54.0924 -53.6511,-54.0319 -53.4984,-53.9611 -53.3225,-53.8848 -53.1251,-53.8009 -52.9079,-53.7081 -52.6714,-53.6087 -52.4161,-53.5053 -52.1423,-53.4002 -51.8505,-53.2958 -51.5419,-53.1931 -51.219,-53.0856 -50.8826,-52.9743 -50.5331,-52.8614 -50.1713,-52.7494 -49.7977,-52.6403 -49.4129,-52.5365 -49.0178,-52.4401 -48.6148,-52.3466 -48.2052,-52.2546 -47.79,-52.1644 -47.3703,-52.0761 -46.9471,-51.99 -46.5216,-51.9064 -46.0933,-51.8342 -45.6633,-51.7776 -45.2344,-51.7241 -44.8078,-51.6738 -44.3847,-51.6269 -43.9661,-51.5833 -43.5532,-51.5433 -43.147,-51.5075 -42.7482,-51.4815 -42.3579,-51.4647 -41.9774,-51.455 -41.6081,-51.4505 -41.2513,-51.4491 -40.9084,-51.449 -40.5804,-51.4481 -40.2675,-51.4527 -39.9713,-51.4642 -39.6931,-51.4806 -39.434,-51.4995 -39.1951,-51.5186 -38.9776,-51.5357 -38.7827,-51.551 -38.6108,-51.5705 -38.4631,-51.5873 -38.3406,-51.6013 -38.2446,-51.6124 -38.1762,-51.6203 -38.1364,-51.6249 -38.1266,-51.6262 -38.1469,-51.6294 -38.1963,-51.6375 -38.2738,-51.6502 -38.3783,-51.6675 -38.5086,-51.6893 -38.6637,-51.7155 -38.8313,-51.7439 -38.9279,-51.7584 -39.0301,-51.7737 -39.1378,-51.7899 -39.2509,-51.8069 -39.3691,-51.8246 -39.4922,-51.8431 -39.6202,-51.8623 -39.7529,-51.8822 -39.8901,-51.9028 -40.0316,-51.9241 -40.1774,-51.946 -40.3271,-51.9686 -40.4808,-51.9918 -40.6381,-52.0155" stroke="black" /><polyline fill="none" points="-37.8564,-54.3464 -38.135,-54.4065 -38.4251,-54.4728 -38.726,-54.5428 -39.0371,-54.614 -39.3579,-54.6842 -39.6878,-54.7507 -40.0261,-54.8112 -40.3713,-54.8696 -40.722,-54.9291 -41.0776,-54.9893 -41.4371,-55.0501 -41.7994,-55.1113 -42.1637,-55.1727 -42.5291,-55.2341 -42.8965,-55.2791 -43.2637,-55.3219 -43.6293,-55.3645 -43.9924,-55.4067 -44.3519,-55.4484 -44.7068,-55.4893 -45.0561,-55.5293 -45.3991,-55.5672 -45.7358,-55.5973 -46.0651,-55.621 -46.3857,-55.6406 -46.6965,-55.658 -46.9961,-55.6753 -47.2835,-55.6946 -47.5583,-55.7127 -47.82,-55.7239 -48.0674,-55.73 -48.2994,-55.7326 -48.5147,-55.7336 -48.7123,-55.7346 -48.8909,-55.7374 -49.0505,-55.7366 -49.1898,-55.7338 -49.3078,-55.7314 -49.4033,-55.7294 -49.4754,-55.7279 -49.5231,-55.7268 -49.5454,-55.7263 -49.5418,-55.7247 -49.5134,-55.716 -49.461,-55.6999 -49.3857,-55.6767 -49.2883,-55.6465 -49.1696,-55.6095 -49.0306,-55.5659 -48.8715,-55.5209 -48.6937,-55.4716 -48.4983,-55.4158 -48.2862,-55.3555 -48.058,-55.2926 -47.8143,-55.2293 -47.5558,-55.1674 -47.2835,-55.1083 -46.9991,-55.0447 -46.7033,-54.9765 -46.3968,-54.906 -46.0804,-54.8355 -45.7545,-54.7671 -45.4199,-54.7031 -45.0777,-54.6443 -44.7294,-54.5852 -44.376,-54.5252 -44.0182,-54.4645 -43.657,-54.4031 -43.2934,-54.3414 -42.9283,-54.2793 -42.5619,-54.2252 -42.1946,-54.1826 -41.8284,-54.1402 -41.4644,-54.098 -41.1034,-54.0561 -40.7465,-54.0147 -40.3946,-53.9738 -40.0486,-53.9335 -39.7087,-53.8994 -39.3755,-53.8726 -39.0503,-53.8512 -38.7343,-53.8331 -38.429,-53.8162 -38.1355,-53.7985 -37.855,-53.7787 -37.5875,-53.7641 -37.3334,-53.7558 -37.094,-53.7518 -36.8706,-53.7504 -36.6644,-53.7498 -36.4765,-53.7482 -36.308,-53.746 -36.1589,-53.7491 -36.0309,-53.7517 -35.925,-53.7539 -35.8421,-53.7556 -35.7831,-53.7568 -35.7489,-53.7575 -35.7404,-53.7578 -35.7573,-53.7631 -35.7985,-53.7761 -35.8631,-53.7963 -35.9503,-53.8235 -36.0591,-53.8574 -36.1886,-53.8977 -36.3287,-53.9407 -36.4102,-53.9622 -36.4964,-53.9859 -36.587,-54.0116 -36.6821,-54.0389 -36.7815,-54.0677 -36.8851,-54.0976 -36.9929,-54.1284 -37.1047,-54.1597 -37.2206,-54.1915 -37.3403,-54.2233 -37.4638,-54.255 -37.5911,-54.2863 -37.722,-54.3168 -37.8564,-54.3464" stroke="black" /><polyline fill="none" points="-41.2456,-57.4205 -41.3905,-57.4139 -41.5284,-57.4021 -41.6588,-57.387 -41.781,-57.3702 -41.8942,-57.3537 -41.9979,-57.3391 -42.0912,-57.3284 -42.1745,-57.3125 -42.2465,-57.2985 -42.3068,-57.2867 -42.3549,-57.2774 -42.3903,-57.2706 -42.4126,-57.2664 -42.4212,-57.2647 -42.4162,-57.2625 -42.3983,-57.2546 -42.368,-57.2414 -42.3258,-57.223 -42.2719,-57.1997 -42.207,-57.1716 -42.1313,-57.1392 -42.045,-57.109 -41.9494,-57.0738 -41.8448,-57.034 -41.7314,-56.9913 -41.6097,-56.9479 -41.4797,-56.9058 -41.3419,-56.8669 -41.1963,-56.8309 -41.0447,-56.7905 -40.8875,-56.7469 -40.7248,-56.7023 -40.5569,-56.659 -40.3839,-56.619 -40.2062,-56.5846 -40.0241,-56.5555 -39.8389,-56.5261 -39.651,-56.4963 -39.4611,-56.466 -39.2696,-56.4354 -39.077,-56.4045 -38.8837,-56.3734 -38.6889,-56.3549 -38.4937,-56.3434 -38.2994,-56.3318 -38.1064,-56.3202 -37.9151,-56.3085 -37.7261,-56.297 -37.5397,-56.2855 -37.3564,-56.275 -37.1761,-56.2716 -36.9996,-56.2744 -36.8276,-56.2814 -36.6606,-56.2902 -36.4993,-56.2986 -36.3445,-56.3045 -36.1968,-56.3085 -36.0559,-56.3183 -35.9221,-56.3326 -35.7962,-56.3494 -35.6788,-56.3667 -35.5706,-56.3827 -35.4723,-56.3954 -35.3842,-56.408 -35.3068,-56.4232 -35.241,-56.4361 -35.1871,-56.4468 -35.1456,-56.455 -35.1171,-56.4607 -35.102,-56.4637 -35.1007,-56.4647 -35.1126,-56.4698 -35.1371,-56.4803 -35.1738,-56.4962 -35.2222,-56.5171 -35.282,-56.5431 -35.3527,-56.5739 -35.4338,-56.606 -35.5247,-56.6384 -35.6249,-56.6765 -35.7341,-56.7183 -35.8519,-56.7618 -35.9783,-56.8047 -36.1128,-56.8451 -36.2552,-56.881 -36.4041,-56.9193 -36.5587,-56.962 -36.7189,-57.0066 -36.8844,-57.0508 -37.055,-57.0923 -37.2305,-57.1288 -37.4106,-57.1586 -37.5945,-57.1884 -37.7812,-57.2184 -37.9702,-57.2486 -38.161,-57.279 -38.3532,-57.3095 -38.5462,-57.3401 -38.74,-57.3674 -38.9354,-57.3794 -39.1302,-57.3911 -39.3239,-57.4027 -39.516,-57.414 -39.7062,-57.4251 -39.8939,-57.436 -40.0678,-57.4461 -40.1588,-57.4508 -40.2492,-57.4534 -40.3388,-57.4543 -40.4275,-57.4536 -40.5153,-57.4517 -40.602,-57.4487 -40.6875,-57.4451 -40.7718,-57.4409 -40.8547,-57.4365 -40.9362,-57.4322 -41.0161,-57.4282 -41.0944,-57.4247 -41.1709,-57.4221 -41.2456,-57.4205" stroke="black" /><polyline fill="none" points="-5.9186,-45.0044 -6.3242,-45.0246 -6.7464,-45.0553 -7.184,-45.0937 -7.6356,-45.1372 -8.1,-45.1829 -8.5761,-45.2283 -9.0625,-45.2705 -9.5589,-45.3189 -10.0623,-45.374 -10.5714,-45.4353 -11.085,-45.5025 -11.6016,-45.5755 -12.1202,-45.6542 -12.6393,-45.7383 -13.1599,-45.8158 -13.6789,-45.8969 -14.1946,-45.9829 -14.7057,-46.0735 -15.2109,-46.1684 -15.7087,-46.2674 -16.1978,-46.3703 -16.6767,-46.4776 -17.1468,-46.5801 -17.6065,-46.6784 -18.0536,-46.7748 -18.4861,-46.8711 -18.902,-46.9695 -19.2992,-47.0719 -19.6786,-47.1708 -20.0404,-47.2615 -20.3825,-47.3463 -20.7032,-47.4256 -21.0007,-47.5005 -21.2733,-47.5715 -21.5192,-47.6394 -21.7394,-47.6981 -21.9321,-47.7474 -22.0951,-47.7892 -22.2271,-47.8229 -22.3268,-47.8484 -22.3927,-47.8653 -22.4236,-47.8732 -22.4189,-47.8702 -22.381,-47.8507 -22.3112,-47.8148 -22.211,-47.7632 -22.0813,-47.6965 -21.9235,-47.6152 -21.7388,-47.52 -21.5261,-47.4162 -21.2872,-47.3024 -21.0241,-47.1774 -20.7371,-47.0441 -20.4266,-46.9053 -20.093,-46.7638 -19.7365,-46.6223 -19.3595,-46.4811 -18.9647,-46.3351 -18.5522,-46.1865 -18.1229,-46.0375 -17.6777,-45.89 -17.2176,-45.7462 -16.7433,-45.6081 -16.2563,-45.4794 -15.7589,-45.3574 -15.2528,-45.2392 -14.7392,-45.1249 -14.2195,-45.0149 -13.6952,-44.9094 -13.1676,-44.8087 -12.6363,-44.7233 -12.1026,-44.658 -11.5703,-44.5983 -11.0409,-44.5443 -10.5157,-44.4961 -9.9961,-44.454 -9.4834,-44.4181 -8.979,-44.3902 -8.4842,-44.3752 -8.0003,-44.3707 -7.5291,-44.375 -7.072,-44.386 -6.6307,-44.4021 -6.2066,-44.4213 -5.8011,-44.4413 -5.415,-44.4663 -5.0504,-44.4988 -4.7084,-44.5362 -4.3903,-44.5758 -4.0974,-44.6152 -3.8308,-44.6516 -3.5918,-44.6853 -3.3815,-44.7216 -3.2009,-44.7525 -3.0514,-44.778 -2.9344,-44.7978 -2.8511,-44.8118 -2.8028,-44.8199 -2.7908,-44.822 -2.816,-44.8236 -2.8774,-44.8272 -2.9738,-44.833 -3.1038,-44.8406 -3.2661,-44.8501 -3.4595,-44.8612 -3.6686,-44.8726 -3.7894,-44.8763 -3.917,-44.8815 -4.0513,-44.888 -4.1921,-44.8958 -4.3391,-44.9047 -4.4924,-44.9144 -4.6516,-44.9248 -4.8165,-44.9358 -4.9872,-44.9472 -5.1632,-44.9588 -5.3446,-44.9705 -5.531,-44.9821 -5.7224,-44.9935 -5.9186,-45.0044" stroke="black" /><polyline fill="none" points="-4.1386,-48.4141 -4.4763,-48.4263 -4.8282,-48.4465 -5.1932,-48.4723 -5.5703,-48.501 -5.9583,-48.5301 -6.3561,-48.557 -6.7626,-48.5794 -7.1761,-48.6056 -7.5959,-48.6363 -8.0209,-48.6713 -8.4501,-48.7103 -8.8822,-48.7533 -9.3164,-48.8001 -9.7513,-48.8506 -10.1868,-48.8917 -10.6212,-48.9346 -11.0533,-48.9809 -11.4822,-49.0304 -11.9067,-49.0832 -12.3257,-49.139 -12.7383,-49.1977 -13.1418,-49.2597 -13.5379,-49.3164 -13.9252,-49.3687 -14.3023,-49.419 -14.6674,-49.4693 -15.019,-49.5218 -15.3555,-49.5787 -15.6776,-49.634 -15.9849,-49.6826 -16.2755,-49.7264 -16.548,-49.7666 -16.8009,-49.8042 -17.0326,-49.8403 -17.2416,-49.876 -17.4293,-49.9055 -17.5937,-49.9293 -17.7327,-49.9494 -17.8452,-49.9657 -17.9301,-49.978 -17.9863,-49.9862 -18.0127,-49.99 -18.0086,-49.9876 -17.9761,-49.9732 -17.9163,-49.9467 -17.8302,-49.9087 -17.7188,-49.8595 -17.5831,-49.7998 -17.424,-49.7299 -17.2416,-49.655 -17.0371,-49.573 -16.8117,-49.4828 -16.566,-49.3867 -16.3005,-49.2873 -16.0157,-49.187 -15.712,-49.0884 -15.3913,-48.9914 -15.0558,-48.8903 -14.7057,-48.7869 -14.3418,-48.6834 -13.965,-48.5819 -13.5761,-48.4844 -13.176,-48.3932 -12.7651,-48.3107 -12.3457,-48.2329 -11.9194,-48.1578 -11.4873,-48.0856 -11.0505,-48.0167 -10.6102,-47.9512 -10.1674,-47.8895 -9.7224,-47.8409 -9.2763,-47.809 -8.8315,-47.7811 -8.3892,-47.7573 -7.9506,-47.7375 -7.517,-47.7221 -7.0894,-47.7109 -6.669,-47.705 -6.2567,-47.709 -5.8542,-47.7221 -5.4624,-47.7424 -5.0827,-47.7677 -4.7161,-47.7961 -4.3638,-47.8255 -4.0269,-47.854 -3.7067,-47.887 -3.4043,-47.926 -3.1206,-47.9685 -2.8568,-48.0121 -2.6138,-48.0545 -2.3926,-48.0933 -2.1944,-48.1284 -2.0204,-48.1653 -1.871,-48.1968 -1.7473,-48.2229 -1.6503,-48.2432 -1.5813,-48.2576 -1.5412,-48.2659 -1.5313,-48.2681 -1.5523,-48.2695 -1.6037,-48.2729 -1.6842,-48.2782 -1.7928,-48.2853 -1.9284,-48.2942 -2.0899,-48.3047 -2.2645,-48.3155 -2.3649,-48.3184 -2.4711,-48.3227 -2.5829,-48.3281 -2.7001,-48.3345 -2.8227,-48.3418 -2.9504,-48.3497 -3.0831,-48.358 -3.2207,-48.3666 -3.3629,-48.3753 -3.5096,-48.384 -3.6607,-48.3923 -3.816,-48.4003 -3.9754,-48.4076 -4.1386,-48.4141" stroke="black" /><polyline fill="none" points="-6.291,-51.8063 -6.5262,-51.7997 -6.7606,-51.7931 -6.9936,-51.7864 -7.2248,-51.7798 -7.4537,-51.7732 -7.6798,-51.7666 -7.9027,-51.76 -8.1212,-51.754 -8.3354,-51.7416 -8.5447,-51.7245 -8.7483,-51.705 -8.9456,-51.6854 -9.1359,-51.6676 -9.3184,-51.654 -9.4922,-51.6399 -9.6577,-51.621 -9.814,-51.5991 -9.9605,-51.5762 -10.0964,-51.5539 -10.221,-51.5341 -10.3335,-51.5184 -10.434,-51.5 -10.5215,-51.4828 -10.5951,-51.4684 -10.6542,-51.4569 -10.6984,-51.4484 -10.7269,-51.4429 -10.7392,-51.4406 -10.7349,-51.439 -10.7146,-51.4325 -10.6788,-51.4211 -10.6282,-51.4051 -10.5633,-51.3845 -10.4846,-51.3596 -10.3927,-51.3306 -10.2881,-51.3031 -10.1714,-51.2722 -10.043,-51.2372 -9.9037,-51.2002 -9.7538,-51.1631 -9.594,-51.1281 -9.4248,-51.0972 -9.2468,-51.0696 -9.0608,-51.0385 -8.8671,-51.0053 -8.6663,-50.9718 -8.4591,-50.9404 -8.246,-50.913 -8.0275,-50.8917 -7.804,-50.8785 -7.5765,-50.8667 -7.3459,-50.8547 -7.1127,-50.8424 -6.8774,-50.83 -6.6407,-50.8174 -6.403,-50.8048 -6.1652,-50.8051 -5.9279,-50.8172 -5.6913,-50.8294 -5.4561,-50.8415 -5.223,-50.8534 -4.9927,-50.865 -4.7657,-50.8762 -4.5429,-50.889 -4.3249,-50.9099 -4.1124,-50.9371 -3.9057,-50.9684 -3.7054,-51.0018 -3.512,-51.0348 -3.3259,-51.0654 -3.148,-51.0926 -2.9794,-51.1239 -2.8201,-51.159 -2.6709,-51.196 -2.532,-51.2328 -2.404,-51.2673 -2.2875,-51.2975 -2.1834,-51.325 -2.0926,-51.3542 -2.0147,-51.3792 -1.9505,-51.3997 -1.9006,-51.4157 -1.8655,-51.4268 -1.846,-51.433 -1.8426,-51.4344 -1.8559,-51.437 -1.8854,-51.4426 -1.9305,-51.4513 -1.9905,-51.4629 -2.0649,-51.4775 -2.1531,-51.4948 -2.2545,-51.5129 -2.3682,-51.529 -2.4937,-51.5494 -2.6303,-51.5721 -2.7773,-51.5953 -2.9342,-51.6173 -3.1004,-51.6361 -3.275,-51.6498 -3.4575,-51.664 -3.6478,-51.6826 -3.8453,-51.7032 -4.0491,-51.7234 -4.2587,-51.7409 -4.4731,-51.7532 -4.6789,-51.7582 -4.7896,-51.7615 -4.9013,-51.7649 -5.014,-51.7683 -5.1275,-51.7718 -5.2418,-51.7753 -5.3567,-51.7788 -5.4722,-51.7823 -5.5883,-51.7857 -5.7048,-51.7892 -5.8217,-51.7927 -5.9388,-51.7962 -6.0561,-51.7996 -6.1735,-51.803 -6.291,-51.8063" stroke="black" /><polyline fill="none" points="74.6029,-56.0623 73.0366,-56.2254 71.4034,-56.401 69.7082,-56.5851 67.9558,-56.7734 66.1512,-56.9618 64.2993,-57.1461 62.405,-57.3224 60.4736,-57.497 58.5108,-57.6746 56.5219,-57.8546 54.512,-58.0364 52.4861,-58.2197 50.4494,-58.4039 48.4071,-58.5887 46.3616,-58.7463 44.3202,-58.8998 42.2884,-59.0526 40.2714,-59.2042 38.2743,-59.3544 36.3025,-59.5029 34.3609,-59.6493 32.4545,-59.7891 30.5876,-59.9145 28.7655,-60.0282 26.9937,-60.1331 25.2775,-60.2324 23.6224,-60.3288 22.0338,-60.4256 20.517,-60.5176 19.0759,-60.5951 17.7156,-60.6608 16.4417,-60.7174 15.2596,-60.7675 14.1748,-60.8138 13.1927,-60.859 12.3174,-60.8936 11.5545,-60.9205 10.9096,-60.9434 10.3877,-60.962 9.994,-60.9761 9.7336,-60.9855 9.6117,-60.99 9.6327,-60.9863 9.7945,-60.965 10.0922,-60.9258 10.5207,-60.8694 11.0749,-60.7968 11.7497,-60.7084 12.5401,-60.6052 13.4411,-60.4951 14.4474,-60.3732 15.5538,-60.2366 16.7555,-60.0887 18.0474,-59.9329 19.4246,-59.7728 20.8822,-59.6117 22.4152,-59.4524 24.0175,-59.2831 25.684,-59.1036 27.4098,-58.9177 29.1902,-58.7293 31.0203,-58.5424 32.8952,-58.3608 34.8099,-58.1861 36.7586,-58.0096 38.736,-57.8304 40.737,-57.6491 42.7564,-57.4662 44.7889,-57.2822 46.8295,-57.0975 48.8742,-56.9253 50.9186,-56.7714 52.9556,-56.6179 54.9801,-56.4654 56.987,-56.3141 58.9711,-56.1645 60.9273,-56.0169 62.8506,-55.8717 64.737,-55.7386 66.5812,-55.6195 68.3776,-55.511 70.1208,-55.41 71.8052,-55.3132 73.4256,-55.2175 74.9765,-55.1212 76.4542,-55.0373 77.8533,-54.9666 79.1686,-54.9062 80.3946,-54.8535 81.526,-54.8057 82.5573,-54.7601 83.4835,-54.7179 84.2996,-54.6897 85.0004,-54.6653 85.5806,-54.6448 86.0351,-54.6287 86.3588,-54.6171 86.5465,-54.6103 86.5931,-54.6088 86.4969,-54.6215 86.2624,-54.6526 85.8948,-54.7011 85.3991,-54.7664 84.7804,-54.8478 84.0438,-54.9445 83.2474,-55.0479 82.7846,-55.1021 82.2956,-55.1608 81.781,-55.2237 81.2413,-55.2903 80.6773,-55.3601 80.0895,-55.4328 79.4785,-55.5079 78.8449,-55.5848 78.1893,-55.6633 77.5124,-55.7428 76.8146,-55.8229 76.0968,-55.9032 75.3593,-55.9831 74.6029,-56.0623" stroke="black" /><polyline fill="none" points="71.0113,-49.6289 70.0239,-49.7498 68.9947,-49.8815 67.9265,-50.0199 66.8225,-50.1611 65.6854,-50.3012 64.5183,-50.4362 63.3241,-50.5622 62.1055,-50.6852 60.867,-50.8105 59.6121,-50.9376 58.3439,-51.0659 57.0657,-51.1952 55.7807,-51.325 54.4923,-51.455 53.2008,-51.5586 51.9119,-51.6581 50.6292,-51.7569 49.3558,-51.8548 48.0951,-51.9517 46.8501,-52.0474 45.624,-52.1418 44.4207,-52.2311 43.2419,-52.3072 42.091,-52.3726 40.9715,-52.4305 39.8871,-52.4841 38.8411,-52.5363 37.8373,-52.5905 36.8786,-52.6418 35.9674,-52.6809 35.1072,-52.7105 34.3015,-52.7335 33.5538,-52.7524 32.8677,-52.7701 32.2465,-52.7893 31.6929,-52.801 31.2102,-52.8077 30.8021,-52.8135 30.4718,-52.8182 30.2226,-52.8218 30.0578,-52.8242 29.9806,-52.8253 29.9938,-52.8223 30.0958,-52.8053 30.2834,-52.7742 30.5532,-52.7294 30.9021,-52.6715 31.3266,-52.6011 31.8237,-52.5187 32.3907,-52.4326 33.0243,-52.3378 33.721,-52.2309 34.4777,-52.1152 35.2913,-51.9941 36.1587,-51.871 37.0769,-51.7492 38.0431,-51.6307 39.053,-51.5038 40.1033,-51.3685 41.1909,-51.2286 42.3131,-51.0879 43.4668,-50.9499 44.6491,-50.8186 45.857,-50.695 47.0862,-50.5702 48.3333,-50.4437 49.5952,-50.3156 50.8687,-50.1864 52.1507,-50.0563 53.438,-49.9257 54.7285,-49.8078 56.0192,-49.7086 57.3052,-49.6097 58.5833,-49.5113 59.8504,-49.4137 61.1033,-49.3172 62.3386,-49.222 63.553,-49.1282 64.7437,-49.0451 65.9082,-48.9749 67.0428,-48.9142 68.1442,-48.8596 69.2087,-48.8076 70.2328,-48.7548 71.213,-48.6995 72.1469,-48.6543 73.0316,-48.6203 73.8633,-48.5947 74.6388,-48.5746 75.3544,-48.5571 76.0066,-48.5394 76.5922,-48.5221 77.1088,-48.5148 77.5524,-48.5087 77.9197,-48.5038 78.2074,-48.5 78.4123,-48.4974 78.5312,-48.4959 78.5607,-48.4957 78.5001,-48.5058 78.3524,-48.5304 78.121,-48.5689 77.8089,-48.6207 77.4196,-48.6853 76.9562,-48.7621 76.4552,-48.8441 76.1636,-48.8858 75.8556,-48.9315 75.5315,-48.9806 75.1917,-49.0328 74.8366,-49.0877 74.4665,-49.1448 74.0818,-49.2037 73.6829,-49.2639 73.2701,-49.325 72.8438,-49.3865 72.4044,-49.4482 71.9523,-49.5094 71.4878,-49.5698 71.0113,-49.6289" stroke="black" /><polyline fill="none" points="29.6123,-73.4174 28.6645,-73.4589 27.765,-73.4893 26.9172,-73.5111 26.1247,-73.5274 25.3909,-73.5407 24.7194,-73.554 24.1135,-73.5699 23.576,-73.5746 23.1108,-73.5779 22.7209,-73.5805 22.4098,-73.5825 22.1805,-73.584 22.0362,-73.5849 21.9802,-73.5852 22.0146,-73.5797 22.1368,-73.5603 22.3438,-73.5274 22.6325,-73.4816 22.9996,-73.4233 23.442,-73.353 23.9565,-73.2711 24.541,-73.1892 25.1908,-73.0959 25.9027,-72.9918 26.6738,-72.8802 27.501,-72.7643 28.3816,-72.6476 29.3124,-72.5332 30.2897,-72.4205 31.31,-72.298 32.3701,-72.1683 33.4671,-72.0352 34.5978,-71.9022 35.7592,-71.7733 36.9483,-71.652 38.1621,-71.5373 39.3967,-71.421 40.6484,-71.303 41.9143,-71.1836 43.191,-71.0631 44.4754,-70.9418 45.7644,-70.8199 47.0563,-70.7185 48.3468,-70.6284 49.6319,-70.5386 50.9083,-70.4493 52.1728,-70.3607 53.4222,-70.2732 54.6533,-70.187 55.8633,-70.103 57.0495,-70.0315 58.2082,-69.9718 59.336,-69.9205 60.4293,-69.8743 61.4848,-69.8296 62.4989,-69.783 63.4684,-69.7357 64.3912,-69.7002 65.264,-69.6746 66.0832,-69.6561 66.8452,-69.6419 67.5464,-69.629 68.1832,-69.6147 68.7529,-69.604 69.2526,-69.6012 69.6783,-69.5987 70.0269,-69.5966 70.2951,-69.595 70.4798,-69.5938 70.5777,-69.5932 70.5858,-69.5943 70.5046,-69.6072 70.337,-69.6337 70.0864,-69.6735 69.7558,-69.726 69.3484,-69.7907 68.8674,-69.8672 68.3157,-69.95 67.6967,-70.0374 67.0141,-70.1373 66.2708,-70.2463 65.4698,-70.361 64.614,-70.478 63.7065,-70.5939 62.7503,-70.7055 61.7494,-70.8235 60.7075,-70.9506 59.6275,-71.0829 58.5122,-71.2165 57.3647,-71.3474 56.188,-71.4718 54.985,-71.5869 53.7596,-71.7026 52.5156,-71.8199 51.256,-71.9386 49.984,-72.0584 48.7028,-72.1791 47.4156,-72.3002 46.1251,-72.4161 44.8331,-72.5062 43.545,-72.5962 42.2641,-72.6858 40.9936,-72.7747 39.7367,-72.8627 38.4966,-72.9495 37.3477,-73.0299 36.7453,-73.0706 36.1489,-73.1076 35.5588,-73.1415 34.9754,-73.1726 34.3993,-73.2013 33.8308,-73.228 33.2705,-73.2532 32.7187,-73.2771 32.1758,-73.3002 31.6425,-73.3229 31.119,-73.3455 30.6058,-73.3686 30.1035,-73.3924 29.6123,-73.4174" stroke="black" /><polyline fill="none" points="28.3391,56.499 29.0824,56.5284 29.8576,56.564 30.6624,56.6025 31.4942,56.6407 32.3506,56.6756 33.2291,56.7039 34.1273,56.7225 35.0426,56.7355 35.973,56.7488 36.916,56.7623 37.869,56.7762 38.8296,56.7902 39.7953,56.8045 40.7635,56.819 41.7315,56.8084 42.6975,56.7944 43.6589,56.7804 44.6135,56.7666 45.5587,56.7528 46.492,56.7391 47.4112,56.7256 48.3138,56.7107 49.1973,56.6853 50.0591,56.6521 50.8969,56.6143 51.7084,56.5752 52.491,56.5383 53.2426,56.5069 53.96,56.4766 54.641,56.4389 55.2834,56.3966 55.8847,56.3525 56.4425,56.3094 56.9545,56.2699 57.4182,56.2369 57.8315,56.2031 58.1917,56.1708 58.4962,56.1434 58.7426,56.1212 58.9285,56.1045 59.0515,56.0934 59.109,56.0882 59.099,56.0865 59.022,56.0793 58.8803,56.0661 58.6763,56.0472 58.4126,56.0228 58.0915,55.9932 57.7154,55.9587 57.287,55.9269 56.8088,55.8926 56.2831,55.8522 55.7122,55.8086 55.0986,55.7647 54.4446,55.7233 53.7527,55.6873 53.0249,55.6583 52.264,55.625 51.4726,55.5871 50.6532,55.5481 49.808,55.5112 48.9396,55.4798 48.0502,55.4573 47.1425,55.4438 46.2189,55.4304 45.2818,55.4168 44.3336,55.403 43.3767,55.3892 42.4137,55.3753 41.4469,55.3613 40.4786,55.3589 39.5109,55.373 38.5464,55.3871 37.5878,55.4011 36.6375,55.415 35.698,55.4286 34.7717,55.4418 33.8612,55.4553 32.9686,55.4776 32.0963,55.5084 31.2469,55.5447 30.4227,55.5834 29.6264,55.6215 28.8603,55.6558 28.1271,55.6848 27.429,55.7193 26.7681,55.7595 26.1468,55.8027 25.5679,55.8461 25.0338,55.8871 24.5471,55.9228 24.1102,55.9539 23.7245,55.9889 23.3935,56.0191 23.1194,56.0441 22.9048,56.0636 22.752,56.0776 22.6634,56.0857 22.6415,56.0879 22.6872,56.0919 22.7987,56.1019 22.9736,56.1175 23.2095,56.1386 23.5039,56.165 23.8545,56.1967 24.2336,56.2303 24.4531,56.2445 24.6852,56.2607 24.9296,56.2788 25.1861,56.2983 25.4542,56.3189 25.7336,56.3404 26.0241,56.3622 26.3253,56.3841 26.6368,56.4058 26.9584,56.427 27.2898,56.4472 27.6306,56.4662 27.9805,56.4835 28.3391,56.499" stroke="black" /><polyline fill="none" points="28.3391,60.237 29.0824,60.2668 29.8576,60.3026 30.6624,60.341 31.4942,60.3792 32.3506,60.4139 33.2291,60.442 34.1273,60.4606 35.0426,60.474 35.973,60.4876 36.916,60.5014 37.869,60.5152 38.8296,60.5291 39.7953,60.5431 40.7635,60.5571 41.7315,60.5464 42.6975,60.5326 43.6589,60.519 44.6135,60.5054 45.5587,60.492 46.492,60.4786 47.4112,60.4653 48.3138,60.4503 49.1973,60.4249 50.0591,60.3914 50.8969,60.3534 51.7084,60.314 52.491,60.2767 53.2426,60.2447 53.96,60.2148 54.641,60.1774 55.2834,60.1353 55.8847,60.0912 56.4425,60.048 56.9545,60.0087 57.4182,59.9761 57.8315,59.9421 58.1917,59.9094 58.4962,59.8816 58.7426,59.8592 58.9285,59.8422 59.0515,59.831 59.109,59.8258 59.099,59.8241 59.022,59.8171 58.8803,59.8042 58.6763,59.7857 58.4126,59.7617 58.0915,59.7324 57.7154,59.6981 57.287,59.6659 56.8088,59.6313 56.2831,59.5908 55.7122,59.5474 55.0986,59.5038 54.4446,59.4627 53.7527,59.427 53.0249,59.3981 52.264,59.3648 51.4726,59.3268 50.6532,59.2876 49.808,59.2505 48.9396,59.2187 48.0502,59.1957 47.1425,59.1819 46.2189,59.1684 45.2818,59.1548 44.3336,59.1411 43.3767,59.1274 42.4137,59.1137 41.4469,59.1002 40.4786,59.0982 39.5109,59.1122 38.5464,59.1261 37.5878,59.14 36.6375,59.1539 35.698,59.1676 34.7717,59.1812 33.8612,59.1949 32.9686,59.2165 32.0963,59.2469 31.2469,59.283 30.4227,59.3215 29.6264,59.3595 28.8603,59.3939 28.1271,59.4228 27.429,59.4573 26.7681,59.4977 26.1468,59.5412 25.5679,59.585 25.0338,59.6262 24.5471,59.6621 24.1102,59.6931 23.7245,59.7277 23.3935,59.7574 23.1194,59.7821 22.9048,59.8015 22.752,59.8153 22.6634,59.8233 22.6415,59.8255 22.6872,59.8297 22.7987,59.8398 22.9736,59.8558 23.2095,59.8773 23.5039,59.9041 23.8545,59.936 24.2336,59.9697 24.4531,59.9836 24.6852,59.9997 24.9296,60.0176 25.1861,60.0371 25.4542,60.0577 25.7336,60.0791 26.0241,60.1009 26.3253,60.1228 26.6368,60.1445 26.9584,60.1656 27.2898,60.1858 27.6306,60.2046 27.9805,60.2218 28.3391,60.237" stroke="black" /><polyline fill="none" points="28.3391,63.9763 29.0824,64.0058 29.8576,64.0413 30.6624,64.0798 31.4942,64.1181 32.3506,64.153 33.2291,64.1813 34.1273,64.1999 35.0426,64.2133 35.973,64.2269 36.916,64.2407 37.869,64.2545 38.8296,64.2685 39.7953,64.2824 40.7635,64.2965 41.7315,64.2857 42.6975,64.2717 43.6589,64.2578 44.6135,64.2439 45.5587,64.2302 46.492,64.2165 47.4112,64.203 48.3138,64.1879 49.1973,64.1624 50.0591,64.1291 50.8969,64.0912 51.7084,64.0522 52.491,64.0153 53.2426,63.9839 53.96,63.9537 54.641,63.9159 55.2834,63.8735 55.8847,63.8295 56.4425,63.7866 56.9545,63.7477 57.4182,63.7157 57.8315,63.6818 58.1917,63.649 58.4962,63.6213 58.7426,63.5988 58.9285,63.582 59.0515,63.5708 59.109,63.5656 59.099,63.5639 59.022,63.5569 58.8803,63.5439 58.6763,63.5253 58.4126,63.5013 58.0915,63.472 57.7154,63.4378 57.287,63.4056 56.8088,63.3706 56.2831,63.3298 55.7122,63.2861 55.0986,63.2424 54.4446,63.2014 53.7527,63.1661 53.0249,63.1372 52.264,63.1034 51.4726,63.0654 50.6532,63.0263 49.808,62.9894 48.9396,62.9579 48.0502,62.935 47.1425,62.9212 46.2189,62.9078 45.2818,62.8942 44.3336,62.8804 43.3767,62.8666 42.4137,62.8527 41.4469,62.8387 40.4786,62.8363 39.5109,62.8504 38.5464,62.8645 37.5878,62.8785 36.6375,62.8924 35.698,62.906 34.7717,62.9192 33.8612,62.9325 32.9686,62.9545 32.0963,62.9851 31.2469,63.0214 30.4227,63.0601 29.6264,63.0981 28.8603,63.1322 28.1271,63.161 27.429,63.1958 26.7681,63.2362 26.1468,63.2796 25.5679,63.3231 25.0338,63.3642 24.5471,63.4001 24.1102,63.4313 23.7245,63.4663 23.3935,63.4965 23.1194,63.5215 22.9048,63.541 22.752,63.555 22.6634,63.5631 22.6415,63.5653 22.6872,63.5693 22.7987,63.5792 22.9736,63.5947 23.2095,63.6158 23.5039,63.6422 23.8545,63.674 24.2336,63.7077 24.4531,63.7219 24.6852,63.7381 24.9296,63.7562 25.1861,63.7757 25.4542,63.7963 25.7336,63.8177 26.0241,63.8396 26.3253,63.8615 26.6368,63.8832 26.9584,63.9043 27.2898,63.9245 27.6306,63.9435 27.9805,63.9609 28.3391,63.9763" stroke="black" /><polyline fill="none" points="28.3391,67.7139 29.0824,67.7439 29.8576,67.7797 30.6624,67.8182 31.4942,67.8563 32.3506,67.891 33.2291,67.9192 34.1273,67.9379 35.0426,67.9517 35.973,67.9656 36.916,67.9793 37.869,67.993 38.8296,68.0068 39.7953,68.0206 40.7635,68.0345 41.7315,68.0238 42.6975,68.01 43.6589,67.9964 44.6135,67.9828 45.5587,67.9693 46.492,67.9558 47.4112,67.9424 48.3138,67.927 49.1973,67.9013 50.0591,67.868 50.8969,67.8301 51.7084,67.791 52.491,67.754 53.2426,67.7221 53.96,67.6921 54.641,67.6547 55.2834,67.6126 55.8847,67.5687 56.4425,67.5259 56.9545,67.487 57.4182,67.4551 57.8315,67.4208 58.1917,67.3875 58.4962,67.3594 58.7426,67.3367 58.9285,67.3196 59.0515,67.3084 59.109,67.3031 59.099,67.3014 59.022,67.2944 58.8803,67.2816 58.6763,67.263 58.4126,67.239 58.0915,67.2098 57.7154,67.1755 57.287,67.1433 56.8088,67.1085 56.2831,67.0678 55.7122,67.0241 55.0986,66.9803 54.4446,66.9392 53.7527,66.9037 53.0249,66.8751 52.264,66.8417 51.4726,66.8038 50.6532,66.7646 49.808,66.7275 48.9396,66.6959 48.0502,66.673 47.1425,66.6595 46.2189,66.6465 45.2818,66.6332 44.3336,66.6196 43.3767,66.6059 42.4137,66.592 41.4469,66.578 40.4786,66.5756 39.5109,66.5895 38.5464,66.6035 37.5878,66.6173 36.6375,66.6311 35.698,66.6447 34.7717,66.6582 33.8612,66.6718 32.9686,66.6936 32.0963,66.7241 31.2469,66.7601 30.4227,66.7987 29.6264,66.8367 28.8603,66.8711 28.1271,66.9002 27.429,66.9347 26.7681,66.9751 26.1468,67.0186 25.5679,67.0623 25.0338,67.1036 24.5471,67.1395 24.1102,67.1705 23.7245,67.2051 23.3935,67.2348 23.1194,67.2595 22.9048,67.2788 22.752,67.2926 22.6634,67.3006 22.6415,67.3028 22.6872,67.307 22.7987,67.3172 22.9736,67.3331 23.2095,67.3546 23.5039,67.3815 23.8545,67.4134 24.2336,67.4471 24.4531,67.4612 24.6852,67.4775 24.9296,67.4955 25.1861,67.515 25.4542,67.5356 25.7336,67.557 26.0241,67.5787 26.3253,67.6005 26.6368,67.6221 26.9584,67.6431 27.2898,67.663 27.6306,67.6817 27.9805,67.6988 28.3391,67.7139" stroke="black" /><polyline fill="none" points="28.3391,71.4537 29.0824,71.4836 29.8576,71.5193 30.6624,71.5577 31.4942,71.5957 32.3506,71.6302 33.2291,71.658 34.1273,71.676 35.0426,71.6899 35.973,71.7038 36.916,71.7178 37.869,71.7318 38.8296,71.7458 39.7953,71.7598 40.7635,71.7739 41.7315,71.7631 42.6975,71.7492 43.6589,71.7353 44.6135,71.7216 45.5587,71.7082 46.492,71.6949 47.4112,71.682 48.3138,71.6666 49.1973,71.6406 50.0591,71.6069 50.8969,71.5688 51.7084,71.5296 52.491,71.4927 53.2426,71.4613 53.96,71.4316 54.641,71.3942 55.2834,71.3521 55.8847,71.3079 56.4425,71.2648 56.9545,71.2254 57.4182,71.1928 57.8315,71.1589 58.1917,71.1261 58.4962,71.0984 58.7426,71.0759 58.9285,71.059 59.0515,71.0477 59.109,71.0425 59.099,71.0408 59.022,71.0338 58.8803,71.0209 58.6763,71.0022 58.4126,70.978 58.0915,70.9485 57.7154,70.9137 57.287,70.8816 56.8088,70.8472 56.2831,70.8067 55.7122,70.7631 55.0986,70.7192 54.4446,70.6779 53.7527,70.642 53.0249,70.6131 52.264,70.5798 51.4726,70.5419 50.6532,70.5028 49.808,70.4659 48.9396,70.4346 48.0502,70.4121 47.1425,70.3987 46.2189,70.3853 45.2818,70.372 44.3336,70.3585 43.3767,70.3449 42.4137,70.3312 41.4469,70.3174 40.4786,70.3149 39.5109,70.3288 38.5464,70.3426 37.5878,70.3563 36.6375,70.37 35.698,70.3837 34.7717,70.3976 33.8612,70.4116 32.9686,70.4332 32.0963,70.4635 31.2469,70.4994 30.4227,70.5378 29.6264,70.5755 28.8603,70.6095 28.1271,70.6382 27.429,70.6728 26.7681,70.7134 26.1468,70.757 25.5679,70.8008 25.0338,70.8419 24.5471,70.8775 24.1102,70.9082 23.7245,70.9434 23.3935,70.9736 23.1194,70.9986 22.9048,71.0181 22.752,71.032 22.6634,71.04 22.6415,71.0422 22.6872,71.0464 22.7987,71.0565 22.9736,71.0724 23.2095,71.0938 23.5039,71.1203 23.8545,71.1519 24.2336,71.1851 24.4531,71.1993 24.6852,71.2156 24.9296,71.2337 25.1861,71.2533 25.4542,71.274 25.7336,71.2955 26.0241,71.3174 26.3253,71.3394 26.6368,71.3612 26.9584,71.3823 27.2898,71.4024 27.6306,71.4213 27.9805,71.4385 28.3391,71.4537" stroke="black" /><polyline fill="none" points="-0.498,-75.444 -0.5019,-75.4264 -0.5135,-75.3743 -0.5324,-75.2892 -0.5583,-75.1724 -0.5911,-75.0252 -0.6304,-74.849 -0.6758,-74.6451 -0.7198,-74.4143 -0.7712,-74.1582 -0.8282,-73.8778 -0.8886,-73.5742 -0.9502,-73.2486 -1.0107,-72.9019 -1.0679,-72.5353 -1.1237,-72.1505 -1.1856,-71.7493 -1.2511,-71.3327 -1.3178,-70.902 -1.3829,-70.4581 -1.444,-70.0022 -1.4985,-69.5354 -1.5492,-69.0589 -1.6009,-68.5744 -1.6531,-68.0831 -1.7058,-67.5865 -1.7588,-67.0859 -1.812,-66.5824 -1.8653,-66.0776 -1.9013,-65.5706 -1.9319,-65.0641 -1.9624,-64.5598 -1.9926,-64.0591 -2.0225,-63.5633 -2.0521,-63.0738 -2.0813,-62.5918 -2.1091,-62.118 -2.1281,-61.6533 -2.1395,-61.1991 -2.1459,-60.7571 -2.1498,-60.3286 -2.1537,-59.9152 -2.1602,-59.5183 -2.1682,-59.1393 -2.1689,-58.7787 -2.1637,-58.4377 -2.1549,-58.1178 -2.1447,-57.8203 -2.1353,-57.5467 -2.1289,-57.2984 -2.1204,-57.0767 -2.1097,-56.8832 -2.1006,-56.719 -2.0933,-56.5854 -2.0879,-56.4836 -2.0842,-56.4149 -2.0824,-56.3805 -2.0811,-56.3814 -2.0729,-56.4171 -2.057,-56.4862 -2.0337,-56.5877 -2.0032,-56.7202 -1.966,-56.8827 -1.9223,-57.0739 -1.8775,-57.2926 -1.8302,-57.5373 -1.7755,-57.8066 -1.7159,-58.0996 -1.6541,-58.4151 -1.5924,-58.7519 -1.5334,-59.1088 -1.4788,-59.485 -1.4198,-59.8785 -1.3556,-60.2877 -1.2889,-60.7117 -1.2224,-61.1495 -1.1589,-61.6 -1.1011,-62.0622 -1.0505,-62.5348 -1.0002,-63.0157 -0.949,-63.5039 -0.897,-63.9981 -0.8444,-64.497 -0.7914,-64.9993 -0.7381,-65.5036 -0.6915,-66.0093 -0.6609,-66.5166 -0.6304,-67.0222 -0.6,-67.5247 -0.5699,-68.0229 -0.5401,-68.5155 -0.5108,-69.0011 -0.4818,-69.4787 -0.4592,-69.9479 -0.4448,-70.4073 -0.4363,-70.8552 -0.4312,-71.2902 -0.4271,-71.7109 -0.4218,-72.1157 -0.4133,-72.5033 -0.4097,-72.8729 -0.4127,-73.2235 -0.4202,-73.5537 -0.4299,-73.8619 -0.4397,-74.1466 -0.4475,-74.4064 -0.4515,-74.6267 -0.4576,-74.7346 -0.4634,-74.8355 -0.4687,-74.9293 -0.4736,-75.0158 -0.4781,-75.0949 -0.4821,-75.1664 -0.4858,-75.2301 -0.489,-75.2858 -0.4917,-75.3334 -0.4939,-75.3728 -0.4957,-75.4037 -0.497,-75.426 -0.4977,-75.4395 -0.498,-75.444" stroke="black" /><polyline fill="none" points="-31.4715,-51.4846 -31.4275,-51.7129 -31.3756,-51.9657 -31.3179,-52.2422 -31.2565,-52.5412 -31.1936,-52.8618 -31.1311,-53.2028 -31.0713,-53.5632 -31.0119,-53.941 -30.9465,-54.3349 -30.8774,-54.744 -30.807,-55.1671 -30.7377,-55.6032 -30.6718,-56.0512 -30.6117,-56.5101 -30.5546,-56.9783 -30.4965,-57.4542 -30.4374,-57.9365 -30.3776,-58.424 -30.3172,-58.9155 -30.2563,-59.4099 -30.1949,-59.9059 -30.1501,-60.4032 -30.1087,-60.9 -30.0673,-61.3945 -30.0262,-61.8856 -29.9856,-62.3719 -29.9455,-62.852 -29.9062,-63.3247 -29.8692,-63.789 -29.8398,-64.2443 -29.8168,-64.6892 -29.7979,-65.1221 -29.7812,-65.5417 -29.7646,-65.9464 -29.7461,-66.3347 -29.7287,-66.706 -29.7183,-67.0594 -29.7129,-67.3933 -29.7108,-67.7063 -29.7103,-67.9971 -29.7096,-68.2641 -29.707,-68.506 -29.7078,-68.7219 -29.7114,-68.9104 -29.7145,-69.0701 -29.7171,-69.1997 -29.7191,-69.298 -29.7205,-69.3637 -29.7212,-69.3956 -29.7226,-69.3926 -29.7309,-69.3556 -29.7465,-69.2857 -29.7692,-69.1842 -29.7989,-69.0523 -29.8352,-68.8914 -29.8779,-68.7025 -29.9226,-68.4866 -29.9712,-68.2452 -30.0263,-67.9797 -30.0859,-67.6912 -30.1481,-67.3809 -30.2109,-67.0497 -30.2722,-66.6987 -30.3307,-66.3288 -30.3935,-65.9419 -30.4611,-65.5396 -30.531,-65.1227 -30.6011,-64.6925 -30.669,-64.2499 -30.7323,-63.796 -30.7901,-63.3321 -30.8479,-62.86 -30.9068,-62.3807 -30.9665,-61.8956 -31.0268,-61.4059 -31.0875,-60.9129 -31.1483,-60.4179 -31.2024,-59.9213 -31.2444,-59.4234 -31.2861,-58.9274 -31.3276,-58.4345 -31.3686,-57.9459 -31.4091,-57.4626 -31.4488,-56.986 -31.4881,-56.5174 -31.5217,-56.0577 -31.5477,-55.6077 -31.5682,-55.1689 -31.5853,-54.7428 -31.6012,-54.3309 -31.6181,-53.9347 -31.6374,-53.5555 -31.6512,-53.1934 -31.6587,-52.8502 -31.6617,-52.5272 -31.6623,-52.226 -31.6622,-51.9478 -31.6633,-51.6943 -31.6657,-51.4664 -31.6619,-51.2642 -31.6588,-51.0904 -31.6564,-50.9463 -31.6545,-50.833 -31.6532,-50.7518 -31.6524,-50.7039 -31.6522,-50.6903 -31.651,-50.6956 -31.6478,-50.7095 -31.6427,-50.7317 -31.6358,-50.7621 -31.627,-50.8006 -31.6165,-50.8471 -31.6041,-50.9012 -31.5901,-50.963 -31.5743,-51.0322 -31.5569,-51.1087 -31.5379,-51.1924 -31.5173,-51.283 -31.4952,-51.3805 -31.4715,-51.4846" stroke="black" /></g></svg>